G04 #@! TF.GenerationSoftware,KiCad,Pcbnew,(5.0.1)*
G04 #@! TF.CreationDate,2018-11-27T11:11:20+09:00*
G04 #@! TF.ProjectId,cable_breakout,6361626C655F627265616B6F75742E6B,rev?*
G04 #@! TF.SameCoordinates,Original*
G04 #@! TF.FileFunction,Copper,L1,Top,Signal*
G04 #@! TF.FilePolarity,Positive*
%FSLAX46Y46*%
G04 Gerber Fmt 4.6, Leading zero omitted, Abs format (unit mm)*
G04 Created by KiCad (PCBNEW (5.0.1)) date Tue Nov 27 11:11:20 2018*
%MOMM*%
%LPD*%
G01*
G04 APERTURE LIST*
G04 #@! TA.AperFunction,NonConductor*
%ADD10C,0.150000*%
G04 #@! TD*
G04 #@! TA.AperFunction,SMDPad,CuDef*
%ADD11R,1.000000X2.000000*%
G04 #@! TD*
G04 #@! TA.AperFunction,SMDPad,CuDef*
%ADD12R,2.000000X1.300000*%
G04 #@! TD*
G04 #@! TA.AperFunction,SMDPad,CuDef*
%ADD13R,1.400000X2.000000*%
G04 #@! TD*
G04 #@! TA.AperFunction,ComponentPad*
%ADD14C,1.200000*%
G04 #@! TD*
G04 #@! TA.AperFunction,SMDPad,CuDef*
%ADD15R,3.000000X1.000000*%
G04 #@! TD*
G04 #@! TA.AperFunction,ComponentPad*
%ADD16C,1.000000*%
G04 #@! TD*
G04 #@! TA.AperFunction,ViaPad*
%ADD17C,0.450000*%
G04 #@! TD*
G04 #@! TA.AperFunction,Conductor*
%ADD18C,0.254000*%
G04 #@! TD*
G04 #@! TA.AperFunction,Conductor*
%ADD19C,0.150000*%
G04 #@! TD*
G04 APERTURE END LIST*
D10*
X117500000Y-130000000D02*
X120000000Y-130000000D01*
X117500000Y-129000000D02*
X117500000Y-130000000D01*
X112500000Y-129000000D02*
X117500000Y-129000000D01*
X112500000Y-130000000D02*
X112500000Y-129000000D01*
X110000000Y-130000000D02*
X112500000Y-130000000D01*
X117500000Y-100000000D02*
X120000000Y-100000000D01*
X117500000Y-101000000D02*
X117500000Y-100000000D01*
X112500000Y-101000000D02*
X117500000Y-101000000D01*
X112500000Y-100000000D02*
X112500000Y-101000000D01*
X110000000Y-100000000D02*
X112500000Y-100000000D01*
X120000000Y-130000000D02*
X120000000Y-140000000D01*
X120000000Y-90000000D02*
X120000000Y-100000000D01*
X155000000Y-140000000D02*
X155000000Y-90000000D01*
X120000000Y-140000000D02*
X155000000Y-140000000D01*
X155000000Y-90000000D02*
X120000000Y-90000000D01*
X110000000Y-130000000D02*
X110000000Y-100000000D01*
D11*
G04 #@! TO.P,TP1,1*
G04 #@! TO.N,Net-(J1-Pad3)*
X123000000Y-138000000D03*
G04 #@! TD*
G04 #@! TO.P,TP2,1*
G04 #@! TO.N,Net-(J1-Pad1)*
X121000000Y-138000000D03*
G04 #@! TD*
G04 #@! TO.P,TP9,1*
G04 #@! TO.N,GNDD*
X127000000Y-138000000D03*
G04 #@! TD*
G04 #@! TO.P,TP10,1*
G04 #@! TO.N,VDD*
X125000000Y-138000000D03*
G04 #@! TD*
D12*
G04 #@! TO.P,J2,1*
G04 #@! TO.N,/8P*
X146800000Y-96250000D03*
D13*
G04 #@! TO.P,J2,2*
G04 #@! TO.N,/BIAS*
X144800000Y-96250000D03*
D14*
X144800000Y-94950000D03*
D15*
X145600000Y-97650000D03*
X145600000Y-94850000D03*
D14*
X144800000Y-97550000D03*
D16*
G04 #@! TO.P,J2,1*
G04 #@! TO.N,/8P*
X146800000Y-96250000D03*
G04 #@! TD*
D12*
G04 #@! TO.P,J4,1*
G04 #@! TO.N,/8N*
X152800000Y-98750000D03*
D13*
G04 #@! TO.P,J4,2*
G04 #@! TO.N,/BIAS*
X150800000Y-98750000D03*
D14*
X150800000Y-97450000D03*
D15*
X151600000Y-100150000D03*
X151600000Y-97350000D03*
D14*
X150800000Y-100050000D03*
D16*
G04 #@! TO.P,J4,1*
G04 #@! TO.N,/8N*
X152800000Y-98750000D03*
G04 #@! TD*
D12*
G04 #@! TO.P,J5,1*
G04 #@! TO.N,/7P*
X146800000Y-101250000D03*
D13*
G04 #@! TO.P,J5,2*
G04 #@! TO.N,/BIAS*
X144800000Y-101250000D03*
D14*
X144800000Y-99950000D03*
D15*
X145600000Y-102650000D03*
X145600000Y-99850000D03*
D14*
X144800000Y-102550000D03*
D16*
G04 #@! TO.P,J5,1*
G04 #@! TO.N,/7P*
X146800000Y-101250000D03*
G04 #@! TD*
D12*
G04 #@! TO.P,J6,1*
G04 #@! TO.N,/7N*
X152800000Y-103750000D03*
D13*
G04 #@! TO.P,J6,2*
G04 #@! TO.N,/BIAS*
X150800000Y-103750000D03*
D14*
X150800000Y-102450000D03*
D15*
X151600000Y-105150000D03*
X151600000Y-102350000D03*
D14*
X150800000Y-105050000D03*
D16*
G04 #@! TO.P,J6,1*
G04 #@! TO.N,/7N*
X152800000Y-103750000D03*
G04 #@! TD*
D12*
G04 #@! TO.P,J7,1*
G04 #@! TO.N,/6P*
X146800000Y-106250000D03*
D13*
G04 #@! TO.P,J7,2*
G04 #@! TO.N,/BIAS*
X144800000Y-106250000D03*
D14*
X144800000Y-104950000D03*
D15*
X145600000Y-107650000D03*
X145600000Y-104850000D03*
D14*
X144800000Y-107550000D03*
D16*
G04 #@! TO.P,J7,1*
G04 #@! TO.N,/6P*
X146800000Y-106250000D03*
G04 #@! TD*
D12*
G04 #@! TO.P,J8,1*
G04 #@! TO.N,/6N*
X152800000Y-108750000D03*
D13*
G04 #@! TO.P,J8,2*
G04 #@! TO.N,/BIAS*
X150800000Y-108750000D03*
D14*
X150800000Y-107450000D03*
D15*
X151600000Y-110150000D03*
X151600000Y-107350000D03*
D14*
X150800000Y-110050000D03*
D16*
G04 #@! TO.P,J8,1*
G04 #@! TO.N,/6N*
X152800000Y-108750000D03*
G04 #@! TD*
D12*
G04 #@! TO.P,J9,1*
G04 #@! TO.N,/5P*
X146800000Y-111250000D03*
D13*
G04 #@! TO.P,J9,2*
G04 #@! TO.N,/BIAS*
X144800000Y-111250000D03*
D14*
X144800000Y-109950000D03*
D15*
X145600000Y-112650000D03*
X145600000Y-109850000D03*
D14*
X144800000Y-112550000D03*
D16*
G04 #@! TO.P,J9,1*
G04 #@! TO.N,/5P*
X146800000Y-111250000D03*
G04 #@! TD*
D12*
G04 #@! TO.P,J10,1*
G04 #@! TO.N,/5N*
X152800000Y-113750000D03*
D13*
G04 #@! TO.P,J10,2*
G04 #@! TO.N,/BIAS*
X150800000Y-113750000D03*
D14*
X150800000Y-112450000D03*
D15*
X151600000Y-115150000D03*
X151600000Y-112350000D03*
D14*
X150800000Y-115050000D03*
D16*
G04 #@! TO.P,J10,1*
G04 #@! TO.N,/5N*
X152800000Y-113750000D03*
G04 #@! TD*
D12*
G04 #@! TO.P,J11,1*
G04 #@! TO.N,/4P*
X146800000Y-116250000D03*
D13*
G04 #@! TO.P,J11,2*
G04 #@! TO.N,/BIAS*
X144800000Y-116250000D03*
D14*
X144800000Y-114950000D03*
D15*
X145600000Y-117650000D03*
X145600000Y-114850000D03*
D14*
X144800000Y-117550000D03*
D16*
G04 #@! TO.P,J11,1*
G04 #@! TO.N,/4P*
X146800000Y-116250000D03*
G04 #@! TD*
D12*
G04 #@! TO.P,J12,1*
G04 #@! TO.N,/4N*
X152800000Y-118750000D03*
D13*
G04 #@! TO.P,J12,2*
G04 #@! TO.N,/BIAS*
X150800000Y-118750000D03*
D14*
X150800000Y-117450000D03*
D15*
X151600000Y-120150000D03*
X151600000Y-117350000D03*
D14*
X150800000Y-120050000D03*
D16*
G04 #@! TO.P,J12,1*
G04 #@! TO.N,/4N*
X152800000Y-118750000D03*
G04 #@! TD*
D12*
G04 #@! TO.P,J13,1*
G04 #@! TO.N,/3P*
X146800000Y-121250000D03*
D13*
G04 #@! TO.P,J13,2*
G04 #@! TO.N,/BIAS*
X144800000Y-121250000D03*
D14*
X144800000Y-119950000D03*
D15*
X145600000Y-122650000D03*
X145600000Y-119850000D03*
D14*
X144800000Y-122550000D03*
D16*
G04 #@! TO.P,J13,1*
G04 #@! TO.N,/3P*
X146800000Y-121250000D03*
G04 #@! TD*
D12*
G04 #@! TO.P,J14,1*
G04 #@! TO.N,/3N*
X152800000Y-123750000D03*
D13*
G04 #@! TO.P,J14,2*
G04 #@! TO.N,/BIAS*
X150800000Y-123750000D03*
D14*
X150800000Y-122450000D03*
D15*
X151600000Y-125150000D03*
X151600000Y-122350000D03*
D14*
X150800000Y-125050000D03*
D16*
G04 #@! TO.P,J14,1*
G04 #@! TO.N,/3N*
X152800000Y-123750000D03*
G04 #@! TD*
D12*
G04 #@! TO.P,J15,1*
G04 #@! TO.N,/2P*
X146800000Y-126250000D03*
D13*
G04 #@! TO.P,J15,2*
G04 #@! TO.N,/BIAS*
X144800000Y-126250000D03*
D14*
X144800000Y-124950000D03*
D15*
X145600000Y-127650000D03*
X145600000Y-124850000D03*
D14*
X144800000Y-127550000D03*
D16*
G04 #@! TO.P,J15,1*
G04 #@! TO.N,/2P*
X146800000Y-126250000D03*
G04 #@! TD*
D12*
G04 #@! TO.P,J16,1*
G04 #@! TO.N,/2N*
X152800000Y-128750000D03*
D13*
G04 #@! TO.P,J16,2*
G04 #@! TO.N,/BIAS*
X150800000Y-128750000D03*
D14*
X150800000Y-127450000D03*
D15*
X151600000Y-130150000D03*
X151600000Y-127350000D03*
D14*
X150800000Y-130050000D03*
D16*
G04 #@! TO.P,J16,1*
G04 #@! TO.N,/2N*
X152800000Y-128750000D03*
G04 #@! TD*
D12*
G04 #@! TO.P,J17,1*
G04 #@! TO.N,/1P*
X146800000Y-131250000D03*
D13*
G04 #@! TO.P,J17,2*
G04 #@! TO.N,/BIAS*
X144800000Y-131250000D03*
D14*
X144800000Y-129950000D03*
D15*
X145600000Y-132650000D03*
X145600000Y-129850000D03*
D14*
X144800000Y-132550000D03*
D16*
G04 #@! TO.P,J17,1*
G04 #@! TO.N,/1P*
X146800000Y-131250000D03*
G04 #@! TD*
D12*
G04 #@! TO.P,J18,1*
G04 #@! TO.N,/1N*
X152800000Y-133750000D03*
D13*
G04 #@! TO.P,J18,2*
G04 #@! TO.N,/BIAS*
X150800000Y-133750000D03*
D14*
X150800000Y-132450000D03*
D15*
X151600000Y-135150000D03*
X151600000Y-132350000D03*
D14*
X150800000Y-135050000D03*
D16*
G04 #@! TO.P,J18,1*
G04 #@! TO.N,/1N*
X152800000Y-133750000D03*
G04 #@! TD*
D11*
G04 #@! TO.P,TP3,1*
G04 #@! TO.N,Net-(J3-Pad39)*
X125000000Y-92000000D03*
G04 #@! TD*
G04 #@! TO.P,TP4,1*
G04 #@! TO.N,Net-(J3-Pad37)*
X127000000Y-92000000D03*
G04 #@! TD*
G04 #@! TO.P,TP5,1*
G04 #@! TO.N,/SDA_PT*
X121000000Y-92000000D03*
G04 #@! TD*
G04 #@! TO.P,TP6,1*
G04 #@! TO.N,/SCL_PT*
X123000000Y-92000000D03*
G04 #@! TD*
G04 #@! TO.P,TP7,1*
G04 #@! TO.N,Net-(J1-Pad37)*
X141000000Y-138000000D03*
G04 #@! TD*
G04 #@! TO.P,TP8,1*
G04 #@! TO.N,VSSA*
X143000000Y-138000000D03*
G04 #@! TD*
D17*
G04 #@! TO.N,*
X128000000Y-139000000D03*
X129200000Y-139000000D03*
X130800000Y-139000000D03*
X132400000Y-139000004D03*
X134000000Y-139000000D03*
X135600000Y-139000000D03*
X137200000Y-139000000D03*
G04 #@! TO.N,VSSA*
X139600000Y-139000000D03*
X139600000Y-91200000D03*
X137200000Y-91200000D03*
X135600000Y-91200000D03*
X134000000Y-91200000D03*
X132400000Y-91200000D03*
X130800000Y-91200000D03*
X129200000Y-91200000D03*
G04 #@! TO.N,GNDD*
X126800000Y-135400004D03*
G04 #@! TO.N,VDD*
X125000000Y-135399994D03*
G04 #@! TO.N,Net-(J1-Pad1)*
X123000000Y-136000000D03*
G04 #@! TO.N,/SDA_PT*
X124400000Y-99200000D03*
G04 #@! TO.N,Net-(J1-Pad3)*
X122575735Y-136502000D03*
G04 #@! TO.N,/SCL_PT*
X125200000Y-99200000D03*
G04 #@! TO.N,Net-(J3-Pad37)*
X128400000Y-90600000D03*
G04 #@! TO.N,Net-(J3-Pad39)*
X124200000Y-90600000D03*
G04 #@! TO.N,/4N*
X128400000Y-130600006D03*
G04 #@! TO.N,/4P*
X129200000Y-128400000D03*
G04 #@! TO.N,/3N*
X130800000Y-130600000D03*
G04 #@! TO.N,/3P*
X131600000Y-128800000D03*
G04 #@! TO.N,/2N*
X133200000Y-130600000D03*
G04 #@! TO.N,/2P*
X134000000Y-129200000D03*
G04 #@! TO.N,/1N*
X135600000Y-130600000D03*
G04 #@! TO.N,/1P*
X136399998Y-129600000D03*
G04 #@! TO.N,/8N*
X136400000Y-100200000D03*
G04 #@! TO.N,/8P*
X135600000Y-99400000D03*
G04 #@! TO.N,/7N*
X134000000Y-100800000D03*
G04 #@! TO.N,/7P*
X133200000Y-99400000D03*
G04 #@! TO.N,/6N*
X131600000Y-101200000D03*
G04 #@! TO.N,/6P*
X130600000Y-99400000D03*
G04 #@! TO.N,/5N*
X129200000Y-101600000D03*
G04 #@! TO.N,/5P*
X128400000Y-99400000D03*
G04 #@! TO.N,Net-(J1-Pad37)*
X138750000Y-139000000D03*
G04 #@! TD*
D18*
G04 #@! TO.N,*
X129200000Y-139000000D02*
X128000000Y-139000000D01*
X132400000Y-139000004D02*
X130800004Y-139000004D01*
X130800004Y-139000004D02*
X130800000Y-139000000D01*
X135600000Y-139000000D02*
X134000000Y-139000000D01*
G04 #@! TO.N,VSSA*
X135600000Y-91200000D02*
X137200000Y-91200000D01*
X132400000Y-91200000D02*
X134000000Y-91200000D01*
X129200000Y-91200000D02*
X130800000Y-91200000D01*
G04 #@! TO.N,GNDD*
X127000000Y-135600004D02*
X126800000Y-135400004D01*
X127000000Y-138000000D02*
X127000000Y-135600004D01*
G04 #@! TO.N,VDD*
X125000000Y-138000000D02*
X125000000Y-135399994D01*
G04 #@! TO.N,/BIAS*
X145600000Y-119850000D02*
X144900000Y-119850000D01*
X144900000Y-119850000D02*
X144800000Y-119950000D01*
X145600000Y-129850000D02*
X144900000Y-129850000D01*
X144900000Y-129850000D02*
X144800000Y-129950000D01*
X144800000Y-131250000D02*
X144800000Y-132550000D01*
X150800000Y-108750000D02*
X150800000Y-110050000D01*
X144800000Y-101250000D02*
X144800000Y-102550000D01*
D19*
X150800000Y-133750000D02*
X150800000Y-135050000D01*
X150800000Y-127450000D02*
X150800000Y-128750000D01*
X150800000Y-127450000D02*
X150800000Y-130050000D01*
X150800000Y-118750000D02*
X150800000Y-120050000D01*
X150800000Y-112450000D02*
X150800000Y-113750000D01*
X150800000Y-103750000D02*
X150800000Y-105050000D01*
X144800000Y-96250000D02*
X144800000Y-94950000D01*
D18*
G04 #@! TO.N,Net-(J1-Pad1)*
X121000000Y-138000000D02*
X121000000Y-136400000D01*
X121000000Y-136400000D02*
X121400000Y-136000000D01*
X121400000Y-136000000D02*
X123000000Y-136000000D01*
G04 #@! TO.N,/SDA_PT*
X124400000Y-99200000D02*
X124400000Y-95400000D01*
X122254000Y-93254000D02*
X121754000Y-93254000D01*
X121754000Y-93254000D02*
X121000000Y-92500000D01*
X124400000Y-95400000D02*
X122254000Y-93254000D01*
X121000000Y-92500000D02*
X121000000Y-92000000D01*
G04 #@! TO.N,Net-(J1-Pad3)*
X123000000Y-138000000D02*
X123000000Y-136926265D01*
X123000000Y-136926265D02*
X122575735Y-136502000D01*
G04 #@! TO.N,/SCL_PT*
X125200000Y-95454000D02*
X125200000Y-99200000D01*
X123000000Y-92000000D02*
X123000000Y-93254000D01*
X123000000Y-93254000D02*
X125200000Y-95454000D01*
G04 #@! TO.N,Net-(J3-Pad37)*
X127000000Y-92000000D02*
X128400000Y-90600000D01*
G04 #@! TO.N,Net-(J3-Pad39)*
X125000000Y-92000000D02*
X125000000Y-91400000D01*
X125000000Y-91400000D02*
X124200000Y-90600000D01*
G04 #@! TO.N,/4N*
X153200000Y-121200000D02*
X149400000Y-121200000D01*
X149400000Y-121200000D02*
X147200000Y-119000000D01*
X152800000Y-118750000D02*
X153150000Y-118750000D01*
X153150000Y-118750000D02*
X154054000Y-119654000D01*
X154054000Y-119654000D02*
X154054000Y-120346000D01*
X154054000Y-120346000D02*
X153200000Y-121200000D01*
X140000000Y-119000000D02*
X128400000Y-130600000D01*
X147200000Y-119000000D02*
X140000000Y-119000000D01*
X128400000Y-130600000D02*
X128400000Y-130600006D01*
G04 #@! TO.N,/4P*
X129424999Y-128175001D02*
X129200000Y-128400000D01*
X139004011Y-118595989D02*
X129424999Y-128175001D01*
X147204011Y-118595989D02*
X139004011Y-118595989D01*
X148054000Y-117154000D02*
X148054000Y-117746000D01*
X148054000Y-117746000D02*
X147204011Y-118595989D01*
X147150000Y-116250000D02*
X148054000Y-117154000D01*
X146800000Y-116250000D02*
X147150000Y-116250000D01*
G04 #@! TO.N,/3N*
X136800000Y-125000000D02*
X131200000Y-130600000D01*
X131200000Y-130600000D02*
X131000000Y-130600000D01*
X131000000Y-130600000D02*
X130800000Y-130600000D01*
X141500000Y-123831011D02*
X137968989Y-123831011D01*
X137968989Y-123831011D02*
X136800000Y-125000000D01*
X141500000Y-123831011D02*
X147231011Y-123831011D01*
X140401679Y-123831011D02*
X141500000Y-123831011D01*
X153800000Y-125600000D02*
X153800000Y-124600000D01*
X147231011Y-123831011D02*
X149600000Y-126200000D01*
X149600000Y-126200000D02*
X153200000Y-126200000D01*
X153200000Y-126200000D02*
X153800000Y-125600000D01*
X153800000Y-124600000D02*
X152950000Y-123750000D01*
X152950000Y-123750000D02*
X152800000Y-123750000D01*
G04 #@! TO.N,/3P*
X136972999Y-123427001D02*
X131824999Y-128575001D01*
X147372999Y-123427001D02*
X136972999Y-123427001D01*
X148054000Y-122746000D02*
X147372999Y-123427001D01*
X147150000Y-121250000D02*
X148054000Y-122154000D01*
X146800000Y-121250000D02*
X147150000Y-121250000D01*
X131824999Y-128575001D02*
X131600000Y-128800000D01*
X148054000Y-122154000D02*
X148054000Y-122746000D01*
G04 #@! TO.N,/2N*
X133518198Y-130600000D02*
X133200000Y-130600000D01*
X153200000Y-131200000D02*
X149400000Y-131200000D01*
X134000000Y-130600000D02*
X133518198Y-130600000D01*
X147204011Y-129004011D02*
X143204011Y-129004011D01*
X154054000Y-130346000D02*
X153200000Y-131200000D01*
X142800000Y-128600000D02*
X136000000Y-128600000D01*
X152800000Y-128750000D02*
X153150000Y-128750000D01*
X154054000Y-129654000D02*
X154054000Y-130346000D01*
X153150000Y-128750000D02*
X154054000Y-129654000D01*
X143204011Y-129004011D02*
X142800000Y-128600000D01*
X149400000Y-131200000D02*
X147204011Y-129004011D01*
X136000000Y-128600000D02*
X134000000Y-130600000D01*
G04 #@! TO.N,/2P*
X147148602Y-128600000D02*
X143371357Y-128600000D01*
X143371357Y-128600000D02*
X142371357Y-127600000D01*
X147150000Y-126250000D02*
X148054000Y-127154000D01*
X146800000Y-126250000D02*
X147150000Y-126250000D01*
X148054000Y-127154000D02*
X148054000Y-127694602D01*
X148054000Y-127694602D02*
X147148602Y-128600000D01*
X142371357Y-127600000D02*
X135600000Y-127600000D01*
X135600000Y-127600000D02*
X134224999Y-128975001D01*
X134224999Y-128975001D02*
X134000000Y-129200000D01*
G04 #@! TO.N,/1N*
X135600000Y-130600000D02*
X140000000Y-130600000D01*
X149400000Y-136200000D02*
X153200000Y-136200000D01*
X153150000Y-133750000D02*
X152800000Y-133750000D01*
X140000000Y-130600000D02*
X143400000Y-134000000D01*
X143400000Y-134000000D02*
X147200000Y-134000000D01*
X147200000Y-134000000D02*
X149400000Y-136200000D01*
X153200000Y-136200000D02*
X153800000Y-135600000D01*
X153800000Y-135600000D02*
X153800000Y-134400000D01*
X153800000Y-134400000D02*
X153150000Y-133750000D01*
G04 #@! TO.N,/1P*
X139600000Y-129600000D02*
X136718196Y-129600000D01*
X143427001Y-133427001D02*
X139600000Y-129600000D01*
X147321601Y-133427001D02*
X143427001Y-133427001D01*
X148054000Y-132154000D02*
X148054000Y-132694602D01*
X147150000Y-131250000D02*
X148054000Y-132154000D01*
X148054000Y-132694602D02*
X147321601Y-133427001D01*
X146800000Y-131250000D02*
X147150000Y-131250000D01*
X136718196Y-129600000D02*
X136399998Y-129600000D01*
G04 #@! TO.N,/8N*
X152800000Y-98750000D02*
X153150000Y-98750000D01*
X144000000Y-99000000D02*
X143200000Y-99800000D01*
X153150000Y-98750000D02*
X154054000Y-99654000D01*
X149600000Y-101200000D02*
X147400000Y-99000000D01*
X136800000Y-99800000D02*
X136600000Y-100000000D01*
X154054000Y-99654000D02*
X154054000Y-100546000D01*
X147400000Y-99000000D02*
X144000000Y-99000000D01*
X143200000Y-99800000D02*
X136800000Y-99800000D01*
X136600000Y-100000000D02*
X136400000Y-100200000D01*
X154054000Y-100546000D02*
X153400000Y-101200000D01*
X153400000Y-101200000D02*
X149600000Y-101200000D01*
G04 #@! TO.N,/8P*
X143828643Y-98600000D02*
X136400000Y-98600000D01*
X143832654Y-98595989D02*
X143828643Y-98600000D01*
X147404011Y-98595989D02*
X143832654Y-98595989D01*
X135824999Y-99175001D02*
X135600000Y-99400000D01*
X148054000Y-97946000D02*
X147404011Y-98595989D01*
X148054000Y-97154000D02*
X148054000Y-97946000D01*
X146800000Y-96250000D02*
X147150000Y-96250000D01*
X147150000Y-96250000D02*
X148054000Y-97154000D01*
X136400000Y-98600000D02*
X135824999Y-99175001D01*
G04 #@! TO.N,/7N*
X147343011Y-103943011D02*
X137143011Y-103943011D01*
X153400000Y-106200000D02*
X149600000Y-106200000D01*
X134224999Y-101024999D02*
X134000000Y-100800000D01*
X154054000Y-105546000D02*
X153400000Y-106200000D01*
X154054000Y-104654000D02*
X154054000Y-105546000D01*
X152800000Y-103750000D02*
X153150000Y-103750000D01*
X153150000Y-103750000D02*
X154054000Y-104654000D01*
X137143011Y-103943011D02*
X134224999Y-101024999D01*
X149600000Y-106200000D02*
X147343011Y-103943011D01*
G04 #@! TO.N,/7P*
X146800000Y-101250000D02*
X147150000Y-101250000D01*
X147150000Y-101250000D02*
X148054000Y-102154000D01*
X147461000Y-103539000D02*
X138139000Y-103539000D01*
X148054000Y-102154000D02*
X148054000Y-102946000D01*
X138139000Y-103539000D02*
X134000000Y-99400000D01*
X148054000Y-102946000D02*
X147461000Y-103539000D01*
X134000000Y-99400000D02*
X133518198Y-99400000D01*
X133518198Y-99400000D02*
X133200000Y-99400000D01*
G04 #@! TO.N,/6N*
X147404011Y-109004011D02*
X139404011Y-109004011D01*
X153200000Y-111200000D02*
X149600000Y-111200000D01*
X154054000Y-110346000D02*
X153200000Y-111200000D01*
X131824999Y-101424999D02*
X131600000Y-101200000D01*
X139404011Y-109004011D02*
X131824999Y-101424999D01*
X149600000Y-111200000D02*
X147404011Y-109004011D01*
X154054000Y-109654000D02*
X154054000Y-110346000D01*
X153150000Y-108750000D02*
X154054000Y-109654000D01*
X152800000Y-108750000D02*
X153150000Y-108750000D01*
G04 #@! TO.N,/6P*
X146800000Y-106250000D02*
X147150000Y-106250000D01*
X147150000Y-106250000D02*
X148054000Y-107154000D01*
X148054000Y-107154000D02*
X148054000Y-107946000D01*
X148054000Y-107946000D02*
X147400000Y-108600000D01*
X147400000Y-108600000D02*
X140400000Y-108600000D01*
X140400000Y-108600000D02*
X131200000Y-99400000D01*
X131200000Y-99400000D02*
X130918198Y-99400000D01*
X130918198Y-99400000D02*
X130600000Y-99400000D01*
G04 #@! TO.N,/5N*
X141604011Y-114004011D02*
X129424999Y-101824999D01*
X147404011Y-114004011D02*
X141604011Y-114004011D01*
X149600000Y-116200000D02*
X147404011Y-114004011D01*
X153200000Y-116200000D02*
X149600000Y-116200000D01*
X129424999Y-101824999D02*
X129200000Y-101600000D01*
X154054000Y-114654000D02*
X154054000Y-115346000D01*
X153150000Y-113750000D02*
X154054000Y-114654000D01*
X152800000Y-113750000D02*
X153150000Y-113750000D01*
X154054000Y-115346000D02*
X153200000Y-116200000D01*
G04 #@! TO.N,/5P*
X146800000Y-111250000D02*
X147150000Y-111250000D01*
X147150000Y-111250000D02*
X148054000Y-112154000D01*
X142600000Y-113600000D02*
X128600000Y-99600000D01*
X128600000Y-99600000D02*
X128400000Y-99400000D01*
X148054000Y-112154000D02*
X148054000Y-112946000D01*
X148054000Y-112946000D02*
X147400000Y-113600000D01*
X147400000Y-113600000D02*
X142600000Y-113600000D01*
G04 #@! TO.N,Net-(J1-Pad37)*
X138750000Y-139000000D02*
X139750000Y-138000000D01*
X139750000Y-138000000D02*
X141000000Y-138000000D01*
G04 #@! TD*
G04 #@! TO.N,VSSA*
G36*
X123774425Y-90315640D02*
X123698000Y-90500146D01*
X123698000Y-90699854D01*
X123774425Y-90884360D01*
X123915640Y-91025575D01*
X124100146Y-91102000D01*
X124130659Y-91102000D01*
X124217574Y-91188915D01*
X124217574Y-93000000D01*
X124239072Y-93108080D01*
X124300295Y-93199705D01*
X124391920Y-93260928D01*
X124500000Y-93282426D01*
X125500000Y-93282426D01*
X125608080Y-93260928D01*
X125699705Y-93199705D01*
X125760928Y-93108080D01*
X125782426Y-93000000D01*
X125782426Y-91000000D01*
X125760928Y-90891920D01*
X125699705Y-90800295D01*
X125608080Y-90739072D01*
X125500000Y-90717574D01*
X124888916Y-90717574D01*
X124702000Y-90530659D01*
X124702000Y-90500146D01*
X124625575Y-90315640D01*
X124600935Y-90291000D01*
X127999065Y-90291000D01*
X127974425Y-90315640D01*
X127898000Y-90500146D01*
X127898000Y-90530658D01*
X127656939Y-90771719D01*
X127608080Y-90739072D01*
X127500000Y-90717574D01*
X126500000Y-90717574D01*
X126391920Y-90739072D01*
X126300295Y-90800295D01*
X126239072Y-90891920D01*
X126217574Y-91000000D01*
X126217574Y-93000000D01*
X126239072Y-93108080D01*
X126300295Y-93199705D01*
X126391920Y-93260928D01*
X126500000Y-93282426D01*
X127500000Y-93282426D01*
X127608080Y-93260928D01*
X127699705Y-93199705D01*
X127760928Y-93108080D01*
X127782426Y-93000000D01*
X127782426Y-91788915D01*
X128469342Y-91102000D01*
X128499854Y-91102000D01*
X128684360Y-91025575D01*
X128825575Y-90884360D01*
X128902000Y-90699854D01*
X128902000Y-90500146D01*
X128825575Y-90315640D01*
X128800935Y-90291000D01*
X154709001Y-90291000D01*
X154709000Y-139709000D01*
X120291000Y-139709000D01*
X120291000Y-139185794D01*
X120300295Y-139199705D01*
X120391920Y-139260928D01*
X120500000Y-139282426D01*
X121500000Y-139282426D01*
X121608080Y-139260928D01*
X121699705Y-139199705D01*
X121760928Y-139108080D01*
X121782426Y-139000000D01*
X121782426Y-137000000D01*
X121760928Y-136891920D01*
X121699705Y-136800295D01*
X121608080Y-136739072D01*
X121500000Y-136717574D01*
X121404000Y-136717574D01*
X121404000Y-136567341D01*
X121567342Y-136404000D01*
X122073735Y-136404000D01*
X122073735Y-136601854D01*
X122150160Y-136786360D01*
X122245740Y-136881940D01*
X122239072Y-136891920D01*
X122217574Y-137000000D01*
X122217574Y-139000000D01*
X122239072Y-139108080D01*
X122300295Y-139199705D01*
X122391920Y-139260928D01*
X122500000Y-139282426D01*
X123500000Y-139282426D01*
X123608080Y-139260928D01*
X123699705Y-139199705D01*
X123760928Y-139108080D01*
X123782426Y-139000000D01*
X123782426Y-137000000D01*
X124217574Y-137000000D01*
X124217574Y-139000000D01*
X124239072Y-139108080D01*
X124300295Y-139199705D01*
X124391920Y-139260928D01*
X124500000Y-139282426D01*
X125500000Y-139282426D01*
X125608080Y-139260928D01*
X125699705Y-139199705D01*
X125760928Y-139108080D01*
X125782426Y-139000000D01*
X125782426Y-137000000D01*
X126217574Y-137000000D01*
X126217574Y-139000000D01*
X126239072Y-139108080D01*
X126300295Y-139199705D01*
X126391920Y-139260928D01*
X126500000Y-139282426D01*
X127500000Y-139282426D01*
X127568020Y-139268896D01*
X127574425Y-139284360D01*
X127715640Y-139425575D01*
X127900146Y-139502000D01*
X128099854Y-139502000D01*
X128284360Y-139425575D01*
X128305935Y-139404000D01*
X128894065Y-139404000D01*
X128915640Y-139425575D01*
X129100146Y-139502000D01*
X129299854Y-139502000D01*
X129484360Y-139425575D01*
X129625575Y-139284360D01*
X129702000Y-139099854D01*
X129702000Y-138900146D01*
X130298000Y-138900146D01*
X130298000Y-139099854D01*
X130374425Y-139284360D01*
X130515640Y-139425575D01*
X130700146Y-139502000D01*
X130899854Y-139502000D01*
X131084360Y-139425575D01*
X131105931Y-139404004D01*
X132094065Y-139404004D01*
X132115640Y-139425579D01*
X132300146Y-139502004D01*
X132499854Y-139502004D01*
X132684360Y-139425579D01*
X132825575Y-139284364D01*
X132902000Y-139099858D01*
X132902000Y-138900150D01*
X132901999Y-138900146D01*
X133498000Y-138900146D01*
X133498000Y-139099854D01*
X133574425Y-139284360D01*
X133715640Y-139425575D01*
X133900146Y-139502000D01*
X134099854Y-139502000D01*
X134284360Y-139425575D01*
X134305935Y-139404000D01*
X135294065Y-139404000D01*
X135315640Y-139425575D01*
X135500146Y-139502000D01*
X135699854Y-139502000D01*
X135884360Y-139425575D01*
X136025575Y-139284360D01*
X136102000Y-139099854D01*
X136102000Y-138900146D01*
X136698000Y-138900146D01*
X136698000Y-139099854D01*
X136774425Y-139284360D01*
X136915640Y-139425575D01*
X137100146Y-139502000D01*
X137299854Y-139502000D01*
X137484360Y-139425575D01*
X137625575Y-139284360D01*
X137702000Y-139099854D01*
X137702000Y-138900146D01*
X138248000Y-138900146D01*
X138248000Y-139099854D01*
X138324425Y-139284360D01*
X138465640Y-139425575D01*
X138650146Y-139502000D01*
X138849854Y-139502000D01*
X139034360Y-139425575D01*
X139175575Y-139284360D01*
X139252000Y-139099854D01*
X139252000Y-139069341D01*
X139917343Y-138404000D01*
X140217574Y-138404000D01*
X140217574Y-139000000D01*
X140239072Y-139108080D01*
X140300295Y-139199705D01*
X140391920Y-139260928D01*
X140500000Y-139282426D01*
X141500000Y-139282426D01*
X141608080Y-139260928D01*
X141699705Y-139199705D01*
X141760928Y-139108080D01*
X141782426Y-139000000D01*
X141782426Y-138208750D01*
X142173000Y-138208750D01*
X142173000Y-139065044D01*
X142222783Y-139185230D01*
X142314769Y-139277217D01*
X142434955Y-139327000D01*
X142791250Y-139327000D01*
X142873000Y-139245250D01*
X142873000Y-138127000D01*
X143127000Y-138127000D01*
X143127000Y-139245250D01*
X143208750Y-139327000D01*
X143565045Y-139327000D01*
X143685231Y-139277217D01*
X143777217Y-139185230D01*
X143827000Y-139065044D01*
X143827000Y-138208750D01*
X143745250Y-138127000D01*
X143127000Y-138127000D01*
X142873000Y-138127000D01*
X142254750Y-138127000D01*
X142173000Y-138208750D01*
X141782426Y-138208750D01*
X141782426Y-137000000D01*
X141769489Y-136934956D01*
X142173000Y-136934956D01*
X142173000Y-137791250D01*
X142254750Y-137873000D01*
X142873000Y-137873000D01*
X142873000Y-136754750D01*
X143127000Y-136754750D01*
X143127000Y-137873000D01*
X143745250Y-137873000D01*
X143827000Y-137791250D01*
X143827000Y-136934956D01*
X143777217Y-136814770D01*
X143685231Y-136722783D01*
X143565045Y-136673000D01*
X143208750Y-136673000D01*
X143127000Y-136754750D01*
X142873000Y-136754750D01*
X142791250Y-136673000D01*
X142434955Y-136673000D01*
X142314769Y-136722783D01*
X142222783Y-136814770D01*
X142173000Y-136934956D01*
X141769489Y-136934956D01*
X141760928Y-136891920D01*
X141699705Y-136800295D01*
X141608080Y-136739072D01*
X141500000Y-136717574D01*
X140500000Y-136717574D01*
X140391920Y-136739072D01*
X140300295Y-136800295D01*
X140239072Y-136891920D01*
X140217574Y-137000000D01*
X140217574Y-137596000D01*
X139789786Y-137596000D01*
X139750000Y-137588086D01*
X139592367Y-137619441D01*
X139492462Y-137686195D01*
X139492459Y-137686198D01*
X139458733Y-137708733D01*
X139436197Y-137742460D01*
X138680659Y-138498000D01*
X138650146Y-138498000D01*
X138465640Y-138574425D01*
X138324425Y-138715640D01*
X138248000Y-138900146D01*
X137702000Y-138900146D01*
X137625575Y-138715640D01*
X137484360Y-138574425D01*
X137299854Y-138498000D01*
X137100146Y-138498000D01*
X136915640Y-138574425D01*
X136774425Y-138715640D01*
X136698000Y-138900146D01*
X136102000Y-138900146D01*
X136025575Y-138715640D01*
X135884360Y-138574425D01*
X135699854Y-138498000D01*
X135500146Y-138498000D01*
X135315640Y-138574425D01*
X135294065Y-138596000D01*
X134305935Y-138596000D01*
X134284360Y-138574425D01*
X134099854Y-138498000D01*
X133900146Y-138498000D01*
X133715640Y-138574425D01*
X133574425Y-138715640D01*
X133498000Y-138900146D01*
X132901999Y-138900146D01*
X132825575Y-138715644D01*
X132684360Y-138574429D01*
X132499854Y-138498004D01*
X132300146Y-138498004D01*
X132115640Y-138574429D01*
X132094065Y-138596004D01*
X131105939Y-138596004D01*
X131084360Y-138574425D01*
X130899854Y-138498000D01*
X130700146Y-138498000D01*
X130515640Y-138574425D01*
X130374425Y-138715640D01*
X130298000Y-138900146D01*
X129702000Y-138900146D01*
X129625575Y-138715640D01*
X129484360Y-138574425D01*
X129299854Y-138498000D01*
X129100146Y-138498000D01*
X128915640Y-138574425D01*
X128894065Y-138596000D01*
X128305935Y-138596000D01*
X128284360Y-138574425D01*
X128099854Y-138498000D01*
X127900146Y-138498000D01*
X127782426Y-138546761D01*
X127782426Y-137000000D01*
X127760928Y-136891920D01*
X127699705Y-136800295D01*
X127608080Y-136739072D01*
X127500000Y-136717574D01*
X127404000Y-136717574D01*
X127404000Y-135639786D01*
X127411913Y-135600004D01*
X127404000Y-135560221D01*
X127404000Y-135560217D01*
X127380559Y-135442371D01*
X127341216Y-135383490D01*
X127313805Y-135342467D01*
X127313804Y-135342466D01*
X127302000Y-135324800D01*
X127302000Y-135300150D01*
X127292411Y-135277000D01*
X141265480Y-135277000D01*
X141356516Y-135496780D01*
X141603220Y-135743484D01*
X141925554Y-135877000D01*
X142274446Y-135877000D01*
X142596780Y-135743484D01*
X142843484Y-135496780D01*
X142934520Y-135277000D01*
X147905659Y-135277000D01*
X149086195Y-136457537D01*
X149108733Y-136491267D01*
X149242367Y-136580559D01*
X149360213Y-136604000D01*
X149360217Y-136604000D01*
X149400000Y-136611913D01*
X149439783Y-136604000D01*
X153160217Y-136604000D01*
X153200000Y-136611913D01*
X153239783Y-136604000D01*
X153239787Y-136604000D01*
X153357633Y-136580559D01*
X153491267Y-136491267D01*
X153513806Y-136457535D01*
X154057538Y-135913804D01*
X154091267Y-135891267D01*
X154180559Y-135757633D01*
X154204000Y-135639787D01*
X154204000Y-135639784D01*
X154211913Y-135600001D01*
X154204000Y-135560217D01*
X154204000Y-135183700D01*
X154255915Y-135106003D01*
X154277000Y-135000000D01*
X154277000Y-130694342D01*
X154311537Y-130659805D01*
X154345267Y-130637267D01*
X154434559Y-130503633D01*
X154458000Y-130385787D01*
X154458000Y-130385782D01*
X154465913Y-130346001D01*
X154458000Y-130306219D01*
X154458000Y-129693782D01*
X154465913Y-129653999D01*
X154458000Y-129614214D01*
X154458000Y-129614213D01*
X154434559Y-129496367D01*
X154345267Y-129362733D01*
X154311538Y-129340196D01*
X154277000Y-129305658D01*
X154277000Y-120694342D01*
X154311537Y-120659805D01*
X154345267Y-120637267D01*
X154434559Y-120503633D01*
X154458000Y-120385787D01*
X154458000Y-120385782D01*
X154465913Y-120346001D01*
X154458000Y-120306219D01*
X154458000Y-119693782D01*
X154465913Y-119653999D01*
X154458000Y-119614214D01*
X154458000Y-119614213D01*
X154434559Y-119496367D01*
X154345267Y-119362733D01*
X154311538Y-119340196D01*
X154277000Y-119305658D01*
X154277000Y-115694342D01*
X154311537Y-115659805D01*
X154345267Y-115637267D01*
X154434559Y-115503633D01*
X154458000Y-115385787D01*
X154458000Y-115385782D01*
X154465913Y-115346001D01*
X154458000Y-115306219D01*
X154458000Y-114693782D01*
X154465913Y-114653999D01*
X154458000Y-114614214D01*
X154458000Y-114614213D01*
X154434559Y-114496367D01*
X154345267Y-114362733D01*
X154311538Y-114340196D01*
X154277000Y-114305658D01*
X154277000Y-110694342D01*
X154311537Y-110659805D01*
X154345267Y-110637267D01*
X154434559Y-110503633D01*
X154458000Y-110385787D01*
X154458000Y-110385782D01*
X154465913Y-110346001D01*
X154458000Y-110306219D01*
X154458000Y-109693782D01*
X154465913Y-109653999D01*
X154458000Y-109614214D01*
X154458000Y-109614213D01*
X154434559Y-109496367D01*
X154345267Y-109362733D01*
X154311538Y-109340196D01*
X154277000Y-109305658D01*
X154277000Y-105894343D01*
X154311540Y-105859803D01*
X154345267Y-105837267D01*
X154367802Y-105803541D01*
X154367805Y-105803538D01*
X154434559Y-105703633D01*
X154445227Y-105650000D01*
X154458000Y-105585787D01*
X154458000Y-105585783D01*
X154465913Y-105546000D01*
X154458000Y-105506217D01*
X154458000Y-104693782D01*
X154465913Y-104653999D01*
X154458000Y-104614214D01*
X154458000Y-104614213D01*
X154434559Y-104496367D01*
X154345267Y-104362733D01*
X154311538Y-104340196D01*
X154277000Y-104305658D01*
X154277000Y-100894343D01*
X154311540Y-100859803D01*
X154345267Y-100837267D01*
X154367802Y-100803541D01*
X154367805Y-100803538D01*
X154434559Y-100703633D01*
X154446745Y-100642368D01*
X154458000Y-100585787D01*
X154458000Y-100585783D01*
X154465913Y-100546000D01*
X154458000Y-100506217D01*
X154458000Y-99693782D01*
X154465913Y-99653999D01*
X154458000Y-99614214D01*
X154458000Y-99614213D01*
X154434559Y-99496367D01*
X154345267Y-99362733D01*
X154311538Y-99340196D01*
X154277000Y-99305658D01*
X154277000Y-95000000D01*
X154255915Y-94893997D01*
X154195869Y-94804131D01*
X154106003Y-94744085D01*
X154000000Y-94723000D01*
X147382426Y-94723000D01*
X147382426Y-94350000D01*
X147360928Y-94241920D01*
X147299705Y-94150295D01*
X147208080Y-94089072D01*
X147100000Y-94067574D01*
X144100000Y-94067574D01*
X143991920Y-94089072D01*
X143900295Y-94150295D01*
X143839072Y-94241920D01*
X143817574Y-94350000D01*
X143817574Y-94723000D01*
X142718043Y-94723000D01*
X142673933Y-94616510D01*
X142483490Y-94426067D01*
X142234664Y-94323000D01*
X141965336Y-94323000D01*
X141716510Y-94426067D01*
X141526067Y-94616510D01*
X141481957Y-94723000D01*
X127000000Y-94723000D01*
X126893997Y-94744085D01*
X126804131Y-94804131D01*
X126744085Y-94893997D01*
X126723000Y-95000000D01*
X126723000Y-134898004D01*
X126700146Y-134898004D01*
X126515640Y-134974429D01*
X126374425Y-135115644D01*
X126298000Y-135300150D01*
X126298000Y-135499858D01*
X126374425Y-135684364D01*
X126515640Y-135825579D01*
X126596001Y-135858866D01*
X126596001Y-136717574D01*
X126500000Y-136717574D01*
X126391920Y-136739072D01*
X126300295Y-136800295D01*
X126239072Y-136891920D01*
X126217574Y-137000000D01*
X125782426Y-137000000D01*
X125760928Y-136891920D01*
X125699705Y-136800295D01*
X125608080Y-136739072D01*
X125500000Y-136717574D01*
X125404000Y-136717574D01*
X125404000Y-135705929D01*
X125425575Y-135684354D01*
X125502000Y-135499848D01*
X125502000Y-135300140D01*
X125425575Y-135115634D01*
X125284360Y-134974419D01*
X125099854Y-134897994D01*
X124900146Y-134897994D01*
X124715640Y-134974419D01*
X124574425Y-135115634D01*
X124498000Y-135300140D01*
X124498000Y-135499848D01*
X124574425Y-135684354D01*
X124596001Y-135705930D01*
X124596000Y-136717574D01*
X124500000Y-136717574D01*
X124391920Y-136739072D01*
X124300295Y-136800295D01*
X124239072Y-136891920D01*
X124217574Y-137000000D01*
X123782426Y-137000000D01*
X123760928Y-136891920D01*
X123699705Y-136800295D01*
X123608080Y-136739072D01*
X123500000Y-136717574D01*
X123346443Y-136717574D01*
X123291267Y-136634998D01*
X123257537Y-136612460D01*
X123133245Y-136488169D01*
X123284360Y-136425575D01*
X123425575Y-136284360D01*
X123502000Y-136099854D01*
X123502000Y-135900146D01*
X123425575Y-135715640D01*
X123284360Y-135574425D01*
X123099854Y-135498000D01*
X122900146Y-135498000D01*
X122715640Y-135574425D01*
X122694065Y-135596000D01*
X122230215Y-135596000D01*
X122283490Y-135573933D01*
X122473933Y-135383490D01*
X122577000Y-135134664D01*
X122577000Y-134865336D01*
X122473933Y-134616510D01*
X122283490Y-134426067D01*
X122034664Y-134323000D01*
X121765336Y-134323000D01*
X121516510Y-134426067D01*
X121326067Y-134616510D01*
X121223000Y-134865336D01*
X121223000Y-135134664D01*
X121326067Y-135383490D01*
X121516510Y-135573933D01*
X121569785Y-135596000D01*
X121439781Y-135596000D01*
X121399999Y-135588087D01*
X121360218Y-135596000D01*
X121360213Y-135596000D01*
X121242367Y-135619441D01*
X121108733Y-135708733D01*
X121086195Y-135742463D01*
X120742463Y-136086196D01*
X120708734Y-136108733D01*
X120686197Y-136142462D01*
X120686196Y-136142463D01*
X120619441Y-136242368D01*
X120588087Y-136400000D01*
X120596001Y-136439787D01*
X120596001Y-136717574D01*
X120500000Y-136717574D01*
X120391920Y-136739072D01*
X120300295Y-136800295D01*
X120291000Y-136814206D01*
X120291000Y-130028660D01*
X120296701Y-130000000D01*
X120274116Y-129886457D01*
X120209799Y-129790201D01*
X120113543Y-129725884D01*
X120028661Y-129709000D01*
X120000000Y-129703299D01*
X119971339Y-129709000D01*
X117791000Y-129709000D01*
X117791000Y-129028661D01*
X117796701Y-129000000D01*
X117774116Y-128886457D01*
X117709799Y-128790201D01*
X117613543Y-128725884D01*
X117528661Y-128709000D01*
X117500000Y-128703299D01*
X117471339Y-128709000D01*
X112528661Y-128709000D01*
X112500000Y-128703299D01*
X112471339Y-128709000D01*
X112386457Y-128725884D01*
X112290201Y-128790201D01*
X112225884Y-128886457D01*
X112203299Y-129000000D01*
X112209001Y-129028666D01*
X112209000Y-129709000D01*
X110291000Y-129709000D01*
X110291000Y-114258654D01*
X111273000Y-114258654D01*
X111273000Y-115741346D01*
X111840402Y-117111176D01*
X112888824Y-118159598D01*
X114258654Y-118727000D01*
X115741346Y-118727000D01*
X117111176Y-118159598D01*
X118159598Y-117111176D01*
X118727000Y-115741346D01*
X118727000Y-114258654D01*
X118159598Y-112888824D01*
X117111176Y-111840402D01*
X115741346Y-111273000D01*
X114258654Y-111273000D01*
X112888824Y-111840402D01*
X111840402Y-112888824D01*
X111273000Y-114258654D01*
X110291000Y-114258654D01*
X110291000Y-100291000D01*
X112209000Y-100291000D01*
X112209001Y-100971334D01*
X112203299Y-101000000D01*
X112225884Y-101113543D01*
X112290201Y-101209799D01*
X112386457Y-101274116D01*
X112471339Y-101291000D01*
X112500000Y-101296701D01*
X112528661Y-101291000D01*
X117471339Y-101291000D01*
X117500000Y-101296701D01*
X117528661Y-101291000D01*
X117613543Y-101274116D01*
X117709799Y-101209799D01*
X117774116Y-101113543D01*
X117796701Y-101000000D01*
X117791000Y-100971339D01*
X117791000Y-100291000D01*
X119971339Y-100291000D01*
X120000000Y-100296701D01*
X120113543Y-100274116D01*
X120209799Y-100209799D01*
X120274116Y-100113543D01*
X120291000Y-100028661D01*
X120296701Y-100000000D01*
X120291000Y-99971339D01*
X120291000Y-94825554D01*
X121023000Y-94825554D01*
X121023000Y-95174446D01*
X121156516Y-95496780D01*
X121403220Y-95743484D01*
X121725554Y-95877000D01*
X122074446Y-95877000D01*
X122396780Y-95743484D01*
X122643484Y-95496780D01*
X122777000Y-95174446D01*
X122777000Y-94825554D01*
X122643484Y-94503220D01*
X122396780Y-94256516D01*
X122074446Y-94123000D01*
X121725554Y-94123000D01*
X121403220Y-94256516D01*
X121156516Y-94503220D01*
X121023000Y-94825554D01*
X120291000Y-94825554D01*
X120291000Y-93185794D01*
X120300295Y-93199705D01*
X120391920Y-93260928D01*
X120500000Y-93282426D01*
X121211084Y-93282426D01*
X121440195Y-93511537D01*
X121462733Y-93545267D01*
X121596367Y-93634559D01*
X121714213Y-93658000D01*
X121714216Y-93658000D01*
X121753999Y-93665913D01*
X121793782Y-93658000D01*
X122086659Y-93658000D01*
X123996001Y-95567343D01*
X123996000Y-98894065D01*
X123974425Y-98915640D01*
X123898000Y-99100146D01*
X123898000Y-99299854D01*
X123974425Y-99484360D01*
X124115640Y-99625575D01*
X124300146Y-99702000D01*
X124499854Y-99702000D01*
X124684360Y-99625575D01*
X124800000Y-99509935D01*
X124915640Y-99625575D01*
X125100146Y-99702000D01*
X125299854Y-99702000D01*
X125484360Y-99625575D01*
X125625575Y-99484360D01*
X125702000Y-99299854D01*
X125702000Y-99100146D01*
X125625575Y-98915640D01*
X125604000Y-98894065D01*
X125604000Y-95493783D01*
X125611913Y-95454000D01*
X125604000Y-95414217D01*
X125604000Y-95414213D01*
X125580559Y-95296367D01*
X125491267Y-95162733D01*
X125457538Y-95140196D01*
X123583215Y-93265874D01*
X123608080Y-93260928D01*
X123699705Y-93199705D01*
X123760928Y-93108080D01*
X123782426Y-93000000D01*
X123782426Y-91000000D01*
X123760928Y-90891920D01*
X123699705Y-90800295D01*
X123608080Y-90739072D01*
X123500000Y-90717574D01*
X122500000Y-90717574D01*
X122391920Y-90739072D01*
X122300295Y-90800295D01*
X122239072Y-90891920D01*
X122217574Y-91000000D01*
X122217574Y-92849332D01*
X122214217Y-92850000D01*
X121921342Y-92850000D01*
X121782426Y-92711084D01*
X121782426Y-91000000D01*
X121760928Y-90891920D01*
X121699705Y-90800295D01*
X121608080Y-90739072D01*
X121500000Y-90717574D01*
X120500000Y-90717574D01*
X120391920Y-90739072D01*
X120300295Y-90800295D01*
X120291000Y-90814206D01*
X120291000Y-90291000D01*
X123799065Y-90291000D01*
X123774425Y-90315640D01*
X123774425Y-90315640D01*
G37*
X123774425Y-90315640D02*
X123698000Y-90500146D01*
X123698000Y-90699854D01*
X123774425Y-90884360D01*
X123915640Y-91025575D01*
X124100146Y-91102000D01*
X124130659Y-91102000D01*
X124217574Y-91188915D01*
X124217574Y-93000000D01*
X124239072Y-93108080D01*
X124300295Y-93199705D01*
X124391920Y-93260928D01*
X124500000Y-93282426D01*
X125500000Y-93282426D01*
X125608080Y-93260928D01*
X125699705Y-93199705D01*
X125760928Y-93108080D01*
X125782426Y-93000000D01*
X125782426Y-91000000D01*
X125760928Y-90891920D01*
X125699705Y-90800295D01*
X125608080Y-90739072D01*
X125500000Y-90717574D01*
X124888916Y-90717574D01*
X124702000Y-90530659D01*
X124702000Y-90500146D01*
X124625575Y-90315640D01*
X124600935Y-90291000D01*
X127999065Y-90291000D01*
X127974425Y-90315640D01*
X127898000Y-90500146D01*
X127898000Y-90530658D01*
X127656939Y-90771719D01*
X127608080Y-90739072D01*
X127500000Y-90717574D01*
X126500000Y-90717574D01*
X126391920Y-90739072D01*
X126300295Y-90800295D01*
X126239072Y-90891920D01*
X126217574Y-91000000D01*
X126217574Y-93000000D01*
X126239072Y-93108080D01*
X126300295Y-93199705D01*
X126391920Y-93260928D01*
X126500000Y-93282426D01*
X127500000Y-93282426D01*
X127608080Y-93260928D01*
X127699705Y-93199705D01*
X127760928Y-93108080D01*
X127782426Y-93000000D01*
X127782426Y-91788915D01*
X128469342Y-91102000D01*
X128499854Y-91102000D01*
X128684360Y-91025575D01*
X128825575Y-90884360D01*
X128902000Y-90699854D01*
X128902000Y-90500146D01*
X128825575Y-90315640D01*
X128800935Y-90291000D01*
X154709001Y-90291000D01*
X154709000Y-139709000D01*
X120291000Y-139709000D01*
X120291000Y-139185794D01*
X120300295Y-139199705D01*
X120391920Y-139260928D01*
X120500000Y-139282426D01*
X121500000Y-139282426D01*
X121608080Y-139260928D01*
X121699705Y-139199705D01*
X121760928Y-139108080D01*
X121782426Y-139000000D01*
X121782426Y-137000000D01*
X121760928Y-136891920D01*
X121699705Y-136800295D01*
X121608080Y-136739072D01*
X121500000Y-136717574D01*
X121404000Y-136717574D01*
X121404000Y-136567341D01*
X121567342Y-136404000D01*
X122073735Y-136404000D01*
X122073735Y-136601854D01*
X122150160Y-136786360D01*
X122245740Y-136881940D01*
X122239072Y-136891920D01*
X122217574Y-137000000D01*
X122217574Y-139000000D01*
X122239072Y-139108080D01*
X122300295Y-139199705D01*
X122391920Y-139260928D01*
X122500000Y-139282426D01*
X123500000Y-139282426D01*
X123608080Y-139260928D01*
X123699705Y-139199705D01*
X123760928Y-139108080D01*
X123782426Y-139000000D01*
X123782426Y-137000000D01*
X124217574Y-137000000D01*
X124217574Y-139000000D01*
X124239072Y-139108080D01*
X124300295Y-139199705D01*
X124391920Y-139260928D01*
X124500000Y-139282426D01*
X125500000Y-139282426D01*
X125608080Y-139260928D01*
X125699705Y-139199705D01*
X125760928Y-139108080D01*
X125782426Y-139000000D01*
X125782426Y-137000000D01*
X126217574Y-137000000D01*
X126217574Y-139000000D01*
X126239072Y-139108080D01*
X126300295Y-139199705D01*
X126391920Y-139260928D01*
X126500000Y-139282426D01*
X127500000Y-139282426D01*
X127568020Y-139268896D01*
X127574425Y-139284360D01*
X127715640Y-139425575D01*
X127900146Y-139502000D01*
X128099854Y-139502000D01*
X128284360Y-139425575D01*
X128305935Y-139404000D01*
X128894065Y-139404000D01*
X128915640Y-139425575D01*
X129100146Y-139502000D01*
X129299854Y-139502000D01*
X129484360Y-139425575D01*
X129625575Y-139284360D01*
X129702000Y-139099854D01*
X129702000Y-138900146D01*
X130298000Y-138900146D01*
X130298000Y-139099854D01*
X130374425Y-139284360D01*
X130515640Y-139425575D01*
X130700146Y-139502000D01*
X130899854Y-139502000D01*
X131084360Y-139425575D01*
X131105931Y-139404004D01*
X132094065Y-139404004D01*
X132115640Y-139425579D01*
X132300146Y-139502004D01*
X132499854Y-139502004D01*
X132684360Y-139425579D01*
X132825575Y-139284364D01*
X132902000Y-139099858D01*
X132902000Y-138900150D01*
X132901999Y-138900146D01*
X133498000Y-138900146D01*
X133498000Y-139099854D01*
X133574425Y-139284360D01*
X133715640Y-139425575D01*
X133900146Y-139502000D01*
X134099854Y-139502000D01*
X134284360Y-139425575D01*
X134305935Y-139404000D01*
X135294065Y-139404000D01*
X135315640Y-139425575D01*
X135500146Y-139502000D01*
X135699854Y-139502000D01*
X135884360Y-139425575D01*
X136025575Y-139284360D01*
X136102000Y-139099854D01*
X136102000Y-138900146D01*
X136698000Y-138900146D01*
X136698000Y-139099854D01*
X136774425Y-139284360D01*
X136915640Y-139425575D01*
X137100146Y-139502000D01*
X137299854Y-139502000D01*
X137484360Y-139425575D01*
X137625575Y-139284360D01*
X137702000Y-139099854D01*
X137702000Y-138900146D01*
X138248000Y-138900146D01*
X138248000Y-139099854D01*
X138324425Y-139284360D01*
X138465640Y-139425575D01*
X138650146Y-139502000D01*
X138849854Y-139502000D01*
X139034360Y-139425575D01*
X139175575Y-139284360D01*
X139252000Y-139099854D01*
X139252000Y-139069341D01*
X139917343Y-138404000D01*
X140217574Y-138404000D01*
X140217574Y-139000000D01*
X140239072Y-139108080D01*
X140300295Y-139199705D01*
X140391920Y-139260928D01*
X140500000Y-139282426D01*
X141500000Y-139282426D01*
X141608080Y-139260928D01*
X141699705Y-139199705D01*
X141760928Y-139108080D01*
X141782426Y-139000000D01*
X141782426Y-138208750D01*
X142173000Y-138208750D01*
X142173000Y-139065044D01*
X142222783Y-139185230D01*
X142314769Y-139277217D01*
X142434955Y-139327000D01*
X142791250Y-139327000D01*
X142873000Y-139245250D01*
X142873000Y-138127000D01*
X143127000Y-138127000D01*
X143127000Y-139245250D01*
X143208750Y-139327000D01*
X143565045Y-139327000D01*
X143685231Y-139277217D01*
X143777217Y-139185230D01*
X143827000Y-139065044D01*
X143827000Y-138208750D01*
X143745250Y-138127000D01*
X143127000Y-138127000D01*
X142873000Y-138127000D01*
X142254750Y-138127000D01*
X142173000Y-138208750D01*
X141782426Y-138208750D01*
X141782426Y-137000000D01*
X141769489Y-136934956D01*
X142173000Y-136934956D01*
X142173000Y-137791250D01*
X142254750Y-137873000D01*
X142873000Y-137873000D01*
X142873000Y-136754750D01*
X143127000Y-136754750D01*
X143127000Y-137873000D01*
X143745250Y-137873000D01*
X143827000Y-137791250D01*
X143827000Y-136934956D01*
X143777217Y-136814770D01*
X143685231Y-136722783D01*
X143565045Y-136673000D01*
X143208750Y-136673000D01*
X143127000Y-136754750D01*
X142873000Y-136754750D01*
X142791250Y-136673000D01*
X142434955Y-136673000D01*
X142314769Y-136722783D01*
X142222783Y-136814770D01*
X142173000Y-136934956D01*
X141769489Y-136934956D01*
X141760928Y-136891920D01*
X141699705Y-136800295D01*
X141608080Y-136739072D01*
X141500000Y-136717574D01*
X140500000Y-136717574D01*
X140391920Y-136739072D01*
X140300295Y-136800295D01*
X140239072Y-136891920D01*
X140217574Y-137000000D01*
X140217574Y-137596000D01*
X139789786Y-137596000D01*
X139750000Y-137588086D01*
X139592367Y-137619441D01*
X139492462Y-137686195D01*
X139492459Y-137686198D01*
X139458733Y-137708733D01*
X139436197Y-137742460D01*
X138680659Y-138498000D01*
X138650146Y-138498000D01*
X138465640Y-138574425D01*
X138324425Y-138715640D01*
X138248000Y-138900146D01*
X137702000Y-138900146D01*
X137625575Y-138715640D01*
X137484360Y-138574425D01*
X137299854Y-138498000D01*
X137100146Y-138498000D01*
X136915640Y-138574425D01*
X136774425Y-138715640D01*
X136698000Y-138900146D01*
X136102000Y-138900146D01*
X136025575Y-138715640D01*
X135884360Y-138574425D01*
X135699854Y-138498000D01*
X135500146Y-138498000D01*
X135315640Y-138574425D01*
X135294065Y-138596000D01*
X134305935Y-138596000D01*
X134284360Y-138574425D01*
X134099854Y-138498000D01*
X133900146Y-138498000D01*
X133715640Y-138574425D01*
X133574425Y-138715640D01*
X133498000Y-138900146D01*
X132901999Y-138900146D01*
X132825575Y-138715644D01*
X132684360Y-138574429D01*
X132499854Y-138498004D01*
X132300146Y-138498004D01*
X132115640Y-138574429D01*
X132094065Y-138596004D01*
X131105939Y-138596004D01*
X131084360Y-138574425D01*
X130899854Y-138498000D01*
X130700146Y-138498000D01*
X130515640Y-138574425D01*
X130374425Y-138715640D01*
X130298000Y-138900146D01*
X129702000Y-138900146D01*
X129625575Y-138715640D01*
X129484360Y-138574425D01*
X129299854Y-138498000D01*
X129100146Y-138498000D01*
X128915640Y-138574425D01*
X128894065Y-138596000D01*
X128305935Y-138596000D01*
X128284360Y-138574425D01*
X128099854Y-138498000D01*
X127900146Y-138498000D01*
X127782426Y-138546761D01*
X127782426Y-137000000D01*
X127760928Y-136891920D01*
X127699705Y-136800295D01*
X127608080Y-136739072D01*
X127500000Y-136717574D01*
X127404000Y-136717574D01*
X127404000Y-135639786D01*
X127411913Y-135600004D01*
X127404000Y-135560221D01*
X127404000Y-135560217D01*
X127380559Y-135442371D01*
X127341216Y-135383490D01*
X127313805Y-135342467D01*
X127313804Y-135342466D01*
X127302000Y-135324800D01*
X127302000Y-135300150D01*
X127292411Y-135277000D01*
X141265480Y-135277000D01*
X141356516Y-135496780D01*
X141603220Y-135743484D01*
X141925554Y-135877000D01*
X142274446Y-135877000D01*
X142596780Y-135743484D01*
X142843484Y-135496780D01*
X142934520Y-135277000D01*
X147905659Y-135277000D01*
X149086195Y-136457537D01*
X149108733Y-136491267D01*
X149242367Y-136580559D01*
X149360213Y-136604000D01*
X149360217Y-136604000D01*
X149400000Y-136611913D01*
X149439783Y-136604000D01*
X153160217Y-136604000D01*
X153200000Y-136611913D01*
X153239783Y-136604000D01*
X153239787Y-136604000D01*
X153357633Y-136580559D01*
X153491267Y-136491267D01*
X153513806Y-136457535D01*
X154057538Y-135913804D01*
X154091267Y-135891267D01*
X154180559Y-135757633D01*
X154204000Y-135639787D01*
X154204000Y-135639784D01*
X154211913Y-135600001D01*
X154204000Y-135560217D01*
X154204000Y-135183700D01*
X154255915Y-135106003D01*
X154277000Y-135000000D01*
X154277000Y-130694342D01*
X154311537Y-130659805D01*
X154345267Y-130637267D01*
X154434559Y-130503633D01*
X154458000Y-130385787D01*
X154458000Y-130385782D01*
X154465913Y-130346001D01*
X154458000Y-130306219D01*
X154458000Y-129693782D01*
X154465913Y-129653999D01*
X154458000Y-129614214D01*
X154458000Y-129614213D01*
X154434559Y-129496367D01*
X154345267Y-129362733D01*
X154311538Y-129340196D01*
X154277000Y-129305658D01*
X154277000Y-120694342D01*
X154311537Y-120659805D01*
X154345267Y-120637267D01*
X154434559Y-120503633D01*
X154458000Y-120385787D01*
X154458000Y-120385782D01*
X154465913Y-120346001D01*
X154458000Y-120306219D01*
X154458000Y-119693782D01*
X154465913Y-119653999D01*
X154458000Y-119614214D01*
X154458000Y-119614213D01*
X154434559Y-119496367D01*
X154345267Y-119362733D01*
X154311538Y-119340196D01*
X154277000Y-119305658D01*
X154277000Y-115694342D01*
X154311537Y-115659805D01*
X154345267Y-115637267D01*
X154434559Y-115503633D01*
X154458000Y-115385787D01*
X154458000Y-115385782D01*
X154465913Y-115346001D01*
X154458000Y-115306219D01*
X154458000Y-114693782D01*
X154465913Y-114653999D01*
X154458000Y-114614214D01*
X154458000Y-114614213D01*
X154434559Y-114496367D01*
X154345267Y-114362733D01*
X154311538Y-114340196D01*
X154277000Y-114305658D01*
X154277000Y-110694342D01*
X154311537Y-110659805D01*
X154345267Y-110637267D01*
X154434559Y-110503633D01*
X154458000Y-110385787D01*
X154458000Y-110385782D01*
X154465913Y-110346001D01*
X154458000Y-110306219D01*
X154458000Y-109693782D01*
X154465913Y-109653999D01*
X154458000Y-109614214D01*
X154458000Y-109614213D01*
X154434559Y-109496367D01*
X154345267Y-109362733D01*
X154311538Y-109340196D01*
X154277000Y-109305658D01*
X154277000Y-105894343D01*
X154311540Y-105859803D01*
X154345267Y-105837267D01*
X154367802Y-105803541D01*
X154367805Y-105803538D01*
X154434559Y-105703633D01*
X154445227Y-105650000D01*
X154458000Y-105585787D01*
X154458000Y-105585783D01*
X154465913Y-105546000D01*
X154458000Y-105506217D01*
X154458000Y-104693782D01*
X154465913Y-104653999D01*
X154458000Y-104614214D01*
X154458000Y-104614213D01*
X154434559Y-104496367D01*
X154345267Y-104362733D01*
X154311538Y-104340196D01*
X154277000Y-104305658D01*
X154277000Y-100894343D01*
X154311540Y-100859803D01*
X154345267Y-100837267D01*
X154367802Y-100803541D01*
X154367805Y-100803538D01*
X154434559Y-100703633D01*
X154446745Y-100642368D01*
X154458000Y-100585787D01*
X154458000Y-100585783D01*
X154465913Y-100546000D01*
X154458000Y-100506217D01*
X154458000Y-99693782D01*
X154465913Y-99653999D01*
X154458000Y-99614214D01*
X154458000Y-99614213D01*
X154434559Y-99496367D01*
X154345267Y-99362733D01*
X154311538Y-99340196D01*
X154277000Y-99305658D01*
X154277000Y-95000000D01*
X154255915Y-94893997D01*
X154195869Y-94804131D01*
X154106003Y-94744085D01*
X154000000Y-94723000D01*
X147382426Y-94723000D01*
X147382426Y-94350000D01*
X147360928Y-94241920D01*
X147299705Y-94150295D01*
X147208080Y-94089072D01*
X147100000Y-94067574D01*
X144100000Y-94067574D01*
X143991920Y-94089072D01*
X143900295Y-94150295D01*
X143839072Y-94241920D01*
X143817574Y-94350000D01*
X143817574Y-94723000D01*
X142718043Y-94723000D01*
X142673933Y-94616510D01*
X142483490Y-94426067D01*
X142234664Y-94323000D01*
X141965336Y-94323000D01*
X141716510Y-94426067D01*
X141526067Y-94616510D01*
X141481957Y-94723000D01*
X127000000Y-94723000D01*
X126893997Y-94744085D01*
X126804131Y-94804131D01*
X126744085Y-94893997D01*
X126723000Y-95000000D01*
X126723000Y-134898004D01*
X126700146Y-134898004D01*
X126515640Y-134974429D01*
X126374425Y-135115644D01*
X126298000Y-135300150D01*
X126298000Y-135499858D01*
X126374425Y-135684364D01*
X126515640Y-135825579D01*
X126596001Y-135858866D01*
X126596001Y-136717574D01*
X126500000Y-136717574D01*
X126391920Y-136739072D01*
X126300295Y-136800295D01*
X126239072Y-136891920D01*
X126217574Y-137000000D01*
X125782426Y-137000000D01*
X125760928Y-136891920D01*
X125699705Y-136800295D01*
X125608080Y-136739072D01*
X125500000Y-136717574D01*
X125404000Y-136717574D01*
X125404000Y-135705929D01*
X125425575Y-135684354D01*
X125502000Y-135499848D01*
X125502000Y-135300140D01*
X125425575Y-135115634D01*
X125284360Y-134974419D01*
X125099854Y-134897994D01*
X124900146Y-134897994D01*
X124715640Y-134974419D01*
X124574425Y-135115634D01*
X124498000Y-135300140D01*
X124498000Y-135499848D01*
X124574425Y-135684354D01*
X124596001Y-135705930D01*
X124596000Y-136717574D01*
X124500000Y-136717574D01*
X124391920Y-136739072D01*
X124300295Y-136800295D01*
X124239072Y-136891920D01*
X124217574Y-137000000D01*
X123782426Y-137000000D01*
X123760928Y-136891920D01*
X123699705Y-136800295D01*
X123608080Y-136739072D01*
X123500000Y-136717574D01*
X123346443Y-136717574D01*
X123291267Y-136634998D01*
X123257537Y-136612460D01*
X123133245Y-136488169D01*
X123284360Y-136425575D01*
X123425575Y-136284360D01*
X123502000Y-136099854D01*
X123502000Y-135900146D01*
X123425575Y-135715640D01*
X123284360Y-135574425D01*
X123099854Y-135498000D01*
X122900146Y-135498000D01*
X122715640Y-135574425D01*
X122694065Y-135596000D01*
X122230215Y-135596000D01*
X122283490Y-135573933D01*
X122473933Y-135383490D01*
X122577000Y-135134664D01*
X122577000Y-134865336D01*
X122473933Y-134616510D01*
X122283490Y-134426067D01*
X122034664Y-134323000D01*
X121765336Y-134323000D01*
X121516510Y-134426067D01*
X121326067Y-134616510D01*
X121223000Y-134865336D01*
X121223000Y-135134664D01*
X121326067Y-135383490D01*
X121516510Y-135573933D01*
X121569785Y-135596000D01*
X121439781Y-135596000D01*
X121399999Y-135588087D01*
X121360218Y-135596000D01*
X121360213Y-135596000D01*
X121242367Y-135619441D01*
X121108733Y-135708733D01*
X121086195Y-135742463D01*
X120742463Y-136086196D01*
X120708734Y-136108733D01*
X120686197Y-136142462D01*
X120686196Y-136142463D01*
X120619441Y-136242368D01*
X120588087Y-136400000D01*
X120596001Y-136439787D01*
X120596001Y-136717574D01*
X120500000Y-136717574D01*
X120391920Y-136739072D01*
X120300295Y-136800295D01*
X120291000Y-136814206D01*
X120291000Y-130028660D01*
X120296701Y-130000000D01*
X120274116Y-129886457D01*
X120209799Y-129790201D01*
X120113543Y-129725884D01*
X120028661Y-129709000D01*
X120000000Y-129703299D01*
X119971339Y-129709000D01*
X117791000Y-129709000D01*
X117791000Y-129028661D01*
X117796701Y-129000000D01*
X117774116Y-128886457D01*
X117709799Y-128790201D01*
X117613543Y-128725884D01*
X117528661Y-128709000D01*
X117500000Y-128703299D01*
X117471339Y-128709000D01*
X112528661Y-128709000D01*
X112500000Y-128703299D01*
X112471339Y-128709000D01*
X112386457Y-128725884D01*
X112290201Y-128790201D01*
X112225884Y-128886457D01*
X112203299Y-129000000D01*
X112209001Y-129028666D01*
X112209000Y-129709000D01*
X110291000Y-129709000D01*
X110291000Y-114258654D01*
X111273000Y-114258654D01*
X111273000Y-115741346D01*
X111840402Y-117111176D01*
X112888824Y-118159598D01*
X114258654Y-118727000D01*
X115741346Y-118727000D01*
X117111176Y-118159598D01*
X118159598Y-117111176D01*
X118727000Y-115741346D01*
X118727000Y-114258654D01*
X118159598Y-112888824D01*
X117111176Y-111840402D01*
X115741346Y-111273000D01*
X114258654Y-111273000D01*
X112888824Y-111840402D01*
X111840402Y-112888824D01*
X111273000Y-114258654D01*
X110291000Y-114258654D01*
X110291000Y-100291000D01*
X112209000Y-100291000D01*
X112209001Y-100971334D01*
X112203299Y-101000000D01*
X112225884Y-101113543D01*
X112290201Y-101209799D01*
X112386457Y-101274116D01*
X112471339Y-101291000D01*
X112500000Y-101296701D01*
X112528661Y-101291000D01*
X117471339Y-101291000D01*
X117500000Y-101296701D01*
X117528661Y-101291000D01*
X117613543Y-101274116D01*
X117709799Y-101209799D01*
X117774116Y-101113543D01*
X117796701Y-101000000D01*
X117791000Y-100971339D01*
X117791000Y-100291000D01*
X119971339Y-100291000D01*
X120000000Y-100296701D01*
X120113543Y-100274116D01*
X120209799Y-100209799D01*
X120274116Y-100113543D01*
X120291000Y-100028661D01*
X120296701Y-100000000D01*
X120291000Y-99971339D01*
X120291000Y-94825554D01*
X121023000Y-94825554D01*
X121023000Y-95174446D01*
X121156516Y-95496780D01*
X121403220Y-95743484D01*
X121725554Y-95877000D01*
X122074446Y-95877000D01*
X122396780Y-95743484D01*
X122643484Y-95496780D01*
X122777000Y-95174446D01*
X122777000Y-94825554D01*
X122643484Y-94503220D01*
X122396780Y-94256516D01*
X122074446Y-94123000D01*
X121725554Y-94123000D01*
X121403220Y-94256516D01*
X121156516Y-94503220D01*
X121023000Y-94825554D01*
X120291000Y-94825554D01*
X120291000Y-93185794D01*
X120300295Y-93199705D01*
X120391920Y-93260928D01*
X120500000Y-93282426D01*
X121211084Y-93282426D01*
X121440195Y-93511537D01*
X121462733Y-93545267D01*
X121596367Y-93634559D01*
X121714213Y-93658000D01*
X121714216Y-93658000D01*
X121753999Y-93665913D01*
X121793782Y-93658000D01*
X122086659Y-93658000D01*
X123996001Y-95567343D01*
X123996000Y-98894065D01*
X123974425Y-98915640D01*
X123898000Y-99100146D01*
X123898000Y-99299854D01*
X123974425Y-99484360D01*
X124115640Y-99625575D01*
X124300146Y-99702000D01*
X124499854Y-99702000D01*
X124684360Y-99625575D01*
X124800000Y-99509935D01*
X124915640Y-99625575D01*
X125100146Y-99702000D01*
X125299854Y-99702000D01*
X125484360Y-99625575D01*
X125625575Y-99484360D01*
X125702000Y-99299854D01*
X125702000Y-99100146D01*
X125625575Y-98915640D01*
X125604000Y-98894065D01*
X125604000Y-95493783D01*
X125611913Y-95454000D01*
X125604000Y-95414217D01*
X125604000Y-95414213D01*
X125580559Y-95296367D01*
X125491267Y-95162733D01*
X125457538Y-95140196D01*
X123583215Y-93265874D01*
X123608080Y-93260928D01*
X123699705Y-93199705D01*
X123760928Y-93108080D01*
X123782426Y-93000000D01*
X123782426Y-91000000D01*
X123760928Y-90891920D01*
X123699705Y-90800295D01*
X123608080Y-90739072D01*
X123500000Y-90717574D01*
X122500000Y-90717574D01*
X122391920Y-90739072D01*
X122300295Y-90800295D01*
X122239072Y-90891920D01*
X122217574Y-91000000D01*
X122217574Y-92849332D01*
X122214217Y-92850000D01*
X121921342Y-92850000D01*
X121782426Y-92711084D01*
X121782426Y-91000000D01*
X121760928Y-90891920D01*
X121699705Y-90800295D01*
X121608080Y-90739072D01*
X121500000Y-90717574D01*
X120500000Y-90717574D01*
X120391920Y-90739072D01*
X120300295Y-90800295D01*
X120291000Y-90814206D01*
X120291000Y-90291000D01*
X123799065Y-90291000D01*
X123774425Y-90315640D01*
G04 #@! TO.N,/BIAS*
G36*
X145727000Y-129723000D02*
X147345250Y-129723000D01*
X147348454Y-129719796D01*
X149086195Y-131457537D01*
X149108733Y-131491267D01*
X149242367Y-131580559D01*
X149360213Y-131604000D01*
X149360218Y-131604000D01*
X149399999Y-131611913D01*
X149439781Y-131604000D01*
X149883552Y-131604000D01*
X149822783Y-131664770D01*
X149773000Y-131784956D01*
X149773000Y-132141250D01*
X149854750Y-132223000D01*
X149900021Y-132223000D01*
X149859641Y-132354848D01*
X149871343Y-132477000D01*
X149854750Y-132477000D01*
X149773000Y-132558750D01*
X149773000Y-133541250D01*
X149854750Y-133623000D01*
X150673000Y-133623000D01*
X150673000Y-133380605D01*
X150704848Y-133390359D01*
X150927000Y-133369078D01*
X150927000Y-133623000D01*
X150947000Y-133623000D01*
X150947000Y-133877000D01*
X150927000Y-133877000D01*
X150927000Y-133897000D01*
X150673000Y-133897000D01*
X150673000Y-133877000D01*
X149854750Y-133877000D01*
X149773000Y-133958750D01*
X149773000Y-134873000D01*
X148644342Y-134873000D01*
X147538980Y-133767639D01*
X147612868Y-133718268D01*
X147635407Y-133684536D01*
X148311540Y-133008405D01*
X148345267Y-132985869D01*
X148367802Y-132952143D01*
X148367805Y-132952140D01*
X148434559Y-132852235D01*
X148465914Y-132694602D01*
X148458000Y-132654816D01*
X148458000Y-132193782D01*
X148465913Y-132153999D01*
X148458000Y-132114214D01*
X148458000Y-132114213D01*
X148434559Y-131996367D01*
X148345267Y-131862733D01*
X148311538Y-131840196D01*
X148082426Y-131611084D01*
X148082426Y-130600000D01*
X148060928Y-130491920D01*
X147999705Y-130400295D01*
X147908080Y-130339072D01*
X147800000Y-130317574D01*
X147427000Y-130317574D01*
X147427000Y-130058750D01*
X147345250Y-129977000D01*
X145733830Y-129977000D01*
X145707582Y-129703000D01*
X145727000Y-129703000D01*
X145727000Y-129723000D01*
X145727000Y-129723000D01*
G37*
X145727000Y-129723000D02*
X147345250Y-129723000D01*
X147348454Y-129719796D01*
X149086195Y-131457537D01*
X149108733Y-131491267D01*
X149242367Y-131580559D01*
X149360213Y-131604000D01*
X149360218Y-131604000D01*
X149399999Y-131611913D01*
X149439781Y-131604000D01*
X149883552Y-131604000D01*
X149822783Y-131664770D01*
X149773000Y-131784956D01*
X149773000Y-132141250D01*
X149854750Y-132223000D01*
X149900021Y-132223000D01*
X149859641Y-132354848D01*
X149871343Y-132477000D01*
X149854750Y-132477000D01*
X149773000Y-132558750D01*
X149773000Y-133541250D01*
X149854750Y-133623000D01*
X150673000Y-133623000D01*
X150673000Y-133380605D01*
X150704848Y-133390359D01*
X150927000Y-133369078D01*
X150927000Y-133623000D01*
X150947000Y-133623000D01*
X150947000Y-133877000D01*
X150927000Y-133877000D01*
X150927000Y-133897000D01*
X150673000Y-133897000D01*
X150673000Y-133877000D01*
X149854750Y-133877000D01*
X149773000Y-133958750D01*
X149773000Y-134873000D01*
X148644342Y-134873000D01*
X147538980Y-133767639D01*
X147612868Y-133718268D01*
X147635407Y-133684536D01*
X148311540Y-133008405D01*
X148345267Y-132985869D01*
X148367802Y-132952143D01*
X148367805Y-132952140D01*
X148434559Y-132852235D01*
X148465914Y-132694602D01*
X148458000Y-132654816D01*
X148458000Y-132193782D01*
X148465913Y-132153999D01*
X148458000Y-132114214D01*
X148458000Y-132114213D01*
X148434559Y-131996367D01*
X148345267Y-131862733D01*
X148311538Y-131840196D01*
X148082426Y-131611084D01*
X148082426Y-130600000D01*
X148060928Y-130491920D01*
X147999705Y-130400295D01*
X147908080Y-130339072D01*
X147800000Y-130317574D01*
X147427000Y-130317574D01*
X147427000Y-130058750D01*
X147345250Y-129977000D01*
X145733830Y-129977000D01*
X145707582Y-129703000D01*
X145727000Y-129703000D01*
X145727000Y-129723000D01*
G36*
X141423000Y-95134664D02*
X141526067Y-95383490D01*
X141716510Y-95573933D01*
X141965336Y-95677000D01*
X142234664Y-95677000D01*
X142483490Y-95573933D01*
X142673933Y-95383490D01*
X142777000Y-95134664D01*
X142777000Y-95127000D01*
X143773000Y-95127000D01*
X143773000Y-96041250D01*
X143854750Y-96123000D01*
X144673000Y-96123000D01*
X144673000Y-96103000D01*
X144927000Y-96103000D01*
X144927000Y-96123000D01*
X144947000Y-96123000D01*
X144947000Y-96377000D01*
X144927000Y-96377000D01*
X144927000Y-96619395D01*
X144895152Y-96609641D01*
X144673000Y-96630922D01*
X144673000Y-96377000D01*
X143854750Y-96377000D01*
X143773000Y-96458750D01*
X143773000Y-97441250D01*
X143854750Y-97523000D01*
X143866170Y-97523000D01*
X143890502Y-97777000D01*
X143854750Y-97777000D01*
X143773000Y-97858750D01*
X143773000Y-98195941D01*
X143772702Y-98196000D01*
X136439782Y-98196000D01*
X136399999Y-98188087D01*
X136360216Y-98196000D01*
X136360213Y-98196000D01*
X136242367Y-98219441D01*
X136108733Y-98308733D01*
X136086195Y-98342463D01*
X135567465Y-98861194D01*
X135567462Y-98861196D01*
X135530658Y-98898000D01*
X135500146Y-98898000D01*
X135315640Y-98974425D01*
X135174425Y-99115640D01*
X135098000Y-99300146D01*
X135098000Y-99499854D01*
X135174425Y-99684360D01*
X135315640Y-99825575D01*
X135500146Y-99902000D01*
X135699854Y-99902000D01*
X135884360Y-99825575D01*
X136025575Y-99684360D01*
X136102000Y-99499854D01*
X136102000Y-99469342D01*
X136138804Y-99432538D01*
X136138806Y-99432535D01*
X136567342Y-99004000D01*
X143424658Y-99004000D01*
X143032659Y-99396000D01*
X136839783Y-99396000D01*
X136800000Y-99388087D01*
X136760217Y-99396000D01*
X136760213Y-99396000D01*
X136642367Y-99419441D01*
X136608055Y-99442368D01*
X136508733Y-99508733D01*
X136486195Y-99542463D01*
X136330658Y-99698000D01*
X136300146Y-99698000D01*
X136115640Y-99774425D01*
X135974425Y-99915640D01*
X135898000Y-100100146D01*
X135898000Y-100299854D01*
X135974425Y-100484360D01*
X136115640Y-100625575D01*
X136300146Y-100702000D01*
X136499854Y-100702000D01*
X136684360Y-100625575D01*
X136825575Y-100484360D01*
X136902000Y-100299854D01*
X136902000Y-100269342D01*
X136913807Y-100257535D01*
X136967341Y-100204000D01*
X143160217Y-100204000D01*
X143200000Y-100211913D01*
X143239783Y-100204000D01*
X143239787Y-100204000D01*
X143357633Y-100180559D01*
X143491267Y-100091267D01*
X143513806Y-100057535D01*
X143851546Y-99719796D01*
X143854750Y-99723000D01*
X143900021Y-99723000D01*
X143859641Y-99854848D01*
X143871343Y-99977000D01*
X143854750Y-99977000D01*
X143773000Y-100058750D01*
X143773000Y-101041250D01*
X143854750Y-101123000D01*
X144673000Y-101123000D01*
X144673000Y-100880605D01*
X144704848Y-100890359D01*
X144927000Y-100869078D01*
X144927000Y-101123000D01*
X144947000Y-101123000D01*
X144947000Y-101377000D01*
X144927000Y-101377000D01*
X144927000Y-101619395D01*
X144895152Y-101609641D01*
X144673000Y-101630922D01*
X144673000Y-101377000D01*
X143854750Y-101377000D01*
X143773000Y-101458750D01*
X143773000Y-102441250D01*
X143854750Y-102523000D01*
X143866170Y-102523000D01*
X143890502Y-102777000D01*
X143854750Y-102777000D01*
X143773000Y-102858750D01*
X143773000Y-103135000D01*
X138306342Y-103135000D01*
X134313806Y-99142465D01*
X134291267Y-99108733D01*
X134157633Y-99019441D01*
X134039787Y-98996000D01*
X134039783Y-98996000D01*
X134000000Y-98988087D01*
X133960217Y-98996000D01*
X133505935Y-98996000D01*
X133484360Y-98974425D01*
X133299854Y-98898000D01*
X133100146Y-98898000D01*
X132915640Y-98974425D01*
X132774425Y-99115640D01*
X132698000Y-99300146D01*
X132698000Y-99499854D01*
X132774425Y-99684360D01*
X132915640Y-99825575D01*
X133100146Y-99902000D01*
X133299854Y-99902000D01*
X133484360Y-99825575D01*
X133505935Y-99804000D01*
X133832659Y-99804000D01*
X137567669Y-103539011D01*
X137310353Y-103539011D01*
X134538806Y-100767465D01*
X134538804Y-100767462D01*
X134502000Y-100730658D01*
X134502000Y-100700146D01*
X134425575Y-100515640D01*
X134284360Y-100374425D01*
X134099854Y-100298000D01*
X133900146Y-100298000D01*
X133715640Y-100374425D01*
X133574425Y-100515640D01*
X133498000Y-100700146D01*
X133498000Y-100899854D01*
X133574425Y-101084360D01*
X133715640Y-101225575D01*
X133900146Y-101302000D01*
X133930658Y-101302000D01*
X133967462Y-101338804D01*
X133967465Y-101338806D01*
X136829207Y-104200548D01*
X136851744Y-104234278D01*
X136985378Y-104323570D01*
X137103224Y-104347011D01*
X137103227Y-104347011D01*
X137143010Y-104354924D01*
X137182793Y-104347011D01*
X143773000Y-104347011D01*
X143773000Y-104641250D01*
X143854750Y-104723000D01*
X143900021Y-104723000D01*
X143859641Y-104854848D01*
X143871343Y-104977000D01*
X143854750Y-104977000D01*
X143773000Y-105058750D01*
X143773000Y-106041250D01*
X143854750Y-106123000D01*
X144673000Y-106123000D01*
X144673000Y-105880605D01*
X144704848Y-105890359D01*
X144927000Y-105869078D01*
X144927000Y-106123000D01*
X144947000Y-106123000D01*
X144947000Y-106377000D01*
X144927000Y-106377000D01*
X144927000Y-106619395D01*
X144895152Y-106609641D01*
X144673000Y-106630922D01*
X144673000Y-106377000D01*
X143854750Y-106377000D01*
X143773000Y-106458750D01*
X143773000Y-107441250D01*
X143854750Y-107523000D01*
X143866170Y-107523000D01*
X143890502Y-107777000D01*
X143854750Y-107777000D01*
X143773000Y-107858750D01*
X143773000Y-108196000D01*
X140567342Y-108196000D01*
X131513806Y-99142465D01*
X131491267Y-99108733D01*
X131357633Y-99019441D01*
X131239787Y-98996000D01*
X131239783Y-98996000D01*
X131200000Y-98988087D01*
X131160217Y-98996000D01*
X130905935Y-98996000D01*
X130884360Y-98974425D01*
X130699854Y-98898000D01*
X130500146Y-98898000D01*
X130315640Y-98974425D01*
X130174425Y-99115640D01*
X130098000Y-99300146D01*
X130098000Y-99499854D01*
X130174425Y-99684360D01*
X130315640Y-99825575D01*
X130500146Y-99902000D01*
X130699854Y-99902000D01*
X130884360Y-99825575D01*
X130905935Y-99804000D01*
X131032659Y-99804000D01*
X139828669Y-108600011D01*
X139571354Y-108600011D01*
X132138806Y-101167465D01*
X132138804Y-101167462D01*
X132102000Y-101130658D01*
X132102000Y-101100146D01*
X132025575Y-100915640D01*
X131884360Y-100774425D01*
X131699854Y-100698000D01*
X131500146Y-100698000D01*
X131315640Y-100774425D01*
X131174425Y-100915640D01*
X131098000Y-101100146D01*
X131098000Y-101299854D01*
X131174425Y-101484360D01*
X131315640Y-101625575D01*
X131500146Y-101702000D01*
X131530658Y-101702000D01*
X131567462Y-101738804D01*
X131567465Y-101738806D01*
X139090209Y-109261552D01*
X139112744Y-109295278D01*
X139146470Y-109317813D01*
X139146473Y-109317816D01*
X139246378Y-109384570D01*
X139404011Y-109415925D01*
X139443797Y-109408011D01*
X143773000Y-109408011D01*
X143773000Y-109641250D01*
X143854750Y-109723000D01*
X143900021Y-109723000D01*
X143859641Y-109854848D01*
X143871343Y-109977000D01*
X143854750Y-109977000D01*
X143773000Y-110058750D01*
X143773000Y-111041250D01*
X143854750Y-111123000D01*
X144673000Y-111123000D01*
X144673000Y-110880605D01*
X144704848Y-110890359D01*
X144927000Y-110869078D01*
X144927000Y-111123000D01*
X144947000Y-111123000D01*
X144947000Y-111377000D01*
X144927000Y-111377000D01*
X144927000Y-111619395D01*
X144895152Y-111609641D01*
X144673000Y-111630922D01*
X144673000Y-111377000D01*
X143854750Y-111377000D01*
X143773000Y-111458750D01*
X143773000Y-112441250D01*
X143854750Y-112523000D01*
X143866170Y-112523000D01*
X143890502Y-112777000D01*
X143854750Y-112777000D01*
X143773000Y-112858750D01*
X143773000Y-113196000D01*
X142767342Y-113196000D01*
X128913807Y-99342466D01*
X128913805Y-99342463D01*
X128902000Y-99330658D01*
X128902000Y-99300146D01*
X128825575Y-99115640D01*
X128684360Y-98974425D01*
X128499854Y-98898000D01*
X128300146Y-98898000D01*
X128115640Y-98974425D01*
X127974425Y-99115640D01*
X127898000Y-99300146D01*
X127898000Y-99499854D01*
X127974425Y-99684360D01*
X128115640Y-99825575D01*
X128300146Y-99902000D01*
X128330658Y-99902000D01*
X128342463Y-99913805D01*
X128342466Y-99913807D01*
X142028669Y-113600011D01*
X141771353Y-113600011D01*
X129738806Y-101567465D01*
X129738804Y-101567462D01*
X129702000Y-101530658D01*
X129702000Y-101500146D01*
X129625575Y-101315640D01*
X129484360Y-101174425D01*
X129299854Y-101098000D01*
X129100146Y-101098000D01*
X128915640Y-101174425D01*
X128774425Y-101315640D01*
X128698000Y-101500146D01*
X128698000Y-101699854D01*
X128774425Y-101884360D01*
X128915640Y-102025575D01*
X129100146Y-102102000D01*
X129130658Y-102102000D01*
X129167462Y-102138804D01*
X129167465Y-102138806D01*
X141290206Y-114261548D01*
X141312744Y-114295278D01*
X141446378Y-114384570D01*
X141564224Y-114408011D01*
X141564228Y-114408011D01*
X141604011Y-114415924D01*
X141643794Y-114408011D01*
X143773000Y-114408011D01*
X143773000Y-114641250D01*
X143854750Y-114723000D01*
X143900021Y-114723000D01*
X143859641Y-114854848D01*
X143871343Y-114977000D01*
X143854750Y-114977000D01*
X143773000Y-115058750D01*
X143773000Y-116041250D01*
X143854750Y-116123000D01*
X144673000Y-116123000D01*
X144673000Y-115880605D01*
X144704848Y-115890359D01*
X144927000Y-115869078D01*
X144927000Y-116123000D01*
X144947000Y-116123000D01*
X144947000Y-116377000D01*
X144927000Y-116377000D01*
X144927000Y-116619395D01*
X144895152Y-116609641D01*
X144673000Y-116630922D01*
X144673000Y-116377000D01*
X143854750Y-116377000D01*
X143773000Y-116458750D01*
X143773000Y-117441250D01*
X143854750Y-117523000D01*
X143866170Y-117523000D01*
X143890502Y-117777000D01*
X143854750Y-117777000D01*
X143773000Y-117858750D01*
X143773000Y-118191989D01*
X139043794Y-118191989D01*
X139004011Y-118184076D01*
X138964228Y-118191989D01*
X138964224Y-118191989D01*
X138848319Y-118215044D01*
X138846378Y-118215430D01*
X138746473Y-118282184D01*
X138746470Y-118282187D01*
X138712744Y-118304722D01*
X138690209Y-118338448D01*
X129167465Y-127861194D01*
X129167462Y-127861196D01*
X129130658Y-127898000D01*
X129100146Y-127898000D01*
X128915640Y-127974425D01*
X128774425Y-128115640D01*
X128698000Y-128300146D01*
X128698000Y-128499854D01*
X128774425Y-128684360D01*
X128915640Y-128825575D01*
X129100146Y-128902000D01*
X129299854Y-128902000D01*
X129484360Y-128825575D01*
X129625575Y-128684360D01*
X129702000Y-128499854D01*
X129702000Y-128469342D01*
X129738804Y-128432538D01*
X129738806Y-128432535D01*
X139171354Y-118999989D01*
X139428669Y-118999989D01*
X128330653Y-130098006D01*
X128300146Y-130098006D01*
X128115640Y-130174431D01*
X127974425Y-130315646D01*
X127898000Y-130500152D01*
X127898000Y-130699860D01*
X127974425Y-130884366D01*
X128115640Y-131025581D01*
X128300146Y-131102006D01*
X128499854Y-131102006D01*
X128684360Y-131025581D01*
X128825575Y-130884366D01*
X128902000Y-130699860D01*
X128902000Y-130669341D01*
X140167342Y-119404000D01*
X143773000Y-119404000D01*
X143773000Y-119641250D01*
X143854750Y-119723000D01*
X143900021Y-119723000D01*
X143859641Y-119854848D01*
X143871343Y-119977000D01*
X143854750Y-119977000D01*
X143773000Y-120058750D01*
X143773000Y-121041250D01*
X143854750Y-121123000D01*
X144673000Y-121123000D01*
X144673000Y-120880605D01*
X144704848Y-120890359D01*
X144927000Y-120869078D01*
X144927000Y-121123000D01*
X144947000Y-121123000D01*
X144947000Y-121377000D01*
X144927000Y-121377000D01*
X144927000Y-121619395D01*
X144895152Y-121609641D01*
X144673000Y-121630922D01*
X144673000Y-121377000D01*
X143854750Y-121377000D01*
X143773000Y-121458750D01*
X143773000Y-122441250D01*
X143854750Y-122523000D01*
X143866170Y-122523000D01*
X143890502Y-122777000D01*
X143854750Y-122777000D01*
X143773000Y-122858750D01*
X143773000Y-123023001D01*
X137012780Y-123023001D01*
X136972998Y-123015088D01*
X136933217Y-123023001D01*
X136933212Y-123023001D01*
X136815366Y-123046442D01*
X136681732Y-123135734D01*
X136659195Y-123169463D01*
X131567465Y-128261194D01*
X131567462Y-128261196D01*
X131530658Y-128298000D01*
X131500146Y-128298000D01*
X131315640Y-128374425D01*
X131174425Y-128515640D01*
X131098000Y-128700146D01*
X131098000Y-128899854D01*
X131174425Y-129084360D01*
X131315640Y-129225575D01*
X131500146Y-129302000D01*
X131699854Y-129302000D01*
X131884360Y-129225575D01*
X132025575Y-129084360D01*
X132102000Y-128899854D01*
X132102000Y-128869342D01*
X132138804Y-128832538D01*
X132138806Y-128832535D01*
X137140341Y-123831001D01*
X137397657Y-123831001D01*
X136542465Y-124686194D01*
X136542462Y-124686196D01*
X131063058Y-130165601D01*
X130899854Y-130098000D01*
X130700146Y-130098000D01*
X130515640Y-130174425D01*
X130374425Y-130315640D01*
X130298000Y-130500146D01*
X130298000Y-130699854D01*
X130374425Y-130884360D01*
X130515640Y-131025575D01*
X130700146Y-131102000D01*
X130899854Y-131102000D01*
X131084360Y-131025575D01*
X131105935Y-131004000D01*
X131160217Y-131004000D01*
X131200000Y-131011913D01*
X131239783Y-131004000D01*
X131239787Y-131004000D01*
X131357633Y-130980559D01*
X131491267Y-130891267D01*
X131513806Y-130857535D01*
X137113804Y-125257538D01*
X137113806Y-125257535D01*
X138136331Y-124235011D01*
X143793688Y-124235011D01*
X143773000Y-124284956D01*
X143773000Y-124641250D01*
X143854750Y-124723000D01*
X143900021Y-124723000D01*
X143859641Y-124854848D01*
X143871343Y-124977000D01*
X143854750Y-124977000D01*
X143773000Y-125058750D01*
X143773000Y-126041250D01*
X143854750Y-126123000D01*
X144673000Y-126123000D01*
X144673000Y-125880605D01*
X144704848Y-125890359D01*
X144927000Y-125869078D01*
X144927000Y-126123000D01*
X144947000Y-126123000D01*
X144947000Y-126377000D01*
X144927000Y-126377000D01*
X144927000Y-126619395D01*
X144895152Y-126609641D01*
X144673000Y-126630922D01*
X144673000Y-126377000D01*
X143854750Y-126377000D01*
X143773000Y-126458750D01*
X143773000Y-127441250D01*
X143854750Y-127523000D01*
X143866170Y-127523000D01*
X143890502Y-127777000D01*
X143854750Y-127777000D01*
X143773000Y-127858750D01*
X143773000Y-128196000D01*
X143538700Y-128196000D01*
X142685163Y-127342465D01*
X142662624Y-127308733D01*
X142528990Y-127219441D01*
X142411144Y-127196000D01*
X142411140Y-127196000D01*
X142371357Y-127188087D01*
X142331574Y-127196000D01*
X135639782Y-127196000D01*
X135599999Y-127188087D01*
X135560216Y-127196000D01*
X135560213Y-127196000D01*
X135442367Y-127219441D01*
X135308733Y-127308733D01*
X135286195Y-127342463D01*
X133967465Y-128661194D01*
X133967462Y-128661196D01*
X133930658Y-128698000D01*
X133900146Y-128698000D01*
X133715640Y-128774425D01*
X133574425Y-128915640D01*
X133498000Y-129100146D01*
X133498000Y-129299854D01*
X133574425Y-129484360D01*
X133715640Y-129625575D01*
X133900146Y-129702000D01*
X134099854Y-129702000D01*
X134284360Y-129625575D01*
X134425575Y-129484360D01*
X134502000Y-129299854D01*
X134502000Y-129269342D01*
X134538804Y-129232538D01*
X134538806Y-129232535D01*
X135767342Y-128004000D01*
X142204016Y-128004000D01*
X142396015Y-128196000D01*
X136039782Y-128196000D01*
X135999999Y-128188087D01*
X135960216Y-128196000D01*
X135960213Y-128196000D01*
X135842367Y-128219441D01*
X135708733Y-128308733D01*
X135686196Y-128342462D01*
X133832659Y-130196000D01*
X133505935Y-130196000D01*
X133484360Y-130174425D01*
X133299854Y-130098000D01*
X133100146Y-130098000D01*
X132915640Y-130174425D01*
X132774425Y-130315640D01*
X132698000Y-130500146D01*
X132698000Y-130699854D01*
X132774425Y-130884360D01*
X132915640Y-131025575D01*
X133100146Y-131102000D01*
X133299854Y-131102000D01*
X133484360Y-131025575D01*
X133505935Y-131004000D01*
X133960217Y-131004000D01*
X134000000Y-131011913D01*
X134039783Y-131004000D01*
X134039787Y-131004000D01*
X134157633Y-130980559D01*
X134291267Y-130891267D01*
X134313806Y-130857535D01*
X136167342Y-129004000D01*
X142632659Y-129004000D01*
X142890206Y-129261548D01*
X142912744Y-129295278D01*
X143046378Y-129384570D01*
X143164224Y-129408011D01*
X143164228Y-129408011D01*
X143204011Y-129415924D01*
X143243794Y-129408011D01*
X143773000Y-129408011D01*
X143773000Y-129641250D01*
X143854750Y-129723000D01*
X143900021Y-129723000D01*
X143859641Y-129854848D01*
X143871343Y-129977000D01*
X143854750Y-129977000D01*
X143773000Y-130058750D01*
X143773000Y-131041250D01*
X143854750Y-131123000D01*
X144673000Y-131123000D01*
X144673000Y-130880605D01*
X144704848Y-130890359D01*
X144927000Y-130869078D01*
X144927000Y-131123000D01*
X144947000Y-131123000D01*
X144947000Y-131377000D01*
X144927000Y-131377000D01*
X144927000Y-131619395D01*
X144895152Y-131609641D01*
X144673000Y-131630922D01*
X144673000Y-131377000D01*
X143854750Y-131377000D01*
X143773000Y-131458750D01*
X143773000Y-132441250D01*
X143854750Y-132523000D01*
X143866170Y-132523000D01*
X143890502Y-132777000D01*
X143854750Y-132777000D01*
X143773000Y-132858750D01*
X143773000Y-133023001D01*
X143594343Y-133023001D01*
X139913806Y-129342465D01*
X139891267Y-129308733D01*
X139757633Y-129219441D01*
X139639787Y-129196000D01*
X139639783Y-129196000D01*
X139600000Y-129188087D01*
X139560217Y-129196000D01*
X136705933Y-129196000D01*
X136684358Y-129174425D01*
X136499852Y-129098000D01*
X136300144Y-129098000D01*
X136115638Y-129174425D01*
X135974423Y-129315640D01*
X135897998Y-129500146D01*
X135897998Y-129699854D01*
X135974423Y-129884360D01*
X136115638Y-130025575D01*
X136300144Y-130102000D01*
X136499852Y-130102000D01*
X136684358Y-130025575D01*
X136705933Y-130004000D01*
X139432659Y-130004000D01*
X139624659Y-130196000D01*
X135905935Y-130196000D01*
X135884360Y-130174425D01*
X135699854Y-130098000D01*
X135500146Y-130098000D01*
X135315640Y-130174425D01*
X135174425Y-130315640D01*
X135098000Y-130500146D01*
X135098000Y-130699854D01*
X135174425Y-130884360D01*
X135315640Y-131025575D01*
X135500146Y-131102000D01*
X135699854Y-131102000D01*
X135884360Y-131025575D01*
X135905935Y-131004000D01*
X139832659Y-131004000D01*
X143086196Y-134257537D01*
X143108733Y-134291267D01*
X143242367Y-134380559D01*
X143360213Y-134404000D01*
X143360216Y-134404000D01*
X143399999Y-134411913D01*
X143439782Y-134404000D01*
X147032659Y-134404000D01*
X147501659Y-134873000D01*
X142977000Y-134873000D01*
X142977000Y-134825554D01*
X142843484Y-134503220D01*
X142596780Y-134256516D01*
X142274446Y-134123000D01*
X141925554Y-134123000D01*
X141603220Y-134256516D01*
X141356516Y-134503220D01*
X141223000Y-134825554D01*
X141223000Y-134873000D01*
X127127000Y-134873000D01*
X127127000Y-95127000D01*
X141423000Y-95127000D01*
X141423000Y-95134664D01*
X141423000Y-95134664D01*
G37*
X141423000Y-95134664D02*
X141526067Y-95383490D01*
X141716510Y-95573933D01*
X141965336Y-95677000D01*
X142234664Y-95677000D01*
X142483490Y-95573933D01*
X142673933Y-95383490D01*
X142777000Y-95134664D01*
X142777000Y-95127000D01*
X143773000Y-95127000D01*
X143773000Y-96041250D01*
X143854750Y-96123000D01*
X144673000Y-96123000D01*
X144673000Y-96103000D01*
X144927000Y-96103000D01*
X144927000Y-96123000D01*
X144947000Y-96123000D01*
X144947000Y-96377000D01*
X144927000Y-96377000D01*
X144927000Y-96619395D01*
X144895152Y-96609641D01*
X144673000Y-96630922D01*
X144673000Y-96377000D01*
X143854750Y-96377000D01*
X143773000Y-96458750D01*
X143773000Y-97441250D01*
X143854750Y-97523000D01*
X143866170Y-97523000D01*
X143890502Y-97777000D01*
X143854750Y-97777000D01*
X143773000Y-97858750D01*
X143773000Y-98195941D01*
X143772702Y-98196000D01*
X136439782Y-98196000D01*
X136399999Y-98188087D01*
X136360216Y-98196000D01*
X136360213Y-98196000D01*
X136242367Y-98219441D01*
X136108733Y-98308733D01*
X136086195Y-98342463D01*
X135567465Y-98861194D01*
X135567462Y-98861196D01*
X135530658Y-98898000D01*
X135500146Y-98898000D01*
X135315640Y-98974425D01*
X135174425Y-99115640D01*
X135098000Y-99300146D01*
X135098000Y-99499854D01*
X135174425Y-99684360D01*
X135315640Y-99825575D01*
X135500146Y-99902000D01*
X135699854Y-99902000D01*
X135884360Y-99825575D01*
X136025575Y-99684360D01*
X136102000Y-99499854D01*
X136102000Y-99469342D01*
X136138804Y-99432538D01*
X136138806Y-99432535D01*
X136567342Y-99004000D01*
X143424658Y-99004000D01*
X143032659Y-99396000D01*
X136839783Y-99396000D01*
X136800000Y-99388087D01*
X136760217Y-99396000D01*
X136760213Y-99396000D01*
X136642367Y-99419441D01*
X136608055Y-99442368D01*
X136508733Y-99508733D01*
X136486195Y-99542463D01*
X136330658Y-99698000D01*
X136300146Y-99698000D01*
X136115640Y-99774425D01*
X135974425Y-99915640D01*
X135898000Y-100100146D01*
X135898000Y-100299854D01*
X135974425Y-100484360D01*
X136115640Y-100625575D01*
X136300146Y-100702000D01*
X136499854Y-100702000D01*
X136684360Y-100625575D01*
X136825575Y-100484360D01*
X136902000Y-100299854D01*
X136902000Y-100269342D01*
X136913807Y-100257535D01*
X136967341Y-100204000D01*
X143160217Y-100204000D01*
X143200000Y-100211913D01*
X143239783Y-100204000D01*
X143239787Y-100204000D01*
X143357633Y-100180559D01*
X143491267Y-100091267D01*
X143513806Y-100057535D01*
X143851546Y-99719796D01*
X143854750Y-99723000D01*
X143900021Y-99723000D01*
X143859641Y-99854848D01*
X143871343Y-99977000D01*
X143854750Y-99977000D01*
X143773000Y-100058750D01*
X143773000Y-101041250D01*
X143854750Y-101123000D01*
X144673000Y-101123000D01*
X144673000Y-100880605D01*
X144704848Y-100890359D01*
X144927000Y-100869078D01*
X144927000Y-101123000D01*
X144947000Y-101123000D01*
X144947000Y-101377000D01*
X144927000Y-101377000D01*
X144927000Y-101619395D01*
X144895152Y-101609641D01*
X144673000Y-101630922D01*
X144673000Y-101377000D01*
X143854750Y-101377000D01*
X143773000Y-101458750D01*
X143773000Y-102441250D01*
X143854750Y-102523000D01*
X143866170Y-102523000D01*
X143890502Y-102777000D01*
X143854750Y-102777000D01*
X143773000Y-102858750D01*
X143773000Y-103135000D01*
X138306342Y-103135000D01*
X134313806Y-99142465D01*
X134291267Y-99108733D01*
X134157633Y-99019441D01*
X134039787Y-98996000D01*
X134039783Y-98996000D01*
X134000000Y-98988087D01*
X133960217Y-98996000D01*
X133505935Y-98996000D01*
X133484360Y-98974425D01*
X133299854Y-98898000D01*
X133100146Y-98898000D01*
X132915640Y-98974425D01*
X132774425Y-99115640D01*
X132698000Y-99300146D01*
X132698000Y-99499854D01*
X132774425Y-99684360D01*
X132915640Y-99825575D01*
X133100146Y-99902000D01*
X133299854Y-99902000D01*
X133484360Y-99825575D01*
X133505935Y-99804000D01*
X133832659Y-99804000D01*
X137567669Y-103539011D01*
X137310353Y-103539011D01*
X134538806Y-100767465D01*
X134538804Y-100767462D01*
X134502000Y-100730658D01*
X134502000Y-100700146D01*
X134425575Y-100515640D01*
X134284360Y-100374425D01*
X134099854Y-100298000D01*
X133900146Y-100298000D01*
X133715640Y-100374425D01*
X133574425Y-100515640D01*
X133498000Y-100700146D01*
X133498000Y-100899854D01*
X133574425Y-101084360D01*
X133715640Y-101225575D01*
X133900146Y-101302000D01*
X133930658Y-101302000D01*
X133967462Y-101338804D01*
X133967465Y-101338806D01*
X136829207Y-104200548D01*
X136851744Y-104234278D01*
X136985378Y-104323570D01*
X137103224Y-104347011D01*
X137103227Y-104347011D01*
X137143010Y-104354924D01*
X137182793Y-104347011D01*
X143773000Y-104347011D01*
X143773000Y-104641250D01*
X143854750Y-104723000D01*
X143900021Y-104723000D01*
X143859641Y-104854848D01*
X143871343Y-104977000D01*
X143854750Y-104977000D01*
X143773000Y-105058750D01*
X143773000Y-106041250D01*
X143854750Y-106123000D01*
X144673000Y-106123000D01*
X144673000Y-105880605D01*
X144704848Y-105890359D01*
X144927000Y-105869078D01*
X144927000Y-106123000D01*
X144947000Y-106123000D01*
X144947000Y-106377000D01*
X144927000Y-106377000D01*
X144927000Y-106619395D01*
X144895152Y-106609641D01*
X144673000Y-106630922D01*
X144673000Y-106377000D01*
X143854750Y-106377000D01*
X143773000Y-106458750D01*
X143773000Y-107441250D01*
X143854750Y-107523000D01*
X143866170Y-107523000D01*
X143890502Y-107777000D01*
X143854750Y-107777000D01*
X143773000Y-107858750D01*
X143773000Y-108196000D01*
X140567342Y-108196000D01*
X131513806Y-99142465D01*
X131491267Y-99108733D01*
X131357633Y-99019441D01*
X131239787Y-98996000D01*
X131239783Y-98996000D01*
X131200000Y-98988087D01*
X131160217Y-98996000D01*
X130905935Y-98996000D01*
X130884360Y-98974425D01*
X130699854Y-98898000D01*
X130500146Y-98898000D01*
X130315640Y-98974425D01*
X130174425Y-99115640D01*
X130098000Y-99300146D01*
X130098000Y-99499854D01*
X130174425Y-99684360D01*
X130315640Y-99825575D01*
X130500146Y-99902000D01*
X130699854Y-99902000D01*
X130884360Y-99825575D01*
X130905935Y-99804000D01*
X131032659Y-99804000D01*
X139828669Y-108600011D01*
X139571354Y-108600011D01*
X132138806Y-101167465D01*
X132138804Y-101167462D01*
X132102000Y-101130658D01*
X132102000Y-101100146D01*
X132025575Y-100915640D01*
X131884360Y-100774425D01*
X131699854Y-100698000D01*
X131500146Y-100698000D01*
X131315640Y-100774425D01*
X131174425Y-100915640D01*
X131098000Y-101100146D01*
X131098000Y-101299854D01*
X131174425Y-101484360D01*
X131315640Y-101625575D01*
X131500146Y-101702000D01*
X131530658Y-101702000D01*
X131567462Y-101738804D01*
X131567465Y-101738806D01*
X139090209Y-109261552D01*
X139112744Y-109295278D01*
X139146470Y-109317813D01*
X139146473Y-109317816D01*
X139246378Y-109384570D01*
X139404011Y-109415925D01*
X139443797Y-109408011D01*
X143773000Y-109408011D01*
X143773000Y-109641250D01*
X143854750Y-109723000D01*
X143900021Y-109723000D01*
X143859641Y-109854848D01*
X143871343Y-109977000D01*
X143854750Y-109977000D01*
X143773000Y-110058750D01*
X143773000Y-111041250D01*
X143854750Y-111123000D01*
X144673000Y-111123000D01*
X144673000Y-110880605D01*
X144704848Y-110890359D01*
X144927000Y-110869078D01*
X144927000Y-111123000D01*
X144947000Y-111123000D01*
X144947000Y-111377000D01*
X144927000Y-111377000D01*
X144927000Y-111619395D01*
X144895152Y-111609641D01*
X144673000Y-111630922D01*
X144673000Y-111377000D01*
X143854750Y-111377000D01*
X143773000Y-111458750D01*
X143773000Y-112441250D01*
X143854750Y-112523000D01*
X143866170Y-112523000D01*
X143890502Y-112777000D01*
X143854750Y-112777000D01*
X143773000Y-112858750D01*
X143773000Y-113196000D01*
X142767342Y-113196000D01*
X128913807Y-99342466D01*
X128913805Y-99342463D01*
X128902000Y-99330658D01*
X128902000Y-99300146D01*
X128825575Y-99115640D01*
X128684360Y-98974425D01*
X128499854Y-98898000D01*
X128300146Y-98898000D01*
X128115640Y-98974425D01*
X127974425Y-99115640D01*
X127898000Y-99300146D01*
X127898000Y-99499854D01*
X127974425Y-99684360D01*
X128115640Y-99825575D01*
X128300146Y-99902000D01*
X128330658Y-99902000D01*
X128342463Y-99913805D01*
X128342466Y-99913807D01*
X142028669Y-113600011D01*
X141771353Y-113600011D01*
X129738806Y-101567465D01*
X129738804Y-101567462D01*
X129702000Y-101530658D01*
X129702000Y-101500146D01*
X129625575Y-101315640D01*
X129484360Y-101174425D01*
X129299854Y-101098000D01*
X129100146Y-101098000D01*
X128915640Y-101174425D01*
X128774425Y-101315640D01*
X128698000Y-101500146D01*
X128698000Y-101699854D01*
X128774425Y-101884360D01*
X128915640Y-102025575D01*
X129100146Y-102102000D01*
X129130658Y-102102000D01*
X129167462Y-102138804D01*
X129167465Y-102138806D01*
X141290206Y-114261548D01*
X141312744Y-114295278D01*
X141446378Y-114384570D01*
X141564224Y-114408011D01*
X141564228Y-114408011D01*
X141604011Y-114415924D01*
X141643794Y-114408011D01*
X143773000Y-114408011D01*
X143773000Y-114641250D01*
X143854750Y-114723000D01*
X143900021Y-114723000D01*
X143859641Y-114854848D01*
X143871343Y-114977000D01*
X143854750Y-114977000D01*
X143773000Y-115058750D01*
X143773000Y-116041250D01*
X143854750Y-116123000D01*
X144673000Y-116123000D01*
X144673000Y-115880605D01*
X144704848Y-115890359D01*
X144927000Y-115869078D01*
X144927000Y-116123000D01*
X144947000Y-116123000D01*
X144947000Y-116377000D01*
X144927000Y-116377000D01*
X144927000Y-116619395D01*
X144895152Y-116609641D01*
X144673000Y-116630922D01*
X144673000Y-116377000D01*
X143854750Y-116377000D01*
X143773000Y-116458750D01*
X143773000Y-117441250D01*
X143854750Y-117523000D01*
X143866170Y-117523000D01*
X143890502Y-117777000D01*
X143854750Y-117777000D01*
X143773000Y-117858750D01*
X143773000Y-118191989D01*
X139043794Y-118191989D01*
X139004011Y-118184076D01*
X138964228Y-118191989D01*
X138964224Y-118191989D01*
X138848319Y-118215044D01*
X138846378Y-118215430D01*
X138746473Y-118282184D01*
X138746470Y-118282187D01*
X138712744Y-118304722D01*
X138690209Y-118338448D01*
X129167465Y-127861194D01*
X129167462Y-127861196D01*
X129130658Y-127898000D01*
X129100146Y-127898000D01*
X128915640Y-127974425D01*
X128774425Y-128115640D01*
X128698000Y-128300146D01*
X128698000Y-128499854D01*
X128774425Y-128684360D01*
X128915640Y-128825575D01*
X129100146Y-128902000D01*
X129299854Y-128902000D01*
X129484360Y-128825575D01*
X129625575Y-128684360D01*
X129702000Y-128499854D01*
X129702000Y-128469342D01*
X129738804Y-128432538D01*
X129738806Y-128432535D01*
X139171354Y-118999989D01*
X139428669Y-118999989D01*
X128330653Y-130098006D01*
X128300146Y-130098006D01*
X128115640Y-130174431D01*
X127974425Y-130315646D01*
X127898000Y-130500152D01*
X127898000Y-130699860D01*
X127974425Y-130884366D01*
X128115640Y-131025581D01*
X128300146Y-131102006D01*
X128499854Y-131102006D01*
X128684360Y-131025581D01*
X128825575Y-130884366D01*
X128902000Y-130699860D01*
X128902000Y-130669341D01*
X140167342Y-119404000D01*
X143773000Y-119404000D01*
X143773000Y-119641250D01*
X143854750Y-119723000D01*
X143900021Y-119723000D01*
X143859641Y-119854848D01*
X143871343Y-119977000D01*
X143854750Y-119977000D01*
X143773000Y-120058750D01*
X143773000Y-121041250D01*
X143854750Y-121123000D01*
X144673000Y-121123000D01*
X144673000Y-120880605D01*
X144704848Y-120890359D01*
X144927000Y-120869078D01*
X144927000Y-121123000D01*
X144947000Y-121123000D01*
X144947000Y-121377000D01*
X144927000Y-121377000D01*
X144927000Y-121619395D01*
X144895152Y-121609641D01*
X144673000Y-121630922D01*
X144673000Y-121377000D01*
X143854750Y-121377000D01*
X143773000Y-121458750D01*
X143773000Y-122441250D01*
X143854750Y-122523000D01*
X143866170Y-122523000D01*
X143890502Y-122777000D01*
X143854750Y-122777000D01*
X143773000Y-122858750D01*
X143773000Y-123023001D01*
X137012780Y-123023001D01*
X136972998Y-123015088D01*
X136933217Y-123023001D01*
X136933212Y-123023001D01*
X136815366Y-123046442D01*
X136681732Y-123135734D01*
X136659195Y-123169463D01*
X131567465Y-128261194D01*
X131567462Y-128261196D01*
X131530658Y-128298000D01*
X131500146Y-128298000D01*
X131315640Y-128374425D01*
X131174425Y-128515640D01*
X131098000Y-128700146D01*
X131098000Y-128899854D01*
X131174425Y-129084360D01*
X131315640Y-129225575D01*
X131500146Y-129302000D01*
X131699854Y-129302000D01*
X131884360Y-129225575D01*
X132025575Y-129084360D01*
X132102000Y-128899854D01*
X132102000Y-128869342D01*
X132138804Y-128832538D01*
X132138806Y-128832535D01*
X137140341Y-123831001D01*
X137397657Y-123831001D01*
X136542465Y-124686194D01*
X136542462Y-124686196D01*
X131063058Y-130165601D01*
X130899854Y-130098000D01*
X130700146Y-130098000D01*
X130515640Y-130174425D01*
X130374425Y-130315640D01*
X130298000Y-130500146D01*
X130298000Y-130699854D01*
X130374425Y-130884360D01*
X130515640Y-131025575D01*
X130700146Y-131102000D01*
X130899854Y-131102000D01*
X131084360Y-131025575D01*
X131105935Y-131004000D01*
X131160217Y-131004000D01*
X131200000Y-131011913D01*
X131239783Y-131004000D01*
X131239787Y-131004000D01*
X131357633Y-130980559D01*
X131491267Y-130891267D01*
X131513806Y-130857535D01*
X137113804Y-125257538D01*
X137113806Y-125257535D01*
X138136331Y-124235011D01*
X143793688Y-124235011D01*
X143773000Y-124284956D01*
X143773000Y-124641250D01*
X143854750Y-124723000D01*
X143900021Y-124723000D01*
X143859641Y-124854848D01*
X143871343Y-124977000D01*
X143854750Y-124977000D01*
X143773000Y-125058750D01*
X143773000Y-126041250D01*
X143854750Y-126123000D01*
X144673000Y-126123000D01*
X144673000Y-125880605D01*
X144704848Y-125890359D01*
X144927000Y-125869078D01*
X144927000Y-126123000D01*
X144947000Y-126123000D01*
X144947000Y-126377000D01*
X144927000Y-126377000D01*
X144927000Y-126619395D01*
X144895152Y-126609641D01*
X144673000Y-126630922D01*
X144673000Y-126377000D01*
X143854750Y-126377000D01*
X143773000Y-126458750D01*
X143773000Y-127441250D01*
X143854750Y-127523000D01*
X143866170Y-127523000D01*
X143890502Y-127777000D01*
X143854750Y-127777000D01*
X143773000Y-127858750D01*
X143773000Y-128196000D01*
X143538700Y-128196000D01*
X142685163Y-127342465D01*
X142662624Y-127308733D01*
X142528990Y-127219441D01*
X142411144Y-127196000D01*
X142411140Y-127196000D01*
X142371357Y-127188087D01*
X142331574Y-127196000D01*
X135639782Y-127196000D01*
X135599999Y-127188087D01*
X135560216Y-127196000D01*
X135560213Y-127196000D01*
X135442367Y-127219441D01*
X135308733Y-127308733D01*
X135286195Y-127342463D01*
X133967465Y-128661194D01*
X133967462Y-128661196D01*
X133930658Y-128698000D01*
X133900146Y-128698000D01*
X133715640Y-128774425D01*
X133574425Y-128915640D01*
X133498000Y-129100146D01*
X133498000Y-129299854D01*
X133574425Y-129484360D01*
X133715640Y-129625575D01*
X133900146Y-129702000D01*
X134099854Y-129702000D01*
X134284360Y-129625575D01*
X134425575Y-129484360D01*
X134502000Y-129299854D01*
X134502000Y-129269342D01*
X134538804Y-129232538D01*
X134538806Y-129232535D01*
X135767342Y-128004000D01*
X142204016Y-128004000D01*
X142396015Y-128196000D01*
X136039782Y-128196000D01*
X135999999Y-128188087D01*
X135960216Y-128196000D01*
X135960213Y-128196000D01*
X135842367Y-128219441D01*
X135708733Y-128308733D01*
X135686196Y-128342462D01*
X133832659Y-130196000D01*
X133505935Y-130196000D01*
X133484360Y-130174425D01*
X133299854Y-130098000D01*
X133100146Y-130098000D01*
X132915640Y-130174425D01*
X132774425Y-130315640D01*
X132698000Y-130500146D01*
X132698000Y-130699854D01*
X132774425Y-130884360D01*
X132915640Y-131025575D01*
X133100146Y-131102000D01*
X133299854Y-131102000D01*
X133484360Y-131025575D01*
X133505935Y-131004000D01*
X133960217Y-131004000D01*
X134000000Y-131011913D01*
X134039783Y-131004000D01*
X134039787Y-131004000D01*
X134157633Y-130980559D01*
X134291267Y-130891267D01*
X134313806Y-130857535D01*
X136167342Y-129004000D01*
X142632659Y-129004000D01*
X142890206Y-129261548D01*
X142912744Y-129295278D01*
X143046378Y-129384570D01*
X143164224Y-129408011D01*
X143164228Y-129408011D01*
X143204011Y-129415924D01*
X143243794Y-129408011D01*
X143773000Y-129408011D01*
X143773000Y-129641250D01*
X143854750Y-129723000D01*
X143900021Y-129723000D01*
X143859641Y-129854848D01*
X143871343Y-129977000D01*
X143854750Y-129977000D01*
X143773000Y-130058750D01*
X143773000Y-131041250D01*
X143854750Y-131123000D01*
X144673000Y-131123000D01*
X144673000Y-130880605D01*
X144704848Y-130890359D01*
X144927000Y-130869078D01*
X144927000Y-131123000D01*
X144947000Y-131123000D01*
X144947000Y-131377000D01*
X144927000Y-131377000D01*
X144927000Y-131619395D01*
X144895152Y-131609641D01*
X144673000Y-131630922D01*
X144673000Y-131377000D01*
X143854750Y-131377000D01*
X143773000Y-131458750D01*
X143773000Y-132441250D01*
X143854750Y-132523000D01*
X143866170Y-132523000D01*
X143890502Y-132777000D01*
X143854750Y-132777000D01*
X143773000Y-132858750D01*
X143773000Y-133023001D01*
X143594343Y-133023001D01*
X139913806Y-129342465D01*
X139891267Y-129308733D01*
X139757633Y-129219441D01*
X139639787Y-129196000D01*
X139639783Y-129196000D01*
X139600000Y-129188087D01*
X139560217Y-129196000D01*
X136705933Y-129196000D01*
X136684358Y-129174425D01*
X136499852Y-129098000D01*
X136300144Y-129098000D01*
X136115638Y-129174425D01*
X135974423Y-129315640D01*
X135897998Y-129500146D01*
X135897998Y-129699854D01*
X135974423Y-129884360D01*
X136115638Y-130025575D01*
X136300144Y-130102000D01*
X136499852Y-130102000D01*
X136684358Y-130025575D01*
X136705933Y-130004000D01*
X139432659Y-130004000D01*
X139624659Y-130196000D01*
X135905935Y-130196000D01*
X135884360Y-130174425D01*
X135699854Y-130098000D01*
X135500146Y-130098000D01*
X135315640Y-130174425D01*
X135174425Y-130315640D01*
X135098000Y-130500146D01*
X135098000Y-130699854D01*
X135174425Y-130884360D01*
X135315640Y-131025575D01*
X135500146Y-131102000D01*
X135699854Y-131102000D01*
X135884360Y-131025575D01*
X135905935Y-131004000D01*
X139832659Y-131004000D01*
X143086196Y-134257537D01*
X143108733Y-134291267D01*
X143242367Y-134380559D01*
X143360213Y-134404000D01*
X143360216Y-134404000D01*
X143399999Y-134411913D01*
X143439782Y-134404000D01*
X147032659Y-134404000D01*
X147501659Y-134873000D01*
X142977000Y-134873000D01*
X142977000Y-134825554D01*
X142843484Y-134503220D01*
X142596780Y-134256516D01*
X142274446Y-134123000D01*
X141925554Y-134123000D01*
X141603220Y-134256516D01*
X141356516Y-134503220D01*
X141223000Y-134825554D01*
X141223000Y-134873000D01*
X127127000Y-134873000D01*
X127127000Y-95127000D01*
X141423000Y-95127000D01*
X141423000Y-95134664D01*
G36*
X153873000Y-132832094D02*
X153800000Y-132817574D01*
X153427000Y-132817574D01*
X153427000Y-132558750D01*
X153345250Y-132477000D01*
X151733830Y-132477000D01*
X151707582Y-132203000D01*
X151727000Y-132203000D01*
X151727000Y-132223000D01*
X153345250Y-132223000D01*
X153427000Y-132141250D01*
X153427000Y-131784956D01*
X153377217Y-131664770D01*
X153303729Y-131591281D01*
X153357633Y-131580559D01*
X153491267Y-131491267D01*
X153513806Y-131457535D01*
X153873000Y-131098341D01*
X153873000Y-132832094D01*
X153873000Y-132832094D01*
G37*
X153873000Y-132832094D02*
X153800000Y-132817574D01*
X153427000Y-132817574D01*
X153427000Y-132558750D01*
X153345250Y-132477000D01*
X151733830Y-132477000D01*
X151707582Y-132203000D01*
X151727000Y-132203000D01*
X151727000Y-132223000D01*
X153345250Y-132223000D01*
X153427000Y-132141250D01*
X153427000Y-131784956D01*
X153377217Y-131664770D01*
X153303729Y-131591281D01*
X153357633Y-131580559D01*
X153491267Y-131491267D01*
X153513806Y-131457535D01*
X153873000Y-131098341D01*
X153873000Y-132832094D01*
G36*
X147650000Y-132321342D02*
X147650001Y-132527259D01*
X147372755Y-132804505D01*
X147345250Y-132777000D01*
X145727000Y-132777000D01*
X145727000Y-132797000D01*
X145693854Y-132797000D01*
X145740359Y-132645152D01*
X145728657Y-132523000D01*
X147345250Y-132523000D01*
X147427000Y-132441250D01*
X147427000Y-132182426D01*
X147511084Y-132182426D01*
X147650000Y-132321342D01*
X147650000Y-132321342D01*
G37*
X147650000Y-132321342D02*
X147650001Y-132527259D01*
X147372755Y-132804505D01*
X147345250Y-132777000D01*
X145727000Y-132777000D01*
X145727000Y-132797000D01*
X145693854Y-132797000D01*
X145740359Y-132645152D01*
X145728657Y-132523000D01*
X147345250Y-132523000D01*
X147427000Y-132441250D01*
X147427000Y-132182426D01*
X147511084Y-132182426D01*
X147650000Y-132321342D01*
G36*
X144980678Y-132548928D02*
X144979605Y-132550000D01*
X144993748Y-132564143D01*
X144814143Y-132743748D01*
X144800000Y-132729605D01*
X144785858Y-132743748D01*
X144606253Y-132564143D01*
X144620395Y-132550000D01*
X144619323Y-132548928D01*
X144645250Y-132523000D01*
X144954750Y-132523000D01*
X144980678Y-132548928D01*
X144980678Y-132548928D01*
G37*
X144980678Y-132548928D02*
X144979605Y-132550000D01*
X144993748Y-132564143D01*
X144814143Y-132743748D01*
X144800000Y-132729605D01*
X144785858Y-132743748D01*
X144606253Y-132564143D01*
X144620395Y-132550000D01*
X144619323Y-132548928D01*
X144645250Y-132523000D01*
X144954750Y-132523000D01*
X144980678Y-132548928D01*
G36*
X145727000Y-132505699D02*
X145726742Y-132503000D01*
X145727000Y-132503000D01*
X145727000Y-132505699D01*
X145727000Y-132505699D01*
G37*
X145727000Y-132505699D02*
X145726742Y-132503000D01*
X145727000Y-132503000D01*
X145727000Y-132505699D01*
G36*
X150993748Y-132435858D02*
X150979605Y-132450000D01*
X150980678Y-132451073D01*
X150954750Y-132477000D01*
X150645250Y-132477000D01*
X150619323Y-132451073D01*
X150620395Y-132450000D01*
X150606253Y-132435858D01*
X150785858Y-132256253D01*
X150800000Y-132270395D01*
X150814143Y-132256253D01*
X150993748Y-132435858D01*
X150993748Y-132435858D01*
G37*
X150993748Y-132435858D02*
X150979605Y-132450000D01*
X150980678Y-132451073D01*
X150954750Y-132477000D01*
X150645250Y-132477000D01*
X150619323Y-132451073D01*
X150620395Y-132450000D01*
X150606253Y-132435858D01*
X150785858Y-132256253D01*
X150800000Y-132270395D01*
X150814143Y-132256253D01*
X150993748Y-132435858D01*
G36*
X149286195Y-126457537D02*
X149308733Y-126491267D01*
X149442367Y-126580559D01*
X149560213Y-126604000D01*
X149560218Y-126604000D01*
X149599999Y-126611913D01*
X149639781Y-126604000D01*
X149883552Y-126604000D01*
X149822783Y-126664770D01*
X149773000Y-126784956D01*
X149773000Y-127141250D01*
X149854750Y-127223000D01*
X149900021Y-127223000D01*
X149859641Y-127354848D01*
X149871343Y-127477000D01*
X149854750Y-127477000D01*
X149773000Y-127558750D01*
X149773000Y-128541250D01*
X149854750Y-128623000D01*
X150673000Y-128623000D01*
X150673000Y-128380605D01*
X150704848Y-128390359D01*
X150927000Y-128369078D01*
X150927000Y-128623000D01*
X150947000Y-128623000D01*
X150947000Y-128877000D01*
X150927000Y-128877000D01*
X150927000Y-129119395D01*
X150895152Y-129109641D01*
X150673000Y-129130922D01*
X150673000Y-128877000D01*
X149854750Y-128877000D01*
X149773000Y-128958750D01*
X149773000Y-129941250D01*
X149854750Y-130023000D01*
X149866170Y-130023000D01*
X149890502Y-130277000D01*
X149854750Y-130277000D01*
X149773000Y-130358750D01*
X149773000Y-130715044D01*
X149806533Y-130796000D01*
X149567342Y-130796000D01*
X147545642Y-128774301D01*
X148311537Y-128008407D01*
X148345267Y-127985869D01*
X148434559Y-127852235D01*
X148458000Y-127734389D01*
X148458000Y-127734386D01*
X148465913Y-127694603D01*
X148458000Y-127654820D01*
X148458000Y-127193782D01*
X148465913Y-127153999D01*
X148458000Y-127114214D01*
X148458000Y-127114213D01*
X148434559Y-126996367D01*
X148345267Y-126862733D01*
X148311538Y-126840196D01*
X148082426Y-126611084D01*
X148082426Y-125600000D01*
X148060928Y-125491920D01*
X147999705Y-125400295D01*
X147908080Y-125339072D01*
X147800000Y-125317574D01*
X147427000Y-125317574D01*
X147427000Y-125058750D01*
X147345250Y-124977000D01*
X145733830Y-124977000D01*
X145707582Y-124703000D01*
X145727000Y-124703000D01*
X145727000Y-124723000D01*
X147345250Y-124723000D01*
X147427000Y-124641250D01*
X147427000Y-124598341D01*
X149286195Y-126457537D01*
X149286195Y-126457537D01*
G37*
X149286195Y-126457537D02*
X149308733Y-126491267D01*
X149442367Y-126580559D01*
X149560213Y-126604000D01*
X149560218Y-126604000D01*
X149599999Y-126611913D01*
X149639781Y-126604000D01*
X149883552Y-126604000D01*
X149822783Y-126664770D01*
X149773000Y-126784956D01*
X149773000Y-127141250D01*
X149854750Y-127223000D01*
X149900021Y-127223000D01*
X149859641Y-127354848D01*
X149871343Y-127477000D01*
X149854750Y-127477000D01*
X149773000Y-127558750D01*
X149773000Y-128541250D01*
X149854750Y-128623000D01*
X150673000Y-128623000D01*
X150673000Y-128380605D01*
X150704848Y-128390359D01*
X150927000Y-128369078D01*
X150927000Y-128623000D01*
X150947000Y-128623000D01*
X150947000Y-128877000D01*
X150927000Y-128877000D01*
X150927000Y-129119395D01*
X150895152Y-129109641D01*
X150673000Y-129130922D01*
X150673000Y-128877000D01*
X149854750Y-128877000D01*
X149773000Y-128958750D01*
X149773000Y-129941250D01*
X149854750Y-130023000D01*
X149866170Y-130023000D01*
X149890502Y-130277000D01*
X149854750Y-130277000D01*
X149773000Y-130358750D01*
X149773000Y-130715044D01*
X149806533Y-130796000D01*
X149567342Y-130796000D01*
X147545642Y-128774301D01*
X148311537Y-128008407D01*
X148345267Y-127985869D01*
X148434559Y-127852235D01*
X148458000Y-127734389D01*
X148458000Y-127734386D01*
X148465913Y-127694603D01*
X148458000Y-127654820D01*
X148458000Y-127193782D01*
X148465913Y-127153999D01*
X148458000Y-127114214D01*
X148458000Y-127114213D01*
X148434559Y-126996367D01*
X148345267Y-126862733D01*
X148311538Y-126840196D01*
X148082426Y-126611084D01*
X148082426Y-125600000D01*
X148060928Y-125491920D01*
X147999705Y-125400295D01*
X147908080Y-125339072D01*
X147800000Y-125317574D01*
X147427000Y-125317574D01*
X147427000Y-125058750D01*
X147345250Y-124977000D01*
X145733830Y-124977000D01*
X145707582Y-124703000D01*
X145727000Y-124703000D01*
X145727000Y-124723000D01*
X147345250Y-124723000D01*
X147427000Y-124641250D01*
X147427000Y-124598341D01*
X149286195Y-126457537D01*
G36*
X153650000Y-129821342D02*
X153650001Y-130178657D01*
X153427000Y-130401658D01*
X153427000Y-130358750D01*
X153345250Y-130277000D01*
X151727000Y-130277000D01*
X151727000Y-130297000D01*
X151693854Y-130297000D01*
X151740359Y-130145152D01*
X151728657Y-130023000D01*
X153345250Y-130023000D01*
X153427000Y-129941250D01*
X153427000Y-129682426D01*
X153511084Y-129682426D01*
X153650000Y-129821342D01*
X153650000Y-129821342D01*
G37*
X153650000Y-129821342D02*
X153650001Y-130178657D01*
X153427000Y-130401658D01*
X153427000Y-130358750D01*
X153345250Y-130277000D01*
X151727000Y-130277000D01*
X151727000Y-130297000D01*
X151693854Y-130297000D01*
X151740359Y-130145152D01*
X151728657Y-130023000D01*
X153345250Y-130023000D01*
X153427000Y-129941250D01*
X153427000Y-129682426D01*
X153511084Y-129682426D01*
X153650000Y-129821342D01*
G36*
X150980678Y-130048928D02*
X150979605Y-130050000D01*
X150993748Y-130064143D01*
X150814143Y-130243748D01*
X150800000Y-130229605D01*
X150785858Y-130243748D01*
X150606253Y-130064143D01*
X150620395Y-130050000D01*
X150619323Y-130048928D01*
X150645250Y-130023000D01*
X150954750Y-130023000D01*
X150980678Y-130048928D01*
X150980678Y-130048928D01*
G37*
X150980678Y-130048928D02*
X150979605Y-130050000D01*
X150993748Y-130064143D01*
X150814143Y-130243748D01*
X150800000Y-130229605D01*
X150785858Y-130243748D01*
X150606253Y-130064143D01*
X150620395Y-130050000D01*
X150619323Y-130048928D01*
X150645250Y-130023000D01*
X150954750Y-130023000D01*
X150980678Y-130048928D01*
G36*
X151727000Y-130005699D02*
X151726742Y-130003000D01*
X151727000Y-130003000D01*
X151727000Y-130005699D01*
X151727000Y-130005699D01*
G37*
X151727000Y-130005699D02*
X151726742Y-130003000D01*
X151727000Y-130003000D01*
X151727000Y-130005699D01*
G36*
X144993748Y-129935858D02*
X144979605Y-129950000D01*
X144980678Y-129951073D01*
X144954750Y-129977000D01*
X144645250Y-129977000D01*
X144619323Y-129951073D01*
X144620395Y-129950000D01*
X144606253Y-129935858D01*
X144785858Y-129756253D01*
X144800000Y-129770395D01*
X144814143Y-129756253D01*
X144993748Y-129935858D01*
X144993748Y-129935858D01*
G37*
X144993748Y-129935858D02*
X144979605Y-129950000D01*
X144980678Y-129951073D01*
X144954750Y-129977000D01*
X144645250Y-129977000D01*
X144619323Y-129951073D01*
X144620395Y-129950000D01*
X144606253Y-129935858D01*
X144785858Y-129756253D01*
X144800000Y-129770395D01*
X144814143Y-129756253D01*
X144993748Y-129935858D01*
G36*
X153873000Y-127832094D02*
X153800000Y-127817574D01*
X153427000Y-127817574D01*
X153427000Y-127558750D01*
X153345250Y-127477000D01*
X151733830Y-127477000D01*
X151707582Y-127203000D01*
X151727000Y-127203000D01*
X151727000Y-127223000D01*
X153345250Y-127223000D01*
X153427000Y-127141250D01*
X153427000Y-126784956D01*
X153377217Y-126664770D01*
X153303729Y-126591281D01*
X153357633Y-126580559D01*
X153491267Y-126491267D01*
X153513806Y-126457535D01*
X153873000Y-126098342D01*
X153873000Y-127832094D01*
X153873000Y-127832094D01*
G37*
X153873000Y-127832094D02*
X153800000Y-127817574D01*
X153427000Y-127817574D01*
X153427000Y-127558750D01*
X153345250Y-127477000D01*
X151733830Y-127477000D01*
X151707582Y-127203000D01*
X151727000Y-127203000D01*
X151727000Y-127223000D01*
X153345250Y-127223000D01*
X153427000Y-127141250D01*
X153427000Y-126784956D01*
X153377217Y-126664770D01*
X153303729Y-126591281D01*
X153357633Y-126580559D01*
X153491267Y-126491267D01*
X153513806Y-126457535D01*
X153873000Y-126098342D01*
X153873000Y-127832094D01*
G36*
X147650000Y-127321342D02*
X147650001Y-127527259D01*
X147372755Y-127804505D01*
X147345250Y-127777000D01*
X145727000Y-127777000D01*
X145727000Y-127797000D01*
X145693854Y-127797000D01*
X145740359Y-127645152D01*
X145728657Y-127523000D01*
X147345250Y-127523000D01*
X147427000Y-127441250D01*
X147427000Y-127182426D01*
X147511084Y-127182426D01*
X147650000Y-127321342D01*
X147650000Y-127321342D01*
G37*
X147650000Y-127321342D02*
X147650001Y-127527259D01*
X147372755Y-127804505D01*
X147345250Y-127777000D01*
X145727000Y-127777000D01*
X145727000Y-127797000D01*
X145693854Y-127797000D01*
X145740359Y-127645152D01*
X145728657Y-127523000D01*
X147345250Y-127523000D01*
X147427000Y-127441250D01*
X147427000Y-127182426D01*
X147511084Y-127182426D01*
X147650000Y-127321342D01*
G36*
X144980678Y-127548928D02*
X144979605Y-127550000D01*
X144993748Y-127564143D01*
X144814143Y-127743748D01*
X144800000Y-127729605D01*
X144785858Y-127743748D01*
X144606253Y-127564143D01*
X144620395Y-127550000D01*
X144619323Y-127548928D01*
X144645250Y-127523000D01*
X144954750Y-127523000D01*
X144980678Y-127548928D01*
X144980678Y-127548928D01*
G37*
X144980678Y-127548928D02*
X144979605Y-127550000D01*
X144993748Y-127564143D01*
X144814143Y-127743748D01*
X144800000Y-127729605D01*
X144785858Y-127743748D01*
X144606253Y-127564143D01*
X144620395Y-127550000D01*
X144619323Y-127548928D01*
X144645250Y-127523000D01*
X144954750Y-127523000D01*
X144980678Y-127548928D01*
G36*
X145727000Y-127505699D02*
X145726742Y-127503000D01*
X145727000Y-127503000D01*
X145727000Y-127505699D01*
X145727000Y-127505699D01*
G37*
X145727000Y-127505699D02*
X145726742Y-127503000D01*
X145727000Y-127503000D01*
X145727000Y-127505699D01*
G36*
X150993748Y-127435858D02*
X150979605Y-127450000D01*
X150980678Y-127451073D01*
X150954750Y-127477000D01*
X150645250Y-127477000D01*
X150619323Y-127451073D01*
X150620395Y-127450000D01*
X150606253Y-127435858D01*
X150785858Y-127256253D01*
X150800000Y-127270395D01*
X150814143Y-127256253D01*
X150993748Y-127435858D01*
X150993748Y-127435858D01*
G37*
X150993748Y-127435858D02*
X150979605Y-127450000D01*
X150980678Y-127451073D01*
X150954750Y-127477000D01*
X150645250Y-127477000D01*
X150619323Y-127451073D01*
X150620395Y-127450000D01*
X150606253Y-127435858D01*
X150785858Y-127256253D01*
X150800000Y-127270395D01*
X150814143Y-127256253D01*
X150993748Y-127435858D01*
G36*
X145727000Y-119723000D02*
X147345250Y-119723000D01*
X147348454Y-119719796D01*
X149086195Y-121457537D01*
X149108733Y-121491267D01*
X149242367Y-121580559D01*
X149360213Y-121604000D01*
X149360217Y-121604000D01*
X149400000Y-121611913D01*
X149439783Y-121604000D01*
X149883552Y-121604000D01*
X149822783Y-121664770D01*
X149773000Y-121784956D01*
X149773000Y-122141250D01*
X149854750Y-122223000D01*
X149900021Y-122223000D01*
X149859641Y-122354848D01*
X149871343Y-122477000D01*
X149854750Y-122477000D01*
X149773000Y-122558750D01*
X149773000Y-123541250D01*
X149854750Y-123623000D01*
X150673000Y-123623000D01*
X150673000Y-123380605D01*
X150704848Y-123390359D01*
X150927000Y-123369078D01*
X150927000Y-123623000D01*
X150947000Y-123623000D01*
X150947000Y-123877000D01*
X150927000Y-123877000D01*
X150927000Y-124119395D01*
X150895152Y-124109641D01*
X150673000Y-124130922D01*
X150673000Y-123877000D01*
X149854750Y-123877000D01*
X149773000Y-123958750D01*
X149773000Y-124941250D01*
X149854750Y-125023000D01*
X149866170Y-125023000D01*
X149890502Y-125277000D01*
X149854750Y-125277000D01*
X149773000Y-125358750D01*
X149773000Y-125715044D01*
X149806533Y-125796000D01*
X149767342Y-125796000D01*
X147674417Y-123703076D01*
X147686805Y-123684536D01*
X148311537Y-123059805D01*
X148345267Y-123037267D01*
X148434559Y-122903633D01*
X148458000Y-122785787D01*
X148458000Y-122785783D01*
X148465913Y-122746000D01*
X148458000Y-122706217D01*
X148458000Y-122193782D01*
X148465913Y-122153999D01*
X148458000Y-122114214D01*
X148458000Y-122114213D01*
X148434559Y-121996367D01*
X148345267Y-121862733D01*
X148311538Y-121840196D01*
X148082426Y-121611084D01*
X148082426Y-120600000D01*
X148060928Y-120491920D01*
X147999705Y-120400295D01*
X147908080Y-120339072D01*
X147800000Y-120317574D01*
X147427000Y-120317574D01*
X147427000Y-120058750D01*
X147345250Y-119977000D01*
X145733830Y-119977000D01*
X145707582Y-119703000D01*
X145727000Y-119703000D01*
X145727000Y-119723000D01*
X145727000Y-119723000D01*
G37*
X145727000Y-119723000D02*
X147345250Y-119723000D01*
X147348454Y-119719796D01*
X149086195Y-121457537D01*
X149108733Y-121491267D01*
X149242367Y-121580559D01*
X149360213Y-121604000D01*
X149360217Y-121604000D01*
X149400000Y-121611913D01*
X149439783Y-121604000D01*
X149883552Y-121604000D01*
X149822783Y-121664770D01*
X149773000Y-121784956D01*
X149773000Y-122141250D01*
X149854750Y-122223000D01*
X149900021Y-122223000D01*
X149859641Y-122354848D01*
X149871343Y-122477000D01*
X149854750Y-122477000D01*
X149773000Y-122558750D01*
X149773000Y-123541250D01*
X149854750Y-123623000D01*
X150673000Y-123623000D01*
X150673000Y-123380605D01*
X150704848Y-123390359D01*
X150927000Y-123369078D01*
X150927000Y-123623000D01*
X150947000Y-123623000D01*
X150947000Y-123877000D01*
X150927000Y-123877000D01*
X150927000Y-124119395D01*
X150895152Y-124109641D01*
X150673000Y-124130922D01*
X150673000Y-123877000D01*
X149854750Y-123877000D01*
X149773000Y-123958750D01*
X149773000Y-124941250D01*
X149854750Y-125023000D01*
X149866170Y-125023000D01*
X149890502Y-125277000D01*
X149854750Y-125277000D01*
X149773000Y-125358750D01*
X149773000Y-125715044D01*
X149806533Y-125796000D01*
X149767342Y-125796000D01*
X147674417Y-123703076D01*
X147686805Y-123684536D01*
X148311537Y-123059805D01*
X148345267Y-123037267D01*
X148434559Y-122903633D01*
X148458000Y-122785787D01*
X148458000Y-122785783D01*
X148465913Y-122746000D01*
X148458000Y-122706217D01*
X148458000Y-122193782D01*
X148465913Y-122153999D01*
X148458000Y-122114214D01*
X148458000Y-122114213D01*
X148434559Y-121996367D01*
X148345267Y-121862733D01*
X148311538Y-121840196D01*
X148082426Y-121611084D01*
X148082426Y-120600000D01*
X148060928Y-120491920D01*
X147999705Y-120400295D01*
X147908080Y-120339072D01*
X147800000Y-120317574D01*
X147427000Y-120317574D01*
X147427000Y-120058750D01*
X147345250Y-119977000D01*
X145733830Y-119977000D01*
X145707582Y-119703000D01*
X145727000Y-119703000D01*
X145727000Y-119723000D01*
G36*
X151747000Y-125277000D02*
X151727000Y-125277000D01*
X151727000Y-125297000D01*
X151693854Y-125297000D01*
X151740359Y-125145152D01*
X151728657Y-125023000D01*
X151747000Y-125023000D01*
X151747000Y-125277000D01*
X151747000Y-125277000D01*
G37*
X151747000Y-125277000D02*
X151727000Y-125277000D01*
X151727000Y-125297000D01*
X151693854Y-125297000D01*
X151740359Y-125145152D01*
X151728657Y-125023000D01*
X151747000Y-125023000D01*
X151747000Y-125277000D01*
G36*
X150980678Y-125048928D02*
X150979605Y-125050000D01*
X150993748Y-125064143D01*
X150814143Y-125243748D01*
X150800000Y-125229605D01*
X150785858Y-125243748D01*
X150606253Y-125064143D01*
X150620395Y-125050000D01*
X150619323Y-125048928D01*
X150645250Y-125023000D01*
X150954750Y-125023000D01*
X150980678Y-125048928D01*
X150980678Y-125048928D01*
G37*
X150980678Y-125048928D02*
X150979605Y-125050000D01*
X150993748Y-125064143D01*
X150814143Y-125243748D01*
X150800000Y-125229605D01*
X150785858Y-125243748D01*
X150606253Y-125064143D01*
X150620395Y-125050000D01*
X150619323Y-125048928D01*
X150645250Y-125023000D01*
X150954750Y-125023000D01*
X150980678Y-125048928D01*
G36*
X151727000Y-125005699D02*
X151726742Y-125003000D01*
X151727000Y-125003000D01*
X151727000Y-125005699D01*
X151727000Y-125005699D01*
G37*
X151727000Y-125005699D02*
X151726742Y-125003000D01*
X151727000Y-125003000D01*
X151727000Y-125005699D01*
G36*
X144993748Y-124935858D02*
X144979605Y-124950000D01*
X144980678Y-124951073D01*
X144954750Y-124977000D01*
X144645250Y-124977000D01*
X144619323Y-124951073D01*
X144620395Y-124950000D01*
X144606253Y-124935858D01*
X144785858Y-124756253D01*
X144800000Y-124770395D01*
X144814143Y-124756253D01*
X144993748Y-124935858D01*
X144993748Y-124935858D01*
G37*
X144993748Y-124935858D02*
X144979605Y-124950000D01*
X144980678Y-124951073D01*
X144954750Y-124977000D01*
X144645250Y-124977000D01*
X144619323Y-124951073D01*
X144620395Y-124950000D01*
X144606253Y-124935858D01*
X144785858Y-124756253D01*
X144800000Y-124770395D01*
X144814143Y-124756253D01*
X144993748Y-124935858D01*
G36*
X153873000Y-122832094D02*
X153800000Y-122817574D01*
X153427000Y-122817574D01*
X153427000Y-122558750D01*
X153345250Y-122477000D01*
X151733830Y-122477000D01*
X151707582Y-122203000D01*
X151727000Y-122203000D01*
X151727000Y-122223000D01*
X153345250Y-122223000D01*
X153427000Y-122141250D01*
X153427000Y-121784956D01*
X153377217Y-121664770D01*
X153303729Y-121591281D01*
X153357633Y-121580559D01*
X153491267Y-121491267D01*
X153513806Y-121457535D01*
X153873000Y-121098341D01*
X153873000Y-122832094D01*
X153873000Y-122832094D01*
G37*
X153873000Y-122832094D02*
X153800000Y-122817574D01*
X153427000Y-122817574D01*
X153427000Y-122558750D01*
X153345250Y-122477000D01*
X151733830Y-122477000D01*
X151707582Y-122203000D01*
X151727000Y-122203000D01*
X151727000Y-122223000D01*
X153345250Y-122223000D01*
X153427000Y-122141250D01*
X153427000Y-121784956D01*
X153377217Y-121664770D01*
X153303729Y-121591281D01*
X153357633Y-121580559D01*
X153491267Y-121491267D01*
X153513806Y-121457535D01*
X153873000Y-121098341D01*
X153873000Y-122832094D01*
G36*
X147650000Y-122321342D02*
X147650001Y-122578658D01*
X147398454Y-122830204D01*
X147345250Y-122777000D01*
X145727000Y-122777000D01*
X145727000Y-122797000D01*
X145693854Y-122797000D01*
X145740359Y-122645152D01*
X145728657Y-122523000D01*
X147345250Y-122523000D01*
X147427000Y-122441250D01*
X147427000Y-122182426D01*
X147511084Y-122182426D01*
X147650000Y-122321342D01*
X147650000Y-122321342D01*
G37*
X147650000Y-122321342D02*
X147650001Y-122578658D01*
X147398454Y-122830204D01*
X147345250Y-122777000D01*
X145727000Y-122777000D01*
X145727000Y-122797000D01*
X145693854Y-122797000D01*
X145740359Y-122645152D01*
X145728657Y-122523000D01*
X147345250Y-122523000D01*
X147427000Y-122441250D01*
X147427000Y-122182426D01*
X147511084Y-122182426D01*
X147650000Y-122321342D01*
G36*
X144980678Y-122548928D02*
X144979605Y-122550000D01*
X144993748Y-122564143D01*
X144814143Y-122743748D01*
X144800000Y-122729605D01*
X144785858Y-122743748D01*
X144606253Y-122564143D01*
X144620395Y-122550000D01*
X144619323Y-122548928D01*
X144645250Y-122523000D01*
X144954750Y-122523000D01*
X144980678Y-122548928D01*
X144980678Y-122548928D01*
G37*
X144980678Y-122548928D02*
X144979605Y-122550000D01*
X144993748Y-122564143D01*
X144814143Y-122743748D01*
X144800000Y-122729605D01*
X144785858Y-122743748D01*
X144606253Y-122564143D01*
X144620395Y-122550000D01*
X144619323Y-122548928D01*
X144645250Y-122523000D01*
X144954750Y-122523000D01*
X144980678Y-122548928D01*
G36*
X145727000Y-122505699D02*
X145726742Y-122503000D01*
X145727000Y-122503000D01*
X145727000Y-122505699D01*
X145727000Y-122505699D01*
G37*
X145727000Y-122505699D02*
X145726742Y-122503000D01*
X145727000Y-122503000D01*
X145727000Y-122505699D01*
G36*
X150993748Y-122435858D02*
X150979605Y-122450000D01*
X150980678Y-122451073D01*
X150954750Y-122477000D01*
X150645250Y-122477000D01*
X150619323Y-122451073D01*
X150620395Y-122450000D01*
X150606253Y-122435858D01*
X150785858Y-122256253D01*
X150800000Y-122270395D01*
X150814143Y-122256253D01*
X150993748Y-122435858D01*
X150993748Y-122435858D01*
G37*
X150993748Y-122435858D02*
X150979605Y-122450000D01*
X150980678Y-122451073D01*
X150954750Y-122477000D01*
X150645250Y-122477000D01*
X150619323Y-122451073D01*
X150620395Y-122450000D01*
X150606253Y-122435858D01*
X150785858Y-122256253D01*
X150800000Y-122270395D01*
X150814143Y-122256253D01*
X150993748Y-122435858D01*
G36*
X149286195Y-116457537D02*
X149308733Y-116491267D01*
X149442367Y-116580559D01*
X149560213Y-116604000D01*
X149560218Y-116604000D01*
X149599999Y-116611913D01*
X149639781Y-116604000D01*
X149883552Y-116604000D01*
X149822783Y-116664770D01*
X149773000Y-116784956D01*
X149773000Y-117141250D01*
X149854750Y-117223000D01*
X149900021Y-117223000D01*
X149859641Y-117354848D01*
X149871343Y-117477000D01*
X149854750Y-117477000D01*
X149773000Y-117558750D01*
X149773000Y-118541250D01*
X149854750Y-118623000D01*
X150673000Y-118623000D01*
X150673000Y-118380605D01*
X150704848Y-118390359D01*
X150927000Y-118369078D01*
X150927000Y-118623000D01*
X150947000Y-118623000D01*
X150947000Y-118877000D01*
X150927000Y-118877000D01*
X150927000Y-119119395D01*
X150895152Y-119109641D01*
X150673000Y-119130922D01*
X150673000Y-118877000D01*
X149854750Y-118877000D01*
X149773000Y-118958750D01*
X149773000Y-119941250D01*
X149854750Y-120023000D01*
X149866170Y-120023000D01*
X149890502Y-120277000D01*
X149854750Y-120277000D01*
X149773000Y-120358750D01*
X149773000Y-120715044D01*
X149806533Y-120796000D01*
X149567342Y-120796000D01*
X147571341Y-118800000D01*
X148311537Y-118059805D01*
X148345267Y-118037267D01*
X148434559Y-117903633D01*
X148458000Y-117785787D01*
X148458000Y-117785783D01*
X148465913Y-117746000D01*
X148458000Y-117706217D01*
X148458000Y-117193782D01*
X148465913Y-117153999D01*
X148458000Y-117114214D01*
X148458000Y-117114213D01*
X148434559Y-116996367D01*
X148345267Y-116862733D01*
X148311538Y-116840196D01*
X148082426Y-116611084D01*
X148082426Y-115600000D01*
X148060928Y-115491920D01*
X147999705Y-115400295D01*
X147908080Y-115339072D01*
X147800000Y-115317574D01*
X147427000Y-115317574D01*
X147427000Y-115058750D01*
X147345250Y-114977000D01*
X145733830Y-114977000D01*
X145707582Y-114703000D01*
X145727000Y-114703000D01*
X145727000Y-114723000D01*
X147345250Y-114723000D01*
X147427000Y-114641250D01*
X147427000Y-114598341D01*
X149286195Y-116457537D01*
X149286195Y-116457537D01*
G37*
X149286195Y-116457537D02*
X149308733Y-116491267D01*
X149442367Y-116580559D01*
X149560213Y-116604000D01*
X149560218Y-116604000D01*
X149599999Y-116611913D01*
X149639781Y-116604000D01*
X149883552Y-116604000D01*
X149822783Y-116664770D01*
X149773000Y-116784956D01*
X149773000Y-117141250D01*
X149854750Y-117223000D01*
X149900021Y-117223000D01*
X149859641Y-117354848D01*
X149871343Y-117477000D01*
X149854750Y-117477000D01*
X149773000Y-117558750D01*
X149773000Y-118541250D01*
X149854750Y-118623000D01*
X150673000Y-118623000D01*
X150673000Y-118380605D01*
X150704848Y-118390359D01*
X150927000Y-118369078D01*
X150927000Y-118623000D01*
X150947000Y-118623000D01*
X150947000Y-118877000D01*
X150927000Y-118877000D01*
X150927000Y-119119395D01*
X150895152Y-119109641D01*
X150673000Y-119130922D01*
X150673000Y-118877000D01*
X149854750Y-118877000D01*
X149773000Y-118958750D01*
X149773000Y-119941250D01*
X149854750Y-120023000D01*
X149866170Y-120023000D01*
X149890502Y-120277000D01*
X149854750Y-120277000D01*
X149773000Y-120358750D01*
X149773000Y-120715044D01*
X149806533Y-120796000D01*
X149567342Y-120796000D01*
X147571341Y-118800000D01*
X148311537Y-118059805D01*
X148345267Y-118037267D01*
X148434559Y-117903633D01*
X148458000Y-117785787D01*
X148458000Y-117785783D01*
X148465913Y-117746000D01*
X148458000Y-117706217D01*
X148458000Y-117193782D01*
X148465913Y-117153999D01*
X148458000Y-117114214D01*
X148458000Y-117114213D01*
X148434559Y-116996367D01*
X148345267Y-116862733D01*
X148311538Y-116840196D01*
X148082426Y-116611084D01*
X148082426Y-115600000D01*
X148060928Y-115491920D01*
X147999705Y-115400295D01*
X147908080Y-115339072D01*
X147800000Y-115317574D01*
X147427000Y-115317574D01*
X147427000Y-115058750D01*
X147345250Y-114977000D01*
X145733830Y-114977000D01*
X145707582Y-114703000D01*
X145727000Y-114703000D01*
X145727000Y-114723000D01*
X147345250Y-114723000D01*
X147427000Y-114641250D01*
X147427000Y-114598341D01*
X149286195Y-116457537D01*
G36*
X153650000Y-119821342D02*
X153650001Y-120178657D01*
X153427000Y-120401658D01*
X153427000Y-120358750D01*
X153345250Y-120277000D01*
X151727000Y-120277000D01*
X151727000Y-120297000D01*
X151693854Y-120297000D01*
X151740359Y-120145152D01*
X151728657Y-120023000D01*
X153345250Y-120023000D01*
X153427000Y-119941250D01*
X153427000Y-119682426D01*
X153511084Y-119682426D01*
X153650000Y-119821342D01*
X153650000Y-119821342D01*
G37*
X153650000Y-119821342D02*
X153650001Y-120178657D01*
X153427000Y-120401658D01*
X153427000Y-120358750D01*
X153345250Y-120277000D01*
X151727000Y-120277000D01*
X151727000Y-120297000D01*
X151693854Y-120297000D01*
X151740359Y-120145152D01*
X151728657Y-120023000D01*
X153345250Y-120023000D01*
X153427000Y-119941250D01*
X153427000Y-119682426D01*
X153511084Y-119682426D01*
X153650000Y-119821342D01*
G36*
X150980678Y-120048928D02*
X150979605Y-120050000D01*
X150993748Y-120064143D01*
X150814143Y-120243748D01*
X150800000Y-120229605D01*
X150785858Y-120243748D01*
X150606253Y-120064143D01*
X150620395Y-120050000D01*
X150619323Y-120048928D01*
X150645250Y-120023000D01*
X150954750Y-120023000D01*
X150980678Y-120048928D01*
X150980678Y-120048928D01*
G37*
X150980678Y-120048928D02*
X150979605Y-120050000D01*
X150993748Y-120064143D01*
X150814143Y-120243748D01*
X150800000Y-120229605D01*
X150785858Y-120243748D01*
X150606253Y-120064143D01*
X150620395Y-120050000D01*
X150619323Y-120048928D01*
X150645250Y-120023000D01*
X150954750Y-120023000D01*
X150980678Y-120048928D01*
G36*
X151727000Y-120005699D02*
X151726742Y-120003000D01*
X151727000Y-120003000D01*
X151727000Y-120005699D01*
X151727000Y-120005699D01*
G37*
X151727000Y-120005699D02*
X151726742Y-120003000D01*
X151727000Y-120003000D01*
X151727000Y-120005699D01*
G36*
X144993748Y-119935858D02*
X144979605Y-119950000D01*
X144980678Y-119951073D01*
X144954750Y-119977000D01*
X144645250Y-119977000D01*
X144619323Y-119951073D01*
X144620395Y-119950000D01*
X144606253Y-119935858D01*
X144785858Y-119756253D01*
X144800000Y-119770395D01*
X144814143Y-119756253D01*
X144993748Y-119935858D01*
X144993748Y-119935858D01*
G37*
X144993748Y-119935858D02*
X144979605Y-119950000D01*
X144980678Y-119951073D01*
X144954750Y-119977000D01*
X144645250Y-119977000D01*
X144619323Y-119951073D01*
X144620395Y-119950000D01*
X144606253Y-119935858D01*
X144785858Y-119756253D01*
X144800000Y-119770395D01*
X144814143Y-119756253D01*
X144993748Y-119935858D01*
G36*
X153873000Y-117832094D02*
X153800000Y-117817574D01*
X153427000Y-117817574D01*
X153427000Y-117558750D01*
X153345250Y-117477000D01*
X151733830Y-117477000D01*
X151707582Y-117203000D01*
X151727000Y-117203000D01*
X151727000Y-117223000D01*
X153345250Y-117223000D01*
X153427000Y-117141250D01*
X153427000Y-116784956D01*
X153377217Y-116664770D01*
X153303729Y-116591281D01*
X153357633Y-116580559D01*
X153491267Y-116491267D01*
X153513806Y-116457535D01*
X153873000Y-116098341D01*
X153873000Y-117832094D01*
X153873000Y-117832094D01*
G37*
X153873000Y-117832094D02*
X153800000Y-117817574D01*
X153427000Y-117817574D01*
X153427000Y-117558750D01*
X153345250Y-117477000D01*
X151733830Y-117477000D01*
X151707582Y-117203000D01*
X151727000Y-117203000D01*
X151727000Y-117223000D01*
X153345250Y-117223000D01*
X153427000Y-117141250D01*
X153427000Y-116784956D01*
X153377217Y-116664770D01*
X153303729Y-116591281D01*
X153357633Y-116580559D01*
X153491267Y-116491267D01*
X153513806Y-116457535D01*
X153873000Y-116098341D01*
X153873000Y-117832094D01*
G36*
X147650000Y-117321342D02*
X147650001Y-117578657D01*
X147398454Y-117830204D01*
X147345250Y-117777000D01*
X145727000Y-117777000D01*
X145727000Y-117797000D01*
X145693854Y-117797000D01*
X145740359Y-117645152D01*
X145728657Y-117523000D01*
X147345250Y-117523000D01*
X147427000Y-117441250D01*
X147427000Y-117182426D01*
X147511084Y-117182426D01*
X147650000Y-117321342D01*
X147650000Y-117321342D01*
G37*
X147650000Y-117321342D02*
X147650001Y-117578657D01*
X147398454Y-117830204D01*
X147345250Y-117777000D01*
X145727000Y-117777000D01*
X145727000Y-117797000D01*
X145693854Y-117797000D01*
X145740359Y-117645152D01*
X145728657Y-117523000D01*
X147345250Y-117523000D01*
X147427000Y-117441250D01*
X147427000Y-117182426D01*
X147511084Y-117182426D01*
X147650000Y-117321342D01*
G36*
X144980678Y-117548928D02*
X144979605Y-117550000D01*
X144993748Y-117564143D01*
X144814143Y-117743748D01*
X144800000Y-117729605D01*
X144785858Y-117743748D01*
X144606253Y-117564143D01*
X144620395Y-117550000D01*
X144619323Y-117548928D01*
X144645250Y-117523000D01*
X144954750Y-117523000D01*
X144980678Y-117548928D01*
X144980678Y-117548928D01*
G37*
X144980678Y-117548928D02*
X144979605Y-117550000D01*
X144993748Y-117564143D01*
X144814143Y-117743748D01*
X144800000Y-117729605D01*
X144785858Y-117743748D01*
X144606253Y-117564143D01*
X144620395Y-117550000D01*
X144619323Y-117548928D01*
X144645250Y-117523000D01*
X144954750Y-117523000D01*
X144980678Y-117548928D01*
G36*
X145727000Y-117505699D02*
X145726742Y-117503000D01*
X145727000Y-117503000D01*
X145727000Y-117505699D01*
X145727000Y-117505699D01*
G37*
X145727000Y-117505699D02*
X145726742Y-117503000D01*
X145727000Y-117503000D01*
X145727000Y-117505699D01*
G36*
X150993748Y-117435858D02*
X150979605Y-117450000D01*
X150980678Y-117451073D01*
X150954750Y-117477000D01*
X150645250Y-117477000D01*
X150619323Y-117451073D01*
X150620395Y-117450000D01*
X150606253Y-117435858D01*
X150785858Y-117256253D01*
X150800000Y-117270395D01*
X150814143Y-117256253D01*
X150993748Y-117435858D01*
X150993748Y-117435858D01*
G37*
X150993748Y-117435858D02*
X150979605Y-117450000D01*
X150980678Y-117451073D01*
X150954750Y-117477000D01*
X150645250Y-117477000D01*
X150619323Y-117451073D01*
X150620395Y-117450000D01*
X150606253Y-117435858D01*
X150785858Y-117256253D01*
X150800000Y-117270395D01*
X150814143Y-117256253D01*
X150993748Y-117435858D01*
G36*
X149286195Y-111457537D02*
X149308733Y-111491267D01*
X149442367Y-111580559D01*
X149560213Y-111604000D01*
X149560218Y-111604000D01*
X149599999Y-111611913D01*
X149639781Y-111604000D01*
X149883552Y-111604000D01*
X149822783Y-111664770D01*
X149773000Y-111784956D01*
X149773000Y-112141250D01*
X149854750Y-112223000D01*
X149900021Y-112223000D01*
X149859641Y-112354848D01*
X149871343Y-112477000D01*
X149854750Y-112477000D01*
X149773000Y-112558750D01*
X149773000Y-113541250D01*
X149854750Y-113623000D01*
X150673000Y-113623000D01*
X150673000Y-113380605D01*
X150704848Y-113390359D01*
X150927000Y-113369078D01*
X150927000Y-113623000D01*
X150947000Y-113623000D01*
X150947000Y-113877000D01*
X150927000Y-113877000D01*
X150927000Y-114119395D01*
X150895152Y-114109641D01*
X150673000Y-114130922D01*
X150673000Y-113877000D01*
X149854750Y-113877000D01*
X149773000Y-113958750D01*
X149773000Y-114941250D01*
X149854750Y-115023000D01*
X149866170Y-115023000D01*
X149890502Y-115277000D01*
X149854750Y-115277000D01*
X149773000Y-115358750D01*
X149773000Y-115715044D01*
X149806533Y-115796000D01*
X149767342Y-115796000D01*
X147771341Y-113800000D01*
X148311540Y-113259803D01*
X148345267Y-113237267D01*
X148367802Y-113203541D01*
X148367805Y-113203538D01*
X148434559Y-113103633D01*
X148448165Y-113035230D01*
X148458000Y-112985787D01*
X148458000Y-112985783D01*
X148465913Y-112946000D01*
X148458000Y-112906217D01*
X148458000Y-112193782D01*
X148465913Y-112153999D01*
X148458000Y-112114214D01*
X148458000Y-112114213D01*
X148434559Y-111996367D01*
X148345267Y-111862733D01*
X148311538Y-111840196D01*
X148082426Y-111611084D01*
X148082426Y-110600000D01*
X148060928Y-110491920D01*
X147999705Y-110400295D01*
X147908080Y-110339072D01*
X147800000Y-110317574D01*
X147427000Y-110317574D01*
X147427000Y-110058750D01*
X147345250Y-109977000D01*
X145733830Y-109977000D01*
X145707582Y-109703000D01*
X145727000Y-109703000D01*
X145727000Y-109723000D01*
X147345250Y-109723000D01*
X147427000Y-109641250D01*
X147427000Y-109598341D01*
X149286195Y-111457537D01*
X149286195Y-111457537D01*
G37*
X149286195Y-111457537D02*
X149308733Y-111491267D01*
X149442367Y-111580559D01*
X149560213Y-111604000D01*
X149560218Y-111604000D01*
X149599999Y-111611913D01*
X149639781Y-111604000D01*
X149883552Y-111604000D01*
X149822783Y-111664770D01*
X149773000Y-111784956D01*
X149773000Y-112141250D01*
X149854750Y-112223000D01*
X149900021Y-112223000D01*
X149859641Y-112354848D01*
X149871343Y-112477000D01*
X149854750Y-112477000D01*
X149773000Y-112558750D01*
X149773000Y-113541250D01*
X149854750Y-113623000D01*
X150673000Y-113623000D01*
X150673000Y-113380605D01*
X150704848Y-113390359D01*
X150927000Y-113369078D01*
X150927000Y-113623000D01*
X150947000Y-113623000D01*
X150947000Y-113877000D01*
X150927000Y-113877000D01*
X150927000Y-114119395D01*
X150895152Y-114109641D01*
X150673000Y-114130922D01*
X150673000Y-113877000D01*
X149854750Y-113877000D01*
X149773000Y-113958750D01*
X149773000Y-114941250D01*
X149854750Y-115023000D01*
X149866170Y-115023000D01*
X149890502Y-115277000D01*
X149854750Y-115277000D01*
X149773000Y-115358750D01*
X149773000Y-115715044D01*
X149806533Y-115796000D01*
X149767342Y-115796000D01*
X147771341Y-113800000D01*
X148311540Y-113259803D01*
X148345267Y-113237267D01*
X148367802Y-113203541D01*
X148367805Y-113203538D01*
X148434559Y-113103633D01*
X148448165Y-113035230D01*
X148458000Y-112985787D01*
X148458000Y-112985783D01*
X148465913Y-112946000D01*
X148458000Y-112906217D01*
X148458000Y-112193782D01*
X148465913Y-112153999D01*
X148458000Y-112114214D01*
X148458000Y-112114213D01*
X148434559Y-111996367D01*
X148345267Y-111862733D01*
X148311538Y-111840196D01*
X148082426Y-111611084D01*
X148082426Y-110600000D01*
X148060928Y-110491920D01*
X147999705Y-110400295D01*
X147908080Y-110339072D01*
X147800000Y-110317574D01*
X147427000Y-110317574D01*
X147427000Y-110058750D01*
X147345250Y-109977000D01*
X145733830Y-109977000D01*
X145707582Y-109703000D01*
X145727000Y-109703000D01*
X145727000Y-109723000D01*
X147345250Y-109723000D01*
X147427000Y-109641250D01*
X147427000Y-109598341D01*
X149286195Y-111457537D01*
G36*
X153650000Y-114821342D02*
X153650001Y-115178657D01*
X153427000Y-115401658D01*
X153427000Y-115358750D01*
X153345250Y-115277000D01*
X151727000Y-115277000D01*
X151727000Y-115297000D01*
X151693854Y-115297000D01*
X151740359Y-115145152D01*
X151728657Y-115023000D01*
X153345250Y-115023000D01*
X153427000Y-114941250D01*
X153427000Y-114682426D01*
X153511084Y-114682426D01*
X153650000Y-114821342D01*
X153650000Y-114821342D01*
G37*
X153650000Y-114821342D02*
X153650001Y-115178657D01*
X153427000Y-115401658D01*
X153427000Y-115358750D01*
X153345250Y-115277000D01*
X151727000Y-115277000D01*
X151727000Y-115297000D01*
X151693854Y-115297000D01*
X151740359Y-115145152D01*
X151728657Y-115023000D01*
X153345250Y-115023000D01*
X153427000Y-114941250D01*
X153427000Y-114682426D01*
X153511084Y-114682426D01*
X153650000Y-114821342D01*
G36*
X150980678Y-115048928D02*
X150979605Y-115050000D01*
X150993748Y-115064143D01*
X150814143Y-115243748D01*
X150800000Y-115229605D01*
X150785858Y-115243748D01*
X150606253Y-115064143D01*
X150620395Y-115050000D01*
X150619323Y-115048928D01*
X150645250Y-115023000D01*
X150954750Y-115023000D01*
X150980678Y-115048928D01*
X150980678Y-115048928D01*
G37*
X150980678Y-115048928D02*
X150979605Y-115050000D01*
X150993748Y-115064143D01*
X150814143Y-115243748D01*
X150800000Y-115229605D01*
X150785858Y-115243748D01*
X150606253Y-115064143D01*
X150620395Y-115050000D01*
X150619323Y-115048928D01*
X150645250Y-115023000D01*
X150954750Y-115023000D01*
X150980678Y-115048928D01*
G36*
X151727000Y-115005699D02*
X151726742Y-115003000D01*
X151727000Y-115003000D01*
X151727000Y-115005699D01*
X151727000Y-115005699D01*
G37*
X151727000Y-115005699D02*
X151726742Y-115003000D01*
X151727000Y-115003000D01*
X151727000Y-115005699D01*
G36*
X144993748Y-114935858D02*
X144979605Y-114950000D01*
X144980678Y-114951073D01*
X144954750Y-114977000D01*
X144645250Y-114977000D01*
X144619323Y-114951073D01*
X144620395Y-114950000D01*
X144606253Y-114935858D01*
X144785858Y-114756253D01*
X144800000Y-114770395D01*
X144814143Y-114756253D01*
X144993748Y-114935858D01*
X144993748Y-114935858D01*
G37*
X144993748Y-114935858D02*
X144979605Y-114950000D01*
X144980678Y-114951073D01*
X144954750Y-114977000D01*
X144645250Y-114977000D01*
X144619323Y-114951073D01*
X144620395Y-114950000D01*
X144606253Y-114935858D01*
X144785858Y-114756253D01*
X144800000Y-114770395D01*
X144814143Y-114756253D01*
X144993748Y-114935858D01*
G36*
X147650000Y-112321342D02*
X147650001Y-112778657D01*
X147427000Y-113001658D01*
X147427000Y-112858750D01*
X147345250Y-112777000D01*
X145727000Y-112777000D01*
X145727000Y-112797000D01*
X145693854Y-112797000D01*
X145740359Y-112645152D01*
X145728657Y-112523000D01*
X147345250Y-112523000D01*
X147427000Y-112441250D01*
X147427000Y-112182426D01*
X147511084Y-112182426D01*
X147650000Y-112321342D01*
X147650000Y-112321342D01*
G37*
X147650000Y-112321342D02*
X147650001Y-112778657D01*
X147427000Y-113001658D01*
X147427000Y-112858750D01*
X147345250Y-112777000D01*
X145727000Y-112777000D01*
X145727000Y-112797000D01*
X145693854Y-112797000D01*
X145740359Y-112645152D01*
X145728657Y-112523000D01*
X147345250Y-112523000D01*
X147427000Y-112441250D01*
X147427000Y-112182426D01*
X147511084Y-112182426D01*
X147650000Y-112321342D01*
G36*
X153873000Y-112832094D02*
X153800000Y-112817574D01*
X153427000Y-112817574D01*
X153427000Y-112558750D01*
X153345250Y-112477000D01*
X151733830Y-112477000D01*
X151707582Y-112203000D01*
X151727000Y-112203000D01*
X151727000Y-112223000D01*
X153345250Y-112223000D01*
X153427000Y-112141250D01*
X153427000Y-111784956D01*
X153377217Y-111664770D01*
X153303729Y-111591281D01*
X153357633Y-111580559D01*
X153491267Y-111491267D01*
X153513806Y-111457535D01*
X153873000Y-111098341D01*
X153873000Y-112832094D01*
X153873000Y-112832094D01*
G37*
X153873000Y-112832094D02*
X153800000Y-112817574D01*
X153427000Y-112817574D01*
X153427000Y-112558750D01*
X153345250Y-112477000D01*
X151733830Y-112477000D01*
X151707582Y-112203000D01*
X151727000Y-112203000D01*
X151727000Y-112223000D01*
X153345250Y-112223000D01*
X153427000Y-112141250D01*
X153427000Y-111784956D01*
X153377217Y-111664770D01*
X153303729Y-111591281D01*
X153357633Y-111580559D01*
X153491267Y-111491267D01*
X153513806Y-111457535D01*
X153873000Y-111098341D01*
X153873000Y-112832094D01*
G36*
X144980678Y-112548928D02*
X144979605Y-112550000D01*
X144993748Y-112564143D01*
X144814143Y-112743748D01*
X144800000Y-112729605D01*
X144785858Y-112743748D01*
X144606253Y-112564143D01*
X144620395Y-112550000D01*
X144619323Y-112548928D01*
X144645250Y-112523000D01*
X144954750Y-112523000D01*
X144980678Y-112548928D01*
X144980678Y-112548928D01*
G37*
X144980678Y-112548928D02*
X144979605Y-112550000D01*
X144993748Y-112564143D01*
X144814143Y-112743748D01*
X144800000Y-112729605D01*
X144785858Y-112743748D01*
X144606253Y-112564143D01*
X144620395Y-112550000D01*
X144619323Y-112548928D01*
X144645250Y-112523000D01*
X144954750Y-112523000D01*
X144980678Y-112548928D01*
G36*
X145727000Y-112505699D02*
X145726742Y-112503000D01*
X145727000Y-112503000D01*
X145727000Y-112505699D01*
X145727000Y-112505699D01*
G37*
X145727000Y-112505699D02*
X145726742Y-112503000D01*
X145727000Y-112503000D01*
X145727000Y-112505699D01*
G36*
X150993748Y-112435858D02*
X150979605Y-112450000D01*
X150980678Y-112451073D01*
X150954750Y-112477000D01*
X150645250Y-112477000D01*
X150619323Y-112451073D01*
X150620395Y-112450000D01*
X150606253Y-112435858D01*
X150785858Y-112256253D01*
X150800000Y-112270395D01*
X150814143Y-112256253D01*
X150993748Y-112435858D01*
X150993748Y-112435858D01*
G37*
X150993748Y-112435858D02*
X150979605Y-112450000D01*
X150980678Y-112451073D01*
X150954750Y-112477000D01*
X150645250Y-112477000D01*
X150619323Y-112451073D01*
X150620395Y-112450000D01*
X150606253Y-112435858D01*
X150785858Y-112256253D01*
X150800000Y-112270395D01*
X150814143Y-112256253D01*
X150993748Y-112435858D01*
G36*
X149286195Y-106457537D02*
X149308733Y-106491267D01*
X149442367Y-106580559D01*
X149560213Y-106604000D01*
X149560218Y-106604000D01*
X149599999Y-106611913D01*
X149639781Y-106604000D01*
X149883552Y-106604000D01*
X149822783Y-106664770D01*
X149773000Y-106784956D01*
X149773000Y-107141250D01*
X149854750Y-107223000D01*
X149900021Y-107223000D01*
X149859641Y-107354848D01*
X149871343Y-107477000D01*
X149854750Y-107477000D01*
X149773000Y-107558750D01*
X149773000Y-108541250D01*
X149854750Y-108623000D01*
X150673000Y-108623000D01*
X150673000Y-108380605D01*
X150704848Y-108390359D01*
X150927000Y-108369078D01*
X150927000Y-108623000D01*
X150947000Y-108623000D01*
X150947000Y-108877000D01*
X150927000Y-108877000D01*
X150927000Y-109119395D01*
X150895152Y-109109641D01*
X150673000Y-109130922D01*
X150673000Y-108877000D01*
X149854750Y-108877000D01*
X149773000Y-108958750D01*
X149773000Y-109941250D01*
X149854750Y-110023000D01*
X149866170Y-110023000D01*
X149890502Y-110277000D01*
X149854750Y-110277000D01*
X149773000Y-110358750D01*
X149773000Y-110715044D01*
X149806533Y-110796000D01*
X149767342Y-110796000D01*
X147771341Y-108800000D01*
X148311540Y-108259803D01*
X148345267Y-108237267D01*
X148367802Y-108203541D01*
X148367805Y-108203538D01*
X148434559Y-108103633D01*
X148448165Y-108035230D01*
X148458000Y-107985787D01*
X148458000Y-107985783D01*
X148465913Y-107946000D01*
X148458000Y-107906217D01*
X148458000Y-107193782D01*
X148465913Y-107153999D01*
X148458000Y-107114214D01*
X148458000Y-107114213D01*
X148434559Y-106996367D01*
X148345267Y-106862733D01*
X148311538Y-106840196D01*
X148082426Y-106611084D01*
X148082426Y-105600000D01*
X148060928Y-105491920D01*
X147999705Y-105400295D01*
X147908080Y-105339072D01*
X147800000Y-105317574D01*
X147427000Y-105317574D01*
X147427000Y-105058750D01*
X147345250Y-104977000D01*
X145733830Y-104977000D01*
X145707582Y-104703000D01*
X145727000Y-104703000D01*
X145727000Y-104723000D01*
X147345250Y-104723000D01*
X147427000Y-104641250D01*
X147427000Y-104598341D01*
X149286195Y-106457537D01*
X149286195Y-106457537D01*
G37*
X149286195Y-106457537D02*
X149308733Y-106491267D01*
X149442367Y-106580559D01*
X149560213Y-106604000D01*
X149560218Y-106604000D01*
X149599999Y-106611913D01*
X149639781Y-106604000D01*
X149883552Y-106604000D01*
X149822783Y-106664770D01*
X149773000Y-106784956D01*
X149773000Y-107141250D01*
X149854750Y-107223000D01*
X149900021Y-107223000D01*
X149859641Y-107354848D01*
X149871343Y-107477000D01*
X149854750Y-107477000D01*
X149773000Y-107558750D01*
X149773000Y-108541250D01*
X149854750Y-108623000D01*
X150673000Y-108623000D01*
X150673000Y-108380605D01*
X150704848Y-108390359D01*
X150927000Y-108369078D01*
X150927000Y-108623000D01*
X150947000Y-108623000D01*
X150947000Y-108877000D01*
X150927000Y-108877000D01*
X150927000Y-109119395D01*
X150895152Y-109109641D01*
X150673000Y-109130922D01*
X150673000Y-108877000D01*
X149854750Y-108877000D01*
X149773000Y-108958750D01*
X149773000Y-109941250D01*
X149854750Y-110023000D01*
X149866170Y-110023000D01*
X149890502Y-110277000D01*
X149854750Y-110277000D01*
X149773000Y-110358750D01*
X149773000Y-110715044D01*
X149806533Y-110796000D01*
X149767342Y-110796000D01*
X147771341Y-108800000D01*
X148311540Y-108259803D01*
X148345267Y-108237267D01*
X148367802Y-108203541D01*
X148367805Y-108203538D01*
X148434559Y-108103633D01*
X148448165Y-108035230D01*
X148458000Y-107985787D01*
X148458000Y-107985783D01*
X148465913Y-107946000D01*
X148458000Y-107906217D01*
X148458000Y-107193782D01*
X148465913Y-107153999D01*
X148458000Y-107114214D01*
X148458000Y-107114213D01*
X148434559Y-106996367D01*
X148345267Y-106862733D01*
X148311538Y-106840196D01*
X148082426Y-106611084D01*
X148082426Y-105600000D01*
X148060928Y-105491920D01*
X147999705Y-105400295D01*
X147908080Y-105339072D01*
X147800000Y-105317574D01*
X147427000Y-105317574D01*
X147427000Y-105058750D01*
X147345250Y-104977000D01*
X145733830Y-104977000D01*
X145707582Y-104703000D01*
X145727000Y-104703000D01*
X145727000Y-104723000D01*
X147345250Y-104723000D01*
X147427000Y-104641250D01*
X147427000Y-104598341D01*
X149286195Y-106457537D01*
G36*
X153650000Y-109821342D02*
X153650001Y-110178657D01*
X153427000Y-110401658D01*
X153427000Y-110358750D01*
X153345250Y-110277000D01*
X151727000Y-110277000D01*
X151727000Y-110297000D01*
X151693854Y-110297000D01*
X151740359Y-110145152D01*
X151728657Y-110023000D01*
X153345250Y-110023000D01*
X153427000Y-109941250D01*
X153427000Y-109682426D01*
X153511084Y-109682426D01*
X153650000Y-109821342D01*
X153650000Y-109821342D01*
G37*
X153650000Y-109821342D02*
X153650001Y-110178657D01*
X153427000Y-110401658D01*
X153427000Y-110358750D01*
X153345250Y-110277000D01*
X151727000Y-110277000D01*
X151727000Y-110297000D01*
X151693854Y-110297000D01*
X151740359Y-110145152D01*
X151728657Y-110023000D01*
X153345250Y-110023000D01*
X153427000Y-109941250D01*
X153427000Y-109682426D01*
X153511084Y-109682426D01*
X153650000Y-109821342D01*
G36*
X150980678Y-110048928D02*
X150979605Y-110050000D01*
X150993748Y-110064143D01*
X150814143Y-110243748D01*
X150800000Y-110229605D01*
X150785858Y-110243748D01*
X150606253Y-110064143D01*
X150620395Y-110050000D01*
X150619323Y-110048928D01*
X150645250Y-110023000D01*
X150954750Y-110023000D01*
X150980678Y-110048928D01*
X150980678Y-110048928D01*
G37*
X150980678Y-110048928D02*
X150979605Y-110050000D01*
X150993748Y-110064143D01*
X150814143Y-110243748D01*
X150800000Y-110229605D01*
X150785858Y-110243748D01*
X150606253Y-110064143D01*
X150620395Y-110050000D01*
X150619323Y-110048928D01*
X150645250Y-110023000D01*
X150954750Y-110023000D01*
X150980678Y-110048928D01*
G36*
X151727000Y-110005699D02*
X151726742Y-110003000D01*
X151727000Y-110003000D01*
X151727000Y-110005699D01*
X151727000Y-110005699D01*
G37*
X151727000Y-110005699D02*
X151726742Y-110003000D01*
X151727000Y-110003000D01*
X151727000Y-110005699D01*
G36*
X144993748Y-109935858D02*
X144979605Y-109950000D01*
X144980678Y-109951073D01*
X144954750Y-109977000D01*
X144645250Y-109977000D01*
X144619323Y-109951073D01*
X144620395Y-109950000D01*
X144606253Y-109935858D01*
X144785858Y-109756253D01*
X144800000Y-109770395D01*
X144814143Y-109756253D01*
X144993748Y-109935858D01*
X144993748Y-109935858D01*
G37*
X144993748Y-109935858D02*
X144979605Y-109950000D01*
X144980678Y-109951073D01*
X144954750Y-109977000D01*
X144645250Y-109977000D01*
X144619323Y-109951073D01*
X144620395Y-109950000D01*
X144606253Y-109935858D01*
X144785858Y-109756253D01*
X144800000Y-109770395D01*
X144814143Y-109756253D01*
X144993748Y-109935858D01*
G36*
X147650000Y-107321342D02*
X147650001Y-107778657D01*
X147427000Y-108001658D01*
X147427000Y-107858750D01*
X147345250Y-107777000D01*
X145727000Y-107777000D01*
X145727000Y-107797000D01*
X145693854Y-107797000D01*
X145740359Y-107645152D01*
X145728657Y-107523000D01*
X147345250Y-107523000D01*
X147427000Y-107441250D01*
X147427000Y-107182426D01*
X147511084Y-107182426D01*
X147650000Y-107321342D01*
X147650000Y-107321342D01*
G37*
X147650000Y-107321342D02*
X147650001Y-107778657D01*
X147427000Y-108001658D01*
X147427000Y-107858750D01*
X147345250Y-107777000D01*
X145727000Y-107777000D01*
X145727000Y-107797000D01*
X145693854Y-107797000D01*
X145740359Y-107645152D01*
X145728657Y-107523000D01*
X147345250Y-107523000D01*
X147427000Y-107441250D01*
X147427000Y-107182426D01*
X147511084Y-107182426D01*
X147650000Y-107321342D01*
G36*
X153873000Y-107832094D02*
X153800000Y-107817574D01*
X153427000Y-107817574D01*
X153427000Y-107558750D01*
X153345250Y-107477000D01*
X151733830Y-107477000D01*
X151707582Y-107203000D01*
X151727000Y-107203000D01*
X151727000Y-107223000D01*
X153345250Y-107223000D01*
X153427000Y-107141250D01*
X153427000Y-106784956D01*
X153377217Y-106664770D01*
X153316448Y-106604000D01*
X153360217Y-106604000D01*
X153400000Y-106611913D01*
X153439783Y-106604000D01*
X153439787Y-106604000D01*
X153557633Y-106580559D01*
X153691267Y-106491267D01*
X153713806Y-106457535D01*
X153873000Y-106298342D01*
X153873000Y-107832094D01*
X153873000Y-107832094D01*
G37*
X153873000Y-107832094D02*
X153800000Y-107817574D01*
X153427000Y-107817574D01*
X153427000Y-107558750D01*
X153345250Y-107477000D01*
X151733830Y-107477000D01*
X151707582Y-107203000D01*
X151727000Y-107203000D01*
X151727000Y-107223000D01*
X153345250Y-107223000D01*
X153427000Y-107141250D01*
X153427000Y-106784956D01*
X153377217Y-106664770D01*
X153316448Y-106604000D01*
X153360217Y-106604000D01*
X153400000Y-106611913D01*
X153439783Y-106604000D01*
X153439787Y-106604000D01*
X153557633Y-106580559D01*
X153691267Y-106491267D01*
X153713806Y-106457535D01*
X153873000Y-106298342D01*
X153873000Y-107832094D01*
G36*
X144980678Y-107548928D02*
X144979605Y-107550000D01*
X144993748Y-107564143D01*
X144814143Y-107743748D01*
X144800000Y-107729605D01*
X144785858Y-107743748D01*
X144606253Y-107564143D01*
X144620395Y-107550000D01*
X144619323Y-107548928D01*
X144645250Y-107523000D01*
X144954750Y-107523000D01*
X144980678Y-107548928D01*
X144980678Y-107548928D01*
G37*
X144980678Y-107548928D02*
X144979605Y-107550000D01*
X144993748Y-107564143D01*
X144814143Y-107743748D01*
X144800000Y-107729605D01*
X144785858Y-107743748D01*
X144606253Y-107564143D01*
X144620395Y-107550000D01*
X144619323Y-107548928D01*
X144645250Y-107523000D01*
X144954750Y-107523000D01*
X144980678Y-107548928D01*
G36*
X145727000Y-107505699D02*
X145726742Y-107503000D01*
X145727000Y-107503000D01*
X145727000Y-107505699D01*
X145727000Y-107505699D01*
G37*
X145727000Y-107505699D02*
X145726742Y-107503000D01*
X145727000Y-107503000D01*
X145727000Y-107505699D01*
G36*
X150993748Y-107435858D02*
X150979605Y-107450000D01*
X150980678Y-107451073D01*
X150954750Y-107477000D01*
X150645250Y-107477000D01*
X150619323Y-107451073D01*
X150620395Y-107450000D01*
X150606253Y-107435858D01*
X150785858Y-107256253D01*
X150800000Y-107270395D01*
X150814143Y-107256253D01*
X150993748Y-107435858D01*
X150993748Y-107435858D01*
G37*
X150993748Y-107435858D02*
X150979605Y-107450000D01*
X150980678Y-107451073D01*
X150954750Y-107477000D01*
X150645250Y-107477000D01*
X150619323Y-107451073D01*
X150620395Y-107450000D01*
X150606253Y-107435858D01*
X150785858Y-107256253D01*
X150800000Y-107270395D01*
X150814143Y-107256253D01*
X150993748Y-107435858D01*
G36*
X149286195Y-101457537D02*
X149308733Y-101491267D01*
X149442367Y-101580559D01*
X149560213Y-101604000D01*
X149560217Y-101604000D01*
X149600000Y-101611913D01*
X149639783Y-101604000D01*
X149883552Y-101604000D01*
X149822783Y-101664770D01*
X149773000Y-101784956D01*
X149773000Y-102141250D01*
X149854750Y-102223000D01*
X149900021Y-102223000D01*
X149859641Y-102354848D01*
X149871343Y-102477000D01*
X149854750Y-102477000D01*
X149773000Y-102558750D01*
X149773000Y-103541250D01*
X149854750Y-103623000D01*
X150673000Y-103623000D01*
X150673000Y-103380605D01*
X150704848Y-103390359D01*
X150927000Y-103369078D01*
X150927000Y-103623000D01*
X150947000Y-103623000D01*
X150947000Y-103877000D01*
X150927000Y-103877000D01*
X150927000Y-104119395D01*
X150895152Y-104109641D01*
X150673000Y-104130922D01*
X150673000Y-103877000D01*
X149854750Y-103877000D01*
X149773000Y-103958750D01*
X149773000Y-104941250D01*
X149854750Y-105023000D01*
X149866170Y-105023000D01*
X149890502Y-105277000D01*
X149854750Y-105277000D01*
X149773000Y-105358750D01*
X149773000Y-105715044D01*
X149806533Y-105796000D01*
X149767342Y-105796000D01*
X147772030Y-103800689D01*
X147774806Y-103796535D01*
X148311540Y-103259803D01*
X148345267Y-103237267D01*
X148367802Y-103203541D01*
X148367805Y-103203538D01*
X148434559Y-103103633D01*
X148448165Y-103035230D01*
X148458000Y-102985787D01*
X148458000Y-102985783D01*
X148465913Y-102946000D01*
X148458000Y-102906217D01*
X148458000Y-102193782D01*
X148465913Y-102153999D01*
X148458000Y-102114214D01*
X148458000Y-102114213D01*
X148434559Y-101996367D01*
X148345267Y-101862733D01*
X148311538Y-101840196D01*
X148082426Y-101611084D01*
X148082426Y-100600000D01*
X148060928Y-100491920D01*
X147999705Y-100400295D01*
X147908080Y-100339072D01*
X147800000Y-100317574D01*
X147427000Y-100317574D01*
X147427000Y-100058750D01*
X147345250Y-99977000D01*
X145733830Y-99977000D01*
X145707582Y-99703000D01*
X145727000Y-99703000D01*
X145727000Y-99723000D01*
X147345250Y-99723000D01*
X147427000Y-99641250D01*
X147427000Y-99598341D01*
X149286195Y-101457537D01*
X149286195Y-101457537D01*
G37*
X149286195Y-101457537D02*
X149308733Y-101491267D01*
X149442367Y-101580559D01*
X149560213Y-101604000D01*
X149560217Y-101604000D01*
X149600000Y-101611913D01*
X149639783Y-101604000D01*
X149883552Y-101604000D01*
X149822783Y-101664770D01*
X149773000Y-101784956D01*
X149773000Y-102141250D01*
X149854750Y-102223000D01*
X149900021Y-102223000D01*
X149859641Y-102354848D01*
X149871343Y-102477000D01*
X149854750Y-102477000D01*
X149773000Y-102558750D01*
X149773000Y-103541250D01*
X149854750Y-103623000D01*
X150673000Y-103623000D01*
X150673000Y-103380605D01*
X150704848Y-103390359D01*
X150927000Y-103369078D01*
X150927000Y-103623000D01*
X150947000Y-103623000D01*
X150947000Y-103877000D01*
X150927000Y-103877000D01*
X150927000Y-104119395D01*
X150895152Y-104109641D01*
X150673000Y-104130922D01*
X150673000Y-103877000D01*
X149854750Y-103877000D01*
X149773000Y-103958750D01*
X149773000Y-104941250D01*
X149854750Y-105023000D01*
X149866170Y-105023000D01*
X149890502Y-105277000D01*
X149854750Y-105277000D01*
X149773000Y-105358750D01*
X149773000Y-105715044D01*
X149806533Y-105796000D01*
X149767342Y-105796000D01*
X147772030Y-103800689D01*
X147774806Y-103796535D01*
X148311540Y-103259803D01*
X148345267Y-103237267D01*
X148367802Y-103203541D01*
X148367805Y-103203538D01*
X148434559Y-103103633D01*
X148448165Y-103035230D01*
X148458000Y-102985787D01*
X148458000Y-102985783D01*
X148465913Y-102946000D01*
X148458000Y-102906217D01*
X148458000Y-102193782D01*
X148465913Y-102153999D01*
X148458000Y-102114214D01*
X148458000Y-102114213D01*
X148434559Y-101996367D01*
X148345267Y-101862733D01*
X148311538Y-101840196D01*
X148082426Y-101611084D01*
X148082426Y-100600000D01*
X148060928Y-100491920D01*
X147999705Y-100400295D01*
X147908080Y-100339072D01*
X147800000Y-100317574D01*
X147427000Y-100317574D01*
X147427000Y-100058750D01*
X147345250Y-99977000D01*
X145733830Y-99977000D01*
X145707582Y-99703000D01*
X145727000Y-99703000D01*
X145727000Y-99723000D01*
X147345250Y-99723000D01*
X147427000Y-99641250D01*
X147427000Y-99598341D01*
X149286195Y-101457537D01*
G36*
X153650000Y-104821342D02*
X153650001Y-105378657D01*
X153427000Y-105601658D01*
X153427000Y-105358750D01*
X153345250Y-105277000D01*
X151727000Y-105277000D01*
X151727000Y-105297000D01*
X151693854Y-105297000D01*
X151740359Y-105145152D01*
X151728657Y-105023000D01*
X153345250Y-105023000D01*
X153427000Y-104941250D01*
X153427000Y-104682426D01*
X153511084Y-104682426D01*
X153650000Y-104821342D01*
X153650000Y-104821342D01*
G37*
X153650000Y-104821342D02*
X153650001Y-105378657D01*
X153427000Y-105601658D01*
X153427000Y-105358750D01*
X153345250Y-105277000D01*
X151727000Y-105277000D01*
X151727000Y-105297000D01*
X151693854Y-105297000D01*
X151740359Y-105145152D01*
X151728657Y-105023000D01*
X153345250Y-105023000D01*
X153427000Y-104941250D01*
X153427000Y-104682426D01*
X153511084Y-104682426D01*
X153650000Y-104821342D01*
G36*
X150980678Y-105048928D02*
X150979605Y-105050000D01*
X150993748Y-105064143D01*
X150814143Y-105243748D01*
X150800000Y-105229605D01*
X150785858Y-105243748D01*
X150606253Y-105064143D01*
X150620395Y-105050000D01*
X150619323Y-105048928D01*
X150645250Y-105023000D01*
X150954750Y-105023000D01*
X150980678Y-105048928D01*
X150980678Y-105048928D01*
G37*
X150980678Y-105048928D02*
X150979605Y-105050000D01*
X150993748Y-105064143D01*
X150814143Y-105243748D01*
X150800000Y-105229605D01*
X150785858Y-105243748D01*
X150606253Y-105064143D01*
X150620395Y-105050000D01*
X150619323Y-105048928D01*
X150645250Y-105023000D01*
X150954750Y-105023000D01*
X150980678Y-105048928D01*
G36*
X151727000Y-105005699D02*
X151726742Y-105003000D01*
X151727000Y-105003000D01*
X151727000Y-105005699D01*
X151727000Y-105005699D01*
G37*
X151727000Y-105005699D02*
X151726742Y-105003000D01*
X151727000Y-105003000D01*
X151727000Y-105005699D01*
G36*
X144993748Y-104935858D02*
X144979605Y-104950000D01*
X144980678Y-104951073D01*
X144954750Y-104977000D01*
X144645250Y-104977000D01*
X144619323Y-104951073D01*
X144620395Y-104950000D01*
X144606253Y-104935858D01*
X144785858Y-104756253D01*
X144800000Y-104770395D01*
X144814143Y-104756253D01*
X144993748Y-104935858D01*
X144993748Y-104935858D01*
G37*
X144993748Y-104935858D02*
X144979605Y-104950000D01*
X144980678Y-104951073D01*
X144954750Y-104977000D01*
X144645250Y-104977000D01*
X144619323Y-104951073D01*
X144620395Y-104950000D01*
X144606253Y-104935858D01*
X144785858Y-104756253D01*
X144800000Y-104770395D01*
X144814143Y-104756253D01*
X144993748Y-104935858D01*
G36*
X147650000Y-102321342D02*
X147650001Y-102778657D01*
X147427000Y-103001658D01*
X147427000Y-102858750D01*
X147345250Y-102777000D01*
X145727000Y-102777000D01*
X145727000Y-102797000D01*
X145693854Y-102797000D01*
X145740359Y-102645152D01*
X145728657Y-102523000D01*
X147345250Y-102523000D01*
X147427000Y-102441250D01*
X147427000Y-102182426D01*
X147511084Y-102182426D01*
X147650000Y-102321342D01*
X147650000Y-102321342D01*
G37*
X147650000Y-102321342D02*
X147650001Y-102778657D01*
X147427000Y-103001658D01*
X147427000Y-102858750D01*
X147345250Y-102777000D01*
X145727000Y-102777000D01*
X145727000Y-102797000D01*
X145693854Y-102797000D01*
X145740359Y-102645152D01*
X145728657Y-102523000D01*
X147345250Y-102523000D01*
X147427000Y-102441250D01*
X147427000Y-102182426D01*
X147511084Y-102182426D01*
X147650000Y-102321342D01*
G36*
X153873000Y-102832094D02*
X153800000Y-102817574D01*
X153427000Y-102817574D01*
X153427000Y-102558750D01*
X153345250Y-102477000D01*
X151733830Y-102477000D01*
X151707582Y-102203000D01*
X151727000Y-102203000D01*
X151727000Y-102223000D01*
X153345250Y-102223000D01*
X153427000Y-102141250D01*
X153427000Y-101784956D01*
X153377217Y-101664770D01*
X153316448Y-101604000D01*
X153360217Y-101604000D01*
X153400000Y-101611913D01*
X153439783Y-101604000D01*
X153439787Y-101604000D01*
X153557633Y-101580559D01*
X153691267Y-101491267D01*
X153713806Y-101457535D01*
X153873000Y-101298342D01*
X153873000Y-102832094D01*
X153873000Y-102832094D01*
G37*
X153873000Y-102832094D02*
X153800000Y-102817574D01*
X153427000Y-102817574D01*
X153427000Y-102558750D01*
X153345250Y-102477000D01*
X151733830Y-102477000D01*
X151707582Y-102203000D01*
X151727000Y-102203000D01*
X151727000Y-102223000D01*
X153345250Y-102223000D01*
X153427000Y-102141250D01*
X153427000Y-101784956D01*
X153377217Y-101664770D01*
X153316448Y-101604000D01*
X153360217Y-101604000D01*
X153400000Y-101611913D01*
X153439783Y-101604000D01*
X153439787Y-101604000D01*
X153557633Y-101580559D01*
X153691267Y-101491267D01*
X153713806Y-101457535D01*
X153873000Y-101298342D01*
X153873000Y-102832094D01*
G36*
X144980678Y-102548928D02*
X144979605Y-102550000D01*
X144993748Y-102564143D01*
X144814143Y-102743748D01*
X144800000Y-102729605D01*
X144785858Y-102743748D01*
X144606253Y-102564143D01*
X144620395Y-102550000D01*
X144619323Y-102548928D01*
X144645250Y-102523000D01*
X144954750Y-102523000D01*
X144980678Y-102548928D01*
X144980678Y-102548928D01*
G37*
X144980678Y-102548928D02*
X144979605Y-102550000D01*
X144993748Y-102564143D01*
X144814143Y-102743748D01*
X144800000Y-102729605D01*
X144785858Y-102743748D01*
X144606253Y-102564143D01*
X144620395Y-102550000D01*
X144619323Y-102548928D01*
X144645250Y-102523000D01*
X144954750Y-102523000D01*
X144980678Y-102548928D01*
G36*
X145727000Y-102505699D02*
X145726742Y-102503000D01*
X145727000Y-102503000D01*
X145727000Y-102505699D01*
X145727000Y-102505699D01*
G37*
X145727000Y-102505699D02*
X145726742Y-102503000D01*
X145727000Y-102503000D01*
X145727000Y-102505699D01*
G36*
X150993748Y-102435858D02*
X150979605Y-102450000D01*
X150980678Y-102451073D01*
X150954750Y-102477000D01*
X150645250Y-102477000D01*
X150619323Y-102451073D01*
X150620395Y-102450000D01*
X150606253Y-102435858D01*
X150785858Y-102256253D01*
X150800000Y-102270395D01*
X150814143Y-102256253D01*
X150993748Y-102435858D01*
X150993748Y-102435858D01*
G37*
X150993748Y-102435858D02*
X150979605Y-102450000D01*
X150980678Y-102451073D01*
X150954750Y-102477000D01*
X150645250Y-102477000D01*
X150619323Y-102451073D01*
X150620395Y-102450000D01*
X150606253Y-102435858D01*
X150785858Y-102256253D01*
X150800000Y-102270395D01*
X150814143Y-102256253D01*
X150993748Y-102435858D01*
G36*
X153873000Y-97832094D02*
X153800000Y-97817574D01*
X153427000Y-97817574D01*
X153427000Y-97558750D01*
X153345250Y-97477000D01*
X151733830Y-97477000D01*
X151705192Y-97178049D01*
X151632366Y-97002231D01*
X151493688Y-96935920D01*
X151556374Y-96873234D01*
X151473000Y-96789860D01*
X151473000Y-96604750D01*
X151727000Y-96604750D01*
X151727000Y-97223000D01*
X153345250Y-97223000D01*
X153427000Y-97141250D01*
X153427000Y-96784956D01*
X153377217Y-96664770D01*
X153285231Y-96572783D01*
X153165045Y-96523000D01*
X151808750Y-96523000D01*
X151727000Y-96604750D01*
X151473000Y-96604750D01*
X151391250Y-96523000D01*
X150938772Y-96523000D01*
X150895152Y-96509641D01*
X150755699Y-96523000D01*
X150034955Y-96523000D01*
X149914769Y-96572783D01*
X149822783Y-96664770D01*
X149773000Y-96784956D01*
X149773000Y-97141250D01*
X149854750Y-97223000D01*
X149900021Y-97223000D01*
X149859641Y-97354848D01*
X149871343Y-97477000D01*
X149854750Y-97477000D01*
X149773000Y-97558750D01*
X149773000Y-98541250D01*
X149854750Y-98623000D01*
X150673000Y-98623000D01*
X150673000Y-98380605D01*
X150704848Y-98390359D01*
X150927000Y-98369078D01*
X150927000Y-98623000D01*
X150947000Y-98623000D01*
X150947000Y-98877000D01*
X150927000Y-98877000D01*
X150927000Y-99119395D01*
X150895152Y-99109641D01*
X150673000Y-99130922D01*
X150673000Y-98877000D01*
X149854750Y-98877000D01*
X149773000Y-98958750D01*
X149773000Y-99941250D01*
X149854750Y-100023000D01*
X149866170Y-100023000D01*
X149890502Y-100277000D01*
X149854750Y-100277000D01*
X149773000Y-100358750D01*
X149773000Y-100715044D01*
X149806533Y-100796000D01*
X149767342Y-100796000D01*
X147771341Y-98800000D01*
X148311537Y-98259805D01*
X148345267Y-98237267D01*
X148434559Y-98103633D01*
X148458000Y-97985787D01*
X148458000Y-97985784D01*
X148465913Y-97946001D01*
X148458000Y-97906218D01*
X148458000Y-97193782D01*
X148465913Y-97153999D01*
X148458000Y-97114214D01*
X148458000Y-97114213D01*
X148434559Y-96996367D01*
X148345267Y-96862733D01*
X148311538Y-96840196D01*
X148082426Y-96611084D01*
X148082426Y-95600000D01*
X148060928Y-95491920D01*
X147999705Y-95400295D01*
X147908080Y-95339072D01*
X147800000Y-95317574D01*
X147427000Y-95317574D01*
X147427000Y-95127000D01*
X153873000Y-95127000D01*
X153873000Y-97832094D01*
X153873000Y-97832094D01*
G37*
X153873000Y-97832094D02*
X153800000Y-97817574D01*
X153427000Y-97817574D01*
X153427000Y-97558750D01*
X153345250Y-97477000D01*
X151733830Y-97477000D01*
X151705192Y-97178049D01*
X151632366Y-97002231D01*
X151493688Y-96935920D01*
X151556374Y-96873234D01*
X151473000Y-96789860D01*
X151473000Y-96604750D01*
X151727000Y-96604750D01*
X151727000Y-97223000D01*
X153345250Y-97223000D01*
X153427000Y-97141250D01*
X153427000Y-96784956D01*
X153377217Y-96664770D01*
X153285231Y-96572783D01*
X153165045Y-96523000D01*
X151808750Y-96523000D01*
X151727000Y-96604750D01*
X151473000Y-96604750D01*
X151391250Y-96523000D01*
X150938772Y-96523000D01*
X150895152Y-96509641D01*
X150755699Y-96523000D01*
X150034955Y-96523000D01*
X149914769Y-96572783D01*
X149822783Y-96664770D01*
X149773000Y-96784956D01*
X149773000Y-97141250D01*
X149854750Y-97223000D01*
X149900021Y-97223000D01*
X149859641Y-97354848D01*
X149871343Y-97477000D01*
X149854750Y-97477000D01*
X149773000Y-97558750D01*
X149773000Y-98541250D01*
X149854750Y-98623000D01*
X150673000Y-98623000D01*
X150673000Y-98380605D01*
X150704848Y-98390359D01*
X150927000Y-98369078D01*
X150927000Y-98623000D01*
X150947000Y-98623000D01*
X150947000Y-98877000D01*
X150927000Y-98877000D01*
X150927000Y-99119395D01*
X150895152Y-99109641D01*
X150673000Y-99130922D01*
X150673000Y-98877000D01*
X149854750Y-98877000D01*
X149773000Y-98958750D01*
X149773000Y-99941250D01*
X149854750Y-100023000D01*
X149866170Y-100023000D01*
X149890502Y-100277000D01*
X149854750Y-100277000D01*
X149773000Y-100358750D01*
X149773000Y-100715044D01*
X149806533Y-100796000D01*
X149767342Y-100796000D01*
X147771341Y-98800000D01*
X148311537Y-98259805D01*
X148345267Y-98237267D01*
X148434559Y-98103633D01*
X148458000Y-97985787D01*
X148458000Y-97985784D01*
X148465913Y-97946001D01*
X148458000Y-97906218D01*
X148458000Y-97193782D01*
X148465913Y-97153999D01*
X148458000Y-97114214D01*
X148458000Y-97114213D01*
X148434559Y-96996367D01*
X148345267Y-96862733D01*
X148311538Y-96840196D01*
X148082426Y-96611084D01*
X148082426Y-95600000D01*
X148060928Y-95491920D01*
X147999705Y-95400295D01*
X147908080Y-95339072D01*
X147800000Y-95317574D01*
X147427000Y-95317574D01*
X147427000Y-95127000D01*
X153873000Y-95127000D01*
X153873000Y-97832094D01*
G36*
X153650000Y-99821342D02*
X153650001Y-100378657D01*
X153427000Y-100601658D01*
X153427000Y-100358750D01*
X153345250Y-100277000D01*
X151727000Y-100277000D01*
X151727000Y-100297000D01*
X151693854Y-100297000D01*
X151740359Y-100145152D01*
X151728657Y-100023000D01*
X153345250Y-100023000D01*
X153427000Y-99941250D01*
X153427000Y-99682426D01*
X153511084Y-99682426D01*
X153650000Y-99821342D01*
X153650000Y-99821342D01*
G37*
X153650000Y-99821342D02*
X153650001Y-100378657D01*
X153427000Y-100601658D01*
X153427000Y-100358750D01*
X153345250Y-100277000D01*
X151727000Y-100277000D01*
X151727000Y-100297000D01*
X151693854Y-100297000D01*
X151740359Y-100145152D01*
X151728657Y-100023000D01*
X153345250Y-100023000D01*
X153427000Y-99941250D01*
X153427000Y-99682426D01*
X153511084Y-99682426D01*
X153650000Y-99821342D01*
G36*
X150980678Y-100048928D02*
X150979605Y-100050000D01*
X150993748Y-100064143D01*
X150814143Y-100243748D01*
X150800000Y-100229605D01*
X150785858Y-100243748D01*
X150606253Y-100064143D01*
X150620395Y-100050000D01*
X150619323Y-100048928D01*
X150645250Y-100023000D01*
X150954750Y-100023000D01*
X150980678Y-100048928D01*
X150980678Y-100048928D01*
G37*
X150980678Y-100048928D02*
X150979605Y-100050000D01*
X150993748Y-100064143D01*
X150814143Y-100243748D01*
X150800000Y-100229605D01*
X150785858Y-100243748D01*
X150606253Y-100064143D01*
X150620395Y-100050000D01*
X150619323Y-100048928D01*
X150645250Y-100023000D01*
X150954750Y-100023000D01*
X150980678Y-100048928D01*
G36*
X151727000Y-100005699D02*
X151726742Y-100003000D01*
X151727000Y-100003000D01*
X151727000Y-100005699D01*
X151727000Y-100005699D01*
G37*
X151727000Y-100005699D02*
X151726742Y-100003000D01*
X151727000Y-100003000D01*
X151727000Y-100005699D01*
G36*
X144993748Y-99935858D02*
X144979605Y-99950000D01*
X144980678Y-99951073D01*
X144954750Y-99977000D01*
X144645250Y-99977000D01*
X144619323Y-99951073D01*
X144620395Y-99950000D01*
X144606253Y-99935858D01*
X144785858Y-99756253D01*
X144800000Y-99770395D01*
X144814143Y-99756253D01*
X144993748Y-99935858D01*
X144993748Y-99935858D01*
G37*
X144993748Y-99935858D02*
X144979605Y-99950000D01*
X144980678Y-99951073D01*
X144954750Y-99977000D01*
X144645250Y-99977000D01*
X144619323Y-99951073D01*
X144620395Y-99950000D01*
X144606253Y-99935858D01*
X144785858Y-99756253D01*
X144800000Y-99770395D01*
X144814143Y-99756253D01*
X144993748Y-99935858D01*
G36*
X147650000Y-97321342D02*
X147650001Y-97778657D01*
X147427000Y-98001659D01*
X147427000Y-97858750D01*
X147345250Y-97777000D01*
X145727000Y-97777000D01*
X145727000Y-97797000D01*
X145693854Y-97797000D01*
X145740359Y-97645152D01*
X145728657Y-97523000D01*
X147345250Y-97523000D01*
X147427000Y-97441250D01*
X147427000Y-97182426D01*
X147511084Y-97182426D01*
X147650000Y-97321342D01*
X147650000Y-97321342D01*
G37*
X147650000Y-97321342D02*
X147650001Y-97778657D01*
X147427000Y-98001659D01*
X147427000Y-97858750D01*
X147345250Y-97777000D01*
X145727000Y-97777000D01*
X145727000Y-97797000D01*
X145693854Y-97797000D01*
X145740359Y-97645152D01*
X145728657Y-97523000D01*
X147345250Y-97523000D01*
X147427000Y-97441250D01*
X147427000Y-97182426D01*
X147511084Y-97182426D01*
X147650000Y-97321342D01*
G36*
X144980678Y-97548928D02*
X144979605Y-97550000D01*
X144993748Y-97564143D01*
X144814143Y-97743748D01*
X144800000Y-97729605D01*
X144785858Y-97743748D01*
X144606253Y-97564143D01*
X144620395Y-97550000D01*
X144619323Y-97548928D01*
X144645250Y-97523000D01*
X144954750Y-97523000D01*
X144980678Y-97548928D01*
X144980678Y-97548928D01*
G37*
X144980678Y-97548928D02*
X144979605Y-97550000D01*
X144993748Y-97564143D01*
X144814143Y-97743748D01*
X144800000Y-97729605D01*
X144785858Y-97743748D01*
X144606253Y-97564143D01*
X144620395Y-97550000D01*
X144619323Y-97548928D01*
X144645250Y-97523000D01*
X144954750Y-97523000D01*
X144980678Y-97548928D01*
G36*
X145727000Y-97505699D02*
X145726742Y-97503000D01*
X145727000Y-97503000D01*
X145727000Y-97505699D01*
X145727000Y-97505699D01*
G37*
X145727000Y-97505699D02*
X145726742Y-97503000D01*
X145727000Y-97503000D01*
X145727000Y-97505699D01*
G36*
X150993748Y-97435858D02*
X150979605Y-97450000D01*
X150980678Y-97451073D01*
X150954750Y-97477000D01*
X150645250Y-97477000D01*
X150619323Y-97451073D01*
X150620395Y-97450000D01*
X150606253Y-97435858D01*
X150785858Y-97256253D01*
X150800000Y-97270395D01*
X150814143Y-97256253D01*
X150993748Y-97435858D01*
X150993748Y-97435858D01*
G37*
X150993748Y-97435858D02*
X150979605Y-97450000D01*
X150980678Y-97451073D01*
X150954750Y-97477000D01*
X150645250Y-97477000D01*
X150619323Y-97451073D01*
X150620395Y-97450000D01*
X150606253Y-97435858D01*
X150785858Y-97256253D01*
X150800000Y-97270395D01*
X150814143Y-97256253D01*
X150993748Y-97435858D01*
G04 #@! TD*
M02*
