G04 #@! TF.GenerationSoftware,KiCad,Pcbnew,(5.0.1)*
G04 #@! TF.CreationDate,2018-11-27T11:11:20+09:00*
G04 #@! TF.ProjectId,cable_breakout,6361626C655F627265616B6F75742E6B,rev?*
G04 #@! TF.SameCoordinates,Original*
G04 #@! TF.FileFunction,Soldermask,Top*
G04 #@! TF.FilePolarity,Negative*
%FSLAX46Y46*%
G04 Gerber Fmt 4.6, Leading zero omitted, Abs format (unit mm)*
G04 Created by KiCad (PCBNEW (5.0.1)) date Tue Nov 27 11:11:20 2018*
%MOMM*%
%LPD*%
G01*
G04 APERTURE LIST*
%ADD10C,0.150000*%
%ADD11C,0.100000*%
G04 APERTURE END LIST*
D10*
X117500000Y-130000000D02*
X120000000Y-130000000D01*
X117500000Y-129000000D02*
X117500000Y-130000000D01*
X112500000Y-129000000D02*
X117500000Y-129000000D01*
X112500000Y-130000000D02*
X112500000Y-129000000D01*
X110000000Y-130000000D02*
X112500000Y-130000000D01*
X117500000Y-100000000D02*
X120000000Y-100000000D01*
X117500000Y-101000000D02*
X117500000Y-100000000D01*
X112500000Y-101000000D02*
X117500000Y-101000000D01*
X112500000Y-100000000D02*
X112500000Y-101000000D01*
X110000000Y-100000000D02*
X112500000Y-100000000D01*
X120000000Y-130000000D02*
X120000000Y-140000000D01*
X120000000Y-90000000D02*
X120000000Y-100000000D01*
X155000000Y-140000000D02*
X155000000Y-90000000D01*
X120000000Y-140000000D02*
X155000000Y-140000000D01*
X155000000Y-90000000D02*
X120000000Y-90000000D01*
X110000000Y-130000000D02*
X110000000Y-100000000D01*
D11*
G36*
X143560000Y-139060000D02*
X142440000Y-139060000D01*
X142440000Y-136940000D01*
X143560000Y-136940000D01*
X143560000Y-139060000D01*
X143560000Y-139060000D01*
G37*
G36*
X125560000Y-139060000D02*
X124440000Y-139060000D01*
X124440000Y-136940000D01*
X125560000Y-136940000D01*
X125560000Y-139060000D01*
X125560000Y-139060000D01*
G37*
G36*
X127560000Y-139060000D02*
X126440000Y-139060000D01*
X126440000Y-136940000D01*
X127560000Y-136940000D01*
X127560000Y-139060000D01*
X127560000Y-139060000D01*
G37*
G36*
X121560000Y-139060000D02*
X120440000Y-139060000D01*
X120440000Y-136940000D01*
X121560000Y-136940000D01*
X121560000Y-139060000D01*
X121560000Y-139060000D01*
G37*
G36*
X123560000Y-139060000D02*
X122440000Y-139060000D01*
X122440000Y-136940000D01*
X123560000Y-136940000D01*
X123560000Y-139060000D01*
X123560000Y-139060000D01*
G37*
G36*
X141560000Y-139060000D02*
X140440000Y-139060000D01*
X140440000Y-136940000D01*
X141560000Y-136940000D01*
X141560000Y-139060000D01*
X141560000Y-139060000D01*
G37*
G36*
X153160000Y-132915000D02*
X153162402Y-132939386D01*
X153169515Y-132962835D01*
X153181066Y-132984446D01*
X153196612Y-133003388D01*
X153215554Y-133018934D01*
X153237165Y-133030485D01*
X153260614Y-133037598D01*
X153285000Y-133040000D01*
X153860000Y-133040000D01*
X153860000Y-134460000D01*
X153285000Y-134460000D01*
X153260614Y-134462402D01*
X153237165Y-134469515D01*
X153215554Y-134481066D01*
X153196612Y-134496612D01*
X153181066Y-134515554D01*
X153169515Y-134537165D01*
X153162402Y-134560614D01*
X153160000Y-134585000D01*
X153160000Y-135710000D01*
X150040000Y-135710000D01*
X150040000Y-131790000D01*
X153160000Y-131790000D01*
X153160000Y-132915000D01*
X153160000Y-132915000D01*
G37*
G36*
X142292514Y-134365363D02*
X142412627Y-134415116D01*
X142520726Y-134487345D01*
X142612655Y-134579274D01*
X142684884Y-134687373D01*
X142734637Y-134807486D01*
X142760000Y-134934994D01*
X142760000Y-135065006D01*
X142734637Y-135192514D01*
X142684884Y-135312627D01*
X142612655Y-135420726D01*
X142520726Y-135512655D01*
X142412627Y-135584884D01*
X142292514Y-135634637D01*
X142165006Y-135660000D01*
X142034994Y-135660000D01*
X141907486Y-135634637D01*
X141787373Y-135584884D01*
X141679274Y-135512655D01*
X141587345Y-135420726D01*
X141515116Y-135312627D01*
X141465363Y-135192514D01*
X141440000Y-135065006D01*
X141440000Y-134934994D01*
X141465363Y-134807486D01*
X141515116Y-134687373D01*
X141587345Y-134579274D01*
X141679274Y-134487345D01*
X141787373Y-134415116D01*
X141907486Y-134365363D01*
X142034994Y-134340000D01*
X142165006Y-134340000D01*
X142292514Y-134365363D01*
X142292514Y-134365363D01*
G37*
G36*
X122034177Y-134557677D02*
X122117892Y-134592352D01*
X122193236Y-134642696D01*
X122257304Y-134706764D01*
X122307648Y-134782108D01*
X122342323Y-134865823D01*
X122360000Y-134954692D01*
X122360000Y-135045308D01*
X122342323Y-135134177D01*
X122307648Y-135217892D01*
X122257304Y-135293236D01*
X122193236Y-135357304D01*
X122117892Y-135407648D01*
X122034177Y-135442323D01*
X121945308Y-135460000D01*
X121854692Y-135460000D01*
X121765823Y-135442323D01*
X121682108Y-135407648D01*
X121606764Y-135357304D01*
X121542696Y-135293236D01*
X121492352Y-135217892D01*
X121457677Y-135134177D01*
X121440000Y-135045308D01*
X121440000Y-134954692D01*
X121457677Y-134865823D01*
X121492352Y-134782108D01*
X121542696Y-134706764D01*
X121606764Y-134642696D01*
X121682108Y-134592352D01*
X121765823Y-134557677D01*
X121854692Y-134540000D01*
X121945308Y-134540000D01*
X122034177Y-134557677D01*
X122034177Y-134557677D01*
G37*
G36*
X147160000Y-130415000D02*
X147162402Y-130439386D01*
X147169515Y-130462835D01*
X147181066Y-130484446D01*
X147196612Y-130503388D01*
X147215554Y-130518934D01*
X147237165Y-130530485D01*
X147260614Y-130537598D01*
X147285000Y-130540000D01*
X147860000Y-130540000D01*
X147860000Y-131960000D01*
X147285000Y-131960000D01*
X147260614Y-131962402D01*
X147237165Y-131969515D01*
X147215554Y-131981066D01*
X147196612Y-131996612D01*
X147181066Y-132015554D01*
X147169515Y-132037165D01*
X147162402Y-132060614D01*
X147160000Y-132085000D01*
X147160000Y-133210000D01*
X144040000Y-133210000D01*
X144040000Y-129290000D01*
X147160000Y-129290000D01*
X147160000Y-130415000D01*
X147160000Y-130415000D01*
G37*
G36*
X153160000Y-127915000D02*
X153162402Y-127939386D01*
X153169515Y-127962835D01*
X153181066Y-127984446D01*
X153196612Y-128003388D01*
X153215554Y-128018934D01*
X153237165Y-128030485D01*
X153260614Y-128037598D01*
X153285000Y-128040000D01*
X153860000Y-128040000D01*
X153860000Y-129460000D01*
X153285000Y-129460000D01*
X153260614Y-129462402D01*
X153237165Y-129469515D01*
X153215554Y-129481066D01*
X153196612Y-129496612D01*
X153181066Y-129515554D01*
X153169515Y-129537165D01*
X153162402Y-129560614D01*
X153160000Y-129585000D01*
X153160000Y-130710000D01*
X150040000Y-130710000D01*
X150040000Y-126790000D01*
X153160000Y-126790000D01*
X153160000Y-127915000D01*
X153160000Y-127915000D01*
G37*
G36*
X147160000Y-125415000D02*
X147162402Y-125439386D01*
X147169515Y-125462835D01*
X147181066Y-125484446D01*
X147196612Y-125503388D01*
X147215554Y-125518934D01*
X147237165Y-125530485D01*
X147260614Y-125537598D01*
X147285000Y-125540000D01*
X147860000Y-125540000D01*
X147860000Y-126960000D01*
X147285000Y-126960000D01*
X147260614Y-126962402D01*
X147237165Y-126969515D01*
X147215554Y-126981066D01*
X147196612Y-126996612D01*
X147181066Y-127015554D01*
X147169515Y-127037165D01*
X147162402Y-127060614D01*
X147160000Y-127085000D01*
X147160000Y-128210000D01*
X144040000Y-128210000D01*
X144040000Y-124290000D01*
X147160000Y-124290000D01*
X147160000Y-125415000D01*
X147160000Y-125415000D01*
G37*
G36*
X153160000Y-122915000D02*
X153162402Y-122939386D01*
X153169515Y-122962835D01*
X153181066Y-122984446D01*
X153196612Y-123003388D01*
X153215554Y-123018934D01*
X153237165Y-123030485D01*
X153260614Y-123037598D01*
X153285000Y-123040000D01*
X153860000Y-123040000D01*
X153860000Y-124460000D01*
X153285000Y-124460000D01*
X153260614Y-124462402D01*
X153237165Y-124469515D01*
X153215554Y-124481066D01*
X153196612Y-124496612D01*
X153181066Y-124515554D01*
X153169515Y-124537165D01*
X153162402Y-124560614D01*
X153160000Y-124585000D01*
X153160000Y-125710000D01*
X150040000Y-125710000D01*
X150040000Y-121790000D01*
X153160000Y-121790000D01*
X153160000Y-122915000D01*
X153160000Y-122915000D01*
G37*
G36*
X147160000Y-120415000D02*
X147162402Y-120439386D01*
X147169515Y-120462835D01*
X147181066Y-120484446D01*
X147196612Y-120503388D01*
X147215554Y-120518934D01*
X147237165Y-120530485D01*
X147260614Y-120537598D01*
X147285000Y-120540000D01*
X147860000Y-120540000D01*
X147860000Y-121960000D01*
X147285000Y-121960000D01*
X147260614Y-121962402D01*
X147237165Y-121969515D01*
X147215554Y-121981066D01*
X147196612Y-121996612D01*
X147181066Y-122015554D01*
X147169515Y-122037165D01*
X147162402Y-122060614D01*
X147160000Y-122085000D01*
X147160000Y-123210000D01*
X144040000Y-123210000D01*
X144040000Y-119290000D01*
X147160000Y-119290000D01*
X147160000Y-120415000D01*
X147160000Y-120415000D01*
G37*
G36*
X153160000Y-117915000D02*
X153162402Y-117939386D01*
X153169515Y-117962835D01*
X153181066Y-117984446D01*
X153196612Y-118003388D01*
X153215554Y-118018934D01*
X153237165Y-118030485D01*
X153260614Y-118037598D01*
X153285000Y-118040000D01*
X153860000Y-118040000D01*
X153860000Y-119460000D01*
X153285000Y-119460000D01*
X153260614Y-119462402D01*
X153237165Y-119469515D01*
X153215554Y-119481066D01*
X153196612Y-119496612D01*
X153181066Y-119515554D01*
X153169515Y-119537165D01*
X153162402Y-119560614D01*
X153160000Y-119585000D01*
X153160000Y-120710000D01*
X150040000Y-120710000D01*
X150040000Y-116790000D01*
X153160000Y-116790000D01*
X153160000Y-117915000D01*
X153160000Y-117915000D01*
G37*
G36*
X116050079Y-111538345D02*
X116050082Y-111538346D01*
X116050081Y-111538346D01*
X116705240Y-111809721D01*
X117195605Y-112137373D01*
X117294869Y-112203699D01*
X117796301Y-112705131D01*
X117796303Y-112705134D01*
X118190279Y-113294760D01*
X118311185Y-113586654D01*
X118461655Y-113949921D01*
X118600000Y-114645429D01*
X118600000Y-115354571D01*
X118461655Y-116050079D01*
X118461654Y-116050081D01*
X118190279Y-116705240D01*
X117834719Y-117237373D01*
X117796301Y-117294869D01*
X117294869Y-117796301D01*
X117294866Y-117796303D01*
X116705240Y-118190279D01*
X116215776Y-118393021D01*
X116050079Y-118461655D01*
X115354571Y-118600000D01*
X114645429Y-118600000D01*
X113949921Y-118461655D01*
X113784224Y-118393021D01*
X113294760Y-118190279D01*
X112705134Y-117796303D01*
X112705131Y-117796301D01*
X112203699Y-117294869D01*
X112165281Y-117237373D01*
X111809721Y-116705240D01*
X111538346Y-116050081D01*
X111538345Y-116050079D01*
X111400000Y-115354571D01*
X111400000Y-114645429D01*
X111538345Y-113949921D01*
X111688815Y-113586654D01*
X111809721Y-113294760D01*
X112203697Y-112705134D01*
X112203699Y-112705131D01*
X112705131Y-112203699D01*
X112804395Y-112137373D01*
X113294760Y-111809721D01*
X113949919Y-111538346D01*
X113949918Y-111538346D01*
X113949921Y-111538345D01*
X114645429Y-111400000D01*
X115354571Y-111400000D01*
X116050079Y-111538345D01*
X116050079Y-111538345D01*
G37*
G36*
X147160000Y-115415000D02*
X147162402Y-115439386D01*
X147169515Y-115462835D01*
X147181066Y-115484446D01*
X147196612Y-115503388D01*
X147215554Y-115518934D01*
X147237165Y-115530485D01*
X147260614Y-115537598D01*
X147285000Y-115540000D01*
X147860000Y-115540000D01*
X147860000Y-116960000D01*
X147285000Y-116960000D01*
X147260614Y-116962402D01*
X147237165Y-116969515D01*
X147215554Y-116981066D01*
X147196612Y-116996612D01*
X147181066Y-117015554D01*
X147169515Y-117037165D01*
X147162402Y-117060614D01*
X147160000Y-117085000D01*
X147160000Y-118210000D01*
X144040000Y-118210000D01*
X144040000Y-114290000D01*
X147160000Y-114290000D01*
X147160000Y-115415000D01*
X147160000Y-115415000D01*
G37*
G36*
X153160000Y-112915000D02*
X153162402Y-112939386D01*
X153169515Y-112962835D01*
X153181066Y-112984446D01*
X153196612Y-113003388D01*
X153215554Y-113018934D01*
X153237165Y-113030485D01*
X153260614Y-113037598D01*
X153285000Y-113040000D01*
X153860000Y-113040000D01*
X153860000Y-114460000D01*
X153285000Y-114460000D01*
X153260614Y-114462402D01*
X153237165Y-114469515D01*
X153215554Y-114481066D01*
X153196612Y-114496612D01*
X153181066Y-114515554D01*
X153169515Y-114537165D01*
X153162402Y-114560614D01*
X153160000Y-114585000D01*
X153160000Y-115710000D01*
X150040000Y-115710000D01*
X150040000Y-111790000D01*
X153160000Y-111790000D01*
X153160000Y-112915000D01*
X153160000Y-112915000D01*
G37*
G36*
X147160000Y-110415000D02*
X147162402Y-110439386D01*
X147169515Y-110462835D01*
X147181066Y-110484446D01*
X147196612Y-110503388D01*
X147215554Y-110518934D01*
X147237165Y-110530485D01*
X147260614Y-110537598D01*
X147285000Y-110540000D01*
X147860000Y-110540000D01*
X147860000Y-111960000D01*
X147285000Y-111960000D01*
X147260614Y-111962402D01*
X147237165Y-111969515D01*
X147215554Y-111981066D01*
X147196612Y-111996612D01*
X147181066Y-112015554D01*
X147169515Y-112037165D01*
X147162402Y-112060614D01*
X147160000Y-112085000D01*
X147160000Y-113210000D01*
X144040000Y-113210000D01*
X144040000Y-109290000D01*
X147160000Y-109290000D01*
X147160000Y-110415000D01*
X147160000Y-110415000D01*
G37*
G36*
X153160000Y-107915000D02*
X153162402Y-107939386D01*
X153169515Y-107962835D01*
X153181066Y-107984446D01*
X153196612Y-108003388D01*
X153215554Y-108018934D01*
X153237165Y-108030485D01*
X153260614Y-108037598D01*
X153285000Y-108040000D01*
X153860000Y-108040000D01*
X153860000Y-109460000D01*
X153285000Y-109460000D01*
X153260614Y-109462402D01*
X153237165Y-109469515D01*
X153215554Y-109481066D01*
X153196612Y-109496612D01*
X153181066Y-109515554D01*
X153169515Y-109537165D01*
X153162402Y-109560614D01*
X153160000Y-109585000D01*
X153160000Y-110710000D01*
X150040000Y-110710000D01*
X150040000Y-106790000D01*
X153160000Y-106790000D01*
X153160000Y-107915000D01*
X153160000Y-107915000D01*
G37*
G36*
X147160000Y-105415000D02*
X147162402Y-105439386D01*
X147169515Y-105462835D01*
X147181066Y-105484446D01*
X147196612Y-105503388D01*
X147215554Y-105518934D01*
X147237165Y-105530485D01*
X147260614Y-105537598D01*
X147285000Y-105540000D01*
X147860000Y-105540000D01*
X147860000Y-106960000D01*
X147285000Y-106960000D01*
X147260614Y-106962402D01*
X147237165Y-106969515D01*
X147215554Y-106981066D01*
X147196612Y-106996612D01*
X147181066Y-107015554D01*
X147169515Y-107037165D01*
X147162402Y-107060614D01*
X147160000Y-107085000D01*
X147160000Y-108210000D01*
X144040000Y-108210000D01*
X144040000Y-104290000D01*
X147160000Y-104290000D01*
X147160000Y-105415000D01*
X147160000Y-105415000D01*
G37*
G36*
X153160000Y-102915000D02*
X153162402Y-102939386D01*
X153169515Y-102962835D01*
X153181066Y-102984446D01*
X153196612Y-103003388D01*
X153215554Y-103018934D01*
X153237165Y-103030485D01*
X153260614Y-103037598D01*
X153285000Y-103040000D01*
X153860000Y-103040000D01*
X153860000Y-104460000D01*
X153285000Y-104460000D01*
X153260614Y-104462402D01*
X153237165Y-104469515D01*
X153215554Y-104481066D01*
X153196612Y-104496612D01*
X153181066Y-104515554D01*
X153169515Y-104537165D01*
X153162402Y-104560614D01*
X153160000Y-104585000D01*
X153160000Y-105710000D01*
X150040000Y-105710000D01*
X150040000Y-101790000D01*
X153160000Y-101790000D01*
X153160000Y-102915000D01*
X153160000Y-102915000D01*
G37*
G36*
X147160000Y-100415000D02*
X147162402Y-100439386D01*
X147169515Y-100462835D01*
X147181066Y-100484446D01*
X147196612Y-100503388D01*
X147215554Y-100518934D01*
X147237165Y-100530485D01*
X147260614Y-100537598D01*
X147285000Y-100540000D01*
X147860000Y-100540000D01*
X147860000Y-101960000D01*
X147285000Y-101960000D01*
X147260614Y-101962402D01*
X147237165Y-101969515D01*
X147215554Y-101981066D01*
X147196612Y-101996612D01*
X147181066Y-102015554D01*
X147169515Y-102037165D01*
X147162402Y-102060614D01*
X147160000Y-102085000D01*
X147160000Y-103210000D01*
X144040000Y-103210000D01*
X144040000Y-99290000D01*
X147160000Y-99290000D01*
X147160000Y-100415000D01*
X147160000Y-100415000D01*
G37*
G36*
X153160000Y-97915000D02*
X153162402Y-97939386D01*
X153169515Y-97962835D01*
X153181066Y-97984446D01*
X153196612Y-98003388D01*
X153215554Y-98018934D01*
X153237165Y-98030485D01*
X153260614Y-98037598D01*
X153285000Y-98040000D01*
X153860000Y-98040000D01*
X153860000Y-99460000D01*
X153285000Y-99460000D01*
X153260614Y-99462402D01*
X153237165Y-99469515D01*
X153215554Y-99481066D01*
X153196612Y-99496612D01*
X153181066Y-99515554D01*
X153169515Y-99537165D01*
X153162402Y-99560614D01*
X153160000Y-99585000D01*
X153160000Y-100710000D01*
X150040000Y-100710000D01*
X150040000Y-96790000D01*
X153160000Y-96790000D01*
X153160000Y-97915000D01*
X153160000Y-97915000D01*
G37*
G36*
X147160000Y-95415000D02*
X147162402Y-95439386D01*
X147169515Y-95462835D01*
X147181066Y-95484446D01*
X147196612Y-95503388D01*
X147215554Y-95518934D01*
X147237165Y-95530485D01*
X147260614Y-95537598D01*
X147285000Y-95540000D01*
X147860000Y-95540000D01*
X147860000Y-96960000D01*
X147285000Y-96960000D01*
X147260614Y-96962402D01*
X147237165Y-96969515D01*
X147215554Y-96981066D01*
X147196612Y-96996612D01*
X147181066Y-97015554D01*
X147169515Y-97037165D01*
X147162402Y-97060614D01*
X147160000Y-97085000D01*
X147160000Y-98210000D01*
X144040000Y-98210000D01*
X144040000Y-94290000D01*
X147160000Y-94290000D01*
X147160000Y-95415000D01*
X147160000Y-95415000D01*
G37*
G36*
X122092514Y-94365363D02*
X122212627Y-94415116D01*
X122320726Y-94487345D01*
X122412655Y-94579274D01*
X122484884Y-94687373D01*
X122534637Y-94807486D01*
X122560000Y-94934994D01*
X122560000Y-95065006D01*
X122534637Y-95192514D01*
X122484884Y-95312627D01*
X122412655Y-95420726D01*
X122320726Y-95512655D01*
X122212627Y-95584884D01*
X122092514Y-95634637D01*
X121965006Y-95660000D01*
X121834994Y-95660000D01*
X121707486Y-95634637D01*
X121587373Y-95584884D01*
X121479274Y-95512655D01*
X121387345Y-95420726D01*
X121315116Y-95312627D01*
X121265363Y-95192514D01*
X121240000Y-95065006D01*
X121240000Y-94934994D01*
X121265363Y-94807486D01*
X121315116Y-94687373D01*
X121387345Y-94579274D01*
X121479274Y-94487345D01*
X121587373Y-94415116D01*
X121707486Y-94365363D01*
X121834994Y-94340000D01*
X121965006Y-94340000D01*
X122092514Y-94365363D01*
X122092514Y-94365363D01*
G37*
G36*
X142234177Y-94557677D02*
X142317892Y-94592352D01*
X142393236Y-94642696D01*
X142457304Y-94706764D01*
X142507648Y-94782108D01*
X142542323Y-94865823D01*
X142560000Y-94954692D01*
X142560000Y-95045308D01*
X142542323Y-95134177D01*
X142507648Y-95217892D01*
X142457304Y-95293236D01*
X142393236Y-95357304D01*
X142317892Y-95407648D01*
X142234177Y-95442323D01*
X142145308Y-95460000D01*
X142054692Y-95460000D01*
X141965823Y-95442323D01*
X141882108Y-95407648D01*
X141806764Y-95357304D01*
X141742696Y-95293236D01*
X141692352Y-95217892D01*
X141657677Y-95134177D01*
X141640000Y-95045308D01*
X141640000Y-94954692D01*
X141657677Y-94865823D01*
X141692352Y-94782108D01*
X141742696Y-94706764D01*
X141806764Y-94642696D01*
X141882108Y-94592352D01*
X141965823Y-94557677D01*
X142054692Y-94540000D01*
X142145308Y-94540000D01*
X142234177Y-94557677D01*
X142234177Y-94557677D01*
G37*
G36*
X127560000Y-93060000D02*
X126440000Y-93060000D01*
X126440000Y-90940000D01*
X127560000Y-90940000D01*
X127560000Y-93060000D01*
X127560000Y-93060000D01*
G37*
G36*
X125560000Y-93060000D02*
X124440000Y-93060000D01*
X124440000Y-90940000D01*
X125560000Y-90940000D01*
X125560000Y-93060000D01*
X125560000Y-93060000D01*
G37*
G36*
X123560000Y-93060000D02*
X122440000Y-93060000D01*
X122440000Y-90940000D01*
X123560000Y-90940000D01*
X123560000Y-93060000D01*
X123560000Y-93060000D01*
G37*
G36*
X121560000Y-93060000D02*
X120440000Y-93060000D01*
X120440000Y-90940000D01*
X121560000Y-90940000D01*
X121560000Y-93060000D01*
X121560000Y-93060000D01*
G37*
M02*
