G04 #@! TF.GenerationSoftware,KiCad,Pcbnew,(5.0.1)*
G04 #@! TF.CreationDate,2018-11-27T11:11:20+09:00*
G04 #@! TF.ProjectId,cable_breakout,6361626C655F627265616B6F75742E6B,rev?*
G04 #@! TF.SameCoordinates,Original*
G04 #@! TF.FileFunction,Paste,Bot*
G04 #@! TF.FilePolarity,Positive*
%FSLAX46Y46*%
G04 Gerber Fmt 4.6, Leading zero omitted, Abs format (unit mm)*
G04 Created by KiCad (PCBNEW (5.0.1)) date Tue Nov 27 11:11:20 2018*
%MOMM*%
%LPD*%
G01*
G04 APERTURE LIST*
%ADD10C,0.150000*%
%ADD11R,0.500000X2.000000*%
%ADD12C,1.000000*%
%ADD13C,0.100000*%
G04 APERTURE END LIST*
D10*
X117500000Y-130000000D02*
X120000000Y-130000000D01*
X117500000Y-129000000D02*
X117500000Y-130000000D01*
X112500000Y-129000000D02*
X117500000Y-129000000D01*
X112500000Y-130000000D02*
X112500000Y-129000000D01*
X110000000Y-130000000D02*
X112500000Y-130000000D01*
X117500000Y-100000000D02*
X120000000Y-100000000D01*
X117500000Y-101000000D02*
X117500000Y-100000000D01*
X112500000Y-101000000D02*
X117500000Y-101000000D01*
X112500000Y-100000000D02*
X112500000Y-101000000D01*
X110000000Y-100000000D02*
X112500000Y-100000000D01*
X120000000Y-130000000D02*
X120000000Y-140000000D01*
X120000000Y-90000000D02*
X120000000Y-100000000D01*
X155000000Y-140000000D02*
X155000000Y-90000000D01*
X120000000Y-140000000D02*
X155000000Y-140000000D01*
X155000000Y-90000000D02*
X120000000Y-90000000D01*
X110000000Y-130000000D02*
X110000000Y-100000000D01*
D11*
G04 #@! TO.C,J1*
X124400000Y-137200000D03*
X124405982Y-132800000D03*
X125200000Y-137200000D03*
X125200000Y-132800000D03*
X126000000Y-137200000D03*
X126005982Y-132800000D03*
X126800000Y-137200000D03*
X126800000Y-132800000D03*
X127600000Y-137200000D03*
X127605982Y-132800000D03*
X128400000Y-137200000D03*
X128400000Y-132800000D03*
X129200000Y-137200000D03*
X129200000Y-132800000D03*
X130000000Y-137200000D03*
X130000000Y-132800000D03*
X130800000Y-137200000D03*
X130800000Y-132800000D03*
X131600000Y-137200000D03*
X131600000Y-132800000D03*
X132400000Y-137200000D03*
X132400000Y-132800000D03*
X133200000Y-137200000D03*
X133200000Y-132800000D03*
X134000000Y-137200000D03*
X134000000Y-132800000D03*
X134800000Y-137200000D03*
X134800000Y-132800000D03*
X135600000Y-137200000D03*
X135600000Y-132800000D03*
X136400000Y-137200000D03*
X136400000Y-132800000D03*
X137200000Y-137200000D03*
X137200000Y-132800000D03*
X138000000Y-137200000D03*
X138000000Y-132800000D03*
X138800000Y-137200000D03*
X138800000Y-132800000D03*
X139600000Y-137200000D03*
X139600000Y-132800000D03*
G04 #@! TD*
G04 #@! TO.C,J3*
X139600000Y-92800000D03*
X139594018Y-97200000D03*
X138800000Y-92800000D03*
X138800000Y-97200000D03*
X138000000Y-92800000D03*
X137994018Y-97200000D03*
X137200000Y-92800000D03*
X137200000Y-97200000D03*
X136400000Y-92800000D03*
X136394018Y-97200000D03*
X135600000Y-92800000D03*
X135600000Y-97200000D03*
X134800000Y-92800000D03*
X134800000Y-97200000D03*
X134000000Y-92800000D03*
X134000000Y-97200000D03*
X133200000Y-92800000D03*
X133200000Y-97200000D03*
X132400000Y-92800000D03*
X132400000Y-97200000D03*
X131600000Y-92800000D03*
X131600000Y-97200000D03*
X130800000Y-92800000D03*
X130800000Y-97200000D03*
X130000000Y-92800000D03*
X130000000Y-97200000D03*
X129200000Y-92800000D03*
X129200000Y-97200000D03*
X128400000Y-92800000D03*
X128400000Y-97200000D03*
X127600000Y-92800000D03*
X127600000Y-97200000D03*
X126800000Y-92800000D03*
X126800000Y-97200000D03*
X126000000Y-92800000D03*
X126000000Y-97200000D03*
X125200000Y-92800000D03*
X125200000Y-97200000D03*
X124400000Y-92800000D03*
X124400000Y-97200000D03*
G04 #@! TD*
D12*
G04 #@! TO.C,JP1*
X149200000Y-99000000D03*
D13*
G36*
X149700000Y-99450000D02*
X148700000Y-100050000D01*
X148700000Y-97950000D01*
X149700000Y-98550000D01*
X149700000Y-99450000D01*
X149700000Y-99450000D01*
G37*
D12*
X147800000Y-99000000D03*
D13*
G36*
X147300000Y-98550000D02*
X148300000Y-97950000D01*
X148300000Y-100050000D01*
X147300000Y-99450000D01*
X147300000Y-98550000D01*
X147300000Y-98550000D01*
G37*
G04 #@! TD*
D12*
G04 #@! TO.C,JP2*
X149200000Y-103750000D03*
D13*
G36*
X149700000Y-104200000D02*
X148700000Y-104800000D01*
X148700000Y-102700000D01*
X149700000Y-103300000D01*
X149700000Y-104200000D01*
X149700000Y-104200000D01*
G37*
D12*
X147800000Y-103750000D03*
D13*
G36*
X147300000Y-103300000D02*
X148300000Y-102700000D01*
X148300000Y-104800000D01*
X147300000Y-104200000D01*
X147300000Y-103300000D01*
X147300000Y-103300000D01*
G37*
G04 #@! TD*
D12*
G04 #@! TO.C,JP3*
X149200000Y-108750000D03*
D13*
G36*
X149700000Y-109200000D02*
X148700000Y-109800000D01*
X148700000Y-107700000D01*
X149700000Y-108300000D01*
X149700000Y-109200000D01*
X149700000Y-109200000D01*
G37*
D12*
X147800000Y-108750000D03*
D13*
G36*
X147300000Y-108300000D02*
X148300000Y-107700000D01*
X148300000Y-109800000D01*
X147300000Y-109200000D01*
X147300000Y-108300000D01*
X147300000Y-108300000D01*
G37*
G04 #@! TD*
D12*
G04 #@! TO.C,JP4*
X149200000Y-113750000D03*
D13*
G36*
X149700000Y-114200000D02*
X148700000Y-114800000D01*
X148700000Y-112700000D01*
X149700000Y-113300000D01*
X149700000Y-114200000D01*
X149700000Y-114200000D01*
G37*
D12*
X147800000Y-113750000D03*
D13*
G36*
X147300000Y-113300000D02*
X148300000Y-112700000D01*
X148300000Y-114800000D01*
X147300000Y-114200000D01*
X147300000Y-113300000D01*
X147300000Y-113300000D01*
G37*
G04 #@! TD*
D12*
G04 #@! TO.C,JP5*
X148500000Y-95750000D03*
D13*
G36*
X148050000Y-96250000D02*
X147450000Y-95250000D01*
X149550000Y-95250000D01*
X148950000Y-96250000D01*
X148050000Y-96250000D01*
X148050000Y-96250000D01*
G37*
D12*
X148500000Y-94350000D03*
D13*
G36*
X148950000Y-93850000D02*
X149550000Y-94850000D01*
X147450000Y-94850000D01*
X148050000Y-93850000D01*
X148950000Y-93850000D01*
X148950000Y-93850000D01*
G37*
G04 #@! TD*
D12*
G04 #@! TO.C,JP6*
X149200000Y-133750000D03*
D13*
G36*
X149700000Y-134200000D02*
X148700000Y-134800000D01*
X148700000Y-132700000D01*
X149700000Y-133300000D01*
X149700000Y-134200000D01*
X149700000Y-134200000D01*
G37*
D12*
X147800000Y-133750000D03*
D13*
G36*
X147300000Y-133300000D02*
X148300000Y-132700000D01*
X148300000Y-134800000D01*
X147300000Y-134200000D01*
X147300000Y-133300000D01*
X147300000Y-133300000D01*
G37*
G04 #@! TD*
D12*
G04 #@! TO.C,JP7*
X149200000Y-128750000D03*
D13*
G36*
X149700000Y-129200000D02*
X148700000Y-129800000D01*
X148700000Y-127700000D01*
X149700000Y-128300000D01*
X149700000Y-129200000D01*
X149700000Y-129200000D01*
G37*
D12*
X147800000Y-128750000D03*
D13*
G36*
X147300000Y-128300000D02*
X148300000Y-127700000D01*
X148300000Y-129800000D01*
X147300000Y-129200000D01*
X147300000Y-128300000D01*
X147300000Y-128300000D01*
G37*
G04 #@! TD*
D12*
G04 #@! TO.C,JP8*
X149200000Y-123750000D03*
D13*
G36*
X149700000Y-124200000D02*
X148700000Y-124800000D01*
X148700000Y-122700000D01*
X149700000Y-123300000D01*
X149700000Y-124200000D01*
X149700000Y-124200000D01*
G37*
D12*
X147800000Y-123750000D03*
D13*
G36*
X147300000Y-123300000D02*
X148300000Y-122700000D01*
X148300000Y-124800000D01*
X147300000Y-124200000D01*
X147300000Y-123300000D01*
X147300000Y-123300000D01*
G37*
G04 #@! TD*
D12*
G04 #@! TO.C,JP9*
X149200000Y-118750000D03*
D13*
G36*
X149700000Y-119200000D02*
X148700000Y-119800000D01*
X148700000Y-117700000D01*
X149700000Y-118300000D01*
X149700000Y-119200000D01*
X149700000Y-119200000D01*
G37*
D12*
X147800000Y-118750000D03*
D13*
G36*
X147300000Y-118300000D02*
X148300000Y-117700000D01*
X148300000Y-119800000D01*
X147300000Y-119200000D01*
X147300000Y-118300000D01*
X147300000Y-118300000D01*
G37*
G04 #@! TD*
M02*
