M48
;DRILL file {KiCad (5.0.1)} date Tue Nov 27 11:11:16 2018
;FORMAT={-:-/ absolute / inch / decimal}
FMAT,2
INCH,TZ
T1C0.0079
T2C0.0197
T3C0.0315
%
G90
G05
M72
T1
X4.8258Y-5.3741
X4.8425Y-5.3543
X4.8898Y-3.5669
X4.8976Y-3.9055
X4.9213Y-5.3307
X4.9291Y-3.9055
X4.9921Y-5.3307
X5.0394Y-5.4724
X5.0551Y-3.5669
X5.0551Y-3.9134
X5.0551Y-5.1417
X5.0866Y-3.5906
X5.0866Y-4.
X5.0866Y-5.0551
X5.0866Y-5.4724
X5.1417Y-3.9134
X5.1496Y-3.5906
X5.1496Y-5.1417
X5.1496Y-5.4724
X5.1811Y-3.9843
X5.1811Y-5.0709
X5.2126Y-3.5906
X5.2126Y-5.4724
X5.2441Y-3.9134
X5.2441Y-5.1417
X5.2756Y-3.5906
X5.2756Y-3.9685
X5.2756Y-5.0866
X5.2756Y-5.4724
X5.3386Y-3.5906
X5.3386Y-3.9134
X5.3386Y-5.1417
X5.3386Y-5.4724
X5.3701Y-5.1024
X5.3701Y-3.9449
X5.4016Y-3.5906
X5.4016Y-5.4724
X5.4626Y-5.4724
X5.4961Y-3.5906
X5.4961Y-5.4724
T2
X5.7795Y-4.5768
X5.7795Y-4.7736
X6.0157Y-4.872
X5.7795Y-3.9862
X6.0157Y-4.6752
X5.7795Y-4.1831
X6.0157Y-3.8878
X5.7795Y-4.9705
X5.7795Y-5.1673
X6.0157Y-4.2815
X6.0157Y-5.2657
X6.0157Y-4.0846
X5.7795Y-4.3799
X6.0157Y-5.0689
X6.0157Y-4.4783
X5.7795Y-3.7894
T3
X5.7008Y-4.3287
X5.7008Y-4.4311
X5.937Y-5.0177
X5.937Y-5.1201
X5.937Y-4.4272
X5.937Y-4.5295
X5.7008Y-3.7382
X5.7008Y-3.8406
X5.7008Y-4.5256
X5.7008Y-4.628
X5.7008Y-4.7224
X5.7008Y-4.8248
X5.937Y-4.8209
X5.937Y-4.9232
X5.7008Y-3.935
X5.7008Y-4.0374
X5.937Y-4.624
X5.937Y-4.7264
X5.7008Y-4.1319
X5.7008Y-4.2343
X5.937Y-3.8366
X5.937Y-3.939
X5.7008Y-4.9193
X5.7008Y-5.0217
X5.7008Y-5.1161
X5.7008Y-5.2185
X5.937Y-4.2303
X5.937Y-4.3327
X5.937Y-5.2146
X5.937Y-5.3169
X5.937Y-4.0335
X5.937Y-4.1358
T0
M30
