M48
;DRILL file {KiCad 4.0.7} date Sat Jun 30 17:44:49 2018
;FORMAT={-:-/ absolute / inch / decimal}
FMAT,2
INCH,TZ
T1C0.008
T2C0.016
T3C0.024
T4C0.031
T5C0.035
%
G90
G05
M72
T1
X4.8583Y-5.1594
X4.896Y-5.1594
X5.0236Y-5.3396
X5.0551Y-3.7205
X5.0866Y-5.3396
X5.1181Y-3.7205
X5.1496Y-5.3396
X5.1811Y-3.7205
X5.2126Y-5.3396
X5.2441Y-3.7205
X5.2756Y-5.3396
X5.3071Y-3.7205
X5.3386Y-5.3396
X5.3701Y-3.7205
X5.4016Y-5.3396
X5.4154Y-3.7205
X5.5807Y-4.0551
X5.688Y-3.9518
X5.689Y-4.6949
X5.748Y-4.6949
X5.7579Y-4.2421
X5.7874Y-4.6949
X5.8071Y-4.1142
X5.8661Y-4.1142
X5.8957Y-4.7047
X5.9154Y-4.1142
X5.9154Y-4.2126
X5.9646Y-4.1142
X6.0138Y-4.2224
X6.063Y-4.6752
X6.3986Y-4.3799
X6.3996Y-4.2776
X6.4961Y-4.6772
X6.4961Y-4.7756
X6.4961Y-4.8278
T2
X4.6496Y-4.7874
X4.6496Y-4.8425
X4.815Y-4.5276
X4.8346Y-4.1339
X4.8361Y-4.2101
X4.884Y-5.0354
X4.9173Y-5.0512
X5.4646Y-3.5827
X5.4646Y-3.7441
X5.4646Y-5.3071
X5.4961Y-3.8976
X5.4961Y-5.1575
X5.4975Y-5.0723
X5.5079Y-3.7441
X5.5354Y-3.6535
X5.6693Y-5.315
X5.6727Y-5.0723
X5.6929Y-4.874
X5.7087Y-5.2008
X5.7392Y-5.4006
X5.748Y-4.1024
X5.748Y-5.2283
X5.7598Y-4.3661
X5.7638Y-4.8189
X5.7874Y-5.1969
X5.8071Y-4.2155
X5.815Y-4.3661
X5.8268Y-4.9449
X5.8819Y-4.3701
X5.9055Y-5.0709
X5.9291Y-3.9252
X5.9613Y-4.2487
X5.9685Y-4.7953
X5.9685Y-5.0709
X5.9961Y-4.0039
X6.0315Y-4.3346
X6.063Y-4.9843
X6.0709Y-4.1142
X6.0787Y-4.2559
X6.0896Y-4.3878
X6.0906Y-4.0551
X6.1614Y-5.252
X6.1614Y-5.2992
X6.1614Y-5.3435
X6.2215Y-4.0187
X6.2215Y-4.0581
X6.2589Y-4.2382
X6.2913Y-4.
X6.311Y-4.3307
X6.3465Y-4.2756
X6.3711Y-3.8553
X6.4094Y-3.9921
X6.5856Y-5.0315
T3
X4.9628Y-3.9055
X4.9628Y-3.9578
X5.5945Y-5.4006
T4
X6.565Y-4.0748
X7.0472Y-4.0748
T5
X4.5276Y-4.5276
T0
M30
