G04 #@! TF.GenerationSoftware,KiCad,Pcbnew,(5.0.1)*
G04 #@! TF.CreationDate,2018-11-27T11:23:15+09:00*
G04 #@! TF.ProjectId,frontend_board,66726F6E74656E645F626F6172642E6B,rev?*
G04 #@! TF.SameCoordinates,Original*
G04 #@! TF.FileFunction,Legend,Top*
G04 #@! TF.FilePolarity,Positive*
%FSLAX46Y46*%
G04 Gerber Fmt 4.6, Leading zero omitted, Abs format (unit mm)*
G04 Created by KiCad (PCBNEW (5.0.1)) date Tue Nov 27 11:23:15 2018*
%MOMM*%
%LPD*%
G01*
G04 APERTURE LIST*
%ADD10C,0.250000*%
%ADD11C,0.150000*%
%ADD12C,0.160000*%
%ADD13C,0.300000*%
%ADD14C,0.120000*%
G04 APERTURE END LIST*
D10*
X167161904Y-127970833D02*
X168461904Y-127970833D01*
X168461904Y-128466071D01*
X168400000Y-128589880D01*
X168338095Y-128651785D01*
X168214285Y-128713690D01*
X168028571Y-128713690D01*
X167904761Y-128651785D01*
X167842857Y-128589880D01*
X167780952Y-128466071D01*
X167780952Y-127970833D01*
X167161904Y-129270833D02*
X168028571Y-129270833D01*
X167780952Y-129270833D02*
X167904761Y-129332738D01*
X167966666Y-129394642D01*
X168028571Y-129518452D01*
X168028571Y-129642261D01*
X167161904Y-130261309D02*
X167223809Y-130137500D01*
X167285714Y-130075595D01*
X167409523Y-130013690D01*
X167780952Y-130013690D01*
X167904761Y-130075595D01*
X167966666Y-130137500D01*
X168028571Y-130261309D01*
X168028571Y-130447023D01*
X167966666Y-130570833D01*
X167904761Y-130632738D01*
X167780952Y-130694642D01*
X167409523Y-130694642D01*
X167285714Y-130632738D01*
X167223809Y-130570833D01*
X167161904Y-130447023D01*
X167161904Y-130261309D01*
X168028571Y-131251785D02*
X166914285Y-131251785D01*
X166790476Y-131189880D01*
X166728571Y-131066071D01*
X166728571Y-131004166D01*
X168461904Y-131251785D02*
X168400000Y-131189880D01*
X168338095Y-131251785D01*
X168400000Y-131313690D01*
X168461904Y-131251785D01*
X168338095Y-131251785D01*
X167223809Y-132366071D02*
X167161904Y-132242261D01*
X167161904Y-131994642D01*
X167223809Y-131870833D01*
X167347619Y-131808928D01*
X167842857Y-131808928D01*
X167966666Y-131870833D01*
X168028571Y-131994642D01*
X168028571Y-132242261D01*
X167966666Y-132366071D01*
X167842857Y-132427976D01*
X167719047Y-132427976D01*
X167595238Y-131808928D01*
X167223809Y-133542261D02*
X167161904Y-133418452D01*
X167161904Y-133170833D01*
X167223809Y-133047023D01*
X167285714Y-132985119D01*
X167409523Y-132923214D01*
X167780952Y-132923214D01*
X167904761Y-132985119D01*
X167966666Y-133047023D01*
X168028571Y-133170833D01*
X168028571Y-133418452D01*
X167966666Y-133542261D01*
X168028571Y-133913690D02*
X168028571Y-134408928D01*
X168461904Y-134099404D02*
X167347619Y-134099404D01*
X167223809Y-134161309D01*
X167161904Y-134285119D01*
X167161904Y-134408928D01*
X168461904Y-136080357D02*
X168461904Y-136204166D01*
X168400000Y-136327976D01*
X168338095Y-136389880D01*
X168214285Y-136451785D01*
X167966666Y-136513690D01*
X167657142Y-136513690D01*
X167409523Y-136451785D01*
X167285714Y-136389880D01*
X167223809Y-136327976D01*
X167161904Y-136204166D01*
X167161904Y-136080357D01*
X167223809Y-135956547D01*
X167285714Y-135894642D01*
X167409523Y-135832738D01*
X167657142Y-135770833D01*
X167966666Y-135770833D01*
X168214285Y-135832738D01*
X168338095Y-135894642D01*
X168400000Y-135956547D01*
X168461904Y-136080357D01*
X168461904Y-137318452D02*
X168461904Y-137442261D01*
X168400000Y-137566071D01*
X168338095Y-137627976D01*
X168214285Y-137689880D01*
X167966666Y-137751785D01*
X167657142Y-137751785D01*
X167409523Y-137689880D01*
X167285714Y-137627976D01*
X167223809Y-137566071D01*
X167161904Y-137442261D01*
X167161904Y-137318452D01*
X167223809Y-137194642D01*
X167285714Y-137132738D01*
X167409523Y-137070833D01*
X167657142Y-137008928D01*
X167966666Y-137008928D01*
X168214285Y-137070833D01*
X168338095Y-137132738D01*
X168400000Y-137194642D01*
X168461904Y-137318452D01*
X168338095Y-138247023D02*
X168400000Y-138308928D01*
X168461904Y-138432738D01*
X168461904Y-138742261D01*
X168400000Y-138866071D01*
X168338095Y-138927976D01*
X168214285Y-138989880D01*
X168090476Y-138989880D01*
X167904761Y-138927976D01*
X167161904Y-138185119D01*
X167161904Y-138989880D01*
X165828571Y-135337500D02*
X164961904Y-135647023D01*
X165828571Y-135956547D01*
X166261904Y-136699404D02*
X166261904Y-136823214D01*
X166200000Y-136947023D01*
X166138095Y-137008928D01*
X166014285Y-137070833D01*
X165766666Y-137132738D01*
X165457142Y-137132738D01*
X165209523Y-137070833D01*
X165085714Y-137008928D01*
X165023809Y-136947023D01*
X164961904Y-136823214D01*
X164961904Y-136699404D01*
X165023809Y-136575595D01*
X165085714Y-136513690D01*
X165209523Y-136451785D01*
X165457142Y-136389880D01*
X165766666Y-136389880D01*
X166014285Y-136451785D01*
X166138095Y-136513690D01*
X166200000Y-136575595D01*
X166261904Y-136699404D01*
X165085714Y-137689880D02*
X165023809Y-137751785D01*
X164961904Y-137689880D01*
X165023809Y-137627976D01*
X165085714Y-137689880D01*
X164961904Y-137689880D01*
X164961904Y-138989880D02*
X164961904Y-138247023D01*
X164961904Y-138618452D02*
X166261904Y-138618452D01*
X166076190Y-138494642D01*
X165952380Y-138370833D01*
X165890476Y-138247023D01*
X162266666Y-124999404D02*
X162328571Y-124937500D01*
X162514285Y-124813690D01*
X162638095Y-124751785D01*
X162823809Y-124689880D01*
X163133333Y-124627976D01*
X163380952Y-124627976D01*
X163690476Y-124689880D01*
X163876190Y-124751785D01*
X164000000Y-124813690D01*
X164185714Y-124937500D01*
X164247619Y-124999404D01*
X162823809Y-126051785D02*
X162761904Y-125927976D01*
X162761904Y-125680357D01*
X162823809Y-125556547D01*
X162885714Y-125494642D01*
X163009523Y-125432738D01*
X163380952Y-125432738D01*
X163504761Y-125494642D01*
X163566666Y-125556547D01*
X163628571Y-125680357D01*
X163628571Y-125927976D01*
X163566666Y-126051785D01*
X162266666Y-126485119D02*
X162328571Y-126547023D01*
X162514285Y-126670833D01*
X162638095Y-126732738D01*
X162823809Y-126794642D01*
X163133333Y-126856547D01*
X163380952Y-126856547D01*
X163690476Y-126794642D01*
X163876190Y-126732738D01*
X164000000Y-126670833D01*
X164185714Y-126547023D01*
X164247619Y-126485119D01*
X163938095Y-128404166D02*
X164000000Y-128466071D01*
X164061904Y-128589880D01*
X164061904Y-128899404D01*
X164000000Y-129023214D01*
X163938095Y-129085119D01*
X163814285Y-129147023D01*
X163690476Y-129147023D01*
X163504761Y-129085119D01*
X162761904Y-128342261D01*
X162761904Y-129147023D01*
X164061904Y-129951785D02*
X164061904Y-130075595D01*
X164000000Y-130199404D01*
X163938095Y-130261309D01*
X163814285Y-130323214D01*
X163566666Y-130385119D01*
X163257142Y-130385119D01*
X163009523Y-130323214D01*
X162885714Y-130261309D01*
X162823809Y-130199404D01*
X162761904Y-130075595D01*
X162761904Y-129951785D01*
X162823809Y-129827976D01*
X162885714Y-129766071D01*
X163009523Y-129704166D01*
X163257142Y-129642261D01*
X163566666Y-129642261D01*
X163814285Y-129704166D01*
X163938095Y-129766071D01*
X164000000Y-129827976D01*
X164061904Y-129951785D01*
X162761904Y-131623214D02*
X162761904Y-130880357D01*
X162761904Y-131251785D02*
X164061904Y-131251785D01*
X163876190Y-131127976D01*
X163752380Y-131004166D01*
X163690476Y-130880357D01*
X163504761Y-132366071D02*
X163566666Y-132242261D01*
X163628571Y-132180357D01*
X163752380Y-132118452D01*
X163814285Y-132118452D01*
X163938095Y-132180357D01*
X164000000Y-132242261D01*
X164061904Y-132366071D01*
X164061904Y-132613690D01*
X164000000Y-132737500D01*
X163938095Y-132799404D01*
X163814285Y-132861309D01*
X163752380Y-132861309D01*
X163628571Y-132799404D01*
X163566666Y-132737500D01*
X163504761Y-132613690D01*
X163504761Y-132366071D01*
X163442857Y-132242261D01*
X163380952Y-132180357D01*
X163257142Y-132118452D01*
X163009523Y-132118452D01*
X162885714Y-132180357D01*
X162823809Y-132242261D01*
X162761904Y-132366071D01*
X162761904Y-132613690D01*
X162823809Y-132737500D01*
X162885714Y-132799404D01*
X163009523Y-132861309D01*
X163257142Y-132861309D01*
X163380952Y-132799404D01*
X163442857Y-132737500D01*
X163504761Y-132613690D01*
X163628571Y-134408928D02*
X162514285Y-134408928D01*
X162390476Y-134347023D01*
X162328571Y-134223214D01*
X162328571Y-134161309D01*
X164061904Y-134408928D02*
X164000000Y-134347023D01*
X163938095Y-134408928D01*
X164000000Y-134470833D01*
X164061904Y-134408928D01*
X163938095Y-134408928D01*
X162761904Y-135585119D02*
X163442857Y-135585119D01*
X163566666Y-135523214D01*
X163628571Y-135399404D01*
X163628571Y-135151785D01*
X163566666Y-135027976D01*
X162823809Y-135585119D02*
X162761904Y-135461309D01*
X162761904Y-135151785D01*
X162823809Y-135027976D01*
X162947619Y-134966071D01*
X163071428Y-134966071D01*
X163195238Y-135027976D01*
X163257142Y-135151785D01*
X163257142Y-135461309D01*
X163319047Y-135585119D01*
X162823809Y-136142261D02*
X162761904Y-136266071D01*
X162761904Y-136513690D01*
X162823809Y-136637500D01*
X162947619Y-136699404D01*
X163009523Y-136699404D01*
X163133333Y-136637500D01*
X163195238Y-136513690D01*
X163195238Y-136327976D01*
X163257142Y-136204166D01*
X163380952Y-136142261D01*
X163442857Y-136142261D01*
X163566666Y-136204166D01*
X163628571Y-136327976D01*
X163628571Y-136513690D01*
X163566666Y-136637500D01*
X162823809Y-137751785D02*
X162761904Y-137627976D01*
X162761904Y-137380357D01*
X162823809Y-137256547D01*
X162947619Y-137194642D01*
X163442857Y-137194642D01*
X163566666Y-137256547D01*
X163628571Y-137380357D01*
X163628571Y-137627976D01*
X163566666Y-137751785D01*
X163442857Y-137813690D01*
X163319047Y-137813690D01*
X163195238Y-137194642D01*
X163628571Y-138927976D02*
X162576190Y-138927976D01*
X162452380Y-138866071D01*
X162390476Y-138804166D01*
X162328571Y-138680357D01*
X162328571Y-138494642D01*
X162390476Y-138370833D01*
X162823809Y-138927976D02*
X162761904Y-138804166D01*
X162761904Y-138556547D01*
X162823809Y-138432738D01*
X162885714Y-138370833D01*
X163009523Y-138308928D01*
X163380952Y-138308928D01*
X163504761Y-138370833D01*
X163566666Y-138432738D01*
X163628571Y-138556547D01*
X163628571Y-138804166D01*
X163566666Y-138927976D01*
X160623809Y-130261309D02*
X160561904Y-130137500D01*
X160561904Y-129889880D01*
X160623809Y-129766071D01*
X160685714Y-129704166D01*
X160809523Y-129642261D01*
X161180952Y-129642261D01*
X161304761Y-129704166D01*
X161366666Y-129766071D01*
X161428571Y-129889880D01*
X161428571Y-130137500D01*
X161366666Y-130261309D01*
X160623809Y-131375595D02*
X160561904Y-131251785D01*
X160561904Y-131004166D01*
X160623809Y-130880357D01*
X160685714Y-130818452D01*
X160809523Y-130756547D01*
X161180952Y-130756547D01*
X161304761Y-130818452D01*
X161366666Y-130880357D01*
X161428571Y-131004166D01*
X161428571Y-131251785D01*
X161366666Y-131375595D01*
X161057142Y-131932738D02*
X161057142Y-132923214D01*
X160561904Y-133542261D02*
X161861904Y-133542261D01*
X161366666Y-133542261D02*
X161428571Y-133666071D01*
X161428571Y-133913690D01*
X161366666Y-134037500D01*
X161304761Y-134099404D01*
X161180952Y-134161309D01*
X160809523Y-134161309D01*
X160685714Y-134099404D01*
X160623809Y-134037500D01*
X160561904Y-133913690D01*
X160561904Y-133666071D01*
X160623809Y-133542261D01*
X161428571Y-134594642D02*
X160561904Y-134904166D01*
X161428571Y-135213690D02*
X160561904Y-134904166D01*
X160252380Y-134780357D01*
X160190476Y-134718452D01*
X160128571Y-134594642D01*
X161057142Y-135708928D02*
X161057142Y-136699404D01*
X160623809Y-137256547D02*
X160561904Y-137380357D01*
X160561904Y-137627976D01*
X160623809Y-137751785D01*
X160747619Y-137813690D01*
X160809523Y-137813690D01*
X160933333Y-137751785D01*
X160995238Y-137627976D01*
X160995238Y-137442261D01*
X161057142Y-137318452D01*
X161180952Y-137256547D01*
X161242857Y-137256547D01*
X161366666Y-137318452D01*
X161428571Y-137442261D01*
X161428571Y-137627976D01*
X161366666Y-137751785D01*
X160561904Y-138927976D02*
X161242857Y-138927976D01*
X161366666Y-138866071D01*
X161428571Y-138742261D01*
X161428571Y-138494642D01*
X161366666Y-138370833D01*
X160623809Y-138927976D02*
X160561904Y-138804166D01*
X160561904Y-138494642D01*
X160623809Y-138370833D01*
X160747619Y-138308928D01*
X160871428Y-138308928D01*
X160995238Y-138370833D01*
X161057142Y-138494642D01*
X161057142Y-138804166D01*
X161119047Y-138927976D01*
X159228571Y-117818452D02*
X158176190Y-117818452D01*
X158052380Y-117756547D01*
X157990476Y-117694642D01*
X157928571Y-117570833D01*
X157928571Y-117385119D01*
X157990476Y-117261309D01*
X158423809Y-117818452D02*
X158361904Y-117694642D01*
X158361904Y-117447023D01*
X158423809Y-117323214D01*
X158485714Y-117261309D01*
X158609523Y-117199404D01*
X158980952Y-117199404D01*
X159104761Y-117261309D01*
X159166666Y-117323214D01*
X159228571Y-117447023D01*
X159228571Y-117694642D01*
X159166666Y-117818452D01*
X158361904Y-118437500D02*
X159228571Y-118437500D01*
X159661904Y-118437500D02*
X159600000Y-118375595D01*
X159538095Y-118437500D01*
X159600000Y-118499404D01*
X159661904Y-118437500D01*
X159538095Y-118437500D01*
X159228571Y-118870833D02*
X159228571Y-119366071D01*
X159661904Y-119056547D02*
X158547619Y-119056547D01*
X158423809Y-119118452D01*
X158361904Y-119242261D01*
X158361904Y-119366071D01*
X158361904Y-119799404D02*
X159661904Y-119799404D01*
X158361904Y-120356547D02*
X159042857Y-120356547D01*
X159166666Y-120294642D01*
X159228571Y-120170833D01*
X159228571Y-119985119D01*
X159166666Y-119861309D01*
X159104761Y-119799404D01*
X159228571Y-121532738D02*
X158361904Y-121532738D01*
X159228571Y-120975595D02*
X158547619Y-120975595D01*
X158423809Y-121037500D01*
X158361904Y-121161309D01*
X158361904Y-121347023D01*
X158423809Y-121470833D01*
X158485714Y-121532738D01*
X158361904Y-122151785D02*
X159661904Y-122151785D01*
X159166666Y-122151785D02*
X159228571Y-122275595D01*
X159228571Y-122523214D01*
X159166666Y-122647023D01*
X159104761Y-122708928D01*
X158980952Y-122770833D01*
X158609523Y-122770833D01*
X158485714Y-122708928D01*
X158423809Y-122647023D01*
X158361904Y-122523214D01*
X158361904Y-122275595D01*
X158423809Y-122151785D01*
X158485714Y-123327976D02*
X158423809Y-123389880D01*
X158361904Y-123327976D01*
X158423809Y-123266071D01*
X158485714Y-123327976D01*
X158361904Y-123327976D01*
X158423809Y-124504166D02*
X158361904Y-124380357D01*
X158361904Y-124132738D01*
X158423809Y-124008928D01*
X158485714Y-123947023D01*
X158609523Y-123885119D01*
X158980952Y-123885119D01*
X159104761Y-123947023D01*
X159166666Y-124008928D01*
X159228571Y-124132738D01*
X159228571Y-124380357D01*
X159166666Y-124504166D01*
X158361904Y-125247023D02*
X158423809Y-125123214D01*
X158485714Y-125061309D01*
X158609523Y-124999404D01*
X158980952Y-124999404D01*
X159104761Y-125061309D01*
X159166666Y-125123214D01*
X159228571Y-125247023D01*
X159228571Y-125432738D01*
X159166666Y-125556547D01*
X159104761Y-125618452D01*
X158980952Y-125680357D01*
X158609523Y-125680357D01*
X158485714Y-125618452D01*
X158423809Y-125556547D01*
X158361904Y-125432738D01*
X158361904Y-125247023D01*
X158361904Y-126237500D02*
X159228571Y-126237500D01*
X159104761Y-126237500D02*
X159166666Y-126299404D01*
X159228571Y-126423214D01*
X159228571Y-126608928D01*
X159166666Y-126732738D01*
X159042857Y-126794642D01*
X158361904Y-126794642D01*
X159042857Y-126794642D02*
X159166666Y-126856547D01*
X159228571Y-126980357D01*
X159228571Y-127166071D01*
X159166666Y-127289880D01*
X159042857Y-127351785D01*
X158361904Y-127351785D01*
X159723809Y-128899404D02*
X158052380Y-127785119D01*
X159228571Y-129332738D02*
X158114285Y-129332738D01*
X157990476Y-129270833D01*
X157928571Y-129147023D01*
X157928571Y-129085119D01*
X159661904Y-129332738D02*
X159600000Y-129270833D01*
X159538095Y-129332738D01*
X159600000Y-129394642D01*
X159661904Y-129332738D01*
X159538095Y-129332738D01*
X158361904Y-130508928D02*
X159042857Y-130508928D01*
X159166666Y-130447023D01*
X159228571Y-130323214D01*
X159228571Y-130075595D01*
X159166666Y-129951785D01*
X158423809Y-130508928D02*
X158361904Y-130385119D01*
X158361904Y-130075595D01*
X158423809Y-129951785D01*
X158547619Y-129889880D01*
X158671428Y-129889880D01*
X158795238Y-129951785D01*
X158857142Y-130075595D01*
X158857142Y-130385119D01*
X158919047Y-130508928D01*
X158423809Y-131066071D02*
X158361904Y-131189880D01*
X158361904Y-131437500D01*
X158423809Y-131561309D01*
X158547619Y-131623214D01*
X158609523Y-131623214D01*
X158733333Y-131561309D01*
X158795238Y-131437500D01*
X158795238Y-131251785D01*
X158857142Y-131127976D01*
X158980952Y-131066071D01*
X159042857Y-131066071D01*
X159166666Y-131127976D01*
X159228571Y-131251785D01*
X159228571Y-131437500D01*
X159166666Y-131561309D01*
X158423809Y-132675595D02*
X158361904Y-132551785D01*
X158361904Y-132304166D01*
X158423809Y-132180357D01*
X158547619Y-132118452D01*
X159042857Y-132118452D01*
X159166666Y-132180357D01*
X159228571Y-132304166D01*
X159228571Y-132551785D01*
X159166666Y-132675595D01*
X159042857Y-132737500D01*
X158919047Y-132737500D01*
X158795238Y-132118452D01*
X159228571Y-133851785D02*
X158176190Y-133851785D01*
X158052380Y-133789880D01*
X157990476Y-133727976D01*
X157928571Y-133604166D01*
X157928571Y-133418452D01*
X157990476Y-133294642D01*
X158423809Y-133851785D02*
X158361904Y-133727976D01*
X158361904Y-133480357D01*
X158423809Y-133356547D01*
X158485714Y-133294642D01*
X158609523Y-133232738D01*
X158980952Y-133232738D01*
X159104761Y-133294642D01*
X159166666Y-133356547D01*
X159228571Y-133480357D01*
X159228571Y-133727976D01*
X159166666Y-133851785D01*
X159723809Y-135399404D02*
X158052380Y-134285119D01*
X159661904Y-136080357D02*
X159661904Y-136204166D01*
X159600000Y-136327976D01*
X159538095Y-136389880D01*
X159414285Y-136451785D01*
X159166666Y-136513690D01*
X158857142Y-136513690D01*
X158609523Y-136451785D01*
X158485714Y-136389880D01*
X158423809Y-136327976D01*
X158361904Y-136204166D01*
X158361904Y-136080357D01*
X158423809Y-135956547D01*
X158485714Y-135894642D01*
X158609523Y-135832738D01*
X158857142Y-135770833D01*
X159166666Y-135770833D01*
X159414285Y-135832738D01*
X159538095Y-135894642D01*
X159600000Y-135956547D01*
X159661904Y-136080357D01*
X159661904Y-137318452D02*
X159661904Y-137442261D01*
X159600000Y-137566071D01*
X159538095Y-137627976D01*
X159414285Y-137689880D01*
X159166666Y-137751785D01*
X158857142Y-137751785D01*
X158609523Y-137689880D01*
X158485714Y-137627976D01*
X158423809Y-137566071D01*
X158361904Y-137442261D01*
X158361904Y-137318452D01*
X158423809Y-137194642D01*
X158485714Y-137132738D01*
X158609523Y-137070833D01*
X158857142Y-137008928D01*
X159166666Y-137008928D01*
X159414285Y-137070833D01*
X159538095Y-137132738D01*
X159600000Y-137194642D01*
X159661904Y-137318452D01*
X159538095Y-138247023D02*
X159600000Y-138308928D01*
X159661904Y-138432738D01*
X159661904Y-138742261D01*
X159600000Y-138866071D01*
X159538095Y-138927976D01*
X159414285Y-138989880D01*
X159290476Y-138989880D01*
X159104761Y-138927976D01*
X158361904Y-138185119D01*
X158361904Y-138989880D01*
D11*
X149107142Y-106756428D02*
X148721428Y-106756428D01*
X148682857Y-107142142D01*
X148721428Y-107103571D01*
X148798571Y-107065000D01*
X148991428Y-107065000D01*
X149068571Y-107103571D01*
X149107142Y-107142142D01*
X149145714Y-107219285D01*
X149145714Y-107412142D01*
X149107142Y-107489285D01*
X149068571Y-107527857D01*
X148991428Y-107566428D01*
X148798571Y-107566428D01*
X148721428Y-107527857D01*
X148682857Y-107489285D01*
X149647142Y-106756428D02*
X149724285Y-106756428D01*
X149801428Y-106795000D01*
X149840000Y-106833571D01*
X149878571Y-106910714D01*
X149917142Y-107065000D01*
X149917142Y-107257857D01*
X149878571Y-107412142D01*
X149840000Y-107489285D01*
X149801428Y-107527857D01*
X149724285Y-107566428D01*
X149647142Y-107566428D01*
X149570000Y-107527857D01*
X149531428Y-107489285D01*
X149492857Y-107412142D01*
X149454285Y-107257857D01*
X149454285Y-107065000D01*
X149492857Y-106910714D01*
X149531428Y-106833571D01*
X149570000Y-106795000D01*
X149647142Y-106756428D01*
X155118571Y-112576428D02*
X155118571Y-113116428D01*
X154925714Y-112267857D02*
X154732857Y-112846428D01*
X155234285Y-112846428D01*
X155928571Y-112306428D02*
X155542857Y-112306428D01*
X155504285Y-112692142D01*
X155542857Y-112653571D01*
X155620000Y-112615000D01*
X155812857Y-112615000D01*
X155890000Y-112653571D01*
X155928571Y-112692142D01*
X155967142Y-112769285D01*
X155967142Y-112962142D01*
X155928571Y-113039285D01*
X155890000Y-113077857D01*
X155812857Y-113116428D01*
X155620000Y-113116428D01*
X155542857Y-113077857D01*
X155504285Y-113039285D01*
X154694285Y-117306428D02*
X155195714Y-117306428D01*
X154925714Y-117615000D01*
X155041428Y-117615000D01*
X155118571Y-117653571D01*
X155157142Y-117692142D01*
X155195714Y-117769285D01*
X155195714Y-117962142D01*
X155157142Y-118039285D01*
X155118571Y-118077857D01*
X155041428Y-118116428D01*
X154810000Y-118116428D01*
X154732857Y-118077857D01*
X154694285Y-118039285D01*
X155928571Y-117306428D02*
X155542857Y-117306428D01*
X155504285Y-117692142D01*
X155542857Y-117653571D01*
X155620000Y-117615000D01*
X155812857Y-117615000D01*
X155890000Y-117653571D01*
X155928571Y-117692142D01*
X155967142Y-117769285D01*
X155967142Y-117962142D01*
X155928571Y-118039285D01*
X155890000Y-118077857D01*
X155812857Y-118116428D01*
X155620000Y-118116428D01*
X155542857Y-118077857D01*
X155504285Y-118039285D01*
X153550000Y-117750000D02*
X154350000Y-117750000D01*
X155118571Y-115126428D02*
X155118571Y-115666428D01*
X154925714Y-114817857D02*
X154732857Y-115396428D01*
X155234285Y-115396428D01*
X155697142Y-114856428D02*
X155774285Y-114856428D01*
X155851428Y-114895000D01*
X155890000Y-114933571D01*
X155928571Y-115010714D01*
X155967142Y-115165000D01*
X155967142Y-115357857D01*
X155928571Y-115512142D01*
X155890000Y-115589285D01*
X155851428Y-115627857D01*
X155774285Y-115666428D01*
X155697142Y-115666428D01*
X155620000Y-115627857D01*
X155581428Y-115589285D01*
X155542857Y-115512142D01*
X155504285Y-115357857D01*
X155504285Y-115165000D01*
X155542857Y-115010714D01*
X155581428Y-114933571D01*
X155620000Y-114895000D01*
X155697142Y-114856428D01*
X146082857Y-122783571D02*
X146121428Y-122745000D01*
X146198571Y-122706428D01*
X146391428Y-122706428D01*
X146468571Y-122745000D01*
X146507142Y-122783571D01*
X146545714Y-122860714D01*
X146545714Y-122937857D01*
X146507142Y-123053571D01*
X146044285Y-123516428D01*
X146545714Y-123516428D01*
X147278571Y-122706428D02*
X146892857Y-122706428D01*
X146854285Y-123092142D01*
X146892857Y-123053571D01*
X146970000Y-123015000D01*
X147162857Y-123015000D01*
X147240000Y-123053571D01*
X147278571Y-123092142D01*
X147317142Y-123169285D01*
X147317142Y-123362142D01*
X147278571Y-123439285D01*
X147240000Y-123477857D01*
X147162857Y-123516428D01*
X146970000Y-123516428D01*
X146892857Y-123477857D01*
X146854285Y-123439285D01*
X145050000Y-108300000D02*
X145050000Y-107500000D01*
X147550000Y-108300000D02*
X147550000Y-107500000D01*
X150050000Y-108300000D02*
X150050000Y-107500000D01*
X153550000Y-112750000D02*
X154350000Y-112750000D01*
X153550000Y-115250000D02*
X154350000Y-115250000D01*
X149550000Y-121700000D02*
X149550000Y-122500000D01*
X147050000Y-121700000D02*
X147050000Y-122500000D01*
X144550000Y-121700000D02*
X144550000Y-122500000D01*
X140150000Y-118350000D02*
X139350000Y-118350000D01*
X140100000Y-115750000D02*
X138850000Y-115750000D01*
X140100000Y-113250000D02*
X139350000Y-113250000D01*
X140300000Y-109600000D02*
X140500000Y-110100000D01*
X140331428Y-109466428D02*
X139868571Y-109466428D01*
X140100000Y-109466428D02*
X140100000Y-108656428D01*
X140022857Y-108772142D01*
X139945714Y-108849285D01*
X139868571Y-108887857D01*
D12*
X127714285Y-103407142D02*
X127285714Y-103407142D01*
X127242857Y-103835714D01*
X127285714Y-103792857D01*
X127371428Y-103750000D01*
X127585714Y-103750000D01*
X127671428Y-103792857D01*
X127714285Y-103835714D01*
X127757142Y-103921428D01*
X127757142Y-104135714D01*
X127714285Y-104221428D01*
X127671428Y-104264285D01*
X127585714Y-104307142D01*
X127371428Y-104307142D01*
X127285714Y-104264285D01*
X127242857Y-104221428D01*
X131371428Y-103407142D02*
X131200000Y-103407142D01*
X131114285Y-103450000D01*
X131071428Y-103492857D01*
X130985714Y-103621428D01*
X130942857Y-103792857D01*
X130942857Y-104135714D01*
X130985714Y-104221428D01*
X131028571Y-104264285D01*
X131114285Y-104307142D01*
X131285714Y-104307142D01*
X131371428Y-104264285D01*
X131414285Y-104221428D01*
X131457142Y-104135714D01*
X131457142Y-103921428D01*
X131414285Y-103835714D01*
X131371428Y-103792857D01*
X131285714Y-103750000D01*
X131114285Y-103750000D01*
X131028571Y-103792857D01*
X130985714Y-103835714D01*
X130942857Y-103921428D01*
X134100000Y-103407142D02*
X134700000Y-103407142D01*
X134314285Y-104307142D01*
X136714285Y-103792857D02*
X136628571Y-103750000D01*
X136585714Y-103707142D01*
X136542857Y-103621428D01*
X136542857Y-103578571D01*
X136585714Y-103492857D01*
X136628571Y-103450000D01*
X136714285Y-103407142D01*
X136885714Y-103407142D01*
X136971428Y-103450000D01*
X137014285Y-103492857D01*
X137057142Y-103578571D01*
X137057142Y-103621428D01*
X137014285Y-103707142D01*
X136971428Y-103750000D01*
X136885714Y-103792857D01*
X136714285Y-103792857D01*
X136628571Y-103835714D01*
X136585714Y-103878571D01*
X136542857Y-103964285D01*
X136542857Y-104135714D01*
X136585714Y-104221428D01*
X136628571Y-104264285D01*
X136714285Y-104307142D01*
X136885714Y-104307142D01*
X136971428Y-104264285D01*
X137014285Y-104221428D01*
X137057142Y-104135714D01*
X137057142Y-103964285D01*
X137014285Y-103878571D01*
X136971428Y-103835714D01*
X136885714Y-103792857D01*
X137942857Y-106635714D02*
X137257142Y-106635714D01*
X136342857Y-106635714D02*
X135657142Y-106635714D01*
X136000000Y-106292857D02*
X136000000Y-106978571D01*
X134742857Y-106635714D02*
X134057142Y-106635714D01*
X133142857Y-106635714D02*
X132457142Y-106635714D01*
X132800000Y-106292857D02*
X132800000Y-106978571D01*
X131542857Y-106635714D02*
X130857142Y-106635714D01*
X129942857Y-106635714D02*
X129257142Y-106635714D01*
X129600000Y-106292857D02*
X129600000Y-106978571D01*
X128342857Y-106635714D02*
X127657142Y-106635714D01*
X126742857Y-106635714D02*
X126057142Y-106635714D01*
X126400000Y-106292857D02*
X126400000Y-106978571D01*
X127657142Y-123364285D02*
X128342857Y-123364285D01*
X128000000Y-123707142D02*
X128000000Y-123021428D01*
X130857142Y-123364285D02*
X131542857Y-123364285D01*
X131200000Y-123707142D02*
X131200000Y-123021428D01*
X134057142Y-123364285D02*
X134742857Y-123364285D01*
X134400000Y-123707142D02*
X134400000Y-123021428D01*
X126057142Y-123364285D02*
X126742857Y-123364285D01*
X129257142Y-123364285D02*
X129942857Y-123364285D01*
X132457142Y-123364285D02*
X133142857Y-123364285D01*
X135657142Y-123364285D02*
X136342857Y-123364285D01*
X137257142Y-123364285D02*
X137942857Y-123364285D01*
X137600000Y-123707142D02*
X137600000Y-123021428D01*
X127371428Y-126107142D02*
X127371428Y-126707142D01*
X127157142Y-125764285D02*
X126942857Y-126407142D01*
X127500000Y-126407142D01*
X129300000Y-125807142D02*
X129857142Y-125807142D01*
X129557142Y-126150000D01*
X129685714Y-126150000D01*
X129771428Y-126192857D01*
X129814285Y-126235714D01*
X129857142Y-126321428D01*
X129857142Y-126535714D01*
X129814285Y-126621428D01*
X129771428Y-126664285D01*
X129685714Y-126707142D01*
X129428571Y-126707142D01*
X129342857Y-126664285D01*
X129300000Y-126621428D01*
X132542857Y-125892857D02*
X132585714Y-125850000D01*
X132671428Y-125807142D01*
X132885714Y-125807142D01*
X132971428Y-125850000D01*
X133014285Y-125892857D01*
X133057142Y-125978571D01*
X133057142Y-126064285D01*
X133014285Y-126192857D01*
X132500000Y-126707142D01*
X133057142Y-126707142D01*
X136857142Y-126707142D02*
X136342857Y-126707142D01*
X136600000Y-126707142D02*
X136600000Y-125807142D01*
X136514285Y-125935714D01*
X136428571Y-126021428D01*
X136342857Y-126064285D01*
D13*
X113171428Y-124178571D02*
X113171428Y-125250000D01*
X113100000Y-125464285D01*
X112957143Y-125607142D01*
X112742857Y-125678571D01*
X112600000Y-125678571D01*
X114671428Y-125678571D02*
X113814286Y-125678571D01*
X114242857Y-125678571D02*
X114242857Y-124178571D01*
X114100000Y-124392857D01*
X113957143Y-124535714D01*
X113814286Y-124607142D01*
X115314286Y-125107142D02*
X116457143Y-125107142D01*
X117028571Y-124178571D02*
X117957143Y-124178571D01*
X117457143Y-124750000D01*
X117671428Y-124750000D01*
X117814286Y-124821428D01*
X117885714Y-124892857D01*
X117957143Y-125035714D01*
X117957143Y-125392857D01*
X117885714Y-125535714D01*
X117814286Y-125607142D01*
X117671428Y-125678571D01*
X117242857Y-125678571D01*
X117100000Y-125607142D01*
X117028571Y-125535714D01*
X113171428Y-126178571D02*
X113171428Y-127250000D01*
X113100000Y-127464285D01*
X112957143Y-127607142D01*
X112742857Y-127678571D01*
X112600000Y-127678571D01*
X114671428Y-127678571D02*
X113814286Y-127678571D01*
X114242857Y-127678571D02*
X114242857Y-126178571D01*
X114100000Y-126392857D01*
X113957143Y-126535714D01*
X113814286Y-126607142D01*
X115314286Y-127107142D02*
X116457143Y-127107142D01*
X117957143Y-127678571D02*
X117100000Y-127678571D01*
X117528571Y-127678571D02*
X117528571Y-126178571D01*
X117385714Y-126392857D01*
X117242857Y-126535714D01*
X117100000Y-126607142D01*
X112528570Y-123678571D02*
X112528570Y-122178571D01*
X112885713Y-122178571D01*
X113099999Y-122250000D01*
X113242856Y-122392857D01*
X113314284Y-122535714D01*
X113385713Y-122821428D01*
X113385713Y-123035714D01*
X113314284Y-123321428D01*
X113242856Y-123464285D01*
X113099999Y-123607142D01*
X112885713Y-123678571D01*
X112528570Y-123678571D01*
X114814284Y-122250000D02*
X114671427Y-122178571D01*
X114457142Y-122178571D01*
X114242856Y-122250000D01*
X114099999Y-122392857D01*
X114028570Y-122535714D01*
X113957142Y-122821428D01*
X113957142Y-123035714D01*
X114028570Y-123321428D01*
X114099999Y-123464285D01*
X114242856Y-123607142D01*
X114457142Y-123678571D01*
X114599999Y-123678571D01*
X114814284Y-123607142D01*
X114885713Y-123535714D01*
X114885713Y-123035714D01*
X114599999Y-123035714D01*
X115528570Y-123678571D02*
X115528570Y-122178571D01*
X116385713Y-123678571D01*
X116385713Y-122178571D01*
X117099999Y-123678571D02*
X117099999Y-122178571D01*
X117457142Y-122178571D01*
X117671427Y-122250000D01*
X117814284Y-122392857D01*
X117885713Y-122535714D01*
X117957142Y-122821428D01*
X117957142Y-123035714D01*
X117885713Y-123321428D01*
X117814284Y-123464285D01*
X117671427Y-123607142D01*
X117457142Y-123678571D01*
X117099999Y-123678571D01*
X112814285Y-121678571D02*
X112814285Y-120178571D01*
X113171428Y-120178571D01*
X113385714Y-120250000D01*
X113528571Y-120392857D01*
X113600000Y-120535714D01*
X113671428Y-120821428D01*
X113671428Y-121035714D01*
X113600000Y-121321428D01*
X113528571Y-121464285D01*
X113385714Y-121607142D01*
X113171428Y-121678571D01*
X112814285Y-121678571D01*
X114100000Y-120178571D02*
X114600000Y-121678571D01*
X115100000Y-120178571D01*
X116457142Y-121535714D02*
X116385714Y-121607142D01*
X116171428Y-121678571D01*
X116028571Y-121678571D01*
X115814285Y-121607142D01*
X115671428Y-121464285D01*
X115600000Y-121321428D01*
X115528571Y-121035714D01*
X115528571Y-120821428D01*
X115600000Y-120535714D01*
X115671428Y-120392857D01*
X115814285Y-120250000D01*
X116028571Y-120178571D01*
X116171428Y-120178571D01*
X116385714Y-120250000D01*
X116457142Y-120321428D01*
X117957142Y-121535714D02*
X117885714Y-121607142D01*
X117671428Y-121678571D01*
X117528571Y-121678571D01*
X117314285Y-121607142D01*
X117171428Y-121464285D01*
X117100000Y-121321428D01*
X117028571Y-121035714D01*
X117028571Y-120821428D01*
X117100000Y-120535714D01*
X117171428Y-120392857D01*
X117314285Y-120250000D01*
X117528571Y-120178571D01*
X117671428Y-120178571D01*
X117885714Y-120250000D01*
X117957142Y-120321428D01*
X121914285Y-111607142D02*
X122128571Y-111678571D01*
X122485714Y-111678571D01*
X122628571Y-111607142D01*
X122700000Y-111535714D01*
X122771428Y-111392857D01*
X122771428Y-111250000D01*
X122700000Y-111107142D01*
X122628571Y-111035714D01*
X122485714Y-110964285D01*
X122200000Y-110892857D01*
X122057142Y-110821428D01*
X121985714Y-110750000D01*
X121914285Y-110607142D01*
X121914285Y-110464285D01*
X121985714Y-110321428D01*
X122057142Y-110250000D01*
X122200000Y-110178571D01*
X122557142Y-110178571D01*
X122771428Y-110250000D01*
X124271428Y-111535714D02*
X124200000Y-111607142D01*
X123985714Y-111678571D01*
X123842857Y-111678571D01*
X123628571Y-111607142D01*
X123485714Y-111464285D01*
X123414285Y-111321428D01*
X123342857Y-111035714D01*
X123342857Y-110821428D01*
X123414285Y-110535714D01*
X123485714Y-110392857D01*
X123628571Y-110250000D01*
X123842857Y-110178571D01*
X123985714Y-110178571D01*
X124200000Y-110250000D01*
X124271428Y-110321428D01*
X125628571Y-111678571D02*
X124914285Y-111678571D01*
X124914285Y-110178571D01*
X121878571Y-109607142D02*
X122092857Y-109678571D01*
X122450000Y-109678571D01*
X122592857Y-109607142D01*
X122664285Y-109535714D01*
X122735714Y-109392857D01*
X122735714Y-109250000D01*
X122664285Y-109107142D01*
X122592857Y-109035714D01*
X122450000Y-108964285D01*
X122164285Y-108892857D01*
X122021428Y-108821428D01*
X121950000Y-108750000D01*
X121878571Y-108607142D01*
X121878571Y-108464285D01*
X121950000Y-108321428D01*
X122021428Y-108250000D01*
X122164285Y-108178571D01*
X122521428Y-108178571D01*
X122735714Y-108250000D01*
X123378571Y-109678571D02*
X123378571Y-108178571D01*
X123735714Y-108178571D01*
X123950000Y-108250000D01*
X124092857Y-108392857D01*
X124164285Y-108535714D01*
X124235714Y-108821428D01*
X124235714Y-109035714D01*
X124164285Y-109321428D01*
X124092857Y-109464285D01*
X123950000Y-109607142D01*
X123735714Y-109678571D01*
X123378571Y-109678571D01*
X124807142Y-109250000D02*
X125521428Y-109250000D01*
X124664285Y-109678571D02*
X125164285Y-108178571D01*
X125664285Y-109678571D01*
X112957143Y-107250000D02*
X113671428Y-107250000D01*
X112814285Y-107678571D02*
X113314285Y-106178571D01*
X113814285Y-107678571D01*
X114100000Y-106178571D02*
X114600000Y-107678571D01*
X115100000Y-106178571D01*
X116457143Y-107535714D02*
X116385714Y-107607142D01*
X116171428Y-107678571D01*
X116028571Y-107678571D01*
X115814285Y-107607142D01*
X115671428Y-107464285D01*
X115600000Y-107321428D01*
X115528571Y-107035714D01*
X115528571Y-106821428D01*
X115600000Y-106535714D01*
X115671428Y-106392857D01*
X115814285Y-106250000D01*
X116028571Y-106178571D01*
X116171428Y-106178571D01*
X116385714Y-106250000D01*
X116457143Y-106321428D01*
X117957143Y-107535714D02*
X117885714Y-107607142D01*
X117671428Y-107678571D01*
X117528571Y-107678571D01*
X117314285Y-107607142D01*
X117171428Y-107464285D01*
X117100000Y-107321428D01*
X117028571Y-107035714D01*
X117028571Y-106821428D01*
X117100000Y-106535714D01*
X117171428Y-106392857D01*
X117314285Y-106250000D01*
X117528571Y-106178571D01*
X117671428Y-106178571D01*
X117885714Y-106250000D01*
X117957143Y-106321428D01*
X112671427Y-105250000D02*
X113385713Y-105250000D01*
X112528570Y-105678571D02*
X113028570Y-104178571D01*
X113528570Y-105678571D01*
X114814285Y-104250000D02*
X114671427Y-104178571D01*
X114457142Y-104178571D01*
X114242856Y-104250000D01*
X114099999Y-104392857D01*
X114028570Y-104535714D01*
X113957142Y-104821428D01*
X113957142Y-105035714D01*
X114028570Y-105321428D01*
X114099999Y-105464285D01*
X114242856Y-105607142D01*
X114457142Y-105678571D01*
X114599999Y-105678571D01*
X114814285Y-105607142D01*
X114885713Y-105535714D01*
X114885713Y-105035714D01*
X114599999Y-105035714D01*
X115528570Y-105678571D02*
X115528570Y-104178571D01*
X116385713Y-105678571D01*
X116385713Y-104178571D01*
X117099999Y-105678571D02*
X117099999Y-104178571D01*
X117457142Y-104178571D01*
X117671427Y-104250000D01*
X117814285Y-104392857D01*
X117885713Y-104535714D01*
X117957142Y-104821428D01*
X117957142Y-105035714D01*
X117885713Y-105321428D01*
X117814285Y-105464285D01*
X117671427Y-105607142D01*
X117457142Y-105678571D01*
X117099999Y-105678571D01*
X111742857Y-102178571D02*
X111742857Y-103250000D01*
X111671428Y-103464285D01*
X111528571Y-103607142D01*
X111314285Y-103678571D01*
X111171428Y-103678571D01*
X112314285Y-102178571D02*
X113242857Y-102178571D01*
X112742857Y-102750000D01*
X112957142Y-102750000D01*
X113100000Y-102821428D01*
X113171428Y-102892857D01*
X113242857Y-103035714D01*
X113242857Y-103392857D01*
X113171428Y-103535714D01*
X113100000Y-103607142D01*
X112957142Y-103678571D01*
X112528571Y-103678571D01*
X112385714Y-103607142D01*
X112314285Y-103535714D01*
X113885714Y-103107142D02*
X115028571Y-103107142D01*
X115600000Y-102178571D02*
X116528571Y-102178571D01*
X116028571Y-102750000D01*
X116242857Y-102750000D01*
X116385714Y-102821428D01*
X116457142Y-102892857D01*
X116528571Y-103035714D01*
X116528571Y-103392857D01*
X116457142Y-103535714D01*
X116385714Y-103607142D01*
X116242857Y-103678571D01*
X115814285Y-103678571D01*
X115671428Y-103607142D01*
X115600000Y-103535714D01*
X117028571Y-102178571D02*
X118028571Y-102178571D01*
X117385714Y-103678571D01*
X111742857Y-100178571D02*
X111742857Y-101250000D01*
X111671428Y-101464285D01*
X111528571Y-101607142D01*
X111314285Y-101678571D01*
X111171428Y-101678571D01*
X112314285Y-100178571D02*
X113242857Y-100178571D01*
X112742857Y-100750000D01*
X112957142Y-100750000D01*
X113100000Y-100821428D01*
X113171428Y-100892857D01*
X113242857Y-101035714D01*
X113242857Y-101392857D01*
X113171428Y-101535714D01*
X113100000Y-101607142D01*
X112957142Y-101678571D01*
X112528571Y-101678571D01*
X112385714Y-101607142D01*
X112314285Y-101535714D01*
X113885714Y-101107142D02*
X115028571Y-101107142D01*
X115600000Y-100178571D02*
X116528571Y-100178571D01*
X116028571Y-100750000D01*
X116242857Y-100750000D01*
X116385714Y-100821428D01*
X116457142Y-100892857D01*
X116528571Y-101035714D01*
X116528571Y-101392857D01*
X116457142Y-101535714D01*
X116385714Y-101607142D01*
X116242857Y-101678571D01*
X115814285Y-101678571D01*
X115671428Y-101607142D01*
X115600000Y-101535714D01*
X117242857Y-101678571D02*
X117528571Y-101678571D01*
X117671428Y-101607142D01*
X117742857Y-101535714D01*
X117885714Y-101321428D01*
X117957142Y-101035714D01*
X117957142Y-100464285D01*
X117885714Y-100321428D01*
X117814285Y-100250000D01*
X117671428Y-100178571D01*
X117385714Y-100178571D01*
X117242857Y-100250000D01*
X117171428Y-100321428D01*
X117100000Y-100464285D01*
X117100000Y-100821428D01*
X117171428Y-100964285D01*
X117242857Y-101035714D01*
X117385714Y-101107142D01*
X117671428Y-101107142D01*
X117814285Y-101035714D01*
X117885714Y-100964285D01*
X117957142Y-100821428D01*
X151450000Y-138425000D02*
X152164285Y-138425000D01*
X151307142Y-138853571D02*
X151807142Y-137353571D01*
X152307142Y-138853571D01*
X152592857Y-137353571D02*
X153092857Y-138853571D01*
X153592857Y-137353571D01*
X154950000Y-138710714D02*
X154878571Y-138782142D01*
X154664285Y-138853571D01*
X154521428Y-138853571D01*
X154307142Y-138782142D01*
X154164285Y-138639285D01*
X154092857Y-138496428D01*
X154021428Y-138210714D01*
X154021428Y-137996428D01*
X154092857Y-137710714D01*
X154164285Y-137567857D01*
X154307142Y-137425000D01*
X154521428Y-137353571D01*
X154664285Y-137353571D01*
X154878571Y-137425000D01*
X154950000Y-137496428D01*
X156450000Y-138710714D02*
X156378571Y-138782142D01*
X156164285Y-138853571D01*
X156021428Y-138853571D01*
X155807142Y-138782142D01*
X155664285Y-138639285D01*
X155592857Y-138496428D01*
X155521428Y-138210714D01*
X155521428Y-137996428D01*
X155592857Y-137710714D01*
X155664285Y-137567857D01*
X155807142Y-137425000D01*
X156021428Y-137353571D01*
X156164285Y-137353571D01*
X156378571Y-137425000D01*
X156450000Y-137496428D01*
X147464285Y-92678571D02*
X147464285Y-91178571D01*
X147821428Y-91178571D01*
X148035714Y-91250000D01*
X148178571Y-91392857D01*
X148250000Y-91535714D01*
X148321428Y-91821428D01*
X148321428Y-92035714D01*
X148250000Y-92321428D01*
X148178571Y-92464285D01*
X148035714Y-92607142D01*
X147821428Y-92678571D01*
X147464285Y-92678571D01*
X148750000Y-91178571D02*
X149250000Y-92678571D01*
X149750000Y-91178571D01*
X151107142Y-92535714D02*
X151035714Y-92607142D01*
X150821428Y-92678571D01*
X150678571Y-92678571D01*
X150464285Y-92607142D01*
X150321428Y-92464285D01*
X150250000Y-92321428D01*
X150178571Y-92035714D01*
X150178571Y-91821428D01*
X150250000Y-91535714D01*
X150321428Y-91392857D01*
X150464285Y-91250000D01*
X150678571Y-91178571D01*
X150821428Y-91178571D01*
X151035714Y-91250000D01*
X151107142Y-91321428D01*
X152607142Y-92535714D02*
X152535714Y-92607142D01*
X152321428Y-92678571D01*
X152178571Y-92678571D01*
X151964285Y-92607142D01*
X151821428Y-92464285D01*
X151750000Y-92321428D01*
X151678571Y-92035714D01*
X151678571Y-91821428D01*
X151750000Y-91535714D01*
X151821428Y-91392857D01*
X151964285Y-91250000D01*
X152178571Y-91178571D01*
X152321428Y-91178571D01*
X152535714Y-91250000D01*
X152607142Y-91321428D01*
X168428570Y-92678571D02*
X167571427Y-92678571D01*
X167999999Y-92678571D02*
X167999999Y-91178571D01*
X167857141Y-91392857D01*
X167714284Y-91535714D01*
X167571427Y-91607142D01*
X165063094Y-91321428D02*
X165134523Y-91250000D01*
X165277380Y-91178571D01*
X165634523Y-91178571D01*
X165777380Y-91250000D01*
X165848808Y-91321428D01*
X165920237Y-91464285D01*
X165920237Y-91607142D01*
X165848808Y-91821428D01*
X164991666Y-92678571D01*
X165920237Y-92678571D01*
X162483333Y-91178571D02*
X163411904Y-91178571D01*
X162911904Y-91750000D01*
X163126190Y-91750000D01*
X163269047Y-91821428D01*
X163340475Y-91892857D01*
X163411904Y-92035714D01*
X163411904Y-92392857D01*
X163340475Y-92535714D01*
X163269047Y-92607142D01*
X163126190Y-92678571D01*
X162697618Y-92678571D01*
X162554761Y-92607142D01*
X162483333Y-92535714D01*
X160760714Y-91678571D02*
X160760714Y-92678571D01*
X160403571Y-91107142D02*
X160046428Y-92178571D01*
X160975000Y-92178571D01*
D14*
G04 #@! TO.C,C20*
X145670000Y-125650000D02*
X145670000Y-125150000D01*
X144730000Y-125150000D02*
X144730000Y-125650000D01*
G04 #@! TO.C,L21*
X166620000Y-114470000D02*
X166120000Y-114470000D01*
X166120000Y-115530000D02*
X166620000Y-115530000D01*
D11*
G04 #@! TO.C,U1*
X141625000Y-109825000D02*
X141625000Y-110775000D01*
X151975000Y-109825000D02*
X151975000Y-110875000D01*
X151975000Y-120175000D02*
X151975000Y-119125000D01*
X141625000Y-120175000D02*
X141625000Y-119125000D01*
X141625000Y-109825000D02*
X142675000Y-109825000D01*
X141625000Y-120175000D02*
X142675000Y-120175000D01*
X151975000Y-120175000D02*
X150925000Y-120175000D01*
X151975000Y-109825000D02*
X150925000Y-109825000D01*
X141625000Y-110775000D02*
X140350000Y-110775000D01*
D14*
G04 #@! TO.C,U3*
X159010000Y-94890000D02*
X157750000Y-94890000D01*
X152190000Y-94890000D02*
X153450000Y-94890000D01*
X159010000Y-98650000D02*
X159010000Y-94890000D01*
X152190000Y-100900000D02*
X152190000Y-94890000D01*
G04 #@! TO.C,C1*
X151676000Y-105414000D02*
X151676000Y-105914000D01*
X152616000Y-105914000D02*
X152616000Y-105414000D01*
G04 #@! TO.C,C2*
X139670000Y-103850000D02*
X139670000Y-103350000D01*
X138730000Y-103350000D02*
X138730000Y-103850000D01*
G04 #@! TO.C,C4*
X142548800Y-102806600D02*
X143048800Y-102806600D01*
X143048800Y-101866600D02*
X142548800Y-101866600D01*
G04 #@! TO.C,C5*
X141550200Y-106286200D02*
X141050200Y-106286200D01*
X141050200Y-107226200D02*
X141550200Y-107226200D01*
G04 #@! TO.C,C13*
X153124000Y-126149000D02*
X153124000Y-125649000D01*
X152184000Y-125649000D02*
X152184000Y-126149000D01*
G04 #@! TO.C,C15*
X150761600Y-122364400D02*
X150261600Y-122364400D01*
X150261600Y-123304400D02*
X150761600Y-123304400D01*
G04 #@! TO.C,C16*
X149136000Y-105414000D02*
X149136000Y-105914000D01*
X150076000Y-105914000D02*
X150076000Y-105414000D01*
G04 #@! TO.C,C17*
X150406000Y-105414000D02*
X150406000Y-105914000D01*
X151346000Y-105914000D02*
X151346000Y-105414000D01*
G04 #@! TO.C,C18*
X148298000Y-123948000D02*
X148298000Y-123448000D01*
X147358000Y-123448000D02*
X147358000Y-123948000D01*
G04 #@! TO.C,C22*
X146530000Y-133390600D02*
X146530000Y-133890600D01*
X147470000Y-133890600D02*
X147470000Y-133390600D01*
G04 #@! TO.C,C24*
X147866000Y-105388600D02*
X147866000Y-105888600D01*
X148806000Y-105888600D02*
X148806000Y-105388600D01*
G04 #@! TO.C,C25*
X144200000Y-133470000D02*
X144700000Y-133470000D01*
X144700000Y-132530000D02*
X144200000Y-132530000D01*
G04 #@! TO.C,C26*
X146249200Y-106260800D02*
X145749200Y-106260800D01*
X145749200Y-107200800D02*
X146249200Y-107200800D01*
G04 #@! TO.C,C27*
X152450000Y-104270000D02*
X152950000Y-104270000D01*
X152950000Y-103330000D02*
X152450000Y-103330000D01*
G04 #@! TO.C,C30*
X153750000Y-130370000D02*
X154250000Y-130370000D01*
X154250000Y-129430000D02*
X153750000Y-129430000D01*
G04 #@! TO.C,C31*
X161670000Y-99850000D02*
X161670000Y-99350000D01*
X160730000Y-99350000D02*
X160730000Y-99850000D01*
G04 #@! TO.C,C34*
X151298000Y-98256000D02*
X151298000Y-97756000D01*
X150358000Y-97756000D02*
X150358000Y-98256000D01*
G04 #@! TO.C,C35*
X156150000Y-102870000D02*
X156650000Y-102870000D01*
X156650000Y-101930000D02*
X156150000Y-101930000D01*
G04 #@! TO.C,C36*
X124800000Y-129030000D02*
X124300000Y-129030000D01*
X124300000Y-129970000D02*
X124800000Y-129970000D01*
G04 #@! TO.C,C37*
X153630000Y-109350000D02*
X153630000Y-109850000D01*
X154570000Y-109850000D02*
X154570000Y-109350000D01*
G04 #@! TO.C,D1*
X146900000Y-126840000D02*
X145000000Y-126840000D01*
X145500000Y-129160000D02*
X146900000Y-129160000D01*
G04 #@! TO.C,D4*
X159950000Y-96800000D02*
X161050000Y-96800000D01*
X161050000Y-96800000D02*
X161050000Y-94200000D01*
X159950000Y-96800000D02*
X159950000Y-94200000D01*
G04 #@! TO.C,D5*
X162450000Y-96800000D02*
X163550000Y-96800000D01*
X163550000Y-96800000D02*
X163550000Y-94200000D01*
X162450000Y-96800000D02*
X162450000Y-94200000D01*
G04 #@! TO.C,D6*
X164950000Y-96800000D02*
X166050000Y-96800000D01*
X166050000Y-96800000D02*
X166050000Y-94200000D01*
X164950000Y-96800000D02*
X164950000Y-94200000D01*
G04 #@! TO.C,D7*
X167450000Y-96800000D02*
X168550000Y-96800000D01*
X168550000Y-96800000D02*
X168550000Y-94200000D01*
X167450000Y-96800000D02*
X167450000Y-94200000D01*
G04 #@! TO.C,D10*
X142300000Y-126840000D02*
X140400000Y-126840000D01*
X140900000Y-129160000D02*
X142300000Y-129160000D01*
G04 #@! TO.C,L1*
X153930000Y-105850000D02*
X153930000Y-105350000D01*
X152870000Y-105350000D02*
X152870000Y-105850000D01*
G04 #@! TO.C,L3*
X166620000Y-105580000D02*
X166120000Y-105580000D01*
X166120000Y-106640000D02*
X166620000Y-106640000D01*
G04 #@! TO.C,L5*
X166620000Y-108120000D02*
X166120000Y-108120000D01*
X166120000Y-109180000D02*
X166620000Y-109180000D01*
G04 #@! TO.C,L7*
X166620000Y-110660000D02*
X166120000Y-110660000D01*
X166120000Y-111720000D02*
X166620000Y-111720000D01*
G04 #@! TO.C,L9*
X166620000Y-113200000D02*
X166120000Y-113200000D01*
X166120000Y-114260000D02*
X166620000Y-114260000D01*
G04 #@! TO.C,L11*
X166620000Y-115740000D02*
X166120000Y-115740000D01*
X166120000Y-116800000D02*
X166620000Y-116800000D01*
G04 #@! TO.C,L13*
X166620000Y-118280000D02*
X166120000Y-118280000D01*
X166120000Y-119340000D02*
X166620000Y-119340000D01*
G04 #@! TO.C,L15*
X166620000Y-120820000D02*
X166120000Y-120820000D01*
X166120000Y-121880000D02*
X166620000Y-121880000D01*
G04 #@! TO.C,L17*
X166620000Y-106850000D02*
X166120000Y-106850000D01*
X166120000Y-107910000D02*
X166620000Y-107910000D01*
G04 #@! TO.C,L19*
X166620000Y-109390000D02*
X166120000Y-109390000D01*
X166120000Y-110450000D02*
X166620000Y-110450000D01*
G04 #@! TO.C,L20*
X166620000Y-111930000D02*
X166120000Y-111930000D01*
X166120000Y-112990000D02*
X166620000Y-112990000D01*
G04 #@! TO.C,L22*
X166120000Y-126960000D02*
X166620000Y-126960000D01*
X166620000Y-125900000D02*
X166120000Y-125900000D01*
G04 #@! TO.C,L23*
X145393200Y-134831000D02*
X145893200Y-134831000D01*
X145893200Y-133771000D02*
X145393200Y-133771000D01*
G04 #@! TO.C,R1*
X139870000Y-103350000D02*
X139870000Y-103850000D01*
X140930000Y-103850000D02*
X140930000Y-103350000D01*
G04 #@! TO.C,R2*
X145106200Y-103229000D02*
X144606200Y-103229000D01*
X144606200Y-104289000D02*
X145106200Y-104289000D01*
G04 #@! TO.C,R3*
X138130000Y-124850000D02*
X138130000Y-124350000D01*
X137070000Y-124350000D02*
X137070000Y-124850000D01*
G04 #@! TO.C,R4*
X143030600Y-103229000D02*
X142530600Y-103229000D01*
X142530600Y-104289000D02*
X143030600Y-104289000D01*
G04 #@! TO.C,R5*
X143760600Y-106295000D02*
X143760600Y-105795000D01*
X142700600Y-105795000D02*
X142700600Y-106295000D01*
G04 #@! TO.C,R6*
X136530000Y-124850000D02*
X136530000Y-124350000D01*
X135470000Y-124350000D02*
X135470000Y-124850000D01*
G04 #@! TO.C,R7*
X134930000Y-124850000D02*
X134930000Y-124350000D01*
X133870000Y-124350000D02*
X133870000Y-124850000D01*
G04 #@! TO.C,R8*
X141050200Y-105813000D02*
X141550200Y-105813000D01*
X141550200Y-104753000D02*
X141050200Y-104753000D01*
G04 #@! TO.C,R9*
X133330000Y-124850000D02*
X133330000Y-124350000D01*
X132270000Y-124350000D02*
X132270000Y-124850000D01*
G04 #@! TO.C,R10*
X131730000Y-124850000D02*
X131730000Y-124350000D01*
X130670000Y-124350000D02*
X130670000Y-124850000D01*
G04 #@! TO.C,R11*
X163580000Y-116800000D02*
X164080000Y-116800000D01*
X164080000Y-115740000D02*
X163580000Y-115740000D01*
G04 #@! TO.C,R12*
X163580000Y-115530000D02*
X164080000Y-115530000D01*
X164080000Y-114470000D02*
X163580000Y-114470000D01*
G04 #@! TO.C,R13*
X130130000Y-124850000D02*
X130130000Y-124350000D01*
X129070000Y-124350000D02*
X129070000Y-124850000D01*
G04 #@! TO.C,R14*
X128530000Y-124850000D02*
X128530000Y-124350000D01*
X127470000Y-124350000D02*
X127470000Y-124850000D01*
G04 #@! TO.C,R15*
X156740000Y-106360000D02*
X156740000Y-105860000D01*
X155680000Y-105860000D02*
X155680000Y-106360000D01*
G04 #@! TO.C,R16*
X158010000Y-106360000D02*
X158010000Y-105860000D01*
X156950000Y-105860000D02*
X156950000Y-106360000D01*
G04 #@! TO.C,R17*
X126930000Y-124850000D02*
X126930000Y-124350000D01*
X125870000Y-124350000D02*
X125870000Y-124850000D01*
G04 #@! TO.C,R18*
X159280000Y-106360000D02*
X159280000Y-105860000D01*
X158220000Y-105860000D02*
X158220000Y-106360000D01*
G04 #@! TO.C,R19*
X125870000Y-105150000D02*
X125870000Y-105650000D01*
X126930000Y-105650000D02*
X126930000Y-105150000D01*
G04 #@! TO.C,R20*
X160550000Y-106360000D02*
X160550000Y-105860000D01*
X159490000Y-105860000D02*
X159490000Y-106360000D01*
G04 #@! TO.C,R21*
X127470000Y-105150000D02*
X127470000Y-105650000D01*
X128530000Y-105650000D02*
X128530000Y-105150000D01*
G04 #@! TO.C,R22*
X163580000Y-109180000D02*
X164080000Y-109180000D01*
X164080000Y-108120000D02*
X163580000Y-108120000D01*
G04 #@! TO.C,R23*
X129070000Y-105150000D02*
X129070000Y-105650000D01*
X130130000Y-105650000D02*
X130130000Y-105150000D01*
G04 #@! TO.C,R24*
X163580000Y-106640000D02*
X164080000Y-106640000D01*
X164080000Y-105580000D02*
X163580000Y-105580000D01*
G04 #@! TO.C,R25*
X163580000Y-118070000D02*
X164080000Y-118070000D01*
X164080000Y-117010000D02*
X163580000Y-117010000D01*
G04 #@! TO.C,R26*
X130670000Y-105150000D02*
X130670000Y-105650000D01*
X131730000Y-105650000D02*
X131730000Y-105150000D01*
G04 #@! TO.C,R27*
X163580000Y-111720000D02*
X164080000Y-111720000D01*
X164080000Y-110660000D02*
X163580000Y-110660000D01*
G04 #@! TO.C,R28*
X132270000Y-105150000D02*
X132270000Y-105650000D01*
X133330000Y-105650000D02*
X133330000Y-105150000D01*
G04 #@! TO.C,R29*
X163580000Y-112990000D02*
X164080000Y-112990000D01*
X164080000Y-111930000D02*
X163580000Y-111930000D01*
G04 #@! TO.C,R30*
X163580000Y-107910000D02*
X164080000Y-107910000D01*
X164080000Y-106850000D02*
X163580000Y-106850000D01*
G04 #@! TO.C,R31*
X133870000Y-105150000D02*
X133870000Y-105650000D01*
X134930000Y-105650000D02*
X134930000Y-105150000D01*
G04 #@! TO.C,R32*
X135470000Y-105150000D02*
X135470000Y-105650000D01*
X136530000Y-105650000D02*
X136530000Y-105150000D01*
G04 #@! TO.C,R33*
X163580000Y-114260000D02*
X164080000Y-114260000D01*
X164080000Y-113200000D02*
X163580000Y-113200000D01*
G04 #@! TO.C,R34*
X163580000Y-120610000D02*
X164080000Y-120610000D01*
X164080000Y-119550000D02*
X163580000Y-119550000D01*
G04 #@! TO.C,R35*
X137070000Y-105150000D02*
X137070000Y-105650000D01*
X138130000Y-105650000D02*
X138130000Y-105150000D01*
G04 #@! TO.C,R36*
X163580000Y-110450000D02*
X164080000Y-110450000D01*
X164080000Y-109390000D02*
X163580000Y-109390000D01*
D11*
G04 #@! TO.C,U2*
X149925000Y-131425000D02*
X149925000Y-131475000D01*
X154075000Y-131425000D02*
X154075000Y-131570000D01*
X154075000Y-136575000D02*
X154075000Y-136430000D01*
X149925000Y-136575000D02*
X149925000Y-136430000D01*
X149925000Y-131425000D02*
X154075000Y-131425000D01*
X149925000Y-136575000D02*
X154075000Y-136575000D01*
X149925000Y-131475000D02*
X148525000Y-131475000D01*
D14*
G04 #@! TO.C,D11*
X148200000Y-94150000D02*
X148200000Y-95250000D01*
X148200000Y-95250000D02*
X150800000Y-95250000D01*
X148200000Y-94150000D02*
X150800000Y-94150000D01*
G04 #@! TO.C,R37*
X148520000Y-97756000D02*
X148520000Y-98256000D01*
X149580000Y-98256000D02*
X149580000Y-97756000D01*
G04 #@! TO.C,C14*
X151441600Y-126958600D02*
X151441600Y-124958600D01*
X148481600Y-124958600D02*
X148481600Y-126958600D01*
G04 #@! TO.C,C19*
X146000000Y-125350000D02*
X146000000Y-124650000D01*
X147200000Y-124650000D02*
X147200000Y-125350000D01*
G04 #@! TO.C,C21*
X145650000Y-135400000D02*
X146350000Y-135400000D01*
X146350000Y-136600000D02*
X145650000Y-136600000D01*
G04 #@! TO.C,C23*
X146349200Y-105883000D02*
X145649200Y-105883000D01*
X145649200Y-104683000D02*
X146349200Y-104683000D01*
G04 #@! TO.C,C28*
X153650000Y-127400000D02*
X154350000Y-127400000D01*
X154350000Y-128600000D02*
X153650000Y-128600000D01*
G04 #@! TO.C,C29*
X162300000Y-99950000D02*
X162300000Y-99250000D01*
X163500000Y-99250000D02*
X163500000Y-99950000D01*
G04 #@! TO.C,C32*
X155900000Y-109150000D02*
X155900000Y-109850000D01*
X154700000Y-109850000D02*
X154700000Y-109150000D01*
G04 #@! TO.C,C33*
X156050000Y-103200000D02*
X156750000Y-103200000D01*
X156750000Y-104400000D02*
X156050000Y-104400000D01*
D11*
G04 #@! TO.C,J1*
X123500000Y-136000000D02*
X140500000Y-136000000D01*
X123500000Y-134000000D02*
X123500000Y-136000000D01*
X140500000Y-134000000D02*
X123500000Y-134000000D01*
X140500000Y-136000000D02*
X140500000Y-134000000D01*
X142000000Y-133000000D02*
X140500000Y-133000000D01*
X142000000Y-135000000D02*
X142000000Y-133000000D01*
X141000000Y-135000000D02*
X142000000Y-135000000D01*
X141000000Y-137000000D02*
X141000000Y-135000000D01*
X140500000Y-137000000D02*
X141000000Y-137000000D01*
X123000000Y-137000000D02*
X123500000Y-137000000D01*
X123000000Y-135000000D02*
X123000000Y-137000000D01*
X122500000Y-135000000D02*
X123000000Y-135000000D01*
X122000000Y-135000000D02*
X122500000Y-135000000D01*
X122000000Y-134500000D02*
X122000000Y-135000000D01*
X122000000Y-133000000D02*
X122000000Y-134500000D01*
X123500000Y-133000000D02*
X122000000Y-133000000D01*
X143000000Y-132000000D02*
X143000000Y-138000000D01*
X140500000Y-132000000D02*
X143000000Y-132000000D01*
X140500000Y-133000000D02*
X140500000Y-132000000D01*
X123500000Y-133000000D02*
X140500000Y-133000000D01*
X123500000Y-132000000D02*
X123500000Y-133000000D01*
X121000000Y-132000000D02*
X123500000Y-132000000D01*
X121000000Y-138000000D02*
X121000000Y-132000000D01*
X123500000Y-138000000D02*
X121000000Y-138000000D01*
X123500000Y-137000000D02*
X123500000Y-138000000D01*
X140500000Y-137000000D02*
X123500000Y-137000000D01*
X140500000Y-138000000D02*
X140500000Y-137000000D01*
X143000000Y-138000000D02*
X140500000Y-138000000D01*
G04 #@! TO.C,J3*
X140500000Y-94000000D02*
X123500000Y-94000000D01*
X140500000Y-96000000D02*
X140500000Y-94000000D01*
X123500000Y-96000000D02*
X140500000Y-96000000D01*
X123500000Y-94000000D02*
X123500000Y-96000000D01*
X122000000Y-97000000D02*
X123500000Y-97000000D01*
X122000000Y-95000000D02*
X122000000Y-97000000D01*
X123000000Y-95000000D02*
X122000000Y-95000000D01*
X123000000Y-93000000D02*
X123000000Y-95000000D01*
X123500000Y-93000000D02*
X123000000Y-93000000D01*
X141000000Y-93000000D02*
X140500000Y-93000000D01*
X141000000Y-95000000D02*
X141000000Y-93000000D01*
X141500000Y-95000000D02*
X141000000Y-95000000D01*
X142000000Y-95000000D02*
X141500000Y-95000000D01*
X142000000Y-95500000D02*
X142000000Y-95000000D01*
X142000000Y-97000000D02*
X142000000Y-95500000D01*
X140500000Y-97000000D02*
X142000000Y-97000000D01*
X121000000Y-98000000D02*
X121000000Y-92000000D01*
X123500000Y-98000000D02*
X121000000Y-98000000D01*
X123500000Y-97000000D02*
X123500000Y-98000000D01*
X140500000Y-97000000D02*
X123500000Y-97000000D01*
X140500000Y-98000000D02*
X140500000Y-97000000D01*
X143000000Y-98000000D02*
X140500000Y-98000000D01*
X143000000Y-92000000D02*
X143000000Y-98000000D01*
X140500000Y-92000000D02*
X143000000Y-92000000D01*
X140500000Y-93000000D02*
X140500000Y-92000000D01*
X123500000Y-93000000D02*
X140500000Y-93000000D01*
X123500000Y-92000000D02*
X123500000Y-93000000D01*
X121000000Y-92000000D02*
X123500000Y-92000000D01*
D14*
G04 #@! TO.C,J2*
X170425000Y-102240000D02*
X175625000Y-102240000D01*
X170425000Y-127760000D02*
X175625000Y-127760000D01*
X168985000Y-102810000D02*
X170425000Y-102810000D01*
X170425000Y-102240000D02*
X170425000Y-102810000D01*
X175625000Y-102240000D02*
X175625000Y-102810000D01*
X170425000Y-127190000D02*
X170425000Y-127760000D01*
X175625000Y-127190000D02*
X175625000Y-127760000D01*
X170425000Y-104330000D02*
X170425000Y-105350000D01*
X175625000Y-104330000D02*
X175625000Y-105350000D01*
X170425000Y-106870000D02*
X170425000Y-107890000D01*
X175625000Y-106870000D02*
X175625000Y-107890000D01*
X170425000Y-109410000D02*
X170425000Y-110430000D01*
X175625000Y-109410000D02*
X175625000Y-110430000D01*
X170425000Y-111950000D02*
X170425000Y-112970000D01*
X175625000Y-111950000D02*
X175625000Y-112970000D01*
X170425000Y-114490000D02*
X170425000Y-115510000D01*
X175625000Y-114490000D02*
X175625000Y-115510000D01*
X170425000Y-117030000D02*
X170425000Y-118050000D01*
X175625000Y-117030000D02*
X175625000Y-118050000D01*
X170425000Y-119570000D02*
X170425000Y-120590000D01*
X175625000Y-119570000D02*
X175625000Y-120590000D01*
X170425000Y-122110000D02*
X170425000Y-123130000D01*
X175625000Y-122110000D02*
X175625000Y-123130000D01*
X170425000Y-124650000D02*
X170425000Y-125670000D01*
X175625000Y-124650000D02*
X175625000Y-125670000D01*
G04 #@! TO.C,L2*
X166620000Y-122090000D02*
X166120000Y-122090000D01*
X166120000Y-123150000D02*
X166620000Y-123150000D01*
G04 #@! TO.C,L4*
X166620000Y-117010000D02*
X166120000Y-117010000D01*
X166120000Y-118070000D02*
X166620000Y-118070000D01*
G04 #@! TO.C,L6*
X166620000Y-119550000D02*
X166120000Y-119550000D01*
X166120000Y-120610000D02*
X166620000Y-120610000D01*
G04 #@! TO.C,C38*
X145100000Y-122330000D02*
X144600000Y-122330000D01*
X144600000Y-123270000D02*
X145100000Y-123270000D01*
G04 #@! TO.C,C39*
X146300000Y-130380000D02*
X145800000Y-130380000D01*
X145800000Y-131320000D02*
X146300000Y-131320000D01*
G04 #@! TO.C,D12*
X150808572Y-138775000D02*
X150808572Y-137675000D01*
X150808572Y-137675000D02*
X148208572Y-137675000D01*
X150808572Y-138775000D02*
X148208572Y-138775000D01*
G04 #@! TO.C,R38*
X146270000Y-137250000D02*
X146270000Y-137750000D01*
X147330000Y-137750000D02*
X147330000Y-137250000D01*
G04 #@! TO.C,C20*
D11*
X143189285Y-125920714D02*
X143227857Y-125959285D01*
X143266428Y-126075000D01*
X143266428Y-126152142D01*
X143227857Y-126267857D01*
X143150714Y-126345000D01*
X143073571Y-126383571D01*
X142919285Y-126422142D01*
X142803571Y-126422142D01*
X142649285Y-126383571D01*
X142572142Y-126345000D01*
X142495000Y-126267857D01*
X142456428Y-126152142D01*
X142456428Y-126075000D01*
X142495000Y-125959285D01*
X142533571Y-125920714D01*
X142533571Y-125612142D02*
X142495000Y-125573571D01*
X142456428Y-125496428D01*
X142456428Y-125303571D01*
X142495000Y-125226428D01*
X142533571Y-125187857D01*
X142610714Y-125149285D01*
X142687857Y-125149285D01*
X142803571Y-125187857D01*
X143266428Y-125650714D01*
X143266428Y-125149285D01*
X142456428Y-124647857D02*
X142456428Y-124570714D01*
X142495000Y-124493571D01*
X142533571Y-124455000D01*
X142610714Y-124416428D01*
X142765000Y-124377857D01*
X142957857Y-124377857D01*
X143112142Y-124416428D01*
X143189285Y-124455000D01*
X143227857Y-124493571D01*
X143266428Y-124570714D01*
X143266428Y-124647857D01*
X143227857Y-124725000D01*
X143189285Y-124763571D01*
X143112142Y-124802142D01*
X142957857Y-124840714D01*
X142765000Y-124840714D01*
X142610714Y-124802142D01*
X142533571Y-124763571D01*
X142495000Y-124725000D01*
X142456428Y-124647857D01*
G04 #@! TO.C,L21*
X168091428Y-115520714D02*
X168091428Y-115906428D01*
X167281428Y-115906428D01*
X167358571Y-115289285D02*
X167320000Y-115250714D01*
X167281428Y-115173571D01*
X167281428Y-114980714D01*
X167320000Y-114903571D01*
X167358571Y-114865000D01*
X167435714Y-114826428D01*
X167512857Y-114826428D01*
X167628571Y-114865000D01*
X168091428Y-115327857D01*
X168091428Y-114826428D01*
X168091428Y-114055000D02*
X168091428Y-114517857D01*
X168091428Y-114286428D02*
X167281428Y-114286428D01*
X167397142Y-114363571D01*
X167474285Y-114440714D01*
X167512857Y-114517857D01*
G04 #@! TO.C,U1*
X152482857Y-120056428D02*
X152482857Y-120712142D01*
X152521428Y-120789285D01*
X152560000Y-120827857D01*
X152637142Y-120866428D01*
X152791428Y-120866428D01*
X152868571Y-120827857D01*
X152907142Y-120789285D01*
X152945714Y-120712142D01*
X152945714Y-120056428D01*
X153755714Y-120866428D02*
X153292857Y-120866428D01*
X153524285Y-120866428D02*
X153524285Y-120056428D01*
X153447142Y-120172142D01*
X153370000Y-120249285D01*
X153292857Y-120287857D01*
G04 #@! TO.C,U3*
X158182857Y-93206428D02*
X158182857Y-93862142D01*
X158221428Y-93939285D01*
X158260000Y-93977857D01*
X158337142Y-94016428D01*
X158491428Y-94016428D01*
X158568571Y-93977857D01*
X158607142Y-93939285D01*
X158645714Y-93862142D01*
X158645714Y-93206428D01*
X158954285Y-93206428D02*
X159455714Y-93206428D01*
X159185714Y-93515000D01*
X159301428Y-93515000D01*
X159378571Y-93553571D01*
X159417142Y-93592142D01*
X159455714Y-93669285D01*
X159455714Y-93862142D01*
X159417142Y-93939285D01*
X159378571Y-93977857D01*
X159301428Y-94016428D01*
X159070000Y-94016428D01*
X158992857Y-93977857D01*
X158954285Y-93939285D01*
G04 #@! TO.C,C1*
X152489285Y-107460000D02*
X152527857Y-107498571D01*
X152566428Y-107614285D01*
X152566428Y-107691428D01*
X152527857Y-107807142D01*
X152450714Y-107884285D01*
X152373571Y-107922857D01*
X152219285Y-107961428D01*
X152103571Y-107961428D01*
X151949285Y-107922857D01*
X151872142Y-107884285D01*
X151795000Y-107807142D01*
X151756428Y-107691428D01*
X151756428Y-107614285D01*
X151795000Y-107498571D01*
X151833571Y-107460000D01*
X152566428Y-106688571D02*
X152566428Y-107151428D01*
X152566428Y-106920000D02*
X151756428Y-106920000D01*
X151872142Y-106997142D01*
X151949285Y-107074285D01*
X151987857Y-107151428D01*
G04 #@! TO.C,C2*
X139539285Y-101760000D02*
X139577857Y-101798571D01*
X139616428Y-101914285D01*
X139616428Y-101991428D01*
X139577857Y-102107142D01*
X139500714Y-102184285D01*
X139423571Y-102222857D01*
X139269285Y-102261428D01*
X139153571Y-102261428D01*
X138999285Y-102222857D01*
X138922142Y-102184285D01*
X138845000Y-102107142D01*
X138806428Y-101991428D01*
X138806428Y-101914285D01*
X138845000Y-101798571D01*
X138883571Y-101760000D01*
X138883571Y-101451428D02*
X138845000Y-101412857D01*
X138806428Y-101335714D01*
X138806428Y-101142857D01*
X138845000Y-101065714D01*
X138883571Y-101027142D01*
X138960714Y-100988571D01*
X139037857Y-100988571D01*
X139153571Y-101027142D01*
X139616428Y-101490000D01*
X139616428Y-100988571D01*
G04 #@! TO.C,C4*
X142940000Y-101664285D02*
X142901428Y-101702857D01*
X142785714Y-101741428D01*
X142708571Y-101741428D01*
X142592857Y-101702857D01*
X142515714Y-101625714D01*
X142477142Y-101548571D01*
X142438571Y-101394285D01*
X142438571Y-101278571D01*
X142477142Y-101124285D01*
X142515714Y-101047142D01*
X142592857Y-100970000D01*
X142708571Y-100931428D01*
X142785714Y-100931428D01*
X142901428Y-100970000D01*
X142940000Y-101008571D01*
X143634285Y-101201428D02*
X143634285Y-101741428D01*
X143441428Y-100892857D02*
X143248571Y-101471428D01*
X143750000Y-101471428D01*
G04 #@! TO.C,C5*
X139415000Y-107139285D02*
X139376428Y-107177857D01*
X139260714Y-107216428D01*
X139183571Y-107216428D01*
X139067857Y-107177857D01*
X138990714Y-107100714D01*
X138952142Y-107023571D01*
X138913571Y-106869285D01*
X138913571Y-106753571D01*
X138952142Y-106599285D01*
X138990714Y-106522142D01*
X139067857Y-106445000D01*
X139183571Y-106406428D01*
X139260714Y-106406428D01*
X139376428Y-106445000D01*
X139415000Y-106483571D01*
X140147857Y-106406428D02*
X139762142Y-106406428D01*
X139723571Y-106792142D01*
X139762142Y-106753571D01*
X139839285Y-106715000D01*
X140032142Y-106715000D01*
X140109285Y-106753571D01*
X140147857Y-106792142D01*
X140186428Y-106869285D01*
X140186428Y-107062142D01*
X140147857Y-107139285D01*
X140109285Y-107177857D01*
X140032142Y-107216428D01*
X139839285Y-107216428D01*
X139762142Y-107177857D01*
X139723571Y-107139285D01*
G04 #@! TO.C,C13*
X153854285Y-125789285D02*
X153815714Y-125827857D01*
X153700000Y-125866428D01*
X153622857Y-125866428D01*
X153507142Y-125827857D01*
X153430000Y-125750714D01*
X153391428Y-125673571D01*
X153352857Y-125519285D01*
X153352857Y-125403571D01*
X153391428Y-125249285D01*
X153430000Y-125172142D01*
X153507142Y-125095000D01*
X153622857Y-125056428D01*
X153700000Y-125056428D01*
X153815714Y-125095000D01*
X153854285Y-125133571D01*
X154625714Y-125866428D02*
X154162857Y-125866428D01*
X154394285Y-125866428D02*
X154394285Y-125056428D01*
X154317142Y-125172142D01*
X154240000Y-125249285D01*
X154162857Y-125287857D01*
X154895714Y-125056428D02*
X155397142Y-125056428D01*
X155127142Y-125365000D01*
X155242857Y-125365000D01*
X155320000Y-125403571D01*
X155358571Y-125442142D01*
X155397142Y-125519285D01*
X155397142Y-125712142D01*
X155358571Y-125789285D01*
X155320000Y-125827857D01*
X155242857Y-125866428D01*
X155011428Y-125866428D01*
X154934285Y-125827857D01*
X154895714Y-125789285D01*
G04 #@! TO.C,C15*
X152254285Y-123139285D02*
X152215714Y-123177857D01*
X152100000Y-123216428D01*
X152022857Y-123216428D01*
X151907142Y-123177857D01*
X151830000Y-123100714D01*
X151791428Y-123023571D01*
X151752857Y-122869285D01*
X151752857Y-122753571D01*
X151791428Y-122599285D01*
X151830000Y-122522142D01*
X151907142Y-122445000D01*
X152022857Y-122406428D01*
X152100000Y-122406428D01*
X152215714Y-122445000D01*
X152254285Y-122483571D01*
X153025714Y-123216428D02*
X152562857Y-123216428D01*
X152794285Y-123216428D02*
X152794285Y-122406428D01*
X152717142Y-122522142D01*
X152640000Y-122599285D01*
X152562857Y-122637857D01*
X153758571Y-122406428D02*
X153372857Y-122406428D01*
X153334285Y-122792142D01*
X153372857Y-122753571D01*
X153450000Y-122715000D01*
X153642857Y-122715000D01*
X153720000Y-122753571D01*
X153758571Y-122792142D01*
X153797142Y-122869285D01*
X153797142Y-123062142D01*
X153758571Y-123139285D01*
X153720000Y-123177857D01*
X153642857Y-123216428D01*
X153450000Y-123216428D01*
X153372857Y-123177857D01*
X153334285Y-123139285D01*
G04 #@! TO.C,C16*
X149914285Y-103995714D02*
X149952857Y-104034285D01*
X149991428Y-104150000D01*
X149991428Y-104227142D01*
X149952857Y-104342857D01*
X149875714Y-104420000D01*
X149798571Y-104458571D01*
X149644285Y-104497142D01*
X149528571Y-104497142D01*
X149374285Y-104458571D01*
X149297142Y-104420000D01*
X149220000Y-104342857D01*
X149181428Y-104227142D01*
X149181428Y-104150000D01*
X149220000Y-104034285D01*
X149258571Y-103995714D01*
X149991428Y-103224285D02*
X149991428Y-103687142D01*
X149991428Y-103455714D02*
X149181428Y-103455714D01*
X149297142Y-103532857D01*
X149374285Y-103610000D01*
X149412857Y-103687142D01*
X149181428Y-102530000D02*
X149181428Y-102684285D01*
X149220000Y-102761428D01*
X149258571Y-102800000D01*
X149374285Y-102877142D01*
X149528571Y-102915714D01*
X149837142Y-102915714D01*
X149914285Y-102877142D01*
X149952857Y-102838571D01*
X149991428Y-102761428D01*
X149991428Y-102607142D01*
X149952857Y-102530000D01*
X149914285Y-102491428D01*
X149837142Y-102452857D01*
X149644285Y-102452857D01*
X149567142Y-102491428D01*
X149528571Y-102530000D01*
X149490000Y-102607142D01*
X149490000Y-102761428D01*
X149528571Y-102838571D01*
X149567142Y-102877142D01*
X149644285Y-102915714D01*
G04 #@! TO.C,C17*
X151164285Y-103995714D02*
X151202857Y-104034285D01*
X151241428Y-104150000D01*
X151241428Y-104227142D01*
X151202857Y-104342857D01*
X151125714Y-104420000D01*
X151048571Y-104458571D01*
X150894285Y-104497142D01*
X150778571Y-104497142D01*
X150624285Y-104458571D01*
X150547142Y-104420000D01*
X150470000Y-104342857D01*
X150431428Y-104227142D01*
X150431428Y-104150000D01*
X150470000Y-104034285D01*
X150508571Y-103995714D01*
X151241428Y-103224285D02*
X151241428Y-103687142D01*
X151241428Y-103455714D02*
X150431428Y-103455714D01*
X150547142Y-103532857D01*
X150624285Y-103610000D01*
X150662857Y-103687142D01*
X150431428Y-102954285D02*
X150431428Y-102414285D01*
X151241428Y-102761428D01*
G04 #@! TO.C,C18*
X147779285Y-122589285D02*
X147740714Y-122627857D01*
X147625000Y-122666428D01*
X147547857Y-122666428D01*
X147432142Y-122627857D01*
X147355000Y-122550714D01*
X147316428Y-122473571D01*
X147277857Y-122319285D01*
X147277857Y-122203571D01*
X147316428Y-122049285D01*
X147355000Y-121972142D01*
X147432142Y-121895000D01*
X147547857Y-121856428D01*
X147625000Y-121856428D01*
X147740714Y-121895000D01*
X147779285Y-121933571D01*
X148550714Y-122666428D02*
X148087857Y-122666428D01*
X148319285Y-122666428D02*
X148319285Y-121856428D01*
X148242142Y-121972142D01*
X148165000Y-122049285D01*
X148087857Y-122087857D01*
X149013571Y-122203571D02*
X148936428Y-122165000D01*
X148897857Y-122126428D01*
X148859285Y-122049285D01*
X148859285Y-122010714D01*
X148897857Y-121933571D01*
X148936428Y-121895000D01*
X149013571Y-121856428D01*
X149167857Y-121856428D01*
X149245000Y-121895000D01*
X149283571Y-121933571D01*
X149322142Y-122010714D01*
X149322142Y-122049285D01*
X149283571Y-122126428D01*
X149245000Y-122165000D01*
X149167857Y-122203571D01*
X149013571Y-122203571D01*
X148936428Y-122242142D01*
X148897857Y-122280714D01*
X148859285Y-122357857D01*
X148859285Y-122512142D01*
X148897857Y-122589285D01*
X148936428Y-122627857D01*
X149013571Y-122666428D01*
X149167857Y-122666428D01*
X149245000Y-122627857D01*
X149283571Y-122589285D01*
X149322142Y-122512142D01*
X149322142Y-122357857D01*
X149283571Y-122280714D01*
X149245000Y-122242142D01*
X149167857Y-122203571D01*
G04 #@! TO.C,C22*
X148264285Y-134120714D02*
X148302857Y-134159285D01*
X148341428Y-134275000D01*
X148341428Y-134352142D01*
X148302857Y-134467857D01*
X148225714Y-134545000D01*
X148148571Y-134583571D01*
X147994285Y-134622142D01*
X147878571Y-134622142D01*
X147724285Y-134583571D01*
X147647142Y-134545000D01*
X147570000Y-134467857D01*
X147531428Y-134352142D01*
X147531428Y-134275000D01*
X147570000Y-134159285D01*
X147608571Y-134120714D01*
X147608571Y-133812142D02*
X147570000Y-133773571D01*
X147531428Y-133696428D01*
X147531428Y-133503571D01*
X147570000Y-133426428D01*
X147608571Y-133387857D01*
X147685714Y-133349285D01*
X147762857Y-133349285D01*
X147878571Y-133387857D01*
X148341428Y-133850714D01*
X148341428Y-133349285D01*
X147608571Y-133040714D02*
X147570000Y-133002142D01*
X147531428Y-132925000D01*
X147531428Y-132732142D01*
X147570000Y-132655000D01*
X147608571Y-132616428D01*
X147685714Y-132577857D01*
X147762857Y-132577857D01*
X147878571Y-132616428D01*
X148341428Y-133079285D01*
X148341428Y-132577857D01*
G04 #@! TO.C,C24*
X148664285Y-103995714D02*
X148702857Y-104034285D01*
X148741428Y-104150000D01*
X148741428Y-104227142D01*
X148702857Y-104342857D01*
X148625714Y-104420000D01*
X148548571Y-104458571D01*
X148394285Y-104497142D01*
X148278571Y-104497142D01*
X148124285Y-104458571D01*
X148047142Y-104420000D01*
X147970000Y-104342857D01*
X147931428Y-104227142D01*
X147931428Y-104150000D01*
X147970000Y-104034285D01*
X148008571Y-103995714D01*
X148008571Y-103687142D02*
X147970000Y-103648571D01*
X147931428Y-103571428D01*
X147931428Y-103378571D01*
X147970000Y-103301428D01*
X148008571Y-103262857D01*
X148085714Y-103224285D01*
X148162857Y-103224285D01*
X148278571Y-103262857D01*
X148741428Y-103725714D01*
X148741428Y-103224285D01*
X148201428Y-102530000D02*
X148741428Y-102530000D01*
X147892857Y-102722857D02*
X148471428Y-102915714D01*
X148471428Y-102414285D01*
G04 #@! TO.C,C25*
X144214285Y-131645714D02*
X144252857Y-131684285D01*
X144291428Y-131800000D01*
X144291428Y-131877142D01*
X144252857Y-131992857D01*
X144175714Y-132070000D01*
X144098571Y-132108571D01*
X143944285Y-132147142D01*
X143828571Y-132147142D01*
X143674285Y-132108571D01*
X143597142Y-132070000D01*
X143520000Y-131992857D01*
X143481428Y-131877142D01*
X143481428Y-131800000D01*
X143520000Y-131684285D01*
X143558571Y-131645714D01*
X143558571Y-131337142D02*
X143520000Y-131298571D01*
X143481428Y-131221428D01*
X143481428Y-131028571D01*
X143520000Y-130951428D01*
X143558571Y-130912857D01*
X143635714Y-130874285D01*
X143712857Y-130874285D01*
X143828571Y-130912857D01*
X144291428Y-131375714D01*
X144291428Y-130874285D01*
X143481428Y-130141428D02*
X143481428Y-130527142D01*
X143867142Y-130565714D01*
X143828571Y-130527142D01*
X143790000Y-130450000D01*
X143790000Y-130257142D01*
X143828571Y-130180000D01*
X143867142Y-130141428D01*
X143944285Y-130102857D01*
X144137142Y-130102857D01*
X144214285Y-130141428D01*
X144252857Y-130180000D01*
X144291428Y-130257142D01*
X144291428Y-130450000D01*
X144252857Y-130527142D01*
X144214285Y-130565714D01*
G04 #@! TO.C,C26*
X144839285Y-107270714D02*
X144877857Y-107309285D01*
X144916428Y-107425000D01*
X144916428Y-107502142D01*
X144877857Y-107617857D01*
X144800714Y-107695000D01*
X144723571Y-107733571D01*
X144569285Y-107772142D01*
X144453571Y-107772142D01*
X144299285Y-107733571D01*
X144222142Y-107695000D01*
X144145000Y-107617857D01*
X144106428Y-107502142D01*
X144106428Y-107425000D01*
X144145000Y-107309285D01*
X144183571Y-107270714D01*
X144183571Y-106962142D02*
X144145000Y-106923571D01*
X144106428Y-106846428D01*
X144106428Y-106653571D01*
X144145000Y-106576428D01*
X144183571Y-106537857D01*
X144260714Y-106499285D01*
X144337857Y-106499285D01*
X144453571Y-106537857D01*
X144916428Y-107000714D01*
X144916428Y-106499285D01*
X144106428Y-105805000D02*
X144106428Y-105959285D01*
X144145000Y-106036428D01*
X144183571Y-106075000D01*
X144299285Y-106152142D01*
X144453571Y-106190714D01*
X144762142Y-106190714D01*
X144839285Y-106152142D01*
X144877857Y-106113571D01*
X144916428Y-106036428D01*
X144916428Y-105882142D01*
X144877857Y-105805000D01*
X144839285Y-105766428D01*
X144762142Y-105727857D01*
X144569285Y-105727857D01*
X144492142Y-105766428D01*
X144453571Y-105805000D01*
X144415000Y-105882142D01*
X144415000Y-106036428D01*
X144453571Y-106113571D01*
X144492142Y-106152142D01*
X144569285Y-106190714D01*
G04 #@! TO.C,C27*
X151554285Y-103164285D02*
X151515714Y-103202857D01*
X151400000Y-103241428D01*
X151322857Y-103241428D01*
X151207142Y-103202857D01*
X151130000Y-103125714D01*
X151091428Y-103048571D01*
X151052857Y-102894285D01*
X151052857Y-102778571D01*
X151091428Y-102624285D01*
X151130000Y-102547142D01*
X151207142Y-102470000D01*
X151322857Y-102431428D01*
X151400000Y-102431428D01*
X151515714Y-102470000D01*
X151554285Y-102508571D01*
X151862857Y-102508571D02*
X151901428Y-102470000D01*
X151978571Y-102431428D01*
X152171428Y-102431428D01*
X152248571Y-102470000D01*
X152287142Y-102508571D01*
X152325714Y-102585714D01*
X152325714Y-102662857D01*
X152287142Y-102778571D01*
X151824285Y-103241428D01*
X152325714Y-103241428D01*
X152595714Y-102431428D02*
X153135714Y-102431428D01*
X152788571Y-103241428D01*
G04 #@! TO.C,C30*
X151279285Y-130189285D02*
X151240714Y-130227857D01*
X151125000Y-130266428D01*
X151047857Y-130266428D01*
X150932142Y-130227857D01*
X150855000Y-130150714D01*
X150816428Y-130073571D01*
X150777857Y-129919285D01*
X150777857Y-129803571D01*
X150816428Y-129649285D01*
X150855000Y-129572142D01*
X150932142Y-129495000D01*
X151047857Y-129456428D01*
X151125000Y-129456428D01*
X151240714Y-129495000D01*
X151279285Y-129533571D01*
X151549285Y-129456428D02*
X152050714Y-129456428D01*
X151780714Y-129765000D01*
X151896428Y-129765000D01*
X151973571Y-129803571D01*
X152012142Y-129842142D01*
X152050714Y-129919285D01*
X152050714Y-130112142D01*
X152012142Y-130189285D01*
X151973571Y-130227857D01*
X151896428Y-130266428D01*
X151665000Y-130266428D01*
X151587857Y-130227857D01*
X151549285Y-130189285D01*
X152552142Y-129456428D02*
X152629285Y-129456428D01*
X152706428Y-129495000D01*
X152745000Y-129533571D01*
X152783571Y-129610714D01*
X152822142Y-129765000D01*
X152822142Y-129957857D01*
X152783571Y-130112142D01*
X152745000Y-130189285D01*
X152706428Y-130227857D01*
X152629285Y-130266428D01*
X152552142Y-130266428D01*
X152475000Y-130227857D01*
X152436428Y-130189285D01*
X152397857Y-130112142D01*
X152359285Y-129957857D01*
X152359285Y-129765000D01*
X152397857Y-129610714D01*
X152436428Y-129533571D01*
X152475000Y-129495000D01*
X152552142Y-129456428D01*
G04 #@! TO.C,C31*
X160364285Y-100120714D02*
X160402857Y-100159285D01*
X160441428Y-100275000D01*
X160441428Y-100352142D01*
X160402857Y-100467857D01*
X160325714Y-100545000D01*
X160248571Y-100583571D01*
X160094285Y-100622142D01*
X159978571Y-100622142D01*
X159824285Y-100583571D01*
X159747142Y-100545000D01*
X159670000Y-100467857D01*
X159631428Y-100352142D01*
X159631428Y-100275000D01*
X159670000Y-100159285D01*
X159708571Y-100120714D01*
X159631428Y-99850714D02*
X159631428Y-99349285D01*
X159940000Y-99619285D01*
X159940000Y-99503571D01*
X159978571Y-99426428D01*
X160017142Y-99387857D01*
X160094285Y-99349285D01*
X160287142Y-99349285D01*
X160364285Y-99387857D01*
X160402857Y-99426428D01*
X160441428Y-99503571D01*
X160441428Y-99735000D01*
X160402857Y-99812142D01*
X160364285Y-99850714D01*
X160441428Y-98577857D02*
X160441428Y-99040714D01*
X160441428Y-98809285D02*
X159631428Y-98809285D01*
X159747142Y-98886428D01*
X159824285Y-98963571D01*
X159862857Y-99040714D01*
G04 #@! TO.C,C34*
X150279285Y-96789285D02*
X150240714Y-96827857D01*
X150125000Y-96866428D01*
X150047857Y-96866428D01*
X149932142Y-96827857D01*
X149855000Y-96750714D01*
X149816428Y-96673571D01*
X149777857Y-96519285D01*
X149777857Y-96403571D01*
X149816428Y-96249285D01*
X149855000Y-96172142D01*
X149932142Y-96095000D01*
X150047857Y-96056428D01*
X150125000Y-96056428D01*
X150240714Y-96095000D01*
X150279285Y-96133571D01*
X150549285Y-96056428D02*
X151050714Y-96056428D01*
X150780714Y-96365000D01*
X150896428Y-96365000D01*
X150973571Y-96403571D01*
X151012142Y-96442142D01*
X151050714Y-96519285D01*
X151050714Y-96712142D01*
X151012142Y-96789285D01*
X150973571Y-96827857D01*
X150896428Y-96866428D01*
X150665000Y-96866428D01*
X150587857Y-96827857D01*
X150549285Y-96789285D01*
X151745000Y-96326428D02*
X151745000Y-96866428D01*
X151552142Y-96017857D02*
X151359285Y-96596428D01*
X151860714Y-96596428D01*
G04 #@! TO.C,C35*
X153854285Y-102239285D02*
X153815714Y-102277857D01*
X153700000Y-102316428D01*
X153622857Y-102316428D01*
X153507142Y-102277857D01*
X153430000Y-102200714D01*
X153391428Y-102123571D01*
X153352857Y-101969285D01*
X153352857Y-101853571D01*
X153391428Y-101699285D01*
X153430000Y-101622142D01*
X153507142Y-101545000D01*
X153622857Y-101506428D01*
X153700000Y-101506428D01*
X153815714Y-101545000D01*
X153854285Y-101583571D01*
X154124285Y-101506428D02*
X154625714Y-101506428D01*
X154355714Y-101815000D01*
X154471428Y-101815000D01*
X154548571Y-101853571D01*
X154587142Y-101892142D01*
X154625714Y-101969285D01*
X154625714Y-102162142D01*
X154587142Y-102239285D01*
X154548571Y-102277857D01*
X154471428Y-102316428D01*
X154240000Y-102316428D01*
X154162857Y-102277857D01*
X154124285Y-102239285D01*
X155358571Y-101506428D02*
X154972857Y-101506428D01*
X154934285Y-101892142D01*
X154972857Y-101853571D01*
X155050000Y-101815000D01*
X155242857Y-101815000D01*
X155320000Y-101853571D01*
X155358571Y-101892142D01*
X155397142Y-101969285D01*
X155397142Y-102162142D01*
X155358571Y-102239285D01*
X155320000Y-102277857D01*
X155242857Y-102316428D01*
X155050000Y-102316428D01*
X154972857Y-102277857D01*
X154934285Y-102239285D01*
G04 #@! TO.C,C36*
X121854285Y-129839285D02*
X121815714Y-129877857D01*
X121700000Y-129916428D01*
X121622857Y-129916428D01*
X121507142Y-129877857D01*
X121430000Y-129800714D01*
X121391428Y-129723571D01*
X121352857Y-129569285D01*
X121352857Y-129453571D01*
X121391428Y-129299285D01*
X121430000Y-129222142D01*
X121507142Y-129145000D01*
X121622857Y-129106428D01*
X121700000Y-129106428D01*
X121815714Y-129145000D01*
X121854285Y-129183571D01*
X122124285Y-129106428D02*
X122625714Y-129106428D01*
X122355714Y-129415000D01*
X122471428Y-129415000D01*
X122548571Y-129453571D01*
X122587142Y-129492142D01*
X122625714Y-129569285D01*
X122625714Y-129762142D01*
X122587142Y-129839285D01*
X122548571Y-129877857D01*
X122471428Y-129916428D01*
X122240000Y-129916428D01*
X122162857Y-129877857D01*
X122124285Y-129839285D01*
X123320000Y-129106428D02*
X123165714Y-129106428D01*
X123088571Y-129145000D01*
X123050000Y-129183571D01*
X122972857Y-129299285D01*
X122934285Y-129453571D01*
X122934285Y-129762142D01*
X122972857Y-129839285D01*
X123011428Y-129877857D01*
X123088571Y-129916428D01*
X123242857Y-129916428D01*
X123320000Y-129877857D01*
X123358571Y-129839285D01*
X123397142Y-129762142D01*
X123397142Y-129569285D01*
X123358571Y-129492142D01*
X123320000Y-129453571D01*
X123242857Y-129415000D01*
X123088571Y-129415000D01*
X123011428Y-129453571D01*
X122972857Y-129492142D01*
X122934285Y-129569285D01*
G04 #@! TO.C,C37*
X153119285Y-110120714D02*
X153157857Y-110159285D01*
X153196428Y-110275000D01*
X153196428Y-110352142D01*
X153157857Y-110467857D01*
X153080714Y-110545000D01*
X153003571Y-110583571D01*
X152849285Y-110622142D01*
X152733571Y-110622142D01*
X152579285Y-110583571D01*
X152502142Y-110545000D01*
X152425000Y-110467857D01*
X152386428Y-110352142D01*
X152386428Y-110275000D01*
X152425000Y-110159285D01*
X152463571Y-110120714D01*
X152386428Y-109850714D02*
X152386428Y-109349285D01*
X152695000Y-109619285D01*
X152695000Y-109503571D01*
X152733571Y-109426428D01*
X152772142Y-109387857D01*
X152849285Y-109349285D01*
X153042142Y-109349285D01*
X153119285Y-109387857D01*
X153157857Y-109426428D01*
X153196428Y-109503571D01*
X153196428Y-109735000D01*
X153157857Y-109812142D01*
X153119285Y-109850714D01*
X152386428Y-109079285D02*
X152386428Y-108539285D01*
X153196428Y-108886428D01*
G04 #@! TO.C,D1*
X148741428Y-129522857D02*
X147931428Y-129522857D01*
X147931428Y-129330000D01*
X147970000Y-129214285D01*
X148047142Y-129137142D01*
X148124285Y-129098571D01*
X148278571Y-129060000D01*
X148394285Y-129060000D01*
X148548571Y-129098571D01*
X148625714Y-129137142D01*
X148702857Y-129214285D01*
X148741428Y-129330000D01*
X148741428Y-129522857D01*
X148741428Y-128288571D02*
X148741428Y-128751428D01*
X148741428Y-128520000D02*
X147931428Y-128520000D01*
X148047142Y-128597142D01*
X148124285Y-128674285D01*
X148162857Y-128751428D01*
G04 #@! TO.C,D4*
X159902142Y-97991428D02*
X159902142Y-97181428D01*
X160095000Y-97181428D01*
X160210714Y-97220000D01*
X160287857Y-97297142D01*
X160326428Y-97374285D01*
X160365000Y-97528571D01*
X160365000Y-97644285D01*
X160326428Y-97798571D01*
X160287857Y-97875714D01*
X160210714Y-97952857D01*
X160095000Y-97991428D01*
X159902142Y-97991428D01*
X161059285Y-97451428D02*
X161059285Y-97991428D01*
X160866428Y-97142857D02*
X160673571Y-97721428D01*
X161175000Y-97721428D01*
G04 #@! TO.C,D5*
X162402142Y-97991428D02*
X162402142Y-97181428D01*
X162595000Y-97181428D01*
X162710714Y-97220000D01*
X162787857Y-97297142D01*
X162826428Y-97374285D01*
X162865000Y-97528571D01*
X162865000Y-97644285D01*
X162826428Y-97798571D01*
X162787857Y-97875714D01*
X162710714Y-97952857D01*
X162595000Y-97991428D01*
X162402142Y-97991428D01*
X163597857Y-97181428D02*
X163212142Y-97181428D01*
X163173571Y-97567142D01*
X163212142Y-97528571D01*
X163289285Y-97490000D01*
X163482142Y-97490000D01*
X163559285Y-97528571D01*
X163597857Y-97567142D01*
X163636428Y-97644285D01*
X163636428Y-97837142D01*
X163597857Y-97914285D01*
X163559285Y-97952857D01*
X163482142Y-97991428D01*
X163289285Y-97991428D01*
X163212142Y-97952857D01*
X163173571Y-97914285D01*
G04 #@! TO.C,D6*
X164927142Y-97991428D02*
X164927142Y-97181428D01*
X165120000Y-97181428D01*
X165235714Y-97220000D01*
X165312857Y-97297142D01*
X165351428Y-97374285D01*
X165390000Y-97528571D01*
X165390000Y-97644285D01*
X165351428Y-97798571D01*
X165312857Y-97875714D01*
X165235714Y-97952857D01*
X165120000Y-97991428D01*
X164927142Y-97991428D01*
X166084285Y-97181428D02*
X165930000Y-97181428D01*
X165852857Y-97220000D01*
X165814285Y-97258571D01*
X165737142Y-97374285D01*
X165698571Y-97528571D01*
X165698571Y-97837142D01*
X165737142Y-97914285D01*
X165775714Y-97952857D01*
X165852857Y-97991428D01*
X166007142Y-97991428D01*
X166084285Y-97952857D01*
X166122857Y-97914285D01*
X166161428Y-97837142D01*
X166161428Y-97644285D01*
X166122857Y-97567142D01*
X166084285Y-97528571D01*
X166007142Y-97490000D01*
X165852857Y-97490000D01*
X165775714Y-97528571D01*
X165737142Y-97567142D01*
X165698571Y-97644285D01*
G04 #@! TO.C,D7*
X167402142Y-97991428D02*
X167402142Y-97181428D01*
X167595000Y-97181428D01*
X167710714Y-97220000D01*
X167787857Y-97297142D01*
X167826428Y-97374285D01*
X167865000Y-97528571D01*
X167865000Y-97644285D01*
X167826428Y-97798571D01*
X167787857Y-97875714D01*
X167710714Y-97952857D01*
X167595000Y-97991428D01*
X167402142Y-97991428D01*
X168135000Y-97181428D02*
X168675000Y-97181428D01*
X168327857Y-97991428D01*
G04 #@! TO.C,D10*
X139791428Y-127983571D02*
X138981428Y-127983571D01*
X138981428Y-127790714D01*
X139020000Y-127675000D01*
X139097142Y-127597857D01*
X139174285Y-127559285D01*
X139328571Y-127520714D01*
X139444285Y-127520714D01*
X139598571Y-127559285D01*
X139675714Y-127597857D01*
X139752857Y-127675000D01*
X139791428Y-127790714D01*
X139791428Y-127983571D01*
X139791428Y-126749285D02*
X139791428Y-127212142D01*
X139791428Y-126980714D02*
X138981428Y-126980714D01*
X139097142Y-127057857D01*
X139174285Y-127135000D01*
X139212857Y-127212142D01*
X138981428Y-126247857D02*
X138981428Y-126170714D01*
X139020000Y-126093571D01*
X139058571Y-126055000D01*
X139135714Y-126016428D01*
X139290000Y-125977857D01*
X139482857Y-125977857D01*
X139637142Y-126016428D01*
X139714285Y-126055000D01*
X139752857Y-126093571D01*
X139791428Y-126170714D01*
X139791428Y-126247857D01*
X139752857Y-126325000D01*
X139714285Y-126363571D01*
X139637142Y-126402142D01*
X139482857Y-126440714D01*
X139290000Y-126440714D01*
X139135714Y-126402142D01*
X139058571Y-126363571D01*
X139020000Y-126325000D01*
X138981428Y-126247857D01*
G04 #@! TO.C,L1*
X154841428Y-105810000D02*
X154841428Y-106195714D01*
X154031428Y-106195714D01*
X154841428Y-105115714D02*
X154841428Y-105578571D01*
X154841428Y-105347142D02*
X154031428Y-105347142D01*
X154147142Y-105424285D01*
X154224285Y-105501428D01*
X154262857Y-105578571D01*
G04 #@! TO.C,L3*
X165491428Y-106210000D02*
X165491428Y-106595714D01*
X164681428Y-106595714D01*
X164681428Y-106017142D02*
X164681428Y-105515714D01*
X164990000Y-105785714D01*
X164990000Y-105670000D01*
X165028571Y-105592857D01*
X165067142Y-105554285D01*
X165144285Y-105515714D01*
X165337142Y-105515714D01*
X165414285Y-105554285D01*
X165452857Y-105592857D01*
X165491428Y-105670000D01*
X165491428Y-105901428D01*
X165452857Y-105978571D01*
X165414285Y-106017142D01*
G04 #@! TO.C,L5*
X165516428Y-108810000D02*
X165516428Y-109195714D01*
X164706428Y-109195714D01*
X164706428Y-108154285D02*
X164706428Y-108540000D01*
X165092142Y-108578571D01*
X165053571Y-108540000D01*
X165015000Y-108462857D01*
X165015000Y-108270000D01*
X165053571Y-108192857D01*
X165092142Y-108154285D01*
X165169285Y-108115714D01*
X165362142Y-108115714D01*
X165439285Y-108154285D01*
X165477857Y-108192857D01*
X165516428Y-108270000D01*
X165516428Y-108462857D01*
X165477857Y-108540000D01*
X165439285Y-108578571D01*
G04 #@! TO.C,L7*
X165541428Y-111235000D02*
X165541428Y-111620714D01*
X164731428Y-111620714D01*
X164731428Y-111042142D02*
X164731428Y-110502142D01*
X165541428Y-110849285D01*
G04 #@! TO.C,L9*
X165541428Y-113885000D02*
X165541428Y-114270714D01*
X164731428Y-114270714D01*
X165541428Y-113576428D02*
X165541428Y-113422142D01*
X165502857Y-113345000D01*
X165464285Y-113306428D01*
X165348571Y-113229285D01*
X165194285Y-113190714D01*
X164885714Y-113190714D01*
X164808571Y-113229285D01*
X164770000Y-113267857D01*
X164731428Y-113345000D01*
X164731428Y-113499285D01*
X164770000Y-113576428D01*
X164808571Y-113615000D01*
X164885714Y-113653571D01*
X165078571Y-113653571D01*
X165155714Y-113615000D01*
X165194285Y-113576428D01*
X165232857Y-113499285D01*
X165232857Y-113345000D01*
X165194285Y-113267857D01*
X165155714Y-113229285D01*
X165078571Y-113190714D01*
G04 #@! TO.C,L11*
X165541428Y-116795714D02*
X165541428Y-117181428D01*
X164731428Y-117181428D01*
X165541428Y-116101428D02*
X165541428Y-116564285D01*
X165541428Y-116332857D02*
X164731428Y-116332857D01*
X164847142Y-116410000D01*
X164924285Y-116487142D01*
X164962857Y-116564285D01*
X165541428Y-115330000D02*
X165541428Y-115792857D01*
X165541428Y-115561428D02*
X164731428Y-115561428D01*
X164847142Y-115638571D01*
X164924285Y-115715714D01*
X164962857Y-115792857D01*
G04 #@! TO.C,L13*
X165491428Y-119570714D02*
X165491428Y-119956428D01*
X164681428Y-119956428D01*
X165491428Y-118876428D02*
X165491428Y-119339285D01*
X165491428Y-119107857D02*
X164681428Y-119107857D01*
X164797142Y-119185000D01*
X164874285Y-119262142D01*
X164912857Y-119339285D01*
X164681428Y-118606428D02*
X164681428Y-118105000D01*
X164990000Y-118375000D01*
X164990000Y-118259285D01*
X165028571Y-118182142D01*
X165067142Y-118143571D01*
X165144285Y-118105000D01*
X165337142Y-118105000D01*
X165414285Y-118143571D01*
X165452857Y-118182142D01*
X165491428Y-118259285D01*
X165491428Y-118490714D01*
X165452857Y-118567857D01*
X165414285Y-118606428D01*
G04 #@! TO.C,L15*
X165416428Y-122020714D02*
X165416428Y-122406428D01*
X164606428Y-122406428D01*
X165416428Y-121326428D02*
X165416428Y-121789285D01*
X165416428Y-121557857D02*
X164606428Y-121557857D01*
X164722142Y-121635000D01*
X164799285Y-121712142D01*
X164837857Y-121789285D01*
X164606428Y-120593571D02*
X164606428Y-120979285D01*
X164992142Y-121017857D01*
X164953571Y-120979285D01*
X164915000Y-120902142D01*
X164915000Y-120709285D01*
X164953571Y-120632142D01*
X164992142Y-120593571D01*
X165069285Y-120555000D01*
X165262142Y-120555000D01*
X165339285Y-120593571D01*
X165377857Y-120632142D01*
X165416428Y-120709285D01*
X165416428Y-120902142D01*
X165377857Y-120979285D01*
X165339285Y-121017857D01*
G04 #@! TO.C,L17*
X168216428Y-107870714D02*
X168216428Y-108256428D01*
X167406428Y-108256428D01*
X168216428Y-107176428D02*
X168216428Y-107639285D01*
X168216428Y-107407857D02*
X167406428Y-107407857D01*
X167522142Y-107485000D01*
X167599285Y-107562142D01*
X167637857Y-107639285D01*
X167406428Y-106906428D02*
X167406428Y-106366428D01*
X168216428Y-106713571D01*
G04 #@! TO.C,L19*
X168041428Y-110320714D02*
X168041428Y-110706428D01*
X167231428Y-110706428D01*
X168041428Y-109626428D02*
X168041428Y-110089285D01*
X168041428Y-109857857D02*
X167231428Y-109857857D01*
X167347142Y-109935000D01*
X167424285Y-110012142D01*
X167462857Y-110089285D01*
X168041428Y-109240714D02*
X168041428Y-109086428D01*
X168002857Y-109009285D01*
X167964285Y-108970714D01*
X167848571Y-108893571D01*
X167694285Y-108855000D01*
X167385714Y-108855000D01*
X167308571Y-108893571D01*
X167270000Y-108932142D01*
X167231428Y-109009285D01*
X167231428Y-109163571D01*
X167270000Y-109240714D01*
X167308571Y-109279285D01*
X167385714Y-109317857D01*
X167578571Y-109317857D01*
X167655714Y-109279285D01*
X167694285Y-109240714D01*
X167732857Y-109163571D01*
X167732857Y-109009285D01*
X167694285Y-108932142D01*
X167655714Y-108893571D01*
X167578571Y-108855000D01*
G04 #@! TO.C,L20*
X168091428Y-112970714D02*
X168091428Y-113356428D01*
X167281428Y-113356428D01*
X167358571Y-112739285D02*
X167320000Y-112700714D01*
X167281428Y-112623571D01*
X167281428Y-112430714D01*
X167320000Y-112353571D01*
X167358571Y-112315000D01*
X167435714Y-112276428D01*
X167512857Y-112276428D01*
X167628571Y-112315000D01*
X168091428Y-112777857D01*
X168091428Y-112276428D01*
X167281428Y-111775000D02*
X167281428Y-111697857D01*
X167320000Y-111620714D01*
X167358571Y-111582142D01*
X167435714Y-111543571D01*
X167590000Y-111505000D01*
X167782857Y-111505000D01*
X167937142Y-111543571D01*
X168014285Y-111582142D01*
X168052857Y-111620714D01*
X168091428Y-111697857D01*
X168091428Y-111775000D01*
X168052857Y-111852142D01*
X168014285Y-111890714D01*
X167937142Y-111929285D01*
X167782857Y-111967857D01*
X167590000Y-111967857D01*
X167435714Y-111929285D01*
X167358571Y-111890714D01*
X167320000Y-111852142D01*
X167281428Y-111775000D01*
G04 #@! TO.C,L22*
X165879285Y-125666428D02*
X165493571Y-125666428D01*
X165493571Y-124856428D01*
X166110714Y-124933571D02*
X166149285Y-124895000D01*
X166226428Y-124856428D01*
X166419285Y-124856428D01*
X166496428Y-124895000D01*
X166535000Y-124933571D01*
X166573571Y-125010714D01*
X166573571Y-125087857D01*
X166535000Y-125203571D01*
X166072142Y-125666428D01*
X166573571Y-125666428D01*
X166882142Y-124933571D02*
X166920714Y-124895000D01*
X166997857Y-124856428D01*
X167190714Y-124856428D01*
X167267857Y-124895000D01*
X167306428Y-124933571D01*
X167345000Y-125010714D01*
X167345000Y-125087857D01*
X167306428Y-125203571D01*
X166843571Y-125666428D01*
X167345000Y-125666428D01*
G04 #@! TO.C,L23*
X143354285Y-134441428D02*
X142968571Y-134441428D01*
X142968571Y-133631428D01*
X143585714Y-133708571D02*
X143624285Y-133670000D01*
X143701428Y-133631428D01*
X143894285Y-133631428D01*
X143971428Y-133670000D01*
X144010000Y-133708571D01*
X144048571Y-133785714D01*
X144048571Y-133862857D01*
X144010000Y-133978571D01*
X143547142Y-134441428D01*
X144048571Y-134441428D01*
X144318571Y-133631428D02*
X144820000Y-133631428D01*
X144550000Y-133940000D01*
X144665714Y-133940000D01*
X144742857Y-133978571D01*
X144781428Y-134017142D01*
X144820000Y-134094285D01*
X144820000Y-134287142D01*
X144781428Y-134364285D01*
X144742857Y-134402857D01*
X144665714Y-134441428D01*
X144434285Y-134441428D01*
X144357142Y-134402857D01*
X144318571Y-134364285D01*
G04 #@! TO.C,R1*
X140841428Y-101935000D02*
X140455714Y-102205000D01*
X140841428Y-102397857D02*
X140031428Y-102397857D01*
X140031428Y-102089285D01*
X140070000Y-102012142D01*
X140108571Y-101973571D01*
X140185714Y-101935000D01*
X140301428Y-101935000D01*
X140378571Y-101973571D01*
X140417142Y-102012142D01*
X140455714Y-102089285D01*
X140455714Y-102397857D01*
X140841428Y-101163571D02*
X140841428Y-101626428D01*
X140841428Y-101395000D02*
X140031428Y-101395000D01*
X140147142Y-101472142D01*
X140224285Y-101549285D01*
X140262857Y-101626428D01*
G04 #@! TO.C,R2*
X144721200Y-102775428D02*
X144451200Y-102389714D01*
X144258342Y-102775428D02*
X144258342Y-101965428D01*
X144566914Y-101965428D01*
X144644057Y-102004000D01*
X144682628Y-102042571D01*
X144721200Y-102119714D01*
X144721200Y-102235428D01*
X144682628Y-102312571D01*
X144644057Y-102351142D01*
X144566914Y-102389714D01*
X144258342Y-102389714D01*
X145029771Y-102042571D02*
X145068342Y-102004000D01*
X145145485Y-101965428D01*
X145338342Y-101965428D01*
X145415485Y-102004000D01*
X145454057Y-102042571D01*
X145492628Y-102119714D01*
X145492628Y-102196857D01*
X145454057Y-102312571D01*
X144991200Y-102775428D01*
X145492628Y-102775428D01*
G04 #@! TO.C,R4*
X142765000Y-105216428D02*
X142495000Y-104830714D01*
X142302142Y-105216428D02*
X142302142Y-104406428D01*
X142610714Y-104406428D01*
X142687857Y-104445000D01*
X142726428Y-104483571D01*
X142765000Y-104560714D01*
X142765000Y-104676428D01*
X142726428Y-104753571D01*
X142687857Y-104792142D01*
X142610714Y-104830714D01*
X142302142Y-104830714D01*
X143459285Y-104676428D02*
X143459285Y-105216428D01*
X143266428Y-104367857D02*
X143073571Y-104946428D01*
X143575000Y-104946428D01*
G04 #@! TO.C,R5*
X143065000Y-107716428D02*
X142795000Y-107330714D01*
X142602142Y-107716428D02*
X142602142Y-106906428D01*
X142910714Y-106906428D01*
X142987857Y-106945000D01*
X143026428Y-106983571D01*
X143065000Y-107060714D01*
X143065000Y-107176428D01*
X143026428Y-107253571D01*
X142987857Y-107292142D01*
X142910714Y-107330714D01*
X142602142Y-107330714D01*
X143797857Y-106906428D02*
X143412142Y-106906428D01*
X143373571Y-107292142D01*
X143412142Y-107253571D01*
X143489285Y-107215000D01*
X143682142Y-107215000D01*
X143759285Y-107253571D01*
X143797857Y-107292142D01*
X143836428Y-107369285D01*
X143836428Y-107562142D01*
X143797857Y-107639285D01*
X143759285Y-107677857D01*
X143682142Y-107716428D01*
X143489285Y-107716428D01*
X143412142Y-107677857D01*
X143373571Y-107639285D01*
G04 #@! TO.C,R8*
X139415000Y-105641428D02*
X139145000Y-105255714D01*
X138952142Y-105641428D02*
X138952142Y-104831428D01*
X139260714Y-104831428D01*
X139337857Y-104870000D01*
X139376428Y-104908571D01*
X139415000Y-104985714D01*
X139415000Y-105101428D01*
X139376428Y-105178571D01*
X139337857Y-105217142D01*
X139260714Y-105255714D01*
X138952142Y-105255714D01*
X139877857Y-105178571D02*
X139800714Y-105140000D01*
X139762142Y-105101428D01*
X139723571Y-105024285D01*
X139723571Y-104985714D01*
X139762142Y-104908571D01*
X139800714Y-104870000D01*
X139877857Y-104831428D01*
X140032142Y-104831428D01*
X140109285Y-104870000D01*
X140147857Y-104908571D01*
X140186428Y-104985714D01*
X140186428Y-105024285D01*
X140147857Y-105101428D01*
X140109285Y-105140000D01*
X140032142Y-105178571D01*
X139877857Y-105178571D01*
X139800714Y-105217142D01*
X139762142Y-105255714D01*
X139723571Y-105332857D01*
X139723571Y-105487142D01*
X139762142Y-105564285D01*
X139800714Y-105602857D01*
X139877857Y-105641428D01*
X140032142Y-105641428D01*
X140109285Y-105602857D01*
X140147857Y-105564285D01*
X140186428Y-105487142D01*
X140186428Y-105332857D01*
X140147857Y-105255714D01*
X140109285Y-105217142D01*
X140032142Y-105178571D01*
G04 #@! TO.C,R11*
X161204285Y-116656428D02*
X160934285Y-116270714D01*
X160741428Y-116656428D02*
X160741428Y-115846428D01*
X161050000Y-115846428D01*
X161127142Y-115885000D01*
X161165714Y-115923571D01*
X161204285Y-116000714D01*
X161204285Y-116116428D01*
X161165714Y-116193571D01*
X161127142Y-116232142D01*
X161050000Y-116270714D01*
X160741428Y-116270714D01*
X161975714Y-116656428D02*
X161512857Y-116656428D01*
X161744285Y-116656428D02*
X161744285Y-115846428D01*
X161667142Y-115962142D01*
X161590000Y-116039285D01*
X161512857Y-116077857D01*
X162747142Y-116656428D02*
X162284285Y-116656428D01*
X162515714Y-116656428D02*
X162515714Y-115846428D01*
X162438571Y-115962142D01*
X162361428Y-116039285D01*
X162284285Y-116077857D01*
G04 #@! TO.C,R12*
X161204285Y-115396428D02*
X160934285Y-115010714D01*
X160741428Y-115396428D02*
X160741428Y-114586428D01*
X161050000Y-114586428D01*
X161127142Y-114625000D01*
X161165714Y-114663571D01*
X161204285Y-114740714D01*
X161204285Y-114856428D01*
X161165714Y-114933571D01*
X161127142Y-114972142D01*
X161050000Y-115010714D01*
X160741428Y-115010714D01*
X161975714Y-115396428D02*
X161512857Y-115396428D01*
X161744285Y-115396428D02*
X161744285Y-114586428D01*
X161667142Y-114702142D01*
X161590000Y-114779285D01*
X161512857Y-114817857D01*
X162284285Y-114663571D02*
X162322857Y-114625000D01*
X162400000Y-114586428D01*
X162592857Y-114586428D01*
X162670000Y-114625000D01*
X162708571Y-114663571D01*
X162747142Y-114740714D01*
X162747142Y-114817857D01*
X162708571Y-114933571D01*
X162245714Y-115396428D01*
X162747142Y-115396428D01*
G04 #@! TO.C,R15*
X156541428Y-108670714D02*
X156155714Y-108940714D01*
X156541428Y-109133571D02*
X155731428Y-109133571D01*
X155731428Y-108825000D01*
X155770000Y-108747857D01*
X155808571Y-108709285D01*
X155885714Y-108670714D01*
X156001428Y-108670714D01*
X156078571Y-108709285D01*
X156117142Y-108747857D01*
X156155714Y-108825000D01*
X156155714Y-109133571D01*
X156541428Y-107899285D02*
X156541428Y-108362142D01*
X156541428Y-108130714D02*
X155731428Y-108130714D01*
X155847142Y-108207857D01*
X155924285Y-108285000D01*
X155962857Y-108362142D01*
X155731428Y-107166428D02*
X155731428Y-107552142D01*
X156117142Y-107590714D01*
X156078571Y-107552142D01*
X156040000Y-107475000D01*
X156040000Y-107282142D01*
X156078571Y-107205000D01*
X156117142Y-107166428D01*
X156194285Y-107127857D01*
X156387142Y-107127857D01*
X156464285Y-107166428D01*
X156502857Y-107205000D01*
X156541428Y-107282142D01*
X156541428Y-107475000D01*
X156502857Y-107552142D01*
X156464285Y-107590714D01*
G04 #@! TO.C,R16*
X157841428Y-108770714D02*
X157455714Y-109040714D01*
X157841428Y-109233571D02*
X157031428Y-109233571D01*
X157031428Y-108925000D01*
X157070000Y-108847857D01*
X157108571Y-108809285D01*
X157185714Y-108770714D01*
X157301428Y-108770714D01*
X157378571Y-108809285D01*
X157417142Y-108847857D01*
X157455714Y-108925000D01*
X157455714Y-109233571D01*
X157841428Y-107999285D02*
X157841428Y-108462142D01*
X157841428Y-108230714D02*
X157031428Y-108230714D01*
X157147142Y-108307857D01*
X157224285Y-108385000D01*
X157262857Y-108462142D01*
X157031428Y-107305000D02*
X157031428Y-107459285D01*
X157070000Y-107536428D01*
X157108571Y-107575000D01*
X157224285Y-107652142D01*
X157378571Y-107690714D01*
X157687142Y-107690714D01*
X157764285Y-107652142D01*
X157802857Y-107613571D01*
X157841428Y-107536428D01*
X157841428Y-107382142D01*
X157802857Y-107305000D01*
X157764285Y-107266428D01*
X157687142Y-107227857D01*
X157494285Y-107227857D01*
X157417142Y-107266428D01*
X157378571Y-107305000D01*
X157340000Y-107382142D01*
X157340000Y-107536428D01*
X157378571Y-107613571D01*
X157417142Y-107652142D01*
X157494285Y-107690714D01*
G04 #@! TO.C,R18*
X159191428Y-104620714D02*
X158805714Y-104890714D01*
X159191428Y-105083571D02*
X158381428Y-105083571D01*
X158381428Y-104775000D01*
X158420000Y-104697857D01*
X158458571Y-104659285D01*
X158535714Y-104620714D01*
X158651428Y-104620714D01*
X158728571Y-104659285D01*
X158767142Y-104697857D01*
X158805714Y-104775000D01*
X158805714Y-105083571D01*
X159191428Y-103849285D02*
X159191428Y-104312142D01*
X159191428Y-104080714D02*
X158381428Y-104080714D01*
X158497142Y-104157857D01*
X158574285Y-104235000D01*
X158612857Y-104312142D01*
X158728571Y-103386428D02*
X158690000Y-103463571D01*
X158651428Y-103502142D01*
X158574285Y-103540714D01*
X158535714Y-103540714D01*
X158458571Y-103502142D01*
X158420000Y-103463571D01*
X158381428Y-103386428D01*
X158381428Y-103232142D01*
X158420000Y-103155000D01*
X158458571Y-103116428D01*
X158535714Y-103077857D01*
X158574285Y-103077857D01*
X158651428Y-103116428D01*
X158690000Y-103155000D01*
X158728571Y-103232142D01*
X158728571Y-103386428D01*
X158767142Y-103463571D01*
X158805714Y-103502142D01*
X158882857Y-103540714D01*
X159037142Y-103540714D01*
X159114285Y-103502142D01*
X159152857Y-103463571D01*
X159191428Y-103386428D01*
X159191428Y-103232142D01*
X159152857Y-103155000D01*
X159114285Y-103116428D01*
X159037142Y-103077857D01*
X158882857Y-103077857D01*
X158805714Y-103116428D01*
X158767142Y-103155000D01*
X158728571Y-103232142D01*
G04 #@! TO.C,R20*
X160491428Y-104670714D02*
X160105714Y-104940714D01*
X160491428Y-105133571D02*
X159681428Y-105133571D01*
X159681428Y-104825000D01*
X159720000Y-104747857D01*
X159758571Y-104709285D01*
X159835714Y-104670714D01*
X159951428Y-104670714D01*
X160028571Y-104709285D01*
X160067142Y-104747857D01*
X160105714Y-104825000D01*
X160105714Y-105133571D01*
X159758571Y-104362142D02*
X159720000Y-104323571D01*
X159681428Y-104246428D01*
X159681428Y-104053571D01*
X159720000Y-103976428D01*
X159758571Y-103937857D01*
X159835714Y-103899285D01*
X159912857Y-103899285D01*
X160028571Y-103937857D01*
X160491428Y-104400714D01*
X160491428Y-103899285D01*
X159681428Y-103397857D02*
X159681428Y-103320714D01*
X159720000Y-103243571D01*
X159758571Y-103205000D01*
X159835714Y-103166428D01*
X159990000Y-103127857D01*
X160182857Y-103127857D01*
X160337142Y-103166428D01*
X160414285Y-103205000D01*
X160452857Y-103243571D01*
X160491428Y-103320714D01*
X160491428Y-103397857D01*
X160452857Y-103475000D01*
X160414285Y-103513571D01*
X160337142Y-103552142D01*
X160182857Y-103590714D01*
X159990000Y-103590714D01*
X159835714Y-103552142D01*
X159758571Y-103513571D01*
X159720000Y-103475000D01*
X159681428Y-103397857D01*
G04 #@! TO.C,R22*
X161229285Y-109016428D02*
X160959285Y-108630714D01*
X160766428Y-109016428D02*
X160766428Y-108206428D01*
X161075000Y-108206428D01*
X161152142Y-108245000D01*
X161190714Y-108283571D01*
X161229285Y-108360714D01*
X161229285Y-108476428D01*
X161190714Y-108553571D01*
X161152142Y-108592142D01*
X161075000Y-108630714D01*
X160766428Y-108630714D01*
X161537857Y-108283571D02*
X161576428Y-108245000D01*
X161653571Y-108206428D01*
X161846428Y-108206428D01*
X161923571Y-108245000D01*
X161962142Y-108283571D01*
X162000714Y-108360714D01*
X162000714Y-108437857D01*
X161962142Y-108553571D01*
X161499285Y-109016428D01*
X162000714Y-109016428D01*
X162309285Y-108283571D02*
X162347857Y-108245000D01*
X162425000Y-108206428D01*
X162617857Y-108206428D01*
X162695000Y-108245000D01*
X162733571Y-108283571D01*
X162772142Y-108360714D01*
X162772142Y-108437857D01*
X162733571Y-108553571D01*
X162270714Y-109016428D01*
X162772142Y-109016428D01*
G04 #@! TO.C,R24*
X161379285Y-106541428D02*
X161109285Y-106155714D01*
X160916428Y-106541428D02*
X160916428Y-105731428D01*
X161225000Y-105731428D01*
X161302142Y-105770000D01*
X161340714Y-105808571D01*
X161379285Y-105885714D01*
X161379285Y-106001428D01*
X161340714Y-106078571D01*
X161302142Y-106117142D01*
X161225000Y-106155714D01*
X160916428Y-106155714D01*
X161687857Y-105808571D02*
X161726428Y-105770000D01*
X161803571Y-105731428D01*
X161996428Y-105731428D01*
X162073571Y-105770000D01*
X162112142Y-105808571D01*
X162150714Y-105885714D01*
X162150714Y-105962857D01*
X162112142Y-106078571D01*
X161649285Y-106541428D01*
X162150714Y-106541428D01*
X162845000Y-106001428D02*
X162845000Y-106541428D01*
X162652142Y-105692857D02*
X162459285Y-106271428D01*
X162960714Y-106271428D01*
G04 #@! TO.C,R25*
X161204285Y-117916428D02*
X160934285Y-117530714D01*
X160741428Y-117916428D02*
X160741428Y-117106428D01*
X161050000Y-117106428D01*
X161127142Y-117145000D01*
X161165714Y-117183571D01*
X161204285Y-117260714D01*
X161204285Y-117376428D01*
X161165714Y-117453571D01*
X161127142Y-117492142D01*
X161050000Y-117530714D01*
X160741428Y-117530714D01*
X161512857Y-117183571D02*
X161551428Y-117145000D01*
X161628571Y-117106428D01*
X161821428Y-117106428D01*
X161898571Y-117145000D01*
X161937142Y-117183571D01*
X161975714Y-117260714D01*
X161975714Y-117337857D01*
X161937142Y-117453571D01*
X161474285Y-117916428D01*
X161975714Y-117916428D01*
X162708571Y-117106428D02*
X162322857Y-117106428D01*
X162284285Y-117492142D01*
X162322857Y-117453571D01*
X162400000Y-117415000D01*
X162592857Y-117415000D01*
X162670000Y-117453571D01*
X162708571Y-117492142D01*
X162747142Y-117569285D01*
X162747142Y-117762142D01*
X162708571Y-117839285D01*
X162670000Y-117877857D01*
X162592857Y-117916428D01*
X162400000Y-117916428D01*
X162322857Y-117877857D01*
X162284285Y-117839285D01*
G04 #@! TO.C,R27*
X161204285Y-111616428D02*
X160934285Y-111230714D01*
X160741428Y-111616428D02*
X160741428Y-110806428D01*
X161050000Y-110806428D01*
X161127142Y-110845000D01*
X161165714Y-110883571D01*
X161204285Y-110960714D01*
X161204285Y-111076428D01*
X161165714Y-111153571D01*
X161127142Y-111192142D01*
X161050000Y-111230714D01*
X160741428Y-111230714D01*
X161512857Y-110883571D02*
X161551428Y-110845000D01*
X161628571Y-110806428D01*
X161821428Y-110806428D01*
X161898571Y-110845000D01*
X161937142Y-110883571D01*
X161975714Y-110960714D01*
X161975714Y-111037857D01*
X161937142Y-111153571D01*
X161474285Y-111616428D01*
X161975714Y-111616428D01*
X162245714Y-110806428D02*
X162785714Y-110806428D01*
X162438571Y-111616428D01*
G04 #@! TO.C,R29*
X161204285Y-112876428D02*
X160934285Y-112490714D01*
X160741428Y-112876428D02*
X160741428Y-112066428D01*
X161050000Y-112066428D01*
X161127142Y-112105000D01*
X161165714Y-112143571D01*
X161204285Y-112220714D01*
X161204285Y-112336428D01*
X161165714Y-112413571D01*
X161127142Y-112452142D01*
X161050000Y-112490714D01*
X160741428Y-112490714D01*
X161512857Y-112143571D02*
X161551428Y-112105000D01*
X161628571Y-112066428D01*
X161821428Y-112066428D01*
X161898571Y-112105000D01*
X161937142Y-112143571D01*
X161975714Y-112220714D01*
X161975714Y-112297857D01*
X161937142Y-112413571D01*
X161474285Y-112876428D01*
X161975714Y-112876428D01*
X162361428Y-112876428D02*
X162515714Y-112876428D01*
X162592857Y-112837857D01*
X162631428Y-112799285D01*
X162708571Y-112683571D01*
X162747142Y-112529285D01*
X162747142Y-112220714D01*
X162708571Y-112143571D01*
X162670000Y-112105000D01*
X162592857Y-112066428D01*
X162438571Y-112066428D01*
X162361428Y-112105000D01*
X162322857Y-112143571D01*
X162284285Y-112220714D01*
X162284285Y-112413571D01*
X162322857Y-112490714D01*
X162361428Y-112529285D01*
X162438571Y-112567857D01*
X162592857Y-112567857D01*
X162670000Y-112529285D01*
X162708571Y-112490714D01*
X162747142Y-112413571D01*
G04 #@! TO.C,R30*
X161204285Y-107766428D02*
X160934285Y-107380714D01*
X160741428Y-107766428D02*
X160741428Y-106956428D01*
X161050000Y-106956428D01*
X161127142Y-106995000D01*
X161165714Y-107033571D01*
X161204285Y-107110714D01*
X161204285Y-107226428D01*
X161165714Y-107303571D01*
X161127142Y-107342142D01*
X161050000Y-107380714D01*
X160741428Y-107380714D01*
X161474285Y-106956428D02*
X161975714Y-106956428D01*
X161705714Y-107265000D01*
X161821428Y-107265000D01*
X161898571Y-107303571D01*
X161937142Y-107342142D01*
X161975714Y-107419285D01*
X161975714Y-107612142D01*
X161937142Y-107689285D01*
X161898571Y-107727857D01*
X161821428Y-107766428D01*
X161590000Y-107766428D01*
X161512857Y-107727857D01*
X161474285Y-107689285D01*
X162477142Y-106956428D02*
X162554285Y-106956428D01*
X162631428Y-106995000D01*
X162670000Y-107033571D01*
X162708571Y-107110714D01*
X162747142Y-107265000D01*
X162747142Y-107457857D01*
X162708571Y-107612142D01*
X162670000Y-107689285D01*
X162631428Y-107727857D01*
X162554285Y-107766428D01*
X162477142Y-107766428D01*
X162400000Y-107727857D01*
X162361428Y-107689285D01*
X162322857Y-107612142D01*
X162284285Y-107457857D01*
X162284285Y-107265000D01*
X162322857Y-107110714D01*
X162361428Y-107033571D01*
X162400000Y-106995000D01*
X162477142Y-106956428D01*
G04 #@! TO.C,R33*
X161204285Y-114136428D02*
X160934285Y-113750714D01*
X160741428Y-114136428D02*
X160741428Y-113326428D01*
X161050000Y-113326428D01*
X161127142Y-113365000D01*
X161165714Y-113403571D01*
X161204285Y-113480714D01*
X161204285Y-113596428D01*
X161165714Y-113673571D01*
X161127142Y-113712142D01*
X161050000Y-113750714D01*
X160741428Y-113750714D01*
X161474285Y-113326428D02*
X161975714Y-113326428D01*
X161705714Y-113635000D01*
X161821428Y-113635000D01*
X161898571Y-113673571D01*
X161937142Y-113712142D01*
X161975714Y-113789285D01*
X161975714Y-113982142D01*
X161937142Y-114059285D01*
X161898571Y-114097857D01*
X161821428Y-114136428D01*
X161590000Y-114136428D01*
X161512857Y-114097857D01*
X161474285Y-114059285D01*
X162245714Y-113326428D02*
X162747142Y-113326428D01*
X162477142Y-113635000D01*
X162592857Y-113635000D01*
X162670000Y-113673571D01*
X162708571Y-113712142D01*
X162747142Y-113789285D01*
X162747142Y-113982142D01*
X162708571Y-114059285D01*
X162670000Y-114097857D01*
X162592857Y-114136428D01*
X162361428Y-114136428D01*
X162284285Y-114097857D01*
X162245714Y-114059285D01*
G04 #@! TO.C,R34*
X162766428Y-120595714D02*
X162380714Y-120865714D01*
X162766428Y-121058571D02*
X161956428Y-121058571D01*
X161956428Y-120750000D01*
X161995000Y-120672857D01*
X162033571Y-120634285D01*
X162110714Y-120595714D01*
X162226428Y-120595714D01*
X162303571Y-120634285D01*
X162342142Y-120672857D01*
X162380714Y-120750000D01*
X162380714Y-121058571D01*
X161956428Y-120325714D02*
X161956428Y-119824285D01*
X162265000Y-120094285D01*
X162265000Y-119978571D01*
X162303571Y-119901428D01*
X162342142Y-119862857D01*
X162419285Y-119824285D01*
X162612142Y-119824285D01*
X162689285Y-119862857D01*
X162727857Y-119901428D01*
X162766428Y-119978571D01*
X162766428Y-120210000D01*
X162727857Y-120287142D01*
X162689285Y-120325714D01*
X162226428Y-119130000D02*
X162766428Y-119130000D01*
X161917857Y-119322857D02*
X162496428Y-119515714D01*
X162496428Y-119014285D01*
G04 #@! TO.C,R36*
X161154285Y-110291428D02*
X160884285Y-109905714D01*
X160691428Y-110291428D02*
X160691428Y-109481428D01*
X161000000Y-109481428D01*
X161077142Y-109520000D01*
X161115714Y-109558571D01*
X161154285Y-109635714D01*
X161154285Y-109751428D01*
X161115714Y-109828571D01*
X161077142Y-109867142D01*
X161000000Y-109905714D01*
X160691428Y-109905714D01*
X161424285Y-109481428D02*
X161925714Y-109481428D01*
X161655714Y-109790000D01*
X161771428Y-109790000D01*
X161848571Y-109828571D01*
X161887142Y-109867142D01*
X161925714Y-109944285D01*
X161925714Y-110137142D01*
X161887142Y-110214285D01*
X161848571Y-110252857D01*
X161771428Y-110291428D01*
X161540000Y-110291428D01*
X161462857Y-110252857D01*
X161424285Y-110214285D01*
X162620000Y-109481428D02*
X162465714Y-109481428D01*
X162388571Y-109520000D01*
X162350000Y-109558571D01*
X162272857Y-109674285D01*
X162234285Y-109828571D01*
X162234285Y-110137142D01*
X162272857Y-110214285D01*
X162311428Y-110252857D01*
X162388571Y-110291428D01*
X162542857Y-110291428D01*
X162620000Y-110252857D01*
X162658571Y-110214285D01*
X162697142Y-110137142D01*
X162697142Y-109944285D01*
X162658571Y-109867142D01*
X162620000Y-109828571D01*
X162542857Y-109790000D01*
X162388571Y-109790000D01*
X162311428Y-109828571D01*
X162272857Y-109867142D01*
X162234285Y-109944285D01*
G04 #@! TO.C,U2*
X149782857Y-130456428D02*
X149782857Y-131112142D01*
X149821428Y-131189285D01*
X149860000Y-131227857D01*
X149937142Y-131266428D01*
X150091428Y-131266428D01*
X150168571Y-131227857D01*
X150207142Y-131189285D01*
X150245714Y-131112142D01*
X150245714Y-130456428D01*
X150592857Y-130533571D02*
X150631428Y-130495000D01*
X150708571Y-130456428D01*
X150901428Y-130456428D01*
X150978571Y-130495000D01*
X151017142Y-130533571D01*
X151055714Y-130610714D01*
X151055714Y-130687857D01*
X151017142Y-130803571D01*
X150554285Y-131266428D01*
X151055714Y-131266428D01*
G04 #@! TO.C,D11*
X147216428Y-96441428D02*
X147216428Y-95631428D01*
X147409285Y-95631428D01*
X147525000Y-95670000D01*
X147602142Y-95747142D01*
X147640714Y-95824285D01*
X147679285Y-95978571D01*
X147679285Y-96094285D01*
X147640714Y-96248571D01*
X147602142Y-96325714D01*
X147525000Y-96402857D01*
X147409285Y-96441428D01*
X147216428Y-96441428D01*
X148450714Y-96441428D02*
X147987857Y-96441428D01*
X148219285Y-96441428D02*
X148219285Y-95631428D01*
X148142142Y-95747142D01*
X148065000Y-95824285D01*
X147987857Y-95862857D01*
X149222142Y-96441428D02*
X148759285Y-96441428D01*
X148990714Y-96441428D02*
X148990714Y-95631428D01*
X148913571Y-95747142D01*
X148836428Y-95824285D01*
X148759285Y-95862857D01*
G04 #@! TO.C,R37*
X148066428Y-98526714D02*
X147680714Y-98796714D01*
X148066428Y-98989571D02*
X147256428Y-98989571D01*
X147256428Y-98681000D01*
X147295000Y-98603857D01*
X147333571Y-98565285D01*
X147410714Y-98526714D01*
X147526428Y-98526714D01*
X147603571Y-98565285D01*
X147642142Y-98603857D01*
X147680714Y-98681000D01*
X147680714Y-98989571D01*
X147256428Y-98256714D02*
X147256428Y-97755285D01*
X147565000Y-98025285D01*
X147565000Y-97909571D01*
X147603571Y-97832428D01*
X147642142Y-97793857D01*
X147719285Y-97755285D01*
X147912142Y-97755285D01*
X147989285Y-97793857D01*
X148027857Y-97832428D01*
X148066428Y-97909571D01*
X148066428Y-98141000D01*
X148027857Y-98218142D01*
X147989285Y-98256714D01*
X147256428Y-97485285D02*
X147256428Y-96945285D01*
X148066428Y-97292428D01*
G04 #@! TO.C,C14*
X151979285Y-124489285D02*
X151940714Y-124527857D01*
X151825000Y-124566428D01*
X151747857Y-124566428D01*
X151632142Y-124527857D01*
X151555000Y-124450714D01*
X151516428Y-124373571D01*
X151477857Y-124219285D01*
X151477857Y-124103571D01*
X151516428Y-123949285D01*
X151555000Y-123872142D01*
X151632142Y-123795000D01*
X151747857Y-123756428D01*
X151825000Y-123756428D01*
X151940714Y-123795000D01*
X151979285Y-123833571D01*
X152750714Y-124566428D02*
X152287857Y-124566428D01*
X152519285Y-124566428D02*
X152519285Y-123756428D01*
X152442142Y-123872142D01*
X152365000Y-123949285D01*
X152287857Y-123987857D01*
X153445000Y-124026428D02*
X153445000Y-124566428D01*
X153252142Y-123717857D02*
X153059285Y-124296428D01*
X153560714Y-124296428D01*
G04 #@! TO.C,C19*
X144339285Y-125920714D02*
X144377857Y-125959285D01*
X144416428Y-126075000D01*
X144416428Y-126152142D01*
X144377857Y-126267857D01*
X144300714Y-126345000D01*
X144223571Y-126383571D01*
X144069285Y-126422142D01*
X143953571Y-126422142D01*
X143799285Y-126383571D01*
X143722142Y-126345000D01*
X143645000Y-126267857D01*
X143606428Y-126152142D01*
X143606428Y-126075000D01*
X143645000Y-125959285D01*
X143683571Y-125920714D01*
X144416428Y-125149285D02*
X144416428Y-125612142D01*
X144416428Y-125380714D02*
X143606428Y-125380714D01*
X143722142Y-125457857D01*
X143799285Y-125535000D01*
X143837857Y-125612142D01*
X144416428Y-124763571D02*
X144416428Y-124609285D01*
X144377857Y-124532142D01*
X144339285Y-124493571D01*
X144223571Y-124416428D01*
X144069285Y-124377857D01*
X143760714Y-124377857D01*
X143683571Y-124416428D01*
X143645000Y-124455000D01*
X143606428Y-124532142D01*
X143606428Y-124686428D01*
X143645000Y-124763571D01*
X143683571Y-124802142D01*
X143760714Y-124840714D01*
X143953571Y-124840714D01*
X144030714Y-124802142D01*
X144069285Y-124763571D01*
X144107857Y-124686428D01*
X144107857Y-124532142D01*
X144069285Y-124455000D01*
X144030714Y-124416428D01*
X143953571Y-124377857D01*
G04 #@! TO.C,C21*
X144439285Y-136820714D02*
X144477857Y-136859285D01*
X144516428Y-136975000D01*
X144516428Y-137052142D01*
X144477857Y-137167857D01*
X144400714Y-137245000D01*
X144323571Y-137283571D01*
X144169285Y-137322142D01*
X144053571Y-137322142D01*
X143899285Y-137283571D01*
X143822142Y-137245000D01*
X143745000Y-137167857D01*
X143706428Y-137052142D01*
X143706428Y-136975000D01*
X143745000Y-136859285D01*
X143783571Y-136820714D01*
X143783571Y-136512142D02*
X143745000Y-136473571D01*
X143706428Y-136396428D01*
X143706428Y-136203571D01*
X143745000Y-136126428D01*
X143783571Y-136087857D01*
X143860714Y-136049285D01*
X143937857Y-136049285D01*
X144053571Y-136087857D01*
X144516428Y-136550714D01*
X144516428Y-136049285D01*
X144516428Y-135277857D02*
X144516428Y-135740714D01*
X144516428Y-135509285D02*
X143706428Y-135509285D01*
X143822142Y-135586428D01*
X143899285Y-135663571D01*
X143937857Y-135740714D01*
G04 #@! TO.C,C23*
X147214285Y-103995714D02*
X147252857Y-104034285D01*
X147291428Y-104150000D01*
X147291428Y-104227142D01*
X147252857Y-104342857D01*
X147175714Y-104420000D01*
X147098571Y-104458571D01*
X146944285Y-104497142D01*
X146828571Y-104497142D01*
X146674285Y-104458571D01*
X146597142Y-104420000D01*
X146520000Y-104342857D01*
X146481428Y-104227142D01*
X146481428Y-104150000D01*
X146520000Y-104034285D01*
X146558571Y-103995714D01*
X146558571Y-103687142D02*
X146520000Y-103648571D01*
X146481428Y-103571428D01*
X146481428Y-103378571D01*
X146520000Y-103301428D01*
X146558571Y-103262857D01*
X146635714Y-103224285D01*
X146712857Y-103224285D01*
X146828571Y-103262857D01*
X147291428Y-103725714D01*
X147291428Y-103224285D01*
X146481428Y-102954285D02*
X146481428Y-102452857D01*
X146790000Y-102722857D01*
X146790000Y-102607142D01*
X146828571Y-102530000D01*
X146867142Y-102491428D01*
X146944285Y-102452857D01*
X147137142Y-102452857D01*
X147214285Y-102491428D01*
X147252857Y-102530000D01*
X147291428Y-102607142D01*
X147291428Y-102838571D01*
X147252857Y-102915714D01*
X147214285Y-102954285D01*
G04 #@! TO.C,C28*
X152489285Y-128720714D02*
X152527857Y-128759285D01*
X152566428Y-128875000D01*
X152566428Y-128952142D01*
X152527857Y-129067857D01*
X152450714Y-129145000D01*
X152373571Y-129183571D01*
X152219285Y-129222142D01*
X152103571Y-129222142D01*
X151949285Y-129183571D01*
X151872142Y-129145000D01*
X151795000Y-129067857D01*
X151756428Y-128952142D01*
X151756428Y-128875000D01*
X151795000Y-128759285D01*
X151833571Y-128720714D01*
X151833571Y-128412142D02*
X151795000Y-128373571D01*
X151756428Y-128296428D01*
X151756428Y-128103571D01*
X151795000Y-128026428D01*
X151833571Y-127987857D01*
X151910714Y-127949285D01*
X151987857Y-127949285D01*
X152103571Y-127987857D01*
X152566428Y-128450714D01*
X152566428Y-127949285D01*
X152103571Y-127486428D02*
X152065000Y-127563571D01*
X152026428Y-127602142D01*
X151949285Y-127640714D01*
X151910714Y-127640714D01*
X151833571Y-127602142D01*
X151795000Y-127563571D01*
X151756428Y-127486428D01*
X151756428Y-127332142D01*
X151795000Y-127255000D01*
X151833571Y-127216428D01*
X151910714Y-127177857D01*
X151949285Y-127177857D01*
X152026428Y-127216428D01*
X152065000Y-127255000D01*
X152103571Y-127332142D01*
X152103571Y-127486428D01*
X152142142Y-127563571D01*
X152180714Y-127602142D01*
X152257857Y-127640714D01*
X152412142Y-127640714D01*
X152489285Y-127602142D01*
X152527857Y-127563571D01*
X152566428Y-127486428D01*
X152566428Y-127332142D01*
X152527857Y-127255000D01*
X152489285Y-127216428D01*
X152412142Y-127177857D01*
X152257857Y-127177857D01*
X152180714Y-127216428D01*
X152142142Y-127255000D01*
X152103571Y-127332142D01*
G04 #@! TO.C,C29*
X164689285Y-100120714D02*
X164727857Y-100159285D01*
X164766428Y-100275000D01*
X164766428Y-100352142D01*
X164727857Y-100467857D01*
X164650714Y-100545000D01*
X164573571Y-100583571D01*
X164419285Y-100622142D01*
X164303571Y-100622142D01*
X164149285Y-100583571D01*
X164072142Y-100545000D01*
X163995000Y-100467857D01*
X163956428Y-100352142D01*
X163956428Y-100275000D01*
X163995000Y-100159285D01*
X164033571Y-100120714D01*
X164033571Y-99812142D02*
X163995000Y-99773571D01*
X163956428Y-99696428D01*
X163956428Y-99503571D01*
X163995000Y-99426428D01*
X164033571Y-99387857D01*
X164110714Y-99349285D01*
X164187857Y-99349285D01*
X164303571Y-99387857D01*
X164766428Y-99850714D01*
X164766428Y-99349285D01*
X164766428Y-98963571D02*
X164766428Y-98809285D01*
X164727857Y-98732142D01*
X164689285Y-98693571D01*
X164573571Y-98616428D01*
X164419285Y-98577857D01*
X164110714Y-98577857D01*
X164033571Y-98616428D01*
X163995000Y-98655000D01*
X163956428Y-98732142D01*
X163956428Y-98886428D01*
X163995000Y-98963571D01*
X164033571Y-99002142D01*
X164110714Y-99040714D01*
X164303571Y-99040714D01*
X164380714Y-99002142D01*
X164419285Y-98963571D01*
X164457857Y-98886428D01*
X164457857Y-98732142D01*
X164419285Y-98655000D01*
X164380714Y-98616428D01*
X164303571Y-98577857D01*
G04 #@! TO.C,C32*
X154089285Y-110020714D02*
X154127857Y-110059285D01*
X154166428Y-110175000D01*
X154166428Y-110252142D01*
X154127857Y-110367857D01*
X154050714Y-110445000D01*
X153973571Y-110483571D01*
X153819285Y-110522142D01*
X153703571Y-110522142D01*
X153549285Y-110483571D01*
X153472142Y-110445000D01*
X153395000Y-110367857D01*
X153356428Y-110252142D01*
X153356428Y-110175000D01*
X153395000Y-110059285D01*
X153433571Y-110020714D01*
X153356428Y-109750714D02*
X153356428Y-109249285D01*
X153665000Y-109519285D01*
X153665000Y-109403571D01*
X153703571Y-109326428D01*
X153742142Y-109287857D01*
X153819285Y-109249285D01*
X154012142Y-109249285D01*
X154089285Y-109287857D01*
X154127857Y-109326428D01*
X154166428Y-109403571D01*
X154166428Y-109635000D01*
X154127857Y-109712142D01*
X154089285Y-109750714D01*
X153433571Y-108940714D02*
X153395000Y-108902142D01*
X153356428Y-108825000D01*
X153356428Y-108632142D01*
X153395000Y-108555000D01*
X153433571Y-108516428D01*
X153510714Y-108477857D01*
X153587857Y-108477857D01*
X153703571Y-108516428D01*
X154166428Y-108979285D01*
X154166428Y-108477857D01*
G04 #@! TO.C,C33*
X155954285Y-105064285D02*
X155915714Y-105102857D01*
X155800000Y-105141428D01*
X155722857Y-105141428D01*
X155607142Y-105102857D01*
X155530000Y-105025714D01*
X155491428Y-104948571D01*
X155452857Y-104794285D01*
X155452857Y-104678571D01*
X155491428Y-104524285D01*
X155530000Y-104447142D01*
X155607142Y-104370000D01*
X155722857Y-104331428D01*
X155800000Y-104331428D01*
X155915714Y-104370000D01*
X155954285Y-104408571D01*
X156224285Y-104331428D02*
X156725714Y-104331428D01*
X156455714Y-104640000D01*
X156571428Y-104640000D01*
X156648571Y-104678571D01*
X156687142Y-104717142D01*
X156725714Y-104794285D01*
X156725714Y-104987142D01*
X156687142Y-105064285D01*
X156648571Y-105102857D01*
X156571428Y-105141428D01*
X156340000Y-105141428D01*
X156262857Y-105102857D01*
X156224285Y-105064285D01*
X156995714Y-104331428D02*
X157497142Y-104331428D01*
X157227142Y-104640000D01*
X157342857Y-104640000D01*
X157420000Y-104678571D01*
X157458571Y-104717142D01*
X157497142Y-104794285D01*
X157497142Y-104987142D01*
X157458571Y-105064285D01*
X157420000Y-105102857D01*
X157342857Y-105141428D01*
X157111428Y-105141428D01*
X157034285Y-105102857D01*
X156995714Y-105064285D01*
G04 #@! TO.C,J1*
X121330000Y-130756428D02*
X121330000Y-131335000D01*
X121291428Y-131450714D01*
X121214285Y-131527857D01*
X121098571Y-131566428D01*
X121021428Y-131566428D01*
X122140000Y-131566428D02*
X121677142Y-131566428D01*
X121908571Y-131566428D02*
X121908571Y-130756428D01*
X121831428Y-130872142D01*
X121754285Y-130949285D01*
X121677142Y-130987857D01*
G04 #@! TO.C,J3*
X121280000Y-98406428D02*
X121280000Y-98985000D01*
X121241428Y-99100714D01*
X121164285Y-99177857D01*
X121048571Y-99216428D01*
X120971428Y-99216428D01*
X121588571Y-98406428D02*
X122090000Y-98406428D01*
X121820000Y-98715000D01*
X121935714Y-98715000D01*
X122012857Y-98753571D01*
X122051428Y-98792142D01*
X122090000Y-98869285D01*
X122090000Y-99062142D01*
X122051428Y-99139285D01*
X122012857Y-99177857D01*
X121935714Y-99216428D01*
X121704285Y-99216428D01*
X121627142Y-99177857D01*
X121588571Y-99139285D01*
G04 #@! TO.C,J2*
X172755000Y-100796428D02*
X172755000Y-101375000D01*
X172716428Y-101490714D01*
X172639285Y-101567857D01*
X172523571Y-101606428D01*
X172446428Y-101606428D01*
X173102142Y-100873571D02*
X173140714Y-100835000D01*
X173217857Y-100796428D01*
X173410714Y-100796428D01*
X173487857Y-100835000D01*
X173526428Y-100873571D01*
X173565000Y-100950714D01*
X173565000Y-101027857D01*
X173526428Y-101143571D01*
X173063571Y-101606428D01*
X173565000Y-101606428D01*
G04 #@! TO.C,L2*
X168041428Y-122760000D02*
X168041428Y-123145714D01*
X167231428Y-123145714D01*
X167308571Y-122528571D02*
X167270000Y-122490000D01*
X167231428Y-122412857D01*
X167231428Y-122220000D01*
X167270000Y-122142857D01*
X167308571Y-122104285D01*
X167385714Y-122065714D01*
X167462857Y-122065714D01*
X167578571Y-122104285D01*
X168041428Y-122567142D01*
X168041428Y-122065714D01*
G04 #@! TO.C,L4*
X168091428Y-117660000D02*
X168091428Y-118045714D01*
X167281428Y-118045714D01*
X167551428Y-117042857D02*
X168091428Y-117042857D01*
X167242857Y-117235714D02*
X167821428Y-117428571D01*
X167821428Y-116927142D01*
G04 #@! TO.C,L6*
X168016428Y-120235000D02*
X168016428Y-120620714D01*
X167206428Y-120620714D01*
X167206428Y-119617857D02*
X167206428Y-119772142D01*
X167245000Y-119849285D01*
X167283571Y-119887857D01*
X167399285Y-119965000D01*
X167553571Y-120003571D01*
X167862142Y-120003571D01*
X167939285Y-119965000D01*
X167977857Y-119926428D01*
X168016428Y-119849285D01*
X168016428Y-119695000D01*
X167977857Y-119617857D01*
X167939285Y-119579285D01*
X167862142Y-119540714D01*
X167669285Y-119540714D01*
X167592142Y-119579285D01*
X167553571Y-119617857D01*
X167515000Y-119695000D01*
X167515000Y-119849285D01*
X167553571Y-119926428D01*
X167592142Y-119965000D01*
X167669285Y-120003571D01*
G04 #@! TO.C,C38*
X142054285Y-123114285D02*
X142015714Y-123152857D01*
X141900000Y-123191428D01*
X141822857Y-123191428D01*
X141707142Y-123152857D01*
X141630000Y-123075714D01*
X141591428Y-122998571D01*
X141552857Y-122844285D01*
X141552857Y-122728571D01*
X141591428Y-122574285D01*
X141630000Y-122497142D01*
X141707142Y-122420000D01*
X141822857Y-122381428D01*
X141900000Y-122381428D01*
X142015714Y-122420000D01*
X142054285Y-122458571D01*
X142324285Y-122381428D02*
X142825714Y-122381428D01*
X142555714Y-122690000D01*
X142671428Y-122690000D01*
X142748571Y-122728571D01*
X142787142Y-122767142D01*
X142825714Y-122844285D01*
X142825714Y-123037142D01*
X142787142Y-123114285D01*
X142748571Y-123152857D01*
X142671428Y-123191428D01*
X142440000Y-123191428D01*
X142362857Y-123152857D01*
X142324285Y-123114285D01*
X143288571Y-122728571D02*
X143211428Y-122690000D01*
X143172857Y-122651428D01*
X143134285Y-122574285D01*
X143134285Y-122535714D01*
X143172857Y-122458571D01*
X143211428Y-122420000D01*
X143288571Y-122381428D01*
X143442857Y-122381428D01*
X143520000Y-122420000D01*
X143558571Y-122458571D01*
X143597142Y-122535714D01*
X143597142Y-122574285D01*
X143558571Y-122651428D01*
X143520000Y-122690000D01*
X143442857Y-122728571D01*
X143288571Y-122728571D01*
X143211428Y-122767142D01*
X143172857Y-122805714D01*
X143134285Y-122882857D01*
X143134285Y-123037142D01*
X143172857Y-123114285D01*
X143211428Y-123152857D01*
X143288571Y-123191428D01*
X143442857Y-123191428D01*
X143520000Y-123152857D01*
X143558571Y-123114285D01*
X143597142Y-123037142D01*
X143597142Y-122882857D01*
X143558571Y-122805714D01*
X143520000Y-122767142D01*
X143442857Y-122728571D01*
G04 #@! TO.C,C39*
X147679285Y-131139285D02*
X147640714Y-131177857D01*
X147525000Y-131216428D01*
X147447857Y-131216428D01*
X147332142Y-131177857D01*
X147255000Y-131100714D01*
X147216428Y-131023571D01*
X147177857Y-130869285D01*
X147177857Y-130753571D01*
X147216428Y-130599285D01*
X147255000Y-130522142D01*
X147332142Y-130445000D01*
X147447857Y-130406428D01*
X147525000Y-130406428D01*
X147640714Y-130445000D01*
X147679285Y-130483571D01*
X147949285Y-130406428D02*
X148450714Y-130406428D01*
X148180714Y-130715000D01*
X148296428Y-130715000D01*
X148373571Y-130753571D01*
X148412142Y-130792142D01*
X148450714Y-130869285D01*
X148450714Y-131062142D01*
X148412142Y-131139285D01*
X148373571Y-131177857D01*
X148296428Y-131216428D01*
X148065000Y-131216428D01*
X147987857Y-131177857D01*
X147949285Y-131139285D01*
X148836428Y-131216428D02*
X148990714Y-131216428D01*
X149067857Y-131177857D01*
X149106428Y-131139285D01*
X149183571Y-131023571D01*
X149222142Y-130869285D01*
X149222142Y-130560714D01*
X149183571Y-130483571D01*
X149145000Y-130445000D01*
X149067857Y-130406428D01*
X148913571Y-130406428D01*
X148836428Y-130445000D01*
X148797857Y-130483571D01*
X148759285Y-130560714D01*
X148759285Y-130753571D01*
X148797857Y-130830714D01*
X148836428Y-130869285D01*
X148913571Y-130907857D01*
X149067857Y-130907857D01*
X149145000Y-130869285D01*
X149183571Y-130830714D01*
X149222142Y-130753571D01*
G04 #@! TO.C,D12*
X147616428Y-137391428D02*
X147616428Y-136581428D01*
X147809285Y-136581428D01*
X147925000Y-136620000D01*
X148002142Y-136697142D01*
X148040714Y-136774285D01*
X148079285Y-136928571D01*
X148079285Y-137044285D01*
X148040714Y-137198571D01*
X148002142Y-137275714D01*
X147925000Y-137352857D01*
X147809285Y-137391428D01*
X147616428Y-137391428D01*
X148850714Y-137391428D02*
X148387857Y-137391428D01*
X148619285Y-137391428D02*
X148619285Y-136581428D01*
X148542142Y-136697142D01*
X148465000Y-136774285D01*
X148387857Y-136812857D01*
X149159285Y-136658571D02*
X149197857Y-136620000D01*
X149275000Y-136581428D01*
X149467857Y-136581428D01*
X149545000Y-136620000D01*
X149583571Y-136658571D01*
X149622142Y-136735714D01*
X149622142Y-136812857D01*
X149583571Y-136928571D01*
X149120714Y-137391428D01*
X149622142Y-137391428D01*
G04 #@! TO.C,R38*
X144479285Y-138666428D02*
X144209285Y-138280714D01*
X144016428Y-138666428D02*
X144016428Y-137856428D01*
X144325000Y-137856428D01*
X144402142Y-137895000D01*
X144440714Y-137933571D01*
X144479285Y-138010714D01*
X144479285Y-138126428D01*
X144440714Y-138203571D01*
X144402142Y-138242142D01*
X144325000Y-138280714D01*
X144016428Y-138280714D01*
X144749285Y-137856428D02*
X145250714Y-137856428D01*
X144980714Y-138165000D01*
X145096428Y-138165000D01*
X145173571Y-138203571D01*
X145212142Y-138242142D01*
X145250714Y-138319285D01*
X145250714Y-138512142D01*
X145212142Y-138589285D01*
X145173571Y-138627857D01*
X145096428Y-138666428D01*
X144865000Y-138666428D01*
X144787857Y-138627857D01*
X144749285Y-138589285D01*
X145713571Y-138203571D02*
X145636428Y-138165000D01*
X145597857Y-138126428D01*
X145559285Y-138049285D01*
X145559285Y-138010714D01*
X145597857Y-137933571D01*
X145636428Y-137895000D01*
X145713571Y-137856428D01*
X145867857Y-137856428D01*
X145945000Y-137895000D01*
X145983571Y-137933571D01*
X146022142Y-138010714D01*
X146022142Y-138049285D01*
X145983571Y-138126428D01*
X145945000Y-138165000D01*
X145867857Y-138203571D01*
X145713571Y-138203571D01*
X145636428Y-138242142D01*
X145597857Y-138280714D01*
X145559285Y-138357857D01*
X145559285Y-138512142D01*
X145597857Y-138589285D01*
X145636428Y-138627857D01*
X145713571Y-138666428D01*
X145867857Y-138666428D01*
X145945000Y-138627857D01*
X145983571Y-138589285D01*
X146022142Y-138512142D01*
X146022142Y-138357857D01*
X145983571Y-138280714D01*
X145945000Y-138242142D01*
X145867857Y-138203571D01*
G04 #@! TD*
M02*
