G04 #@! TF.GenerationSoftware,KiCad,Pcbnew,(5.0.1)*
G04 #@! TF.CreationDate,2018-11-27T11:23:15+09:00*
G04 #@! TF.ProjectId,frontend_board,66726F6E74656E645F626F6172642E6B,rev?*
G04 #@! TF.SameCoordinates,Original*
G04 #@! TF.FileFunction,Soldermask,Bot*
G04 #@! TF.FilePolarity,Negative*
%FSLAX46Y46*%
G04 Gerber Fmt 4.6, Leading zero omitted, Abs format (unit mm)*
G04 Created by KiCad (PCBNEW (5.0.1)) date Tue Nov 27 11:23:15 2018*
%MOMM*%
%LPD*%
G01*
G04 APERTURE LIST*
%ADD10C,0.100000*%
G04 APERTURE END LIST*
D10*
G36*
X116050079Y-131538345D02*
X116050082Y-131538346D01*
X116050081Y-131538346D01*
X116705240Y-131809721D01*
X117292205Y-132201919D01*
X117294869Y-132203699D01*
X117796301Y-132705131D01*
X117796303Y-132705134D01*
X118190279Y-133294760D01*
X118421912Y-133853974D01*
X118461655Y-133949921D01*
X118600000Y-134645429D01*
X118600000Y-135354571D01*
X118461655Y-136050079D01*
X118461654Y-136050081D01*
X118190279Y-136705240D01*
X117798081Y-137292205D01*
X117796301Y-137294869D01*
X117294869Y-137796301D01*
X117294866Y-137796303D01*
X116705240Y-138190279D01*
X116146026Y-138421912D01*
X116050079Y-138461655D01*
X115354571Y-138600000D01*
X114645429Y-138600000D01*
X113949921Y-138461655D01*
X113853974Y-138421912D01*
X113294760Y-138190279D01*
X112705134Y-137796303D01*
X112705131Y-137796301D01*
X112203699Y-137294869D01*
X112201919Y-137292205D01*
X111809721Y-136705240D01*
X111538346Y-136050081D01*
X111538345Y-136050079D01*
X111400000Y-135354571D01*
X111400000Y-134645429D01*
X111538345Y-133949921D01*
X111578088Y-133853974D01*
X111809721Y-133294760D01*
X112203697Y-132705134D01*
X112203699Y-132705131D01*
X112705131Y-132203699D01*
X112707795Y-132201919D01*
X113294760Y-131809721D01*
X113949919Y-131538346D01*
X113949918Y-131538346D01*
X113949921Y-131538345D01*
X114645429Y-131400000D01*
X115354571Y-131400000D01*
X116050079Y-131538345D01*
X116050079Y-131538345D01*
G37*
G36*
X176050079Y-131538345D02*
X176050082Y-131538346D01*
X176050081Y-131538346D01*
X176705240Y-131809721D01*
X177292205Y-132201919D01*
X177294869Y-132203699D01*
X177796301Y-132705131D01*
X177796303Y-132705134D01*
X178190279Y-133294760D01*
X178421912Y-133853974D01*
X178461655Y-133949921D01*
X178600000Y-134645429D01*
X178600000Y-135354571D01*
X178461655Y-136050079D01*
X178461654Y-136050081D01*
X178190279Y-136705240D01*
X177798081Y-137292205D01*
X177796301Y-137294869D01*
X177294869Y-137796301D01*
X177294866Y-137796303D01*
X176705240Y-138190279D01*
X176146026Y-138421912D01*
X176050079Y-138461655D01*
X175354571Y-138600000D01*
X174645429Y-138600000D01*
X173949921Y-138461655D01*
X173853974Y-138421912D01*
X173294760Y-138190279D01*
X172705134Y-137796303D01*
X172705131Y-137796301D01*
X172203699Y-137294869D01*
X172201919Y-137292205D01*
X171809721Y-136705240D01*
X171538346Y-136050081D01*
X171538345Y-136050079D01*
X171400000Y-135354571D01*
X171400000Y-134645429D01*
X171538345Y-133949921D01*
X171578088Y-133853974D01*
X171809721Y-133294760D01*
X172203697Y-132705134D01*
X172203699Y-132705131D01*
X172705131Y-132203699D01*
X172707795Y-132201919D01*
X173294760Y-131809721D01*
X173949919Y-131538346D01*
X173949918Y-131538346D01*
X173949921Y-131538345D01*
X174645429Y-131400000D01*
X175354571Y-131400000D01*
X176050079Y-131538345D01*
X176050079Y-131538345D01*
G37*
G36*
X122092514Y-134365363D02*
X122212627Y-134415116D01*
X122320726Y-134487345D01*
X122412655Y-134579274D01*
X122484884Y-134687373D01*
X122534637Y-134807486D01*
X122560000Y-134934994D01*
X122560000Y-135065006D01*
X122534637Y-135192514D01*
X122484884Y-135312627D01*
X122412655Y-135420726D01*
X122320726Y-135512655D01*
X122212627Y-135584884D01*
X122092514Y-135634637D01*
X121965006Y-135660000D01*
X121834994Y-135660000D01*
X121707486Y-135634637D01*
X121587373Y-135584884D01*
X121479274Y-135512655D01*
X121387345Y-135420726D01*
X121315116Y-135312627D01*
X121265363Y-135192514D01*
X121240000Y-135065006D01*
X121240000Y-134934994D01*
X121265363Y-134807486D01*
X121315116Y-134687373D01*
X121387345Y-134579274D01*
X121479274Y-134487345D01*
X121587373Y-134415116D01*
X121707486Y-134365363D01*
X121834994Y-134340000D01*
X121965006Y-134340000D01*
X122092514Y-134365363D01*
X122092514Y-134365363D01*
G37*
G36*
X142234177Y-134557677D02*
X142317892Y-134592352D01*
X142393236Y-134642696D01*
X142457304Y-134706764D01*
X142507648Y-134782108D01*
X142542323Y-134865823D01*
X142560000Y-134954692D01*
X142560000Y-135045308D01*
X142542323Y-135134177D01*
X142507648Y-135217892D01*
X142457304Y-135293236D01*
X142393236Y-135357304D01*
X142317892Y-135407648D01*
X142234177Y-135442323D01*
X142145308Y-135460000D01*
X142054692Y-135460000D01*
X141965823Y-135442323D01*
X141882108Y-135407648D01*
X141806764Y-135357304D01*
X141742696Y-135293236D01*
X141692352Y-135217892D01*
X141657677Y-135134177D01*
X141640000Y-135045308D01*
X141640000Y-134954692D01*
X141657677Y-134865823D01*
X141692352Y-134782108D01*
X141742696Y-134706764D01*
X141806764Y-134642696D01*
X141882108Y-134592352D01*
X141965823Y-134557677D01*
X142054692Y-134540000D01*
X142145308Y-134540000D01*
X142234177Y-134557677D01*
X142234177Y-134557677D01*
G37*
G36*
X115148762Y-114509599D02*
X115241576Y-114548044D01*
X115325106Y-114603857D01*
X115396143Y-114674894D01*
X115451956Y-114758424D01*
X115490401Y-114851238D01*
X115510000Y-114949769D01*
X115510000Y-115050231D01*
X115490401Y-115148762D01*
X115451956Y-115241576D01*
X115396143Y-115325106D01*
X115325106Y-115396143D01*
X115241576Y-115451956D01*
X115148762Y-115490401D01*
X115050231Y-115510000D01*
X114949769Y-115510000D01*
X114851238Y-115490401D01*
X114758424Y-115451956D01*
X114674894Y-115396143D01*
X114603857Y-115325106D01*
X114548044Y-115241576D01*
X114509599Y-115148762D01*
X114490000Y-115050231D01*
X114490000Y-114949769D01*
X114509599Y-114851238D01*
X114548044Y-114758424D01*
X114603857Y-114674894D01*
X114674894Y-114603857D01*
X114758424Y-114548044D01*
X114851238Y-114509599D01*
X114949769Y-114490000D01*
X115050231Y-114490000D01*
X115148762Y-114509599D01*
X115148762Y-114509599D01*
G37*
G36*
X176050079Y-91538345D02*
X176050082Y-91538346D01*
X176050081Y-91538346D01*
X176705240Y-91809721D01*
X177292205Y-92201919D01*
X177294869Y-92203699D01*
X177796301Y-92705131D01*
X177796303Y-92705134D01*
X178190279Y-93294760D01*
X178421912Y-93853974D01*
X178461655Y-93949921D01*
X178600000Y-94645429D01*
X178600000Y-95354571D01*
X178461655Y-96050079D01*
X178461654Y-96050081D01*
X178190279Y-96705240D01*
X177798081Y-97292205D01*
X177796301Y-97294869D01*
X177294869Y-97796301D01*
X177294866Y-97796303D01*
X176705240Y-98190279D01*
X176146026Y-98421912D01*
X176050079Y-98461655D01*
X175354571Y-98600000D01*
X174645429Y-98600000D01*
X173949921Y-98461655D01*
X173853974Y-98421912D01*
X173294760Y-98190279D01*
X172705134Y-97796303D01*
X172705131Y-97796301D01*
X172203699Y-97294869D01*
X172201919Y-97292205D01*
X171809721Y-96705240D01*
X171538346Y-96050081D01*
X171538345Y-96050079D01*
X171400000Y-95354571D01*
X171400000Y-94645429D01*
X171538345Y-93949921D01*
X171578088Y-93853974D01*
X171809721Y-93294760D01*
X172203697Y-92705134D01*
X172203699Y-92705131D01*
X172705131Y-92203699D01*
X172707795Y-92201919D01*
X173294760Y-91809721D01*
X173949919Y-91538346D01*
X173949918Y-91538346D01*
X173949921Y-91538345D01*
X174645429Y-91400000D01*
X175354571Y-91400000D01*
X176050079Y-91538345D01*
X176050079Y-91538345D01*
G37*
G36*
X116050079Y-91538345D02*
X116050082Y-91538346D01*
X116050081Y-91538346D01*
X116705240Y-91809721D01*
X117292205Y-92201919D01*
X117294869Y-92203699D01*
X117796301Y-92705131D01*
X117796303Y-92705134D01*
X118190279Y-93294760D01*
X118421912Y-93853974D01*
X118461655Y-93949921D01*
X118600000Y-94645429D01*
X118600000Y-95354571D01*
X118461655Y-96050079D01*
X118461654Y-96050081D01*
X118190279Y-96705240D01*
X117798081Y-97292205D01*
X117796301Y-97294869D01*
X117294869Y-97796301D01*
X117294866Y-97796303D01*
X116705240Y-98190279D01*
X116146026Y-98421912D01*
X116050079Y-98461655D01*
X115354571Y-98600000D01*
X114645429Y-98600000D01*
X113949921Y-98461655D01*
X113853974Y-98421912D01*
X113294760Y-98190279D01*
X112705134Y-97796303D01*
X112705131Y-97796301D01*
X112203699Y-97294869D01*
X112201919Y-97292205D01*
X111809721Y-96705240D01*
X111538346Y-96050081D01*
X111538345Y-96050079D01*
X111400000Y-95354571D01*
X111400000Y-94645429D01*
X111538345Y-93949921D01*
X111578088Y-93853974D01*
X111809721Y-93294760D01*
X112203697Y-92705134D01*
X112203699Y-92705131D01*
X112705131Y-92203699D01*
X112707795Y-92201919D01*
X113294760Y-91809721D01*
X113949919Y-91538346D01*
X113949918Y-91538346D01*
X113949921Y-91538345D01*
X114645429Y-91400000D01*
X115354571Y-91400000D01*
X116050079Y-91538345D01*
X116050079Y-91538345D01*
G37*
G36*
X142292514Y-94365363D02*
X142412627Y-94415116D01*
X142520726Y-94487345D01*
X142612655Y-94579274D01*
X142684884Y-94687373D01*
X142734637Y-94807486D01*
X142760000Y-94934994D01*
X142760000Y-95065006D01*
X142734637Y-95192514D01*
X142684884Y-95312627D01*
X142612655Y-95420726D01*
X142520726Y-95512655D01*
X142412627Y-95584884D01*
X142292514Y-95634637D01*
X142165006Y-95660000D01*
X142034994Y-95660000D01*
X141907486Y-95634637D01*
X141787373Y-95584884D01*
X141679274Y-95512655D01*
X141587345Y-95420726D01*
X141515116Y-95312627D01*
X141465363Y-95192514D01*
X141440000Y-95065006D01*
X141440000Y-94934994D01*
X141465363Y-94807486D01*
X141515116Y-94687373D01*
X141587345Y-94579274D01*
X141679274Y-94487345D01*
X141787373Y-94415116D01*
X141907486Y-94365363D01*
X142034994Y-94340000D01*
X142165006Y-94340000D01*
X142292514Y-94365363D01*
X142292514Y-94365363D01*
G37*
G36*
X122034177Y-94557677D02*
X122117892Y-94592352D01*
X122193236Y-94642696D01*
X122257304Y-94706764D01*
X122307648Y-94782108D01*
X122342323Y-94865823D01*
X122360000Y-94954692D01*
X122360000Y-95045308D01*
X122342323Y-95134177D01*
X122307648Y-95217892D01*
X122257304Y-95293236D01*
X122193236Y-95357304D01*
X122117892Y-95407648D01*
X122034177Y-95442323D01*
X121945308Y-95460000D01*
X121854692Y-95460000D01*
X121765823Y-95442323D01*
X121682108Y-95407648D01*
X121606764Y-95357304D01*
X121542696Y-95293236D01*
X121492352Y-95217892D01*
X121457677Y-95134177D01*
X121440000Y-95045308D01*
X121440000Y-94954692D01*
X121457677Y-94865823D01*
X121492352Y-94782108D01*
X121542696Y-94706764D01*
X121606764Y-94642696D01*
X121682108Y-94592352D01*
X121765823Y-94557677D01*
X121854692Y-94540000D01*
X121945308Y-94540000D01*
X122034177Y-94557677D01*
X122034177Y-94557677D01*
G37*
M02*
